<svg width="414" height="79" viewBox="0 0 414 79" fill="none" xmlns="http://www.w3.org/2000/svg">
<path d="M409.924 68.411L409.732 51.995C409.732 50.843 410.66 49.915 411.812 49.915C412.964 49.915 413.892 50.843 413.892 51.995L413.572 68.411C413.572 69.563 412.932 70.491 411.78 70.491C410.628 70.491 409.924 69.563 409.924 68.411ZM411.588 72.251C412.74 72.251 413.668 73.179 413.668 74.331V74.683C413.668 75.835 412.74 76.763 411.588 76.763C410.436 76.795 409.508 75.867 409.508 74.715V74.363C409.508 73.211 410.436 72.251 411.588 72.251Z" fill="#F68B1F"/>
<path d="M368.964 58.1067C367.812 58.1067 366.852 57.1467 366.852 55.9627C366.852 54.8107 367.812 53.8507 368.964 53.8507H378.052C378.02 52.8907 378.052 51.8666 378.052 51.0666C378.02 49.8826 378.98 48.9227 380.132 48.9227C381.316 48.8907 382.276 49.8507 382.276 51.0027C382.276 51.7387 382.276 52.7947 382.276 53.8507H386.82C387.972 53.8507 388.932 54.8107 388.932 55.9627C388.932 57.1467 387.972 58.1067 386.82 58.1067H382.276C382.276 59.7706 382.276 61.4027 382.244 62.6187C382.532 63.4827 382.788 64.2507 382.692 65.8187C382.5 69.4667 382.116 71.8667 378.916 77.2427C378.34 78.2667 376.804 78.5547 375.844 77.9146C374.852 77.2746 374.756 75.9626 375.364 74.9706C376.164 73.6266 377.092 72.0907 377.508 71.0667C377.476 71.0667 377.476 71.0667 377.444 71.0667C374.66 71.1947 372.132 68.6667 371.844 65.4027C371.524 61.7547 373.476 59.5787 376.644 59.3547C376.964 59.3547 377.476 59.3227 378.052 59.3547C378.052 58.9707 378.052 58.5226 378.052 58.1067H368.964ZM377.22 66.8427C377.732 66.8107 377.988 65.4347 377.956 63.5467C377.572 63.3547 377.572 63.2907 376.932 63.3227C376.324 63.3547 375.844 63.8987 375.844 64.5707C375.844 65.9787 376.516 66.8427 377.22 66.8427Z" fill="#F68B1F"/>
<path d="M345.951 49.3066C347.135 49.3066 348.095 50.2666 348.095 51.4186C348.095 51.9946 348.095 52.7306 348.095 53.4986H350.623C351.775 53.4986 352.735 54.4266 352.735 55.6106C352.735 56.7626 351.775 57.7226 350.623 57.7226H348.095C348.095 58.2986 348.095 58.8426 348.095 59.4186H350.495C351.679 59.4186 352.607 60.3786 352.607 61.5306C352.607 62.7146 351.679 63.6746 350.495 63.6746H348.095C348.095 64.6666 348.095 65.6266 348.095 66.4906C349.055 66.5866 350.079 66.7146 351.199 66.8746C352.351 67.0346 353.151 68.1226 352.959 69.2746C352.767 70.4266 351.679 71.2266 350.527 71.0346C349.631 70.9066 348.863 70.8106 348.095 70.7466C348.095 70.9706 348.095 72.3786 348.095 72.3786C348.063 75.8666 345.951 77.6906 343.231 77.5306C340.415 77.3706 337.375 74.5546 337.567 70.7786C337.695 68.0906 339.743 66.3306 342.751 66.2986C343.135 66.2986 343.487 66.2986 343.839 66.2986C343.839 65.4986 343.839 64.6026 343.839 63.6746H339.199C338.015 63.6746 337.087 62.7146 337.087 61.5306C337.087 60.3786 338.015 59.4186 339.199 59.4186H343.839C343.839 58.8426 343.839 58.2986 343.839 57.7226H339.167C338.015 57.7226 337.055 56.7626 337.055 55.6106C337.055 54.4266 338.015 53.4986 339.167 53.4986H343.839C343.839 52.7306 343.839 51.9946 343.839 51.4186C343.839 50.2666 344.799 49.3066 345.951 49.3066ZM343.839 72.3466C343.839 72.3466 343.839 70.8106 343.839 70.5546C343.455 70.4906 343.167 70.4586 342.783 70.4586C341.951 70.4586 341.567 70.6506 341.567 71.1626C341.503 72.2826 342.335 73.3066 343.327 73.3066C343.711 73.2746 343.839 73.0186 343.839 72.3466Z" fill="#F68B1F"/>
<path d="M311.203 63.9948C309.027 65.2108 307.203 66.4268 306.563 66.4268C305.347 66.4588 304.515 65.8508 304.291 64.6028C303.779 61.8188 304.035 56.3468 304.355 52.7308C304.451 51.5788 305.539 50.7148 306.723 50.8108C307.875 50.9388 308.771 51.8028 308.611 53.1468C308.355 55.3228 308.131 58.4908 308.227 60.7948L308.995 60.3788C309.987 59.7708 311.331 59.8668 311.939 60.8588C312.547 61.8508 312.195 63.3548 311.203 63.9948ZM316.003 50.1708C317.155 50.1068 318.147 50.9708 318.275 52.1548C318.787 56.6028 318.819 60.3788 318.563 63.1628C318.211 67.4188 315.619 72.3468 311.203 76.8588C310.403 77.6908 308.803 77.7548 307.971 76.9228C307.139 76.0908 307.363 74.7788 308.131 73.8828C311.907 69.6268 314.179 66.0428 314.435 62.8108C314.659 60.2188 314.371 56.3468 314.051 52.3468C313.955 51.1628 314.819 50.2668 316.003 50.1708Z" fill="#F68B1F"/>
<path d="M267.875 76.6349C266.787 76.1869 266.403 74.9389 266.883 73.8509C270.243 67.0669 271.395 64.6349 272.867 60.6989L270.179 60.8909C269.027 60.9869 268.003 60.1549 267.939 59.0029C267.843 57.8189 268.739 56.7949 269.891 56.7309C269.891 56.7309 272.387 56.5069 273.731 56.4109C273.763 55.4829 273.763 54.0109 273.763 52.8589C273.763 52.8269 273.763 52.8269 273.763 52.7949C273.763 51.6429 274.659 50.6829 275.811 50.6509C276.995 50.6509 277.987 51.5789 277.987 52.7629C277.987 53.8509 277.987 55.1629 277.987 56.0909C278.851 56.0589 278.851 56.0269 279.907 56.0269C283.491 55.9309 285.443 57.8829 285.411 62.2669C285.379 66.7149 285.251 71.2269 284.611 75.6109C284.387 77.0189 283.427 77.6909 282.243 77.5629L279.107 77.2749C277.827 76.9229 277.059 76.0909 277.187 74.9389C277.283 73.7549 278.339 72.9549 279.523 73.0829L280.611 73.1789C281.187 70.2029 281.475 66.2349 281.411 62.3309C281.411 60.8909 280.899 60.1229 279.683 60.1549C278.083 60.2189 278.627 60.2189 277.347 60.3469C275.747 65.1789 270.755 75.5469 270.755 75.5469C270.275 76.6349 268.931 77.1149 267.875 76.6349ZM288.611 52.5389C289.635 53.7229 290.819 55.0989 291.907 56.3789C292.675 57.2749 292.547 58.6189 291.619 59.3549C290.723 60.0909 289.379 59.9629 288.643 59.0669C287.587 57.8189 286.435 56.5069 285.475 55.3549C284.707 54.4909 284.771 53.1469 285.635 52.3789C286.531 51.5789 287.843 51.6749 288.611 52.5389Z" fill="#F68B1F"/>
<path d="M235.613 61.531C234.461 61.659 233.405 60.827 233.309 59.643C233.181 58.491 234.045 57.4349 235.229 57.3069C235.229 57.3069 246.045 55.931 249.405 55.963C254.013 56.027 256.733 59.003 256.733 63.035C256.733 68.123 252.093 71.867 245.085 74.171C243.901 74.587 242.397 74.075 242.045 72.795C241.789 71.771 242.365 70.6509 243.901 70.1069C251.005 67.7389 252.541 64.571 252.541 63.035C252.541 61.499 251.485 60.0269 249.533 59.9949C245.437 59.9309 240.989 60.923 235.613 61.531Z" fill="#F68B1F"/>
<path d="M214.782 78.1067C213.63 78.0427 212.67 77.1787 212.67 75.9947V67.0987C212.286 67.0987 211.486 67.0987 211.102 67.0987C211.006 69.0507 210.686 70.0107 209.118 71.9627L204.382 77.4987C203.678 78.4267 202.302 78.6187 201.374 77.9147C200.414 77.1787 200.318 75.8987 201.022 74.9387C201.406 74.4587 204.638 70.9067 205.694 69.5307C206.622 68.3787 206.75 67.9627 206.878 66.9067C206.622 66.8747 206.078 66.8427 206.014 66.8427C204.67 66.7787 203.902 65.8827 203.902 64.7307V51.3547C203.902 50.1707 204.894 49.2427 206.078 49.2427C206.11 49.2427 218.174 49.2427 218.174 49.2427C219.422 49.3387 220.126 50.3947 220.19 51.5467V64.7307C220.19 65.8827 219.39 66.6827 218.046 66.8427C217.534 66.9067 217.31 66.9067 216.894 66.9067V73.9787C217.726 74.0107 218.494 73.9787 219.358 73.9147V73.2107C219.358 72.0587 220.286 71.0987 221.47 71.0987C222.622 71.0987 223.614 72.0587 223.614 73.2107V75.8667C223.614 76.9547 222.814 77.8187 221.758 77.9787C219.134 78.3307 217.022 78.2667 214.782 78.1067ZM208.158 52.8267V54.0427H215.934V52.8267H208.158ZM208.158 57.4667V58.6827L215.934 58.6507V57.4667H208.158ZM208.158 63.2907C210.814 63.4507 212.862 63.4187 215.934 63.2587V62.1387H208.158V63.2907Z" fill="#F68B1F"/>
<path d="M167.104 77.0189C166.048 76.5389 165.632 75.2909 166.112 74.2349C169.472 67.4189 170.656 65.0189 172.096 61.0509L169.408 61.2749C168.256 61.3389 167.232 60.5389 167.168 59.3549C167.104 58.2029 167.968 57.1789 169.152 57.1149C169.152 57.1149 171.616 56.8589 172.96 56.7949C172.992 55.8669 172.992 54.3949 172.992 53.2109C172.992 53.2109 172.992 53.2109 172.992 53.1789C172.992 52.0269 173.888 51.0669 175.04 51.0349C176.224 51.0349 177.248 51.9629 177.248 53.1469C177.248 54.2349 177.216 55.5149 177.216 56.4749C178.112 56.4109 178.08 56.4109 179.136 56.3789C182.752 56.3149 184.672 58.2349 184.672 62.6509C184.64 67.0989 184.48 71.6109 183.84 75.9949C183.648 77.4029 182.656 78.0429 181.504 77.9469L178.336 77.6589C177.056 77.3069 176.32 76.4749 176.416 75.2909C176.544 74.1389 177.6 73.3389 178.752 73.4349L179.872 73.5309C180.416 70.5869 180.736 66.6189 180.672 62.7149C180.64 61.2749 180.16 60.4749 178.912 60.5389C177.312 60.6029 177.856 60.5709 176.576 60.7309C174.976 65.5629 169.984 75.9309 169.984 75.9309C169.536 76.9869 168.192 77.4989 167.104 77.0189ZM187.264 53.1789C188.288 54.3309 189.472 55.7069 190.528 57.0189C191.296 57.9149 191.168 59.2589 190.24 59.9949C189.344 60.7309 188 60.6029 187.264 59.7069C186.208 58.4589 185.088 57.1149 184.096 55.9949C183.328 55.0989 183.424 53.7869 184.288 52.9869C185.152 52.2189 186.496 52.2829 187.264 53.1789ZM188.8 47.9629C189.664 47.9629 190.4 48.6669 190.4 49.5309V51.2909C190.4 52.1869 189.664 52.8909 188.8 52.8909C187.936 52.8909 187.2 52.1869 187.2 51.2909V49.5309C187.2 48.6669 187.936 47.9629 188.8 47.9629ZM192.832 47.9629C193.696 47.9629 194.432 48.6669 194.432 49.5309V51.2909C194.432 52.1869 193.696 52.8909 192.832 52.8909C191.968 52.8909 191.232 52.1869 191.232 51.2909V49.5309C191.232 48.6669 191.968 47.9629 192.832 47.9629Z" fill="#F68B1F"/>
<path d="M159.78 75.8347C159.78 77.2427 158.852 78.0427 157.636 78.0427H157.348C156.548 78.0427 155.94 77.7227 155.364 77.1787L150.468 71.7387L144.868 77.4987C144.068 78.3627 142.692 78.3947 141.828 77.5947C140.996 76.7947 140.964 75.4507 141.764 74.6187L147.588 68.6347C146.788 68.5707 145.892 68.5067 145.348 68.4427C144.356 68.2827 143.556 67.6107 143.556 66.6187V60.8267C143.556 59.8347 144.356 59.0027 145.348 59.0027C145.412 59.0027 148.516 59.0027 148.516 59.0027V58.2667H146.308C145.444 58.2667 144.772 57.4667 144.772 56.4427C144.708 56.4427 144.228 56.7947 144.196 56.7947C143.236 57.3707 142.18 56.9867 141.636 56.3467C141.636 56.3467 141.636 56.3147 141.604 56.3147C141.092 58.3307 140.548 60.4747 140.548 60.4747L142.692 66.6187C143.108 67.8667 142.596 68.6987 141.7 69.1787L139.94 69.9467C139.012 70.2987 137.956 69.6267 137.604 68.6987C137.252 67.7707 137.732 66.7147 138.66 66.3627L138.756 66.3307L137.38 62.3307V76.0587C137.38 77.1467 136.516 78.0107 135.428 78.0107C134.34 78.0107 133.508 77.1467 133.508 76.0587C133.508 76.0587 133.508 60.0587 133.508 52.5387C133.604 51.6427 134.436 50.9067 135.364 50.9067L140.708 50.9387C141.636 50.9387 142.596 51.8987 142.436 53.0827C143.588 52.1867 146.244 50.0747 146.244 50.0747C147.588 49.0507 148.516 48.7627 150.148 48.7627C151.492 48.7627 152.452 48.9867 153.924 49.9787C154.628 50.4587 158.436 53.2427 158.436 53.2427C159.428 54.0107 159.492 55.4507 158.82 56.3787C158.244 57.1467 156.9 57.1787 156.196 56.8587C156.132 56.8267 155.332 56.2507 155.268 56.2187C155.268 56.2827 155.268 56.3787 155.268 56.4427C155.268 57.4347 154.468 58.2667 153.476 58.2667H152.132V59.0027C152.132 59.0027 155.108 59.0027 155.172 59.0027C156.196 59.0027 156.996 59.8347 156.996 60.8267V66.6187C156.996 67.5787 156.388 68.2827 155.332 68.4427C154.852 68.5387 153.764 68.5707 153.188 68.6347L158.116 73.7547C159.076 73.9787 159.78 74.8107 159.78 75.8347ZM137.38 59.4507L138.468 54.5867L137.38 54.5547V59.4507ZM148.516 65.0187V62.6507H147.172V64.9547C147.492 64.9867 148.196 64.9867 148.516 65.0187ZM147.236 54.6187H153.252C152.484 54.0107 151.588 53.4027 151.044 53.0187C150.788 52.8267 150.468 52.7307 150.18 52.7307C149.828 52.7307 149.508 52.8587 149.22 53.0507C148.74 53.4347 147.94 54.0427 147.236 54.6187ZM152.132 62.6507V64.9547C152.42 64.9547 153.092 64.9227 153.38 64.8907V62.6507H152.132Z" fill="#F68B1F"/>
<path d="M101.28 61.0509C100.448 61.8509 99.1039 61.8509 98.2719 61.0189C97.4719 60.1549 97.4719 58.8429 98.3359 58.0109L103.744 52.6989C104.608 51.8669 105.92 51.8669 106.752 52.6989C107.584 53.5309 107.584 54.8749 106.72 55.7069L105.856 56.5709V75.2909C105.856 76.4749 104.896 77.4029 103.744 77.4029C102.56 77.4029 101.632 76.4749 101.632 75.2909V60.6989L101.28 61.0509ZM120.8 48.7309C121.984 48.7309 122.912 49.6909 122.912 50.8429V58.1389C122.912 59.2909 121.984 60.0589 120.8 60.1869C119.328 60.3469 113.984 60.4749 111.648 60.2509C110.464 60.1549 109.536 59.3229 109.536 58.1389V50.8429C109.536 49.5309 110.56 48.6989 111.712 48.7309C117.376 48.7309 115.264 48.7309 120.8 48.7309ZM118.688 56.0909V52.9549H113.76V56.0909C115.2 56.2509 117.408 56.1869 118.688 56.0909ZM123.84 71.1309C124.8 71.3229 125.504 72.2829 125.504 73.2749C125.536 74.4589 124.576 75.4189 123.424 75.4189H122.784C122.304 75.4189 121.472 75.0669 120.896 74.4269L117.888 71.5789V76.2189C117.888 77.3709 116.928 78.3309 115.776 78.3309C114.592 78.3309 113.664 77.3709 113.664 76.2189V71.6109L110.112 74.7149C108.96 75.6429 107.84 75.6429 106.976 74.8429C106.112 74.0749 106.176 72.6669 106.976 71.8029L111.744 67.7389H108.64C107.488 67.7389 106.496 66.8109 106.496 65.6269C106.496 64.4749 107.488 63.5149 108.64 63.5149H113.664V62.6509C113.664 61.4669 114.592 60.5389 115.776 60.5389C116.928 60.5389 117.888 61.4669 117.888 62.6509V63.5149H122.752C123.936 63.5149 124.864 64.4749 124.864 65.6269C124.864 66.8109 123.936 67.7389 122.752 67.7389H119.904L123.84 71.1309Z" fill="#F68B1F"/>
<path d="M66.1751 59.387C65.4711 58.427 65.6631 57.115 66.5911 56.411L74.1431 50.651C75.4871 49.691 77.0871 49.147 78.7511 49.147C80.4471 49.147 82.0791 49.723 83.4231 50.747C85.1511 52.059 88.1591 54.267 90.7191 56.283C91.6471 57.019 91.8071 58.331 91.0711 59.259C90.3351 60.187 89.0231 60.315 88.0951 59.611C87.5831 59.195 87.1031 58.811 86.6231 58.459C86.6551 58.587 86.6551 58.715 86.6551 58.875C86.6551 60.027 85.7271 60.987 84.5431 60.987H80.8951V62.459H84.5111C85.6951 62.459 86.6231 63.419 86.6231 64.571C86.6231 65.755 85.6951 66.683 84.5111 66.683H80.8951V73.563H87.5191C88.7031 73.563 89.6311 74.523 89.6311 75.675C89.6311 76.859 88.7031 77.787 87.5191 77.787H70.0151C68.8311 77.787 67.9031 76.859 67.9031 75.675C67.9031 74.523 68.8311 73.563 70.0151 73.563H76.6711V66.683H72.6391C71.4871 66.683 70.5271 65.755 70.5271 64.571C70.5271 63.419 71.4871 62.459 72.6391 62.459H76.6711V60.987H73.0551C71.9031 60.987 70.9431 60.027 70.9431 58.875C70.9431 58.715 70.9751 58.555 71.0071 58.395C70.2711 58.971 69.5991 59.451 69.1191 59.803C68.1911 60.507 66.8791 60.315 66.1751 59.387ZM77.2471 53.659C76.2871 54.363 74.7191 55.579 73.1511 56.763H84.4151C82.9751 55.675 81.5991 54.651 80.2231 53.627C79.8711 53.371 79.4231 53.211 78.9751 53.243H78.3991C77.9831 53.243 77.5991 53.403 77.2471 53.659ZM74.5271 70.779C74.5271 71.931 73.5991 72.891 72.4151 72.891C71.2631 72.891 70.3031 71.931 70.3031 70.779V69.371C70.3031 68.187 71.2631 67.259 72.4151 67.259C73.5991 67.259 74.5271 68.187 74.5271 69.371V70.779ZM85.0231 67.195C86.2071 67.195 87.1351 68.155 87.1351 69.307V70.715C87.1351 71.899 86.2071 72.827 85.0231 72.827C83.8711 72.827 82.9111 71.899 82.9111 70.715V69.307C82.9111 68.155 83.8711 67.195 85.0231 67.195Z" fill="#F68B1F"/>
<path d="M40.2894 73.7547C38.1454 74.0427 36.8014 74.1067 34.5614 73.7867C33.4734 73.6267 32.6094 72.9227 32.6094 71.8347V55.4507C32.6094 54.3627 33.4734 53.4987 34.5614 53.4987C37.2814 53.4987 37.5374 53.4987 40.0014 53.4987C41.0574 53.4987 41.9534 54.3627 41.9534 55.4507V71.8347C41.9534 72.8267 41.2174 73.6267 40.2894 73.7547ZM36.5134 57.4027V61.5627H38.0494V57.4027H36.5134ZM36.5134 65.4667V70.2027C37.1214 70.2667 37.4414 70.2667 38.0494 70.2027V65.4667H36.5134ZM44.8014 61.2747C43.6174 61.2747 42.6894 60.3467 42.6894 59.1627C42.6894 58.0107 43.6174 57.0507 44.8014 57.0507H48.6734V55.6747H46.2414C45.0894 55.6747 44.1294 54.7147 44.1294 53.5627C44.1294 52.3787 45.0894 51.4187 46.2414 51.4187H48.6734V50.0747C48.6734 48.9227 49.6014 47.9307 50.7854 47.9307C51.9374 47.9307 52.8974 48.9227 52.8974 50.0747V51.4187H55.5214C56.6734 51.4187 57.6334 52.3787 57.6334 53.5627C57.6334 54.7147 56.6734 55.6747 55.5214 55.6747H52.8974V57.0507H56.7694C57.9214 57.0507 58.8814 58.0107 58.8814 59.1627C58.8814 60.3467 57.9214 61.2747 56.7694 61.2747H44.8014ZM57.1214 64.0267C58.3054 64.0267 59.2654 64.9547 59.2654 66.1387C59.2654 67.2907 58.3054 68.2507 57.1214 68.2507H55.7774V76.4107C55.7774 77.5947 54.8174 78.5227 53.6654 78.5227C52.7374 78.5227 51.5534 78.5227 51.5534 78.5227C50.3694 78.5227 49.4414 77.5627 49.4414 76.3787C49.4414 75.2267 50.3694 74.2667 51.5534 74.2667V68.2507H44.0974C42.9134 68.2507 41.9854 67.2907 41.9854 66.1387C41.9854 64.9547 42.9134 64.0267 44.0974 64.0267H51.5534V63.4827C51.5534 62.2987 52.4814 61.4347 53.6654 61.4347C54.8174 61.4347 55.7774 62.2987 55.7774 63.4827V64.0267H57.1214ZM48.0654 72.3467C48.0654 73.4987 47.1054 74.4587 45.9534 74.4587C44.7694 74.4587 43.8414 73.4987 43.8414 72.3467V70.8107C43.8414 69.6587 44.7694 68.6987 45.9534 68.6987C47.1054 68.6987 48.0654 69.6587 48.0654 70.8107V72.3467Z" fill="#F68B1F"/>
<path d="M0.640625 62.1387C0.640625 60.8587 1.66463 59.8667 2.91263 59.8667H21.5046C22.7526 59.8667 23.7766 60.8587 23.7766 62.1387C23.7766 63.3867 22.7526 64.3787 21.5046 64.3787H2.91263C1.66463 64.3787 0.640625 63.3867 0.640625 62.1387Z" fill="#F68B1F"/>
<path d="M346.784 24.3471C350.4 21.1471 352.192 18.8431 352.224 15.0671C352.288 11.5471 349.664 8.89109 345.6 8.9551C340.48 9.0511 337.824 12.3471 337.76 15.9631C337.728 18.0431 338.368 19.5791 339.36 19.6751C340.448 19.7391 341.856 17.1471 342.816 12.5071C343.04 11.3551 343.936 10.5871 345.088 10.7151C346.304 10.8751 347.232 11.9311 346.976 13.0831C346.24 16.7951 344.128 24.1871 339.264 24.2191C336.48 24.2191 333.664 20.9551 333.76 15.8671C333.888 9.7551 338.976 5.17909 345.536 5.05109C352.64 4.9551 356.384 10.2351 356.384 15.1311C356.384 19.3231 354.4 23.6751 349.536 27.6111C348.64 28.3471 347.04 28.2191 346.304 27.3231C345.696 26.5871 345.76 25.2751 346.784 24.3471Z" fill="#F68B1F"/>
<path d="M311.203 15.9948C309.027 17.2108 307.203 18.4268 306.563 18.4268C305.347 18.4588 304.515 17.8508 304.291 16.6028C303.779 13.8188 304.035 8.34682 304.355 4.73082C304.451 3.57882 305.539 2.71482 306.723 2.81082C307.875 2.93882 308.771 3.80282 308.611 5.14682C308.355 7.32282 308.131 10.4908 308.227 12.7948L308.995 12.3788C309.987 11.7708 311.331 11.8668 311.939 12.8588C312.547 13.8508 312.195 15.3548 311.203 15.9948ZM316.003 2.17082C317.155 2.10682 318.147 2.97082 318.275 4.15482C318.787 8.60282 318.819 12.3788 318.563 15.1628C318.211 19.4188 315.619 24.3468 311.203 28.8588C310.403 29.6908 308.803 29.7548 307.971 28.9228C307.139 28.0908 307.363 26.7788 308.131 25.8828C311.907 21.6268 314.179 18.0428 314.435 14.8108C314.659 12.2188 314.371 8.34682 314.051 4.34682C313.955 3.16282 314.819 2.26682 316.003 2.17082Z" fill="#F68B1F"/>
<path d="M269.089 28.7627C267.937 28.5387 267.233 27.4187 267.457 26.2667L270.945 10.5227H269.409C268.225 10.5227 267.297 9.56267 267.297 8.41067C267.297 7.22667 268.225 6.29867 269.409 6.29867H271.873L272.513 3.48267C272.737 2.33067 273.857 1.59467 275.009 1.85067C276.161 2.07466 276.897 3.22667 276.641 4.34667L276.225 6.29867H279.521C280.705 6.29867 281.665 7.22667 281.665 8.41067C281.665 9.56267 280.705 10.5227 279.521 10.5227H275.265L271.617 27.1307C271.361 28.2827 270.241 29.0187 269.089 28.7627ZM287.361 11.1307C288.545 11.1307 289.505 12.0587 289.505 13.2427C289.473 13.6587 289.345 14.0427 289.121 14.5547L286.817 18.0747C286.241 19.0987 284.929 19.4507 283.937 18.8747C282.849 18.2347 282.785 17.0187 283.329 16.1227L283.969 15.3547H281.089C279.905 15.3547 278.977 14.3947 278.977 13.2107C278.977 12.0587 279.937 11.1307 281.089 11.1307H287.361ZM287.873 28.5387C286.689 28.6987 285.601 28.7627 284.193 28.6347C280.097 28.2507 278.145 26.3307 278.593 22.0427C278.689 20.8587 279.617 20.1227 280.801 20.1547C281.665 20.1867 282.817 20.8587 282.721 21.9787C282.529 23.7067 282.881 24.3147 284.577 24.4427C285.601 24.5387 286.433 24.4747 287.425 24.3467C288.641 24.2187 289.761 24.8267 289.825 26.1707C289.889 27.6107 288.769 28.4427 287.873 28.5387Z" fill="#F68B1F"/>
<path d="M247.968 13.0831C251.36 12.8591 254.208 14.9711 254.208 18.8751C254.208 23.0031 251.52 25.8191 245.76 27.7071C244.224 28.2191 243.232 27.4191 242.944 26.4271C242.72 25.5951 243.2 24.5071 244.672 24.0271C250.4 22.1071 250.4 19.8351 250.4 18.8751C250.4 17.7231 249.504 16.6351 248.192 16.6991C246.016 16.8271 239.52 17.6911 236.768 17.8511C236.384 17.9151 234.848 17.5631 234.688 16.1231C234.592 15.0671 235.36 14.1391 236.416 14.0431C239.456 13.6911 244.704 13.2751 247.968 13.0831Z" fill="#F68B1F"/>
<path d="M222.66 4.25098C224.196 4.25098 225.444 5.49898 225.444 7.06698C225.444 8.60298 224.196 9.88298 222.66 9.88298C221.092 9.88298 219.844 8.60298 219.844 7.06698C219.844 5.49898 221.092 4.25098 222.66 4.25098ZM222.66 8.28298C223.332 8.28298 223.908 7.73898 223.908 7.03498C223.908 6.36298 223.332 5.78698 222.66 5.78698C221.956 5.78698 221.412 6.36298 221.412 7.03498C221.412 7.73898 221.956 8.28298 222.66 8.28298ZM223.268 14.139C224.164 14.875 224.26 16.251 223.492 17.147C222.724 18.043 221.38 18.075 220.484 17.307L219.14 15.835C219.044 17.883 218.596 21.051 217.796 22.939C215.972 27.195 212.9 29.435 208.868 29.275C204.228 29.051 200.9 25.307 200.868 19.515C200.836 16.603 202.052 13.371 205.924 8.63498H203.3C202.148 8.63498 201.188 7.70698 201.188 6.52298C201.188 5.33898 202.148 4.41098 203.3 4.41098H210.66C211.844 4.41098 212.836 5.21098 212.836 6.39498C212.836 7.48298 211.972 8.47498 210.916 8.60298C206.948 12.635 204.9 16.923 204.836 19.419C204.772 23.387 206.5 24.891 209.06 25.019C210.948 25.083 212.676 24.411 214.052 21.275C214.916 19.291 215.236 17.019 215.588 11.675C215.62 11.227 215.716 10.875 216.068 10.491C216.868 9.53098 218.308 9.72298 219.076 10.395L223.268 14.139Z" fill="#F68B1F"/>
<path d="M170.43 28.891C169.47 28.763 168.766 27.995 168.606 27.003C167.998 22.491 168.318 12.475 168.958 5.53102C169.054 4.37902 170.078 3.51502 171.23 3.57902C172.414 3.67502 173.246 4.66702 173.15 5.81902C172.606 11.643 172.19 18.555 172.446 22.971C172.638 22.747 172.798 22.683 173.022 22.491C173.822 21.819 175.166 21.787 175.902 22.811C176.574 23.771 176.286 25.339 175.198 26.171L172.03 28.475C171.55 28.827 170.974 28.987 170.43 28.891ZM186.942 7.25902C187.998 7.25902 189.182 7.77102 189.182 9.46702C189.182 10.043 188.958 10.235 188.574 10.907L186.046 14.587C185.342 15.515 183.902 15.707 182.974 15.003C182.046 14.299 181.982 13.019 182.686 12.091L183.198 11.515L179.07 11.483C177.886 11.483 176.894 10.491 176.894 9.33902C176.894 8.15502 177.886 7.25902 179.07 7.25902H186.942ZM187.39 23.003C188.702 22.907 189.598 23.387 189.79 24.667C189.95 25.787 189.214 27.003 187.806 27.195C186.43 27.387 185.214 27.387 184.254 27.355C180.19 27.227 177.054 26.011 177.118 21.627C177.118 21.339 177.182 20.955 177.246 20.571C177.502 19.067 178.878 18.523 179.806 18.715C180.638 18.907 181.374 19.515 181.31 20.763C181.278 21.115 181.278 21.339 181.278 21.819C181.278 22.651 182.174 23.163 184.382 23.131C185.086 23.131 186.11 23.099 187.39 23.003Z" fill="#F68B1F"/>
<path d="M135.972 28.7627C134.82 28.5387 134.116 27.4187 134.34 26.2667L137.828 10.5227H136.292C135.108 10.5227 134.18 9.56267 134.18 8.41067C134.18 7.22667 135.108 6.29867 136.292 6.29867H138.756L139.396 3.48267C139.62 2.33067 140.74 1.59467 141.892 1.85067C143.044 2.07466 143.78 3.22667 143.524 4.34667L143.108 6.29867H146.404C147.588 6.29867 148.548 7.22667 148.548 8.41067C148.548 9.56267 147.588 10.5227 146.404 10.5227H142.148L138.5 27.1307C138.244 28.2827 137.124 29.0187 135.972 28.7627ZM154.244 11.1307C155.428 11.1307 156.388 12.0587 156.388 13.2427C156.356 13.6587 156.228 14.0427 156.004 14.5547L153.7 18.0747C153.124 19.0987 151.812 19.4507 150.82 18.8747C149.732 18.2347 149.668 17.0187 150.212 16.1227L150.852 15.3547H147.972C146.788 15.3547 145.86 14.3947 145.86 13.2107C145.86 12.0587 146.82 11.1307 147.972 11.1307H154.244ZM154.756 28.5387C153.572 28.6987 152.484 28.7627 151.076 28.6347C146.98 28.2507 145.028 26.3307 145.476 22.0427C145.572 20.8587 146.5 20.1227 147.684 20.1547C148.548 20.1867 149.7 20.8587 149.604 21.9787C149.412 23.7067 149.764 24.3147 151.46 24.4427C152.484 24.5387 153.316 24.4747 154.308 24.3467C155.524 24.2187 156.644 24.8267 156.708 26.1707C156.772 27.6107 155.652 28.4427 154.756 28.5387Z" fill="#F68B1F"/>
<path d="M113.442 8.79487C113.442 7.64287 114.37 6.68287 115.554 6.68287L120.322 6.65087C121.506 6.65087 122.466 7.61087 122.466 8.76287C122.466 9.94687 121.506 10.9069 120.354 10.9069H115.554C114.402 10.9069 113.442 9.97887 113.442 8.79487ZM105.602 18.4269C105.442 19.5789 104.354 20.3789 103.202 20.2189C102.05 20.0269 101.25 18.9709 101.41 17.7869L102.594 10.2989H101.73C100.546 10.2989 99.586 9.37087 99.618 8.18687C99.618 7.00287 100.546 6.07487 101.73 6.07487H103.202L103.49 3.80287C103.682 2.61887 104.738 1.81887 105.89 2.01087C107.074 2.17087 107.874 3.25887 107.682 4.41087L107.426 6.10687H109.57C110.722 6.10687 111.682 7.06687 111.682 8.21887C111.682 9.40287 110.722 10.3309 109.538 10.3309H106.818L105.602 18.4269ZM121.826 19.3229C123.106 19.5789 123.81 20.6349 123.65 21.6909C123.49 22.8429 122.626 23.7389 121.282 23.5469C120.642 23.4509 119.17 23.0669 118.53 23.0029C118.53 23.5149 118.498 25.0829 118.498 25.0829C118.434 27.7709 116.866 29.6269 114.018 29.6269C110.914 29.5949 107.97 26.0109 108.13 22.7789C108.258 20.6029 109.666 18.5549 113.218 18.4909C113.538 18.4909 113.922 18.5229 114.274 18.5229C114.274 17.2109 114.274 15.4829 114.274 14.4269C114.274 13.2429 115.234 12.3149 116.386 12.3149C117.57 12.3149 118.53 13.2429 118.53 14.4269C118.53 15.5469 118.53 17.3709 118.53 18.7789C119.33 18.8749 120.77 19.1309 121.826 19.3229ZM114.274 24.8269C114.306 24.2829 114.274 23.3549 114.274 22.7149C113.89 22.6509 113.634 22.6509 113.314 22.6509C112.802 22.6829 112.418 22.8109 112.354 23.2269C112.226 24.3789 113.282 25.3709 113.922 25.3709C114.082 25.3709 114.274 25.2429 114.274 24.8269Z" fill="#F68B1F"/>
<path d="M74.1152 27.8028C71.0752 28.0268 68.6112 25.4668 68.1952 21.9468C67.7152 18.0748 69.4432 14.5548 73.6032 12.8268C73.6032 11.2908 73.6992 9.97884 73.7952 8.57084H72.1952C71.0432 8.57084 70.0832 7.61084 70.0832 6.45884C70.0832 5.27484 71.0432 4.31484 72.1952 4.31484H74.2752C74.3392 3.73884 74.4352 2.90684 74.4992 2.33084C74.6272 1.17884 75.7152 0.346841 76.8672 0.53884C78.0192 0.69884 78.8192 1.59484 78.6912 2.90684C78.6272 3.51484 78.5632 3.93084 78.5312 4.31484H83.0112C84.1632 4.31484 85.1232 5.27484 85.1232 6.45884C85.1232 7.61084 84.1632 8.57084 83.0112 8.57084H78.0192C77.8272 9.85084 77.7632 10.7148 77.7312 11.8988C78.2752 11.8348 78.9792 11.8028 79.5552 11.8028C80.4832 11.8028 81.0912 11.8028 81.9552 11.9948C82.0192 11.8348 82.0512 11.8028 82.1152 11.6428C82.5632 10.5548 83.6192 9.94684 84.7392 10.2988C85.8272 10.6508 86.5312 11.8988 86.0832 13.0188C86.0192 13.1468 85.9872 13.2748 85.9232 13.4028C88.9632 15.1308 89.5712 17.6268 89.5712 19.8028C89.5712 24.0268 86.6592 27.3548 84.3552 29.2428C83.4272 29.9788 81.6672 29.9788 80.9952 28.8908C80.2912 27.8028 80.8992 26.5868 81.7312 25.8188C84.0032 23.7708 85.3792 22.2028 85.5392 20.3148C85.6992 18.4588 84.8992 17.4668 84.1952 17.1468C81.7632 22.2028 77.9552 27.5468 74.1152 27.8028ZM73.6032 17.3388C72.4512 18.1068 71.8112 19.5148 72.0352 21.3388C72.2272 22.9388 73.0592 23.7388 73.7312 23.7388C75.4592 23.7068 78.3712 20.0268 80.1952 15.8348C79.4592 15.6428 78.4992 15.6748 77.7952 15.8348C77.8272 16.6988 77.8272 17.8828 77.8912 18.7468C77.9872 19.9308 77.0592 20.9228 75.9072 21.0188C74.7232 21.1148 73.7312 20.2188 73.6672 19.0668C73.6352 18.5548 73.6032 18.0748 73.6032 17.3388Z" fill="#F68B1F"/>
</svg>
