<svg width="49" height="53" viewBox="0 0 49 53" fill="none" xmlns="http://www.w3.org/2000/svg">
<path fill-rule="evenodd" clip-rule="evenodd" d="M0.0198975 36.7236L0.609985 36.6836L1.05994 36.3236L1.59998 36.1735L2.03992 35.7935L2.54993 35.5735L2.98999 35.2035L3.56995 35.1335L4.10999 34.9735L4.53992 34.5935L5.04993 34.3835L5.62 34.2735L6.12 34.0434L6.54993 33.6434L7.10999 33.5433L7.43994 32.9733L7.96997 32.8233L8.54993 32.7832L9.02991 32.5133L9.53992 32.3333L9.95996 31.9432L10.5499 31.9232L11.0699 31.7532L11.37 31.1232L11.97 31.1132L12.48 30.9131L12.85 30.4331L13.36 30.2431L13.8999 30.1231L14.3899 29.8831L14.95 29.783L15.34 29.343L15.86 29.183L16.3999 29.0429L16.9299 28.893L17.3899 28.5929L17.8199 28.2229L18.2999 27.9729L18.87 27.9228L19.33 27.6129L19.75 27.2428L20.22 26.9528L20.71 26.7228L21.2899 26.6228L20.8099 26.3127L20.45 25.8827L20.0599 25.5026L19.5399 25.2726L19.1499 24.8926L18.5699 24.7326L18.23 24.2826L17.87 23.8625L17.45 23.5025L16.98 23.2125L16.6499 22.7624L15.99 22.7124L15.7 22.1924L15.2 21.9524L14.74 21.6523L14.49 21.0623L13.95 20.8723L13.59 20.4422L13.1699 20.0922L12.6699 19.8522L12.09 19.7222L11.63 19.4122L11.1799 19.1121L10.9199 18.5321L10.45 18.2421L9.93994 18.012L9.60999 17.542L9.16992 17.222L8.63 17.0219L8.07996 16.8519L7.69995 16.4419L7.30994 16.0519L6.82996 15.7918L6.47998 15.3318L5.88989 15.2118L5.56995 14.7318L5.02991 14.5417L4.78992 13.9416L4.15991 13.7616L4.69995 14.0517L5.15991 14.3517L5.70996 14.4817L6.12 14.8618L6.63989 15.0318L7.10999 15.3118L7.60999 15.5218L8.09998 15.7718L8.59998 15.9819L8.96997 16.4519L9.53992 16.5219L10.0399 16.7519L10.4299 17.1919L11 17.2619L11.48 17.522L11.98 17.732L12.48 17.942L12.86 18.392L13.38 18.5821L13.7899 18.9621L14.34 19.0821L14.7799 19.4222L15.37 19.4621L15.7699 19.8822L16.1599 20.3022L16.83 20.2022L17.2599 20.5523L17.7 20.8723L18.13 21.2323L18.58 21.5423L19.21 21.5023L19.61 21.9124L20.08 22.1924L20.63 22.3224L21.11 22.5724L21.59 22.8424L22.12 23.3525L22.3099 22.6624L22.2999 22.1024L22.2 21.5223L22.47 21.0123L22.5 20.4522L22.4299 19.8922L22.5699 19.3521L22.86 18.8421L22.8199 18.272L22.9199 17.732L22.86 17.172L22.88 16.6119L23.0699 16.0818L23.1 15.5318L23.4099 15.0218L23.45 14.4717L23.5 13.9217L23.33 13.3416L23.7799 12.8416L23.84 12.2915L23.6499 11.7115L23.85 11.1815L23.8199 10.6214L23.99 10.0913L23.9199 9.52128L24.08 8.99127L24.2799 8.4612L24.0699 7.88113L24.34 7.35111L24.38 6.80108L24.5299 6.271L24.48 5.71096L24.49 5.16092V4.61089L24.6899 4.08081L24.86 3.56075L25.0399 3.03073L24.88 2.46068L25.1499 1.94061L25.1399 1.39058L25.13 0.840543L25.2799 0.520508L25.25 0.840543L25.3099 1.39058L25.5 1.92065L25.25 2.47069L25.2999 3.01071L25.45 3.5508L25.3999 4.10083L25.2 4.64086L25.5099 5.18094L25.6399 5.72097L25.61 6.26099L25.6599 6.81103L25.5 7.35111L25.38 7.90115L25.3999 8.44117L25.5199 8.98126L25.6899 9.52128L25.4399 10.0713L25.59 10.6114L25.6799 11.1514L25.7 11.6915L25.59 12.2315L25.7699 12.7716L25.5099 13.3216L25.3999 13.8617L25.74 14.4017L25.4299 14.9517L25.3899 15.4918L25.74 16.0319L25.4199 16.5819L25.72 17.122L25.83 17.662L25.63 18.202L25.7899 18.7421L25.48 19.2921L25.6 19.8322L25.5599 20.3723L25.4399 20.9223L25.58 21.4623L25.75 22.0023L25.5199 22.5424L25.59 23.0925L25.62 23.7525L26.25 23.5125L26.73 23.2025L27.23 22.9424L27.7999 22.8924L28.38 22.9125L28.86 22.5924L29.4299 22.5524L29.99 22.5124L30.5299 22.3724L30.98 21.9224L31.5699 21.9624L32.11 21.8323L32.6 21.5623L33.0499 21.1423L33.6799 21.2923L34.23 21.1623L34.71 20.8723L35.1799 20.5322H35.7699L36.2 20.0922L36.7699 20.0422L37.2599 19.7722L37.8999 19.9022L38.2899 19.3521L38.88 19.3421L39.4399 19.2721L39.96 19.0621L40.5 18.9321L40.8999 18.4121L41.5 18.4321L41.95 18.042L42.47 17.862L43.11 17.972L43.63 17.792L44.1599 17.622L44.6 17.212L45.0499 16.8319L45.5699 16.6619L46.12 16.5419L46.58 16.1918L47.11 16.0419L47.7599 16.1519L48.22 15.8118L48.6499 15.4018L48.21 15.8318L47.6799 16.0018L47.1899 16.2619L46.72 16.5719H46.09L45.7599 17.1319L45.1899 17.2519L44.7599 17.622L44.2 17.752L43.7799 18.152L43.2899 18.4121L42.74 18.562L42.34 18.9921L41.7899 19.1421L41.2699 19.3521L40.86 19.7722L40.25 19.7922L39.74 20.0122L39.4299 20.6223L38.9099 20.8222L38.3099 20.8523L37.9199 21.3023L37.3099 21.3123L36.96 21.8524L36.46 22.0924L35.8899 22.1724L35.33 22.2924L34.83 22.5024L34.38 22.8424L33.7899 22.9024L33.3899 23.3325L32.8999 23.5925H32.2899L31.86 23.9725L31.3099 24.1026L30.8099 24.3326L30.4399 24.8526L29.86 24.9126L29.35 25.1227L28.9099 25.4727L28.3999 25.6827L27.9099 25.9527L27.34 26.0327L26.73 26.3628L27.37 26.6528L27.6899 27.1628L28.2799 27.2529L28.7599 27.4929L29.1799 27.8529L29.73 28.0129L30.1799 28.3129L30.59 28.6929L30.99 29.0629L31.5499 29.193L32.0399 29.443L32.33 30.0031L32.9299 30.063L33.24 30.5931L33.84 30.6731L34.2599 31.0232L34.7999 31.1831L35.25 31.4932L35.59 31.9832L36.0699 32.2333L36.5 32.5833L37.0699 32.6933L37.49 33.0433L37.9099 33.4034L38.2999 33.7933L38.7699 34.0834L39.4199 34.0534L39.8099 34.4634L40.3099 34.6834L40.8099 34.9134L41.2999 35.1536L41.74 35.4735L42.0499 36.0236L42.48 36.3636L43.0399 36.4836L43.4299 36.8937L43.99 37.0137L44.3999 37.3837L44.8999 37.6237L45.4099 37.8237L45.9399 38.1937L45.4299 37.7738L44.8899 37.6338L44.33 37.5537L43.97 37.0536L43.38 37.0237L42.86 36.8537L42.45 36.4636L41.9199 36.3036L41.45 36.0435L40.85 36.0236L40.49 35.5435L40.0199 35.2636L39.58 34.9335L38.97 34.9535L38.4199 34.8335L37.98 34.4935L37.62 34.0135L37.0399 33.9534L36.59 33.6434L36.12 33.3634L35.5399 33.3333L35.2 32.7832L34.62 32.7433L34.21 32.3533L33.6799 32.2032L33.2599 31.8132L32.7799 31.5832L32.22 31.4932L31.62 31.4632L31.22 31.0631L30.72 30.8431L30.21 30.6532L29.7899 30.283L29.33 29.9931L28.74 29.9731L28.4199 29.3931L27.7999 29.423L27.47 28.883L26.9199 28.763L26.48 28.4329L25.97 28.4129L25.8099 28.853L25.7599 29.4031L25.7999 29.9731L25.4299 30.4631L25.5099 31.0331L25.23 31.5532L25.13 32.0932L25.34 32.6833L25.22 33.2233L24.9299 33.7334L25.11 34.3134L24.83 34.8335L24.6599 35.3635L24.98 35.9636L24.7899 36.4936L24.8199 37.0536L24.45 37.5537L24.6 38.1338L24.49 38.6738L24.5699 39.2339L24.35 39.7639L24.1 40.2839L24.2899 40.864L24.09 41.3941L24.11 41.9541L23.9399 42.4841L23.88 43.0341L23.8199 43.5842L23.5499 44.1043L23.61 44.6643L23.5299 45.2044L23.5499 45.7645L23.5199 46.3144L23.35 46.8445L23.12 47.3746L23.34 47.9546V48.5147L23.2799 49.0647L22.95 49.5647L22.8199 50.1048L22.84 50.6648L22.6799 51.1949L22.7999 51.775L22.5599 52.445L22.7799 51.755L22.5299 51.2049L22.5599 50.6648L22.62 50.1248L22.47 49.5847L22.5399 49.0447L22.5499 48.5047L22.4299 47.9646L22.7799 47.4145L22.5599 46.8745L22.63 46.3345L22.4399 45.7944V45.2544L22.73 44.7043L22.48 44.1742L22.5 43.6343L22.71 43.0842L22.59 42.5441L22.35 42.0141L22.5399 41.464L22.3099 40.924L22.6 40.374L22.38 39.8439L22.6399 39.2938L22.63 38.7538L22.34 38.2138L22.2699 37.6837L22.33 37.1337L22.22 36.5936L22.5 36.0435L22.1399 35.5136L22.1 34.9735L22.0699 34.4334L22.25 33.8834L22.0599 33.3534L22.1899 32.8033L22.3999 32.2633L22.3099 31.7232L22.0699 31.1831L22.1399 30.6432L22.0199 30.1031L22.21 29.6331L21.6399 29.5231L21.12 29.683L20.61 29.8731L20.1 30.033L19.63 30.3631L19.1499 30.6131L18.5699 30.5831L18.1 30.8832L17.5699 31.0132L17.0199 31.0531L16.59 31.4932L16.08 31.6832L15.5599 31.8232L15.0099 31.8733L14.45 31.9132L13.99 32.2633L13.45 32.3333L12.98 32.6333L12.3999 32.6033L11.87 32.7233L11.4199 33.1133L10.9299 33.3433L10.35 33.3133L9.84998 33.5433L9.34998 33.7634L8.88989 34.1034L8.30994 34.0634L7.77991 34.2134L7.30994 34.4935L6.7699 34.6035L6.18994 34.5734L5.78992 35.0835L5.17993 34.9735L4.68994 35.2235L4.17993 35.4036L3.63 35.4635L3.10999 35.6336L2.59998 35.8336L2.05994 35.9435L1.54993 36.1236L1.13 36.5836L0.5 36.4236L0 36.6437L0.0198975 36.7236Z" fill="#D1CB90"/>
<path d="M22.8387 50.6648L22.8187 50.1049L22.9487 49.5648L23.2787 49.0548L23.3087 48.7749C23.0287 49.0349 22.7587 49.3048 22.4688 49.5748L22.6188 50.1149L22.5687 50.6549L22.5287 51.1948L22.5587 51.2649C22.6087 51.2049 22.6487 51.1548 22.7087 51.0948L22.8387 50.6449V50.6648Z" fill="white"/>
<path d="M25.0022 4.76086C24.8522 4.64086 24.7121 4.52088 24.5721 4.40088L24.4922 4.60089V4.9209C24.6422 4.8709 24.8122 4.81085 25.0022 4.75085V4.76086Z" fill="white"/>
<path d="M28.1359 27.8628H27.0259C26.9859 28.1128 26.8059 28.3128 26.5859 28.5128L26.9159 28.7728L27.4659 28.8928L27.7959 29.4327L28.4259 29.4028L28.5759 29.6827C28.6959 29.0427 28.7359 28.4228 28.1359 27.8728V27.8628Z" fill="white"/>
<path d="M25.791 29.9832H25.801L25.761 29.4531C25.711 29.6131 25.711 29.7832 25.791 29.9832Z" fill="white"/>
<path d="M48.4922 15.5609L48.6521 15.4009L48.4922 15.5609Z" fill="white"/>
<path d="M25.4403 20.9211L25.5303 20.511C25.5003 20.381 25.4703 20.2511 25.4303 20.1211C24.5803 20.9311 24.5603 20.9511 24.0703 22.1811C24.6403 22.1211 25.1204 22.0611 25.7504 21.9911L25.5803 21.451L25.4403 20.9111V20.9211Z" fill="white"/>
<path d="M41.3007 35.1536L40.8107 34.9135L40.5607 34.7935C40.4207 34.8835 40.2806 34.9935 40.1406 35.1335C40.5906 35.0435 41.1007 35.3035 41.6107 35.3735L41.3107 35.1536H41.3007Z" fill="white"/>
<path d="M13.3984 20.2809L13.5885 20.4409L13.9485 20.871L14.1484 20.9409C14.2084 20.8509 14.2585 20.741 14.3085 20.621C14.0185 20.351 13.7284 20.2409 13.4084 20.2809H13.3984Z" fill="white"/>
<path d="M44.3953 37.3835L44.3353 37.3335C44.3353 37.3335 44.2453 37.3636 44.1953 37.3936L44.3153 37.5635L44.8754 37.6436L44.9753 37.6735L44.8853 37.6335L44.3953 37.3936V37.3835Z" fill="white"/>
<path d="M45.4321 37.7738L44.9922 37.6538L45.4121 37.8137L45.5022 37.8838C45.5022 37.8838 45.5221 37.8638 45.5321 37.8538L45.4221 37.7638L45.4321 37.7738Z" fill="white"/>
<path d="M23.2375 35.2433C23.4575 35.1833 23.8275 35.0333 23.8375 34.9033C23.8575 34.4933 23.7475 34.0633 23.6875 33.6533C23.4875 33.6633 23.2875 33.6732 23.0875 33.6832C23.0275 34.1032 22.9575 34.5232 22.9375 34.9432C22.9375 35.0432 23.1675 35.2633 23.2375 35.2433Z" fill="white"/>
<path d="M22.3281 31.8232L22.3981 32.2633L22.3782 32.3232C22.4482 32.3632 22.5281 32.4032 22.5981 32.4432C22.7281 32.3132 22.8281 32.2133 22.9381 32.1033C22.7381 32.0033 22.5481 31.8732 22.3381 31.8232H22.3281Z" fill="white"/>
<path d="M22.8353 21.7911C22.6753 21.6511 22.5053 21.5111 22.2953 21.3311L22.1953 21.5211L22.2853 22.011C22.4053 22.041 22.5753 21.9911 22.8353 21.7811V21.7911Z" fill="white"/>
<path d="M35.2213 21.7007C35.0113 21.6007 34.8113 21.4507 34.5913 21.4007C34.5113 21.3807 34.3813 21.5907 34.2812 21.7007C34.4912 21.8107 34.6912 21.9308 34.8912 22.0408C35.0212 21.9108 35.1213 21.8107 35.2313 21.7007H35.2213Z" fill="white"/>
<path d="M23.9609 19.7208C24.2209 19.9408 24.4709 20.1609 24.9309 20.5409C24.7209 19.8109 24.7909 19.0808 23.9609 19.7208Z" fill="white"/>
<path d="M22.5675 45.0044L22.4375 45.2544V45.7444C22.7775 45.6444 22.9275 45.4844 22.5675 45.0044Z" fill="white"/>
<path d="M24.6794 14.2711C24.5694 14.0711 24.4595 13.8711 24.3395 13.6611C24.2295 13.7611 24.0294 13.8911 24.0394 13.9711C24.0894 14.1911 24.2295 14.3911 24.3395 14.6011C24.4495 14.5011 24.5494 14.3911 24.6794 14.2611V14.2711Z" fill="white"/>
</svg>
