<svg width="50" height="53" viewBox="0 0 50 53" fill="none" xmlns="http://www.w3.org/2000/svg">
<path fill-rule="evenodd" clip-rule="evenodd" d="M49.2379 36.7236L48.6478 36.6836L48.1979 36.3236L47.6578 36.1735L47.2179 35.7935L46.7079 35.5735L46.2678 35.2035L45.6879 35.1335L45.1478 34.9735L44.7179 34.5935L44.2079 34.3835L43.6378 34.2735L43.1378 34.0434L42.7079 33.6434L42.1478 33.5433L41.8179 32.9733L41.2878 32.8233L40.7079 32.7832L40.2279 32.5133L39.7179 32.3333L39.2979 31.9432L38.7079 31.9232L38.1879 31.7532L37.8878 31.1232L37.2878 31.1132L36.7778 30.9131L36.4078 30.4331L35.8978 30.2431L35.3579 30.1231L34.8679 29.8831L34.3079 29.783L33.9178 29.343L33.3978 29.183L32.8579 29.0429L32.3279 28.893L31.8679 28.5929L31.4379 28.2229L30.9579 27.9729L30.3878 27.9228L29.9279 27.6129L29.5078 27.2428L29.0378 26.9528L28.5479 26.7228L27.9679 26.6228L28.4479 26.3127L28.8079 25.8827L29.1979 25.5026L29.7179 25.2726L30.1079 24.8926L30.6879 24.7326L31.0278 24.2826L31.3878 23.8625L31.8079 23.5025L32.2778 23.2125L32.6079 22.7624L33.2678 22.7124L33.5579 22.1924L34.0579 21.9524L34.5178 21.6523L34.7678 21.0623L35.3079 20.8723L35.6678 20.4422L36.0879 20.0922L36.5879 19.8522L37.1678 19.7222L37.6278 19.4122L38.0779 19.1121L38.3379 18.5321L38.8079 18.2421L39.3179 18.012L39.6478 17.542L40.0879 17.222L40.6278 17.0219L41.1779 16.8519L41.5579 16.4419L41.9479 16.0519L42.4279 15.7918L42.7778 15.3318L43.3679 15.2118L43.6879 14.7318L44.2279 14.5417L44.4679 13.9416L45.0979 13.7616L44.5579 14.0517L44.0979 14.3517L43.5479 14.4817L43.1378 14.8618L42.6179 15.0318L42.1478 15.3118L41.6478 15.5218L41.1578 15.7718L40.6578 15.9819L40.2878 16.4519L39.7179 16.5219L39.2179 16.7519L38.8279 17.1919L38.2578 17.2619L37.7778 17.522L37.2778 17.732L36.7778 17.942L36.3978 18.392L35.8778 18.5821L35.4679 18.9621L34.9178 19.0821L34.4779 19.4222L33.8878 19.4621L33.4879 19.8822L33.0979 20.3022L32.4279 20.2022L31.9979 20.5523L31.5579 20.8723L31.1278 21.2323L30.6779 21.5423L30.0479 21.5023L29.6478 21.9124L29.1779 22.1924L28.6278 22.3224L28.1478 22.5724L27.6678 22.8424L27.1378 23.3525L26.9479 22.6624L26.9579 22.1024L27.0579 21.5223L26.7878 21.0123L26.7578 20.4522L26.8279 19.8922L26.6879 19.3521L26.3978 18.8421L26.4379 18.272L26.3379 17.732L26.3978 17.172L26.3778 16.6119L26.1879 16.0818L26.1578 15.5318L25.8479 15.0218L25.8079 14.4717L25.7578 13.9217L25.9279 13.3416L25.4779 12.8416L25.4178 12.2915L25.6079 11.7115L25.4078 11.1815L25.4379 10.6214L25.2678 10.0913L25.3379 9.52128L25.1779 8.99127L24.9779 8.4612L25.1879 7.88113L24.9178 7.35111L24.8778 6.80108L24.7279 6.271L24.7778 5.71096L24.7678 5.16092V4.61089L24.5679 4.08081L24.3978 3.56075L24.2179 3.03073L24.3778 2.46068L24.1079 1.94061L24.1179 1.39058L24.1278 0.840543L23.9779 0.520508L24.0078 0.840543L23.9479 1.39058L23.7578 1.92065L24.0078 2.47069L23.9579 3.01071L23.8079 3.5508L23.8579 4.10083L24.0579 4.64086L23.7479 5.18094L23.6179 5.72097L23.6478 6.26099L23.5979 6.81103L23.7578 7.35111L23.8778 7.90115L23.8579 8.44117L23.7379 8.98126L23.5679 9.52128L23.8179 10.0713L23.6678 10.6114L23.5779 11.1514L23.5579 11.6915L23.6678 12.2315L23.4879 12.7716L23.7479 13.3216L23.8579 13.8617L23.5178 14.4017L23.8279 14.9517L23.8679 15.4918L23.5178 16.0319L23.8379 16.5819L23.5378 17.122L23.4279 17.662L23.6278 18.202L23.4679 18.7421L23.7778 19.2921L23.6578 19.8322L23.6979 20.3723L23.8179 20.9223L23.6779 21.4623L23.5078 22.0023L23.7379 22.5424L23.6678 23.0925L23.6378 23.7525L23.0078 23.5125L22.5278 23.2025L22.0278 22.9424L21.4579 22.8924L20.8778 22.9125L20.3978 22.5924L19.8279 22.5524L19.2678 22.5124L18.7279 22.3724L18.2778 21.9224L17.6879 21.9624L17.1478 21.8323L16.6578 21.5623L16.2079 21.1423L15.5779 21.2923L15.0278 21.1623L14.5479 20.8723L14.0779 20.5322H13.4879L13.0579 20.0922L12.4879 20.0422L11.9979 19.7722L11.3579 19.9022L10.9679 19.3521L10.3778 19.3421L9.81787 19.2721L9.29785 19.0621L8.75781 18.9321L8.35791 18.4121L7.75781 18.4321L7.30786 18.042L6.78784 17.862L6.14783 17.972L5.62781 17.792L5.0979 17.622L4.65784 17.212L4.20789 16.8319L3.68787 16.6619L3.13782 16.5419L2.67786 16.1918L2.14783 16.0419L1.49792 16.1519L1.03784 15.8118L0.60791 15.4018L1.04785 15.8318L1.57788 16.0018L2.06787 16.2619L2.53784 16.5719H3.16785L3.49792 17.1319L4.06787 17.2519L4.49792 17.622L5.05786 17.752L5.47791 18.152L5.9679 18.4121L6.51782 18.562L6.91785 18.9921L7.4679 19.1421L7.98792 19.3521L8.39783 19.7722L9.00781 19.7922L9.51782 20.0122L9.82788 20.6223L10.3479 20.8222L10.9479 20.8523L11.3379 21.3023L11.9479 21.3123L12.2979 21.8524L12.7979 22.0924L13.3679 22.1724L13.9279 22.2924L14.4279 22.5024L14.8778 22.8424L15.4679 22.9024L15.8679 23.3325L16.3579 23.5925H16.9679L17.3978 23.9725L17.9479 24.1026L18.4479 24.3326L18.8179 24.8526L19.3978 24.9126L19.9078 25.1227L20.3479 25.4727L20.8579 25.6827L21.3479 25.9527L21.9178 26.0327L22.5278 26.3628L21.8878 26.6528L21.5679 27.1628L20.9779 27.2529L20.4979 27.4929L20.0779 27.8529L19.5278 28.0129L19.0779 28.3129L18.6678 28.6929L18.2678 29.0629L17.7079 29.193L17.2179 29.443L16.9279 30.0031L16.3279 30.063L16.0178 30.5931L15.4178 30.6731L14.9979 31.0232L14.4579 31.1831L14.0078 31.4932L13.6678 31.9832L13.1879 32.2333L12.7578 32.5833L12.1879 32.6933L11.7678 33.0433L11.3479 33.4034L10.9579 33.7933L10.4879 34.0834L9.83789 34.0534L9.44788 34.4634L8.94788 34.6834L8.44788 34.9134L7.95789 35.1536L7.51782 35.4735L7.20789 36.0236L6.77783 36.3636L6.2179 36.4836L5.82788 36.8937L5.26782 37.0137L4.85791 37.3837L4.35791 37.6237L3.8479 37.8237L3.31787 38.1937L3.82788 37.7738L4.36792 37.6338L4.92786 37.5537L5.28784 37.0536L5.87781 37.0237L6.39783 36.8537L6.80786 36.4636L7.33789 36.3036L7.80786 36.0435L8.40784 36.0236L8.76782 35.5435L9.23792 35.2636L9.67786 34.9335L10.2878 34.9535L10.8379 34.8335L11.2778 34.4935L11.6378 34.0135L12.2179 33.9534L12.6678 33.6434L13.1378 33.3634L13.7179 33.3333L14.0579 32.7832L14.6378 32.7433L15.0479 32.3533L15.5779 32.2032L15.9979 31.8132L16.4779 31.5832L17.0378 31.4932L17.6378 31.4632L18.0378 31.0631L18.5378 30.8431L19.0479 30.6532L19.4679 30.283L19.9279 29.9931L20.5178 29.9731L20.8379 29.3931L21.4579 29.423L21.7878 28.883L22.3379 28.763L22.7778 28.4329L23.2878 28.4129L23.4479 28.853L23.4979 29.4031L23.4579 29.9731L23.8279 30.4631L23.7479 31.0331L24.0278 31.5532L24.1278 32.0932L23.9178 32.6833L24.0378 33.2233L24.3279 33.7334L24.1478 34.3134L24.4279 34.8335L24.5979 35.3635L24.2778 35.9636L24.4679 36.4936L24.4379 37.0536L24.8079 37.5537L24.6578 38.1338L24.7678 38.6738L24.6879 39.2339L24.9078 39.7639L25.1578 40.2839L24.9679 40.864L25.1678 41.3941L25.1478 41.9541L25.3179 42.4841L25.3778 43.0341L25.4379 43.5842L25.7079 44.1043L25.6478 44.6643L25.7279 45.2044L25.7079 45.7645L25.7379 46.3144L25.9078 46.8445L26.1378 47.3746L25.9178 47.9546V48.5147L25.9779 49.0647L26.3079 49.5647L26.4379 50.1048L26.4178 50.6648L26.5779 51.1949L26.4579 51.775L26.6979 52.445L26.4779 51.755L26.7279 51.2049L26.6979 50.6648L26.6378 50.1248L26.7878 49.5847L26.7179 49.0447L26.7079 48.5047L26.8279 47.9646L26.4779 47.4145L26.6979 46.8745L26.6278 46.3345L26.8179 45.7944V45.2544L26.5278 44.7043L26.7778 44.1742L26.7578 43.6343L26.5479 43.0842L26.6678 42.5441L26.9078 42.0141L26.7179 41.464L26.9479 40.924L26.6578 40.374L26.8778 39.8439L26.6179 39.2938L26.6278 38.7538L26.9178 38.2138L26.9879 37.6837L26.9279 37.1337L27.0378 36.5936L26.7578 36.0435L27.1179 35.5136L27.1578 34.9735L27.1879 34.4334L27.0078 33.8834L27.1979 33.3534L27.0679 32.8033L26.8579 32.2633L26.9479 31.7232L27.1879 31.1831L27.1179 30.6432L27.2379 30.1031L27.0479 29.6331L27.6179 29.5231L28.1378 29.683L28.6478 29.8731L29.1578 30.033L29.6278 30.3631L30.1079 30.6131L30.6879 30.5831L31.1578 30.8832L31.6879 31.0132L32.2379 31.0531L32.6678 31.4932L33.1779 31.6832L33.6979 31.8232L34.2479 31.8733L34.8079 31.9132L35.2678 32.2633L35.8079 32.3333L36.2778 32.6333L36.8579 32.6033L37.3878 32.7233L37.8379 33.1133L38.3279 33.3433L38.9078 33.3133L39.4078 33.5433L39.9078 33.7634L40.3679 34.1034L40.9479 34.0634L41.4779 34.2134L41.9479 34.4935L42.4879 34.6035L43.0679 34.5734L43.4679 35.0835L44.0779 34.9735L44.5679 35.2235L45.0779 35.4036L45.6278 35.4635L46.1478 35.6336L46.6578 35.8336L47.1979 35.9435L47.7079 36.1236L48.1278 36.5836L48.7578 36.4236L49.2578 36.6437L49.2379 36.7236Z" fill="#D1CB90"/>
<path d="M26.4191 50.6643L26.4391 50.1044L26.3091 49.5643L25.9791 49.0543L25.9491 48.7744C26.2291 49.0344 26.4991 49.3043 26.7891 49.5743L26.639 50.1144L26.6891 50.6544L26.7291 51.1943L26.6991 51.2644C26.6491 51.2044 26.6091 51.1544 26.5491 51.0944L26.4191 50.6444V50.6643Z" fill="white"/>
<path d="M24.2556 4.76038C24.4056 4.64038 24.5457 4.52039 24.6857 4.40039L24.7656 4.6004V4.92041C24.6156 4.87041 24.4456 4.81037 24.2556 4.75037V4.76038Z" fill="white"/>
<path d="M21.1219 27.8628H22.2319C22.2719 28.1128 22.4519 28.3128 22.6719 28.5128L22.3419 28.7728L21.7919 28.8928L21.4619 29.4327L20.8319 29.4028L20.6819 29.6827C20.5619 29.0427 20.5219 28.4228 21.1219 27.8728V27.8628Z" fill="white"/>
<path d="M23.4668 29.9827H23.4568L23.4969 29.4526C23.5469 29.6126 23.5468 29.7827 23.4668 29.9827Z" fill="white"/>
<path d="M0.765625 15.5604L0.605713 15.4004L0.765625 15.5604Z" fill="white"/>
<path d="M23.8175 20.9206L23.7275 20.5106C23.7575 20.3806 23.7875 20.2506 23.8275 20.1206C24.6775 20.9306 24.6975 20.9506 25.1875 22.1806C24.6175 22.1206 24.1374 22.0606 23.5074 21.9906L23.6775 21.4506L23.8175 20.9106V20.9206Z" fill="white"/>
<path d="M7.95715 35.1531L8.44714 34.913L8.69714 34.793C8.83714 34.883 8.97719 34.9931 9.11719 35.1331C8.66719 35.0431 8.15709 35.303 7.64709 35.373L7.94714 35.1531H7.95715Z" fill="white"/>
<path d="M35.8594 20.2804L35.6693 20.4404L35.3093 20.8705L35.1094 20.9404C35.0494 20.8504 34.9993 20.7405 34.9493 20.6205C35.2393 20.3505 35.5294 20.2404 35.8494 20.2804H35.8594Z" fill="white"/>
<path d="M4.86255 37.3835L4.92249 37.3335C4.92249 37.3335 5.0125 37.3636 5.0625 37.3936L4.9425 37.5635L4.38245 37.6436L4.28247 37.6735L4.37256 37.6335L4.86255 37.3936V37.3835Z" fill="white"/>
<path d="M3.82568 37.7733L4.26562 37.6533L3.8457 37.8132L3.75562 37.8833C3.75562 37.8833 3.73571 37.8633 3.72571 37.8533L3.83569 37.7633L3.82568 37.7733Z" fill="white"/>
<path d="M26.0203 35.2433C25.8003 35.1833 25.4303 35.0333 25.4203 34.9033C25.4003 34.4933 25.5103 34.0633 25.5703 33.6533C25.7703 33.6633 25.9703 33.6732 26.1703 33.6832C26.2303 34.1032 26.3003 34.5232 26.3203 34.9432C26.3203 35.0432 26.0903 35.2633 26.0203 35.2433Z" fill="white"/>
<path d="M26.9297 31.8228L26.8597 32.2628L26.8796 32.3228C26.8096 32.3628 26.7297 32.4027 26.6597 32.4427C26.5297 32.3127 26.4297 32.2128 26.3197 32.1028C26.5197 32.0028 26.7097 31.8728 26.9197 31.8228H26.9297Z" fill="white"/>
<path d="M26.4225 21.7906C26.5825 21.6506 26.7525 21.5106 26.9625 21.3306L27.0625 21.5206L26.9725 22.0106C26.8525 22.0406 26.6825 21.9906 26.4225 21.7806V21.7906Z" fill="white"/>
<path d="M14.0365 21.7002C14.2465 21.6002 14.4465 21.4503 14.6665 21.4003C14.7465 21.3803 14.8766 21.5902 14.9766 21.7002C14.7666 21.8102 14.5666 21.9303 14.3666 22.0403C14.2366 21.9103 14.1365 21.8102 14.0265 21.7002H14.0365Z" fill="white"/>
<path d="M25.2969 19.7204C25.0369 19.9404 24.7869 20.1604 24.3269 20.5404C24.5369 19.8104 24.4669 19.0804 25.2969 19.7204Z" fill="white"/>
<path d="M26.6903 45.0039L26.8203 45.2539V45.7439C26.4803 45.6439 26.3303 45.4839 26.6903 45.0039Z" fill="white"/>
<path d="M24.5784 14.2701C24.6884 14.0701 24.7983 13.8702 24.9183 13.6602C25.0283 13.7602 25.2284 13.8902 25.2184 13.9702C25.1684 14.1902 25.0283 14.3902 24.9183 14.6002C24.8083 14.5002 24.7084 14.3901 24.5784 14.2601V14.2701Z" fill="white"/>
</svg>
