<svg width="35" height="44" viewBox="0 0 35 44" fill="none" xmlns="http://www.w3.org/2000/svg">
<path d="M17.4434 0.00480768C7.8135 0.00480768 0.00480535 7.81197 0 17.4519C0 27.0918 17.429 43.4132 17.429 43.4132C17.429 43.4132 34.8724 27.1014 34.8724 17.4615C34.8724 7.82158 27.0734 0.00481033 17.4434 0V0.00480768Z" fill="#C8B7D9"/>
<path d="M21.1984 12.5573C20.1984 11.5572 18.8984 11.0571 17.6984 11.0571C16.4984 11.0571 15.0984 11.5572 14.1984 12.5573L8.39844 18.1577C6.39844 20.1579 6.39844 23.2582 8.39844 25.2584C10.3984 27.2585 13.4984 27.2585 15.4984 25.2584L21.1984 19.5579C23.0984 17.6577 23.0984 14.4574 21.1984 12.5573ZM19.7984 18.1577L16.9984 20.958L13.3984 17.4577L8.99844 21.8581C8.99844 21.058 9.19844 20.1579 9.89844 19.5579L15.5984 13.8574C16.0984 13.3573 16.8984 13.0573 17.5984 13.0573C18.2984 13.0573 19.0984 13.3573 19.6984 13.8574C20.8984 15.1575 20.8984 16.9576 19.7984 18.1577ZM24.5984 16.1576C24.5984 16.9576 24.3984 17.6577 24.1984 18.4578C25.1984 19.6579 25.1984 21.458 24.0984 22.5581L21.2984 25.3584L19.7984 23.8582L16.9984 26.6585C15.6984 27.9586 13.8984 28.6587 12.1984 28.6587C12.3984 28.9587 12.5984 29.2587 12.8984 29.5587C14.8984 31.5589 17.9984 31.5589 19.9984 29.5587L25.6984 23.8582C27.6984 21.8581 27.6984 18.7578 25.6984 16.7576C25.1984 16.5576 24.8984 16.3576 24.5984 16.1576Z" fill="white"/>
</svg>
