<svg width="174" height="102" viewBox="0 0 174 102" fill="none" xmlns="http://www.w3.org/2000/svg">
<path d="M167.013 55.8268C170.897 51.6152 173.394 46.4914 173.902 40.8689C175.342 25.1048 160.705 11.3775 141.201 10.2106C132.957 9.72259 125.168 11.5578 118.807 15.0268C113.251 6.74162 102.763 0.832733 90.2648 0.0795353C76.2741 -0.75853 63.5851 5.09733 56.9919 14.2948C51.6898 10.9956 45.1812 8.86331 38.0165 8.43898C18.512 7.27205 1.53692 19.111 0.0976293 34.8752C-0.526768 41.7176 1.87559 48.1675 6.39453 53.3762C4.16152 56.7815 2.7328 60.59 2.36239 64.6848C0.923103 80.4489 15.5594 94.1762 35.0639 95.3325C42.5249 95.7781 49.6155 94.3141 55.6055 91.4605C61.5426 97.3375 70.3265 101.316 80.4226 101.92C92.9847 102.674 104.478 98.0271 111.473 90.4208C117.241 94.9825 124.945 97.9846 133.613 98.5045C153.117 99.6714 170.092 87.8324 171.532 72.0683C172.071 66.1806 170.368 60.5794 167.002 55.8162L167.013 55.8268Z" fill="#F8FCFF"/>
</svg>
