<svg width="35" height="44" viewBox="0 0 35 44" fill="none" xmlns="http://www.w3.org/2000/svg">
<path d="M16.7002 0.0159952C7.07985 0.424873 -0.392476 8.55914 0.0159786 18.1942C0.424433 27.8245 18.531 43.3907 18.531 43.3907C18.531 43.3907 35.2632 26.3477 34.8548 16.7174C34.4463 7.08718 26.3205 -0.392883 16.6954 0.0159952H16.7002Z" fill="#E6A35B"/>
<path d="M14.425 33.2585C9.2239 33.2585 5 29.0288 5 23.8326C5 19.9341 7.34424 16.4895 10.9701 15.0583C11.5201 14.8393 12.1395 15.1117 12.3531 15.6618C12.5721 16.2118 12.2997 16.8313 11.7497 17.0449C8.94624 18.1504 7.13064 20.8153 7.13064 23.8326C7.13064 27.8539 10.404 31.1276 14.425 31.1276C16.8494 31.1276 19.1135 29.926 20.4699 27.9127C20.8009 27.4267 21.4631 27.2985 21.9544 27.6243C22.4457 27.9554 22.5738 28.6176 22.2427 29.109C20.4859 31.7097 17.5649 33.2638 14.425 33.2638V33.2585Z" fill="white"/>
<path d="M29.5197 26.428C29.1566 25.9581 28.4891 25.8726 28.0192 26.2358L26.0594 27.7525L22.7273 24.0996H15.6892V21.4615H21.4297C22.0224 21.4615 22.4976 20.9808 22.4976 20.3934C22.4976 19.8059 22.0224 19.3253 21.4297 19.3253H15.6892V15.3413C17.5582 15.1758 19.016 13.611 19.016 11.7045C19.016 9.68581 17.382 8.05164 15.3635 8.05164C13.3449 8.05164 11.7109 9.68581 11.7109 11.7045C11.7109 13.061 12.4532 14.2465 13.5532 14.8767V26.2411H21.7821L25.8084 30.6523L29.3275 27.9394C29.7921 27.5816 29.8828 26.9087 29.5197 26.4441V26.428Z" fill="white"/>
</svg>
