<svg width="382" height="99" viewBox="0 0 382 99" fill="none" xmlns="http://www.w3.org/2000/svg">
<path d="M356.665 83.6167V96.1866C356.665 98.0035 355.85 98.4484 354.144 98.4484C352.624 98.4484 352.031 97.6327 352.031 96.1866V85.2482C351.029 86.101 349.843 87.1022 348.693 87.1022C347.396 87.1022 346.32 85.6932 346.32 84.4696C346.32 83.283 347.173 82.5785 349.657 80.8729C351.993 79.2785 353.996 77.0908 355.479 74.6436C355.627 74.4211 355.887 74.0132 355.887 73.7537C355.887 73.1975 355.145 73.1604 354.96 73.1604H348.953C347.433 73.1604 346.691 72.5301 346.691 70.9356C346.691 69.4896 347.581 68.8963 348.953 68.8963H351.993V65.5592C351.993 63.7794 352.809 63.2603 354.478 63.2603C355.998 63.2603 356.665 64.076 356.665 65.5592V68.8963H357.667C359.743 68.8963 361.041 69.7491 361.041 71.9739C361.041 74.5694 359.224 77.0908 357.741 79.1302C358.631 80.1313 359.595 81.0583 360.559 81.9482C361.671 82.9122 362.339 83.5426 362.339 84.3583C362.339 85.4707 361.3 86.6572 360.151 86.6572C358.853 86.6572 357.555 84.8774 356.665 83.6167ZM373.203 73.1604H378.505C380.248 73.1604 380.915 73.902 380.915 75.6076C380.915 77.202 379.988 77.7953 378.505 77.7953H373.203V92.7382H379.135C380.841 92.7382 381.508 93.4427 381.508 95.1484C381.508 96.7057 380.581 97.299 379.135 97.299H362.116C360.373 97.299 359.483 96.7057 359.483 94.8888C359.483 93.2203 360.633 92.7382 362.116 92.7382H368.457V77.7953H363.414C361.708 77.7953 361.078 77.0166 361.078 75.3481C361.078 73.8278 361.894 73.1604 363.414 73.1604H368.457V65.6333C368.457 63.8164 369.309 63.3344 371.015 63.3344C372.572 63.3344 373.203 64.1131 373.203 65.6333V73.1604Z" fill="#035AAB"/>
<path d="M323.932 37.9139C328.959 37.9139 334.33 40.1175 337.291 44.318C341.629 50.4467 342.662 59.8119 342.662 67.18C342.662 74.4793 341.629 84.0511 337.291 90.1109C334.261 94.2426 328.959 96.515 323.932 96.515C318.836 96.515 313.603 94.2426 310.573 90.1109C306.235 84.1199 305.133 74.4105 305.133 67.18C305.133 59.8119 306.166 50.4467 310.573 44.318C313.534 40.1175 318.905 37.9139 323.932 37.9139ZM323.932 46.0396C314.911 46.0396 314.842 60.9136 314.842 67.18C314.842 73.4464 314.98 88.3205 323.932 88.3205C332.884 88.3205 333.022 73.4464 333.022 67.18C333.022 60.9136 332.884 46.0396 323.932 46.0396Z" fill="#035AAB"/>
<path d="M272.569 60.9825C275.53 58.8478 278.285 58.0903 281.934 58.0903C287.994 58.0903 293.503 61.1202 296.671 66.2848C298.599 69.3835 299.287 73.3086 299.287 76.9583C299.287 88.4581 291.85 96.5149 280.213 96.5149C273.464 96.5149 266.991 93.6228 263.548 87.6318C262.653 86.048 261.758 84.1199 261.758 82.2606C261.758 79.575 263.755 78.1978 266.303 78.1978C269.746 78.1978 270.572 80.0571 271.536 82.8804C272.707 86.3234 276.494 88.3204 280.006 88.3204C286.686 88.3204 289.647 83.087 289.647 77.0272C289.647 71.1051 286.41 66.2159 280.075 66.2159C278.422 66.2159 276.838 66.5602 275.392 67.2488C273.877 68.0063 273.395 68.6261 272.294 69.7967C271.123 71.0362 269.815 71.5871 268.093 71.5871C265.201 71.5871 263.617 70.0722 263.893 67.1111L265.889 46.315C266.44 41.0815 268.575 39.36 273.74 39.36H292.47C295.156 39.36 296.946 40.5995 296.946 43.4917C296.946 46.315 295.156 47.5545 292.47 47.5545H276.425C274.773 47.5545 273.74 48.312 273.602 50.0335L272.569 60.9825Z" fill="#035AAB"/>
<path d="M245.48 68.3771H252.376C256.418 68.3771 256.715 70.4535 256.715 73.8648C256.715 78.2402 256.566 90.6988 255.528 94.4067C255.046 96.0753 254.045 97.5214 252.265 97.9292C251.079 98.1888 248.854 98.1888 247.556 98.1888H246.852C245.85 98.1888 244.33 98.1888 243.848 97.9663C242.958 97.5584 242.55 96.6314 242.55 95.7045C242.55 93.9988 243.626 93.4426 245.183 93.4426C246.295 93.4426 247.408 93.5168 248.52 93.5168C250.967 93.5168 251.079 92.664 251.375 90.4021C251.894 86.2122 252.006 79.1301 252.006 74.7918V74.2356C252.006 73.3457 251.894 72.6412 250.634 72.6412H243.959C243.329 74.0502 242.365 76.0525 241.475 77.2761C241.03 77.9064 240.622 78.3143 239.807 78.3143C238.583 78.3143 237.322 77.3503 237.322 76.0525C237.322 75.3109 237.767 74.6806 238.175 74.0873C239.473 72.1592 240.771 69.1558 241.364 66.931C241.994 64.6321 242.031 63.2972 243.997 63.2972C245.035 63.2972 246.332 63.668 246.332 64.8916C246.332 65.4478 246.073 66.5602 245.48 68.3771ZM227.719 76.9795C226.458 75.2738 225.271 74.0873 223.788 72.6412C223.306 72.1963 223.01 71.7884 223.01 71.121C223.01 70.1198 223.825 68.822 225.16 68.822C225.531 68.822 225.791 68.8962 226.124 69.0816C226.977 67.7838 227.719 66.4119 228.423 65.0029C228.868 64.2242 229.313 63.4826 230.314 63.4826C231.315 63.4826 232.836 64.2242 232.836 65.4478C232.836 66.2265 232.057 67.6355 231.204 68.9333C230.611 69.9344 229.869 71.121 229.165 72.0479C229.536 72.4929 229.869 72.9378 230.24 73.3828C231.649 71.158 232.465 69.7861 233.058 68.7108C233.763 67.413 234.208 67.0793 235.097 67.0793C236.284 67.0793 237.656 67.8209 237.656 69.1187C237.656 69.6378 237.433 70.0457 237.211 70.4535C236.729 71.2693 235.765 72.6412 235.209 73.4569C233.985 75.2738 232.724 77.0536 231.315 78.7222C232.354 78.648 233.392 78.5739 234.43 78.4626C234.208 77.9435 233.874 77.0907 233.874 76.5345C233.874 75.6446 234.801 75.1255 235.58 75.1255C236.581 75.1255 236.951 76.0525 237.396 77.2019C237.804 78.2772 238.991 81.4661 238.991 82.4301C238.991 83.4683 238.064 84.0245 237.137 84.0245C236.173 84.0245 235.876 83.3571 235.542 82.0222C234.727 82.1706 233.911 82.2818 233.058 82.393V96.5573C233.058 98.1146 232.279 98.5596 230.833 98.5596C229.424 98.5596 228.757 97.9663 228.757 96.5573V82.8009C227.793 82.8751 225.642 83.0975 224.789 83.0975C223.455 83.0975 222.898 82.2447 222.898 80.984C222.898 79.1301 224.048 79.0188 226.087 79.0188C226.681 78.3514 227.2 77.684 227.719 76.9795ZM241.29 79.4267C241.29 78.2402 242.587 77.4615 243.663 77.4615C244.886 77.4615 245.443 78.3514 246.592 80.6503C247.111 81.6514 248.668 84.729 248.668 85.6931C248.668 86.9538 247.222 87.7695 246.073 87.7695C244.738 87.7695 244.441 87.0279 243.774 85.2481C243.329 84.0616 242.773 82.838 242.18 81.7256C241.623 80.7245 241.29 79.9458 241.29 79.4267ZM235.913 84.5807C237.285 84.5807 237.471 85.6189 237.693 86.7313C238.027 88.1774 238.546 91.1066 238.546 92.5527C238.546 93.9247 238.138 94.4809 236.729 94.4809C235.246 94.4809 235.023 93.7763 234.801 91.6258C234.69 90.6246 234.578 89.401 234.319 87.8066C234.208 87.2504 234.096 86.6201 234.096 86.0268C234.096 84.9515 234.949 84.5807 235.913 84.5807ZM225.791 84.6549C227.014 84.6549 227.607 85.0627 227.607 86.3234C227.607 87.6954 227.163 92.3673 226.903 93.7763C226.681 94.9258 226.495 95.8528 225.086 95.8528C224.048 95.8528 223.01 95.482 223.01 94.2584C223.01 93.8876 223.047 93.591 223.269 92.5527C223.825 89.9943 223.937 88.1774 224.048 86.9167C224.196 85.2852 224.382 84.6549 225.791 84.6549Z" fill="#035AAB"/>
<path d="M195.751 83.6167V96.1866C195.751 98.0035 194.936 98.4484 193.23 98.4484C191.71 98.4484 191.116 97.6327 191.116 96.1866V85.2482C190.115 86.101 188.929 87.1022 187.779 87.1022C186.482 87.1022 185.406 85.6932 185.406 84.4696C185.406 83.283 186.259 82.5785 188.743 80.8729C191.079 79.2785 193.082 77.0908 194.565 74.6436C194.713 74.4211 194.973 74.0132 194.973 73.7537C194.973 73.1975 194.231 73.1604 194.046 73.1604H188.039C186.519 73.1604 185.777 72.5301 185.777 70.9356C185.777 69.4896 186.667 68.8963 188.039 68.8963H191.079V65.5592C191.079 63.7794 191.895 63.2603 193.564 63.2603C195.084 63.2603 195.751 64.076 195.751 65.5592V68.8963H196.752C198.829 68.8963 200.127 69.7491 200.127 71.9739C200.127 74.5694 198.31 77.0908 196.827 79.1302C197.717 80.1313 198.681 81.0583 199.645 81.9482C200.757 82.9122 201.424 83.5426 201.424 84.3583C201.424 85.4707 200.386 86.6572 199.237 86.6572C197.939 86.6572 196.641 84.8774 195.751 83.6167ZM212.289 73.1604H217.591C219.334 73.1604 220.001 73.902 220.001 75.6076C220.001 77.202 219.074 77.7953 217.591 77.7953H212.289V92.7382H218.221C219.927 92.7382 220.594 93.4427 220.594 95.1484C220.594 96.7057 219.667 97.299 218.221 97.299H201.202C199.459 97.299 198.569 96.7057 198.569 94.8888C198.569 93.2203 199.719 92.7382 201.202 92.7382H207.543V77.7953H202.5C200.794 77.7953 200.164 77.0166 200.164 75.3481C200.164 73.8278 200.98 73.1604 202.5 73.1604H207.543V65.6333C207.543 63.8164 208.395 63.3344 210.101 63.3344C211.658 63.3344 212.289 64.1131 212.289 65.6333V73.1604Z" fill="#035AAB"/>
<path d="M156.267 75.5334C155.006 76.275 152.151 77.9436 150.817 77.9436C149.408 77.9436 148.555 76.4233 148.555 75.1626C148.555 73.7536 149.37 73.3457 150.557 72.9008C155.414 71.0839 158.826 68.34 162.459 64.7434C163.683 63.5568 164.425 63.0377 166.167 63.0377C167.836 63.0377 168.615 63.5197 169.801 64.6692C173.806 68.6738 176.587 70.8985 181.926 73.0491C183.038 73.5311 183.78 73.9019 183.78 75.2368C183.78 76.5716 182.853 77.9806 181.407 77.9806C180.183 77.9806 177.328 76.3121 176.179 75.6076C176.03 76.9795 175.215 77.3874 173.917 77.3874H158.492C157.157 77.3874 156.378 76.9424 156.267 75.5334ZM159.716 73.2716H172.693C170.506 71.6772 168.763 70.0828 166.946 68.0805C166.761 67.858 166.501 67.6355 166.204 67.6355C165.797 67.6355 165.426 68.0805 165.166 68.3771C163.498 70.194 161.681 71.8255 159.716 73.2716ZM176.772 95.6303C171.729 96.2236 166.612 96.5202 161.532 96.854C160.272 96.9281 152.782 97.336 152.077 97.336C150.52 97.336 149.778 96.5573 149.778 94.9629C149.778 93.2202 150.668 92.8123 152.226 92.7382C153.153 92.7011 153.894 92.7382 154.932 92.7011C156.267 90.2539 157.602 87.8066 158.492 85.174H151.632C150.038 85.174 149.37 84.4324 149.37 82.838C149.37 81.3548 150.223 80.7616 151.632 80.7616H180.628C182.223 80.7616 182.89 81.4661 182.89 83.0605C182.89 84.5437 182.037 85.174 180.628 85.174H163.609C162.534 87.7325 161.31 90.1055 159.938 92.5528C164.573 92.3674 169.208 92.1078 173.843 91.8483C173.435 91.3292 173.064 90.8842 172.656 90.4763C170.951 88.6594 170.691 88.2145 170.691 87.5471C170.691 86.3605 172.137 85.4336 173.249 85.4336C174.028 85.4336 174.621 85.8785 175.14 86.3976C176.253 87.4729 177.291 88.6224 178.329 89.7718C179.293 90.8842 180.591 92.4786 181.407 93.6651C181.852 94.2584 182.26 94.9258 182.26 95.6674C182.26 97.0394 180.591 98.1147 179.368 98.1147C178.403 98.1147 178.033 97.5214 177.439 96.5944C177.254 96.2978 177.032 95.9641 176.772 95.6303Z" fill="#035AAB"/>
<path d="M127.455 73.9761C126.75 74.4582 125.49 75.311 124.674 75.311C123.524 75.311 122.746 74.2728 122.486 73.2716C122.301 73.7537 121.337 76.2751 121.337 76.6088C121.337 76.9425 121.559 77.2391 121.745 77.4987C123.339 79.7976 124.155 83.0976 124.155 85.8786C124.155 89.1786 123.079 91.0326 119.557 91.0326C117.74 91.0326 117.036 90.291 117.036 88.5112C117.036 87.6213 117.221 86.6202 118.259 86.546C119.186 86.4718 119.891 86.2864 119.891 84.5066C119.891 82.2077 119.223 80.0571 118.037 78.2032C117.74 77.7582 117.555 77.3504 117.555 76.8683C117.555 76.3492 117.814 75.5335 118.148 74.6065C118.482 73.7166 119.779 69.9716 119.779 69.23C119.779 68.7109 119.334 68.5997 118.927 68.5997H117.888C117.295 68.5997 116.998 68.8963 116.998 69.4525V96.2237C116.998 97.8181 116.368 98.4855 114.774 98.4855C113.291 98.4855 112.734 97.5956 112.734 96.2237V68.4143C112.734 64.9659 113.513 64.2614 116.924 64.2614H119.742C122.264 64.2614 123.821 64.558 123.821 67.4873C123.821 68.6367 123.599 69.7862 123.302 70.8986C123.673 70.6019 125.23 69.7862 125.749 69.5266C127.677 68.4884 129.68 66.5974 131.385 64.7805C132.386 63.7423 133.165 63.2603 134.648 63.2603C136.131 63.2603 136.947 63.631 137.948 64.7063C140.618 67.6356 141.99 68.7109 145.438 70.6761C146.254 71.1581 146.81 71.6031 146.81 72.6413C146.81 73.8649 145.92 75.2368 144.585 75.2368C143.733 75.2368 142.361 74.2728 141.656 73.7908C141.471 74.9031 140.766 75.1998 139.728 75.1998H136.725V77.2762H140.84C144.252 77.2762 144.993 78.0178 144.993 81.4291V84.0617C144.993 87.473 144.252 88.2146 140.84 88.2146H138.059C139.802 91.2551 142.138 92.5158 145.253 93.8506C146.217 94.2585 146.736 94.7034 146.736 95.7787C146.736 97.0394 145.883 98.3001 144.548 98.3001C143.176 98.3001 140.952 96.9653 139.839 96.1495C137.652 94.5922 136.057 92.8124 134.722 90.4764C133.387 93.109 131.089 95.4079 128.567 96.8911C127.64 97.4473 125.823 98.3372 124.748 98.3372C123.413 98.3372 122.56 97.0394 122.56 95.8158C122.56 94.6293 123.191 94.1472 124.229 93.7394C127.455 92.5528 129.605 91.4034 131.237 88.2146H128.493C125.082 88.2146 124.303 87.473 124.303 84.0617V81.4291C124.303 78.0178 125.082 77.2762 128.493 77.2762H132.498V75.1998H129.346C128.419 75.1998 127.714 74.9773 127.455 73.9761ZM130.829 71.4177H138.504C137.392 70.4165 136.317 69.2671 135.39 68.1547C135.093 67.7839 134.982 67.6727 134.722 67.6727C134.463 67.6727 134.352 67.821 134.092 68.1547C133.128 69.3042 132.016 70.4536 130.829 71.4177ZM136.576 84.4696H140.173C140.766 84.4696 141.063 84.1729 141.063 83.5797V81.9111C141.063 81.3178 140.766 81.0212 140.173 81.0212H136.725V81.6886C136.725 82.6527 136.688 83.5055 136.576 84.4696ZM132.349 84.4696C132.461 83.5055 132.498 82.6527 132.498 81.6886V81.0212H129.123C128.53 81.0212 128.233 81.3178 128.233 81.9111V83.5797C128.233 84.1729 128.53 84.4696 129.123 84.4696H132.349Z" fill="#035AAB"/>
<path d="M82.7 73.4199V96.2236C82.7 97.7438 81.9955 98.5225 80.4011 98.5225C78.9179 98.5225 78.2875 97.6326 78.2875 96.2236V81.3548C77.7684 81.911 77.2493 82.2818 76.4707 82.2818C75.0617 82.2818 74.0234 80.8728 74.0234 79.5379C74.0234 78.4997 74.5796 77.7581 75.1729 76.9795C77.3976 73.9019 79.6224 69.4895 80.4752 65.7815C80.7719 64.3725 81.0685 63.4456 82.737 63.4456C83.9607 63.4456 85.1472 63.9647 85.1472 65.3737C85.1472 67.1535 83.4416 71.6771 82.7 73.4199ZM94.6024 88.3257C93.2305 90.1797 88.1135 96.409 85.8146 96.409C84.6281 96.409 83.5899 95.037 83.5899 93.9247C83.5899 92.9606 84.2944 92.3673 85.036 91.8853C87.854 89.9201 89.263 88.8077 91.4507 86.101C91.9698 85.4706 92.4889 84.8032 92.9709 84.1358H86.4079C84.8876 84.1358 84.1461 83.5054 84.1461 81.9481C84.1461 80.4649 85.073 79.9087 86.4079 79.9087H94.6024V77.0536H90.672C87.5944 77.0536 86.4079 75.83 86.4079 72.7524V68.785C86.4079 65.7074 87.5944 64.5209 90.672 64.5209H102.982C106.06 64.5209 107.246 65.7074 107.246 68.785V72.7524C107.246 75.83 106.06 77.0536 102.982 77.0536H98.9407V79.9087H107.061C108.544 79.9087 109.323 80.5391 109.323 82.0964C109.323 83.5796 108.396 84.1358 107.061 84.1358H100.683C101.277 84.9886 101.87 85.8414 102.537 86.6571C104.725 89.2527 105.837 90.1055 108.359 92.1819C108.915 92.6269 109.286 93.0718 109.286 93.7763C109.286 95 108.136 96.3719 106.876 96.3719C105.874 96.3719 104.985 95.4449 103.909 94.3696C102.018 92.4415 100.424 90.2909 98.9407 87.992V96.1865C98.9407 97.7809 98.2732 98.4483 96.6788 98.4483C95.1586 98.4483 94.6024 97.5955 94.6024 96.1865V88.3257ZM101.425 68.3771H92.1922C91.3394 68.3771 90.9316 68.785 90.9316 69.6378V71.9738C90.9316 72.8266 91.3394 73.2345 92.1922 73.2345H101.425C102.278 73.2345 102.686 72.8266 102.686 71.9738V69.6378C102.686 68.7479 102.278 68.4142 101.425 68.3771Z" fill="#035AAB"/>
<path d="M46.4026 79.9088C47.8116 79.3155 48.2937 79.2043 48.7386 79.2043C50.0364 79.2043 50.6296 80.3167 50.6296 81.4661C50.6296 83.1718 49.1465 83.5425 46.4026 84.692V94.036C46.4026 98.1518 44.8453 98.1888 40.989 98.1888C39.4688 98.1888 37.689 98.1518 37.689 95.6674C37.689 93.8876 38.7272 93.4427 40.3587 93.4427H40.989C41.7677 93.4427 41.9902 93.0719 41.9902 92.3303V86.3606C41.2486 86.6201 39.8767 87.0651 39.098 87.0651C37.7632 87.0651 37.1328 85.6931 37.1328 84.5437C37.1328 83.3572 37.6148 82.7639 38.8385 82.4302C39.6542 82.2077 40.6553 81.9111 41.9902 81.5032V74.3098H39.4688C37.9115 74.3098 37.2811 73.5682 37.2811 72.0109C37.2811 70.5648 38.0227 69.8974 39.4688 69.8974H41.9902V65.6333C41.9902 64.1872 42.6576 63.3715 44.2149 63.3715C45.7352 63.3715 46.4026 64.1872 46.4026 65.6333V69.8974H48.1453C49.7027 69.8974 50.333 70.639 50.333 72.1592C50.333 73.6424 49.5543 74.3098 48.1453 74.3098H46.4026V79.9088ZM53.5589 68.9704H51.26C49.851 68.9704 49.1836 68.2659 49.1836 66.8198C49.1836 65.4108 49.8139 64.6692 51.26 64.6692H64.7568C65.8692 64.6692 66.7591 64.7434 67.6119 65.5221C68.2052 66.0782 68.4647 66.8198 68.4647 67.6356C68.4647 68.8592 67.6861 71.7884 67.2782 72.975C67.167 73.3087 67.1299 73.5312 67.1299 73.6795C67.1299 74.1986 67.4636 74.2357 67.8715 74.2357H68.3906C69.2063 74.2357 69.8367 74.2357 70.5412 74.7919C71.2457 75.311 71.4682 76.0896 71.4682 76.9795C71.4682 77.8323 71.2828 78.9076 71.1344 79.7605C70.3558 83.4684 68.6872 86.9909 66.4995 90.0685C68.0569 91.5517 69.4659 92.4416 71.2086 93.6281C71.876 94.1101 72.321 94.518 72.321 95.3708C72.321 96.7057 71.2828 98.1518 69.8738 98.1518C68.2423 98.1518 64.7197 94.7034 63.5703 93.5169C62.013 95 58.1196 98.2259 55.932 98.2259C54.56 98.2259 53.596 96.9281 53.596 95.7045C53.596 94.4809 54.523 93.9989 55.4499 93.5169C57.3039 92.4786 59.1208 91.4404 60.6781 89.9943C59.0095 87.5842 57.823 85.3594 56.9331 82.6156C56.1544 87.4359 54.9679 90.9584 52.4465 95.1483C51.3712 96.9281 50.4442 98.3001 49.1836 98.3001C47.9229 98.3001 46.7363 97.2989 46.7363 96.0012C46.7363 95.1483 47.2184 94.4809 47.7004 93.8135C51.2971 88.7336 52.5578 84.2471 53.151 78.0919C53.4477 75.0514 53.5589 72.0109 53.5589 68.9704ZM58.0084 68.9704C58.0084 69.6008 57.9713 70.194 57.9713 70.7873C58.305 76.1638 60.1219 82.4302 63.4961 86.6943C64.8681 84.692 65.795 82.4672 66.3512 80.2425C66.4625 79.7975 66.5366 79.4638 66.5366 79.1672C66.5366 78.5739 66.2029 78.4998 64.9051 78.4998C63.5332 78.4998 62.05 77.647 62.05 76.0525C62.05 75.2739 62.2725 74.5694 62.495 73.8649C62.7175 73.1604 63.5332 70.2682 63.5332 69.712C63.5332 69.1558 63.0883 68.9704 62.6062 68.9704H58.0084Z" fill="#035AAB"/>
<path d="M19.1487 66.7085C19.6308 66.3378 20.187 66.2265 20.7802 66.2265H29.5309C32.7197 66.2265 34.24 66.5602 34.24 70.194C34.24 72.048 33.9063 74.3098 33.5725 76.2008C32.831 80.4649 31.3849 84.6549 29.123 88.3628C30.8658 90.5134 32.0152 91.3662 34.0917 93.0719C34.7962 93.6281 35.2782 94.1842 35.2782 95.1483C35.2782 96.5573 34.0546 97.8922 32.6085 97.8922C30.6804 97.8922 27.4174 93.8505 26.305 92.3674C24.9702 93.9247 23.4499 95.3708 21.8555 96.6685C21.2622 97.1506 20.669 97.5955 19.8532 97.5955C18.4813 97.5955 17.406 96.3348 17.406 95C17.406 93.8876 18.2959 93.2202 19.1117 92.5898C20.7431 91.2921 22.3005 89.9572 23.6353 88.3257C22.3746 86.0268 21.4476 83.7279 20.7061 81.2065C20.224 79.5009 19.1858 75.1997 19.1858 73.5311C19.1858 72.1221 20.187 71.5288 21.5218 71.5288C23.005 71.5288 23.4128 72.2704 23.5982 73.6053C24.0803 77.1649 24.9331 80.7245 26.4533 83.9875C27.8623 81.2065 28.7893 78.2031 29.3084 75.0885C29.4197 74.3098 29.7534 72.3446 29.7534 71.6772C29.7534 70.676 29.2343 70.5277 28.3444 70.5277H20.7802C19.3712 70.5277 18.5555 69.9344 18.5555 68.4142V68.2288C18.1105 68.5625 17.6656 68.5996 17.1465 68.5996V96.1865C17.1465 97.818 16.442 98.4483 14.8475 98.4483C13.3644 98.4483 12.8082 97.5955 12.8082 96.1865V92.0336C10.9913 92.5528 3.94626 94.1842 2.38894 94.1842C0.979926 94.1842 0.3125 93.146 0.3125 91.8483C0.3125 90.0314 1.68443 89.7718 2.9822 89.5864V68.5996H2.50017C1.2024 68.5996 0.423738 67.8209 0.423738 66.4861C0.423738 65.1512 1.16532 64.3726 2.50017 64.3726H17.1835C18.5555 64.3726 19.1487 65.04 19.1487 66.4119V66.7085ZM12.8082 68.5996H7.35755V72.6412H12.8082V68.5996ZM12.8082 76.4604H7.35755V80.5391H12.8082V76.4604ZM7.35755 88.9561C9.17443 88.6224 10.9913 88.3257 12.8082 87.9549V84.3953H7.35755V88.9561Z" fill="#035AAB"/>
<path d="M335.014 24.3295L334.961 24.5166C334.657 25.4289 333.726 25.9829 332.796 25.7712C331.866 25.5593 331.266 24.6572 331.386 23.7031L331.421 23.5118L335.212 6.85058C335.445 5.82865 336.437 5.18319 337.429 5.40865C338.421 5.63442 339.038 6.6461 338.805 7.66831L335.014 24.3295Z" fill="white"/>
<path d="M339.051 25.358L339.022 25.4617L338.969 25.6478L338.942 25.742L338.912 25.8343C337.969 28.6607 335.009 30.5434 331.875 29.8303L331.874 29.8301C328.741 29.1164 326.886 26.1401 327.259 23.1824L327.273 23.0753L327.292 22.9685L327.325 22.7778L327.343 22.6827L331.156 5.92555C331.873 2.77829 335.009 0.589678 338.355 1.35021L338.356 1.35042C341.701 2.11181 343.582 5.44082 342.867 8.59042L339.051 25.358ZM338.808 7.66879C339.04 6.6467 338.424 5.63471 337.432 5.40878C336.502 5.19739 335.571 5.75145 335.267 6.66367L335.214 6.85099L331.423 23.5119L331.389 23.7036C331.269 24.6576 331.869 25.5592 332.798 25.771C333.728 25.9824 334.659 25.4291 334.964 24.5171L335.016 24.3297L338.808 7.66879Z" fill="#035AAB"/>
<path d="M345.181 30.4765L345.048 30.6211C344.361 31.3042 343.253 31.3689 342.488 30.7405C341.723 30.112 341.57 29.0134 342.107 28.2059L342.223 28.0487L353.384 14.4546C354.054 13.6384 355.259 13.52 356.076 14.1899C356.892 14.8602 357.011 16.0658 356.341 16.8824L345.181 30.4765Z" fill="white"/>
<path d="M348.329 33.2027L348.254 33.285L348.122 33.4297L348.054 33.5038L347.983 33.5746C345.795 35.7473 342.281 35.9545 339.848 33.9573L339.847 33.9567C337.417 31.9603 336.934 28.4738 338.64 25.9038L338.702 25.8109L338.768 25.7212L338.885 25.5646L338.945 25.4846L350.169 11.8124C352.298 9.22086 356.124 8.84477 358.717 10.9721L358.718 10.9727C361.31 13.1005 361.689 16.9276 359.56 19.5222L348.329 33.2027ZM356.343 16.882C357.013 16.0654 356.893 14.8598 356.077 14.1896C355.311 13.5619 354.205 13.6266 353.517 14.3094L353.386 14.4542L342.225 28.0486L342.109 28.2057C341.573 29.0132 341.724 30.1119 342.489 30.7405C343.254 31.3689 344.362 31.3036 345.05 30.6205L345.182 30.4764L356.343 16.882Z" fill="#035AAB"/>
<path d="M352.047 41.0708L351.857 41.1218C350.91 41.3288 349.942 40.789 349.633 39.8479C349.325 38.9069 349.786 37.8982 350.672 37.5047L350.855 37.4349L367.569 31.9578C368.573 31.6292 369.653 32.1762 369.982 33.1797C370.311 34.1836 369.764 35.2645 368.761 35.5937L352.047 41.0708Z" fill="white"/>
<path d="M353.237 45.0604L353.129 45.0895L352.94 45.141L352.843 45.1668L352.745 45.1885C349.733 45.8469 346.656 44.1347 345.676 41.1438L345.676 41.1428C344.698 38.1538 346.162 34.9531 348.981 33.7007L349.083 33.6558L349.187 33.6156L349.37 33.5464L349.463 33.5108L366.273 28.0023C369.461 26.9589 372.89 28.6955 373.936 31.8824L373.936 31.8833C374.98 35.0698 373.246 38.5025 370.057 39.5485L353.237 45.0604ZM368.76 35.5937C369.763 35.2643 370.31 34.1831 369.981 33.1794C369.672 32.2389 368.704 31.6994 367.757 31.9062L367.568 31.9578L350.854 37.4349L350.671 37.505C349.786 37.8985 349.324 38.9068 349.632 39.8477C349.94 40.7888 350.91 41.3285 351.857 41.1214L352.046 41.0708L368.76 35.5937Z" fill="#035AAB"/>
</svg>
