<svg width="35" height="44" viewBox="0 0 35 44" fill="none" xmlns="http://www.w3.org/2000/svg">
<path d="M17.181 0.0560661C7.55107 0.195578 -0.13749 8.12368 0.00186481 17.7644C0.14122 27.4051 17.8153 43.4682 17.8153 43.4682C17.8153 43.4682 35.0136 26.8952 34.8695 17.2545C34.7301 7.61374 26.8109 -0.0834454 17.181 0.0560661Z" fill="#D4E271"/>
<path d="M27.5604 17.6379H21.5154V14.6157C21.5154 14.4053 21.3668 14.2297 21.1682 14.1864L17.2065 12.1064C17.077 12.0387 16.923 12.0377 16.7945 12.1064L12.8329 14.1864C12.6354 14.2297 12.4856 14.4053 12.4856 14.6157V17.6379H6.44065C6.19749 17.6379 6 17.8346 6 18.0767V30.618C6 30.8602 6.19749 31.0569 6.44065 31.0569H27.5593C27.8025 31.0569 28 30.8602 28 30.618V18.0767C28 17.8346 27.8025 17.6379 27.5593 17.6379H27.5604ZM11.5003 25.5042C11.5003 25.5677 11.4482 25.6184 11.3856 25.6184H9.26723C9.20352 25.6184 9.15256 25.5666 9.15256 25.5042V23.3946C9.15256 23.3312 9.20458 23.2804 9.26723 23.2804H11.3856C11.4493 23.2804 11.5003 23.3322 11.5003 23.3946V25.5042ZM11.5003 22.2124C11.5003 22.2759 11.4482 22.3266 11.3856 22.3266H9.26723C9.20352 22.3266 9.15256 22.2748 9.15256 22.2124V20.1028C9.15256 20.0394 9.20458 19.9886 9.26723 19.9886H11.3856C11.4493 19.9886 11.5003 20.0404 11.5003 20.1028V22.2124ZM15.3058 15.8815H16.4898V14.7024H17.5102V15.8815H18.6941V16.8977H17.5102V18.0767H16.4898V16.8977H15.3058V15.8815ZM13.6006 20.1028C13.6006 20.0394 13.6526 19.9886 13.7152 19.9886H15.8336C15.8973 19.9886 15.9483 20.0404 15.9483 20.1028V22.2124C15.9483 22.2759 15.8962 22.3266 15.8336 22.3266H13.7152C13.6515 22.3266 13.6006 22.2748 13.6006 22.2124V20.1028ZM13.6006 25.5042V23.3946C13.6006 23.3312 13.6526 23.2804 13.7152 23.2804H15.8336C15.8973 23.2804 15.9483 23.3322 15.9483 23.3946V25.5042C15.9483 25.5677 15.8962 25.6184 15.8336 25.6184H13.7152C13.6515 25.6184 13.6006 25.5666 13.6006 25.5042ZM19.1741 30.0206C19.1741 30.0682 19.1348 30.1073 19.087 30.1073H14.914C14.8663 30.1073 14.827 30.0682 14.827 30.0206V26.8768C14.827 26.7732 14.9119 26.6886 15.016 26.6886H18.984C19.0881 26.6886 19.173 26.7732 19.173 26.8768V30.0206H19.1741ZM20.3994 25.5042C20.3994 25.5677 20.3474 25.6184 20.2848 25.6184H18.1664C18.1027 25.6184 18.0517 25.5666 18.0517 25.5042V23.3946C18.0517 23.3312 18.1038 23.2804 18.1664 23.2804H20.2848C20.3485 23.2804 20.3994 23.3322 20.3994 23.3946V25.5042ZM20.3994 22.2124C20.3994 22.2759 20.3474 22.3266 20.2848 22.3266H18.1664C18.1027 22.3266 18.0517 22.2748 18.0517 22.2124V20.1028C18.0517 20.0394 18.1038 19.9886 18.1664 19.9886H20.2848C20.3485 19.9886 20.3994 20.0404 20.3994 20.1028V22.2124ZM24.8496 25.5042C24.8496 25.5677 24.7975 25.6184 24.7349 25.6184H22.6165C22.5528 25.6184 22.5019 25.5666 22.5019 25.5042V23.3946C22.5019 23.3312 22.5539 23.2804 22.6165 23.2804H24.7349C24.7986 23.2804 24.8496 23.3322 24.8496 23.3946V25.5042ZM24.8496 22.2124C24.8496 22.2759 24.7975 22.3266 24.7349 22.3266H22.6165C22.5528 22.3266 22.5019 22.2748 22.5019 22.2124V20.1028C22.5019 20.0394 22.5539 19.9886 22.6165 19.9886H24.7349C24.7986 19.9886 24.8496 20.0404 24.8496 20.1028V22.2124Z" fill="white"/>
</svg>
