<svg width="35" height="44" viewBox="0 0 35 44" fill="none" xmlns="http://www.w3.org/2000/svg">
<path d="M16.8713 0.0608164C7.2462 0.373515 -0.302995 8.43632 0.00935331 18.0722C0.321701 27.7082 18.2745 43.4537 18.2745 43.4537C18.2745 43.4537 35.1749 26.5776 34.8626 16.9417C34.5502 7.30579 26.4964 -0.251882 16.8713 0.0608164Z" fill="#F3B0CD"/>
<path d="M24.7696 16.0753L24.7856 16.0592C24.8017 16.0432 24.8156 16.025 24.8284 16.0057L26.3216 17.4991C26.373 17.5504 26.449 17.559 26.4907 17.5173L26.9735 17.0345C27.0152 16.9927 27.0066 16.9167 26.9553 16.8653L22.1879 12.0972C22.1365 12.0458 22.0605 12.0373 22.0187 12.079L21.536 12.5618C21.4943 12.6036 21.5028 12.6796 21.5542 12.731L23.0474 14.2243C23.0281 14.2361 23.0099 14.25 22.9938 14.2672L22.9778 14.2832L21.4418 15.8194L21.3048 15.9564L17.8722 12.5233C17.8208 12.4719 17.7448 12.4634 17.703 12.5051L17.1711 13.0371C17.1293 13.0789 17.1379 13.1549 17.1893 13.2063L19.6222 15.6396L9.70849 25.5547C9.66674 25.5964 9.67531 25.6725 9.72669 25.7238L10.5423 26.5396L9.81231 27.2697C9.77057 27.3114 9.77913 27.3874 9.83051 27.4388L10.5241 28.1325L8.03337 30.8238C7.92633 30.9544 8.09973 31.1278 8.23032 31.0208L10.9212 28.5297L11.6148 29.2234C11.6662 29.2747 11.7422 29.2833 11.7839 29.2416L12.5139 28.5115L13.3295 29.3272C13.3809 29.3786 13.4569 29.3871 13.4986 29.3454L23.4124 19.4303L25.8453 21.8636C25.8967 21.9149 25.9727 21.9235 26.0144 21.8818L26.5464 21.3497C26.5881 21.308 26.5796 21.232 26.5282 21.1806L23.0955 17.7474L23.2325 17.6104L24.7685 16.0742L24.7696 16.0753ZM13.4548 25.8009C13.4152 25.8405 13.3638 25.8598 13.3124 25.8598C13.261 25.8598 13.2096 25.8405 13.17 25.8009L11.6673 24.2979C11.588 24.2198 11.588 24.0913 11.6673 24.0132C11.7465 23.9339 11.8738 23.9339 11.952 24.0132L13.4548 25.5162C13.534 25.5943 13.534 25.7228 13.4548 25.8009ZM15.2433 24.0121C15.2037 24.0517 15.1524 24.071 15.101 24.071C15.0496 24.071 14.9982 24.0517 14.9586 24.0121L13.4558 22.5091C13.3766 22.4309 13.3766 22.3025 13.4558 22.2243C13.535 22.1451 13.6624 22.1451 13.7405 22.2243L15.2433 23.7273C15.3225 23.8055 15.3225 23.9339 15.2433 24.0121ZM17.033 22.2222C16.9934 22.2618 16.942 22.2811 16.8906 22.2811C16.8393 22.2811 16.7879 22.2618 16.7483 22.2222L15.2455 20.7192C15.1663 20.641 15.1663 20.5126 15.2455 20.4344C15.3247 20.3552 15.4521 20.3552 15.5302 20.4344L17.033 21.9374C17.1122 22.0156 17.1122 22.144 17.033 22.2222ZM18.8216 20.4333C18.782 20.473 18.7306 20.4922 18.6792 20.4922C18.6278 20.4922 18.5765 20.473 18.5368 20.4333L17.0341 18.9303C16.9549 18.8522 16.9549 18.7237 17.0341 18.6456C17.1133 18.5664 17.2406 18.5664 17.3188 18.6456L18.8216 20.1486C18.9008 20.2267 18.9008 20.3552 18.8216 20.4333ZM20.6101 18.6445C20.5705 18.6841 20.5192 18.7034 20.4678 18.7034C20.4164 18.7034 20.365 18.6841 20.3254 18.6445L18.8226 17.1415C18.7434 17.0634 18.7434 16.9349 18.8226 16.8568C18.9018 16.7775 19.0292 16.7775 19.1074 16.8568L20.6101 18.3598C20.6894 18.4379 20.6894 18.5664 20.6101 18.6445Z" fill="white"/>
</svg>
