<svg width="35" height="44" viewBox="0 0 35 44" fill="none" xmlns="http://www.w3.org/2000/svg">
<path d="M17.8494 0.0612585C8.22428 -0.169657 0.232977 7.46018 0.00232009 17.0961C-0.228337 26.732 16.8162 43.4638 16.8162 43.4638C16.8162 43.4638 34.6345 27.5643 34.8652 17.9284C35.0958 8.29244 27.4745 0.292174 17.8494 0.0612585Z" fill="#E6A35B"/>
<path d="M12.2008 28.6579C12.1914 28.6579 12.182 28.6579 12.1726 28.6567C12.0857 28.6485 12.0071 28.6039 11.9566 28.5334L11.0221 27.2482C10.9235 27.1131 10.954 26.9239 11.089 26.8264C11.224 26.7289 11.413 26.7583 11.5105 26.8934L12.243 27.9013L14.1672 26.0816C14.1813 26.0687 14.1966 26.0569 14.2118 26.0475C14.1496 25.9359 14.0322 25.8596 13.896 25.8596H11.2757C11.0761 25.8596 10.9141 26.0217 10.9141 26.2214V28.8435C10.9141 29.0432 11.0761 29.2053 11.2757 29.2053H13.896C14.0956 29.2053 14.2576 29.0432 14.2576 28.8435V26.8276L12.4074 28.578C12.351 28.6309 12.2771 28.6602 12.1996 28.6602L12.2008 28.6579Z" fill="white"/>
<path d="M12.2008 19.4938C12.1914 19.4938 12.182 19.4938 12.1726 19.4926C12.0857 19.4844 12.0071 19.4397 11.9566 19.3692L11.0221 18.084C10.9235 17.9489 10.954 17.7598 11.089 17.6623C11.224 17.5648 11.413 17.5941 11.5105 17.7292L12.243 18.7372L14.1672 16.9175C14.1813 16.9045 14.1966 16.8928 14.2118 16.8834C14.1496 16.7718 14.0322 16.6954 13.896 16.6954H11.2757C11.0761 16.6954 10.9141 16.8576 10.9141 17.0573V19.6794C10.9141 19.8791 11.0761 20.0412 11.2757 20.0412H13.896C14.0956 20.0412 14.2576 19.8791 14.2576 19.6794V17.6635L12.4074 19.4139C12.351 19.4668 12.2771 19.4961 12.1996 19.4961L12.2008 19.4938Z" fill="white"/>
<path d="M12.2008 24.0759C12.1914 24.0759 12.182 24.0759 12.1726 24.0747C12.0857 24.0665 12.0071 24.0218 11.9566 23.9513L11.0221 22.6661C10.9235 22.531 10.954 22.3419 11.089 22.2444C11.224 22.1469 11.413 22.1762 11.5105 22.3113L12.243 23.3193L14.1672 21.4996C14.1813 21.4866 14.1966 21.4749 14.2118 21.4655C14.1496 21.3539 14.0322 21.2775 13.896 21.2775H11.2757C11.0761 21.2775 10.9141 21.4396 10.9141 21.6394V24.2615C10.9141 24.4612 11.0761 24.6233 11.2757 24.6233H13.896C14.0956 24.6233 14.2576 24.4612 14.2576 24.2615V22.2455L12.4074 23.996C12.351 24.0488 12.2771 24.0782 12.1996 24.0782L12.2008 24.0759Z" fill="white"/>
<path d="M25.9458 11.0571H8.23832C8.10683 11.0571 8 11.164 8 11.2956V33.1074C8 33.239 8.10683 33.3459 8.23832 33.3459H25.9458C26.0773 33.3459 26.1841 33.239 26.1841 33.1074V11.2956C26.1841 11.164 26.0773 11.0571 25.9458 11.0571ZM25.2214 31.929H8.96268V13.2706H12.1419V12.8101H11.8284C11.7756 12.8101 11.7321 12.7666 11.7321 12.7137V11.5612C11.7321 11.5083 11.7756 11.4648 11.8284 11.4648H22.3557C22.4085 11.4648 22.4519 11.5083 22.4519 11.5612V12.7137C22.4519 12.7666 22.4085 12.8101 22.3557 12.8101H22.0422V13.2706H25.2214V31.929Z" fill="white"/>
<path d="M21.8826 12.8088H12.2969V13.2693H21.8826V12.8088Z" fill="white"/>
<path d="M20.9435 12.6267H13.2374C12.9181 12.6267 12.6562 12.3647 12.6562 12.0452C12.6562 11.7257 12.9181 11.4637 13.2374 11.4637H20.9435C21.2628 11.4637 21.5246 11.7257 21.5246 12.0452C21.5246 12.3647 21.2628 12.6267 20.9435 12.6267Z" fill="white"/>
<path d="M12.2969 13.7392V14.2373C12.2969 14.3254 12.3685 14.3971 12.4565 14.3971H14.1224C14.1577 14.2103 14.322 14.0681 14.5193 14.0681H19.6614C19.8574 14.0681 20.0218 14.2103 20.0582 14.3971H21.7241C21.8121 14.3971 21.8838 14.3254 21.8838 14.2373V13.7392H12.2981H12.2969Z" fill="white"/>
<path d="M22.0486 13.7392V14.2373C22.0486 14.4124 21.9066 14.5546 21.7316 14.5546H20.0646C20.027 14.7379 19.8626 14.8765 19.6689 14.8765H14.5268C14.3331 14.8765 14.1699 14.7379 14.1312 14.5546H12.4641C12.2891 14.5546 12.1471 14.4124 12.1471 14.2373V13.7392H9.4375V31.4577H24.757V13.7392H22.0474H22.0486ZM14.5949 26.5184L14.5033 26.6054V28.8424C14.5033 29.1702 14.2368 29.4369 13.9093 29.4369H11.2889C10.9614 29.4369 10.6949 29.1702 10.6949 28.8424V26.22C10.6949 25.8922 10.9614 25.6255 11.2889 25.6255H13.9093C14.1617 25.6255 14.3765 25.7853 14.4622 26.0074C14.515 26.0215 14.5655 26.0485 14.6066 26.092C14.7217 26.213 14.7158 26.4045 14.5949 26.5196V26.5184ZM14.5949 21.9364L14.5033 22.0233V24.2603C14.5033 24.5881 14.2368 24.8548 13.9093 24.8548H11.2889C10.9614 24.8548 10.6949 24.5881 10.6949 24.2603V21.638C10.6949 21.3102 10.9614 21.0435 11.2889 21.0435H13.9093C14.1617 21.0435 14.3765 21.2033 14.4622 21.4253C14.515 21.4394 14.5655 21.4664 14.6066 21.5099C14.7217 21.6309 14.7158 21.8224 14.5949 21.9376V21.9364ZM14.5949 17.3543L14.5033 17.4413V19.6783C14.5033 20.006 14.2368 20.2727 13.9093 20.2727H11.2889C10.9614 20.2727 10.6949 20.006 10.6949 19.6783V17.0559C10.6949 16.7281 10.9614 16.4614 11.2889 16.4614H13.9093C14.1617 16.4614 14.3765 16.6212 14.4622 16.8432C14.515 16.8573 14.5655 16.8844 14.6066 16.9278C14.7217 17.0488 14.7158 17.2404 14.5949 17.3555V17.3543ZM23.0524 28.5181H15.9966C15.8358 28.5181 15.7043 28.3877 15.7043 28.2256C15.7043 28.0634 15.8346 27.933 15.9966 27.933H23.0524C23.2132 27.933 23.3447 28.0634 23.3447 28.2256C23.3447 28.3877 23.2144 28.5181 23.0524 28.5181ZM23.0524 27.5277H15.9966C15.8358 27.5277 15.7043 27.3973 15.7043 27.2351C15.7043 27.073 15.8346 26.9426 15.9966 26.9426H23.0524C23.2132 26.9426 23.3447 27.073 23.3447 27.2351C23.3447 27.3973 23.2144 27.5277 23.0524 27.5277ZM23.0524 23.936H15.9966C15.8358 23.936 15.7043 23.8056 15.7043 23.6435C15.7043 23.4814 15.8346 23.351 15.9966 23.351H23.0524C23.2132 23.351 23.3447 23.4814 23.3447 23.6435C23.3447 23.8056 23.2144 23.936 23.0524 23.936ZM23.0524 22.9456H15.9966C15.8358 22.9456 15.7043 22.8152 15.7043 22.6531C15.7043 22.4909 15.8346 22.3605 15.9966 22.3605H23.0524C23.2132 22.3605 23.3447 22.4909 23.3447 22.6531C23.3447 22.8152 23.2144 22.9456 23.0524 22.9456ZM23.0524 19.354H15.9966C15.8358 19.354 15.7043 19.2236 15.7043 19.0614C15.7043 18.8993 15.8346 18.7689 15.9966 18.7689H23.0524C23.2132 18.7689 23.3447 18.8993 23.3447 19.0614C23.3447 19.2236 23.2144 19.354 23.0524 19.354ZM23.0524 18.3636H15.9966C15.8358 18.3636 15.7043 18.2331 15.7043 18.071C15.7043 17.9089 15.8346 17.7785 15.9966 17.7785H23.0524C23.2132 17.7785 23.3447 17.9089 23.3447 18.071C23.3447 18.2331 23.2144 18.3636 23.0524 18.3636Z" fill="white"/>
</svg>
