<svg width="270" height="23" viewBox="0 0 270 23" fill="none" xmlns="http://www.w3.org/2000/svg">
<path d="M260.423 8.69208C262.591 9.06511 264.713 9.76453 266.718 10.6738C267.511 11.0235 268.303 11.3965 269.003 11.9327C269.376 12.2125 269.609 12.6321 269.609 13.1217C269.609 14.0543 268.886 14.9635 267.907 14.9635C267.324 14.9635 266.974 14.7537 266.182 13.9844C264.526 12.3757 262.591 11.2566 260.423 10.4173V20.4423C260.423 21.608 259.794 22.0743 258.675 22.0743C257.556 22.0743 256.973 21.5847 256.973 20.4423V3.49306C256.973 2.32736 257.602 1.86108 258.745 1.86108C259.864 1.86108 260.423 2.35068 260.423 3.49306V8.69208Z" fill="#444444"/>
<path d="M235.919 6.03429C235.919 7.01348 235.103 7.8761 234.123 7.8761C233.517 7.8761 233.074 7.47976 232.538 6.85028C231.302 5.45144 229.95 4.379 228.318 3.46975C227.852 3.2133 227.526 3.02679 227.526 2.63045C227.526 2.25743 227.852 1.93103 228.225 1.93103C229.041 1.93103 231.629 2.93353 232.445 3.30656C233.331 3.70289 234.217 4.12255 235.033 4.65877C235.522 4.98516 235.919 5.40481 235.919 6.03429ZM228.481 21.6547C227.432 21.6547 226.826 20.6522 226.826 19.6963C226.826 18.414 227.665 18.1576 229.321 17.9011C230.906 17.6447 232.422 17.225 233.914 16.6188C235.499 15.9661 237.038 15.1734 238.413 14.1709C240.651 12.5622 242.68 10.5805 244.032 8.15587C244.195 7.85278 244.382 7.57302 244.778 7.57302C245.174 7.57302 245.524 7.8761 245.524 8.27244C245.524 8.57552 245.151 9.34488 244.755 10.0909C243.729 12.0493 242.4 13.7745 240.838 15.2899C238.46 17.598 235.685 19.2067 232.608 20.4423C231.256 20.9786 229.437 21.6547 228.481 21.6547Z" fill="#444444"/>
<path d="M212.839 8.36567V20.8153C212.839 21.981 212.186 22.424 211.067 22.424C209.971 22.424 209.388 21.9344 209.388 20.8153V10.394C207.733 11.2333 206.008 11.956 204.236 12.5156C203.49 12.7487 200.902 13.4947 200.389 13.4947C200.016 13.4947 199.713 13.145 199.713 12.772C199.713 12.3524 200.039 12.1892 200.412 12.0726C203.303 11.1867 206.054 9.81114 208.502 8.03927C210.484 6.61712 212.326 4.84526 213.725 2.86357C214.191 2.18746 214.68 1.53467 215.566 1.53467C216.592 1.53467 217.618 2.35066 217.618 3.4231C217.618 3.9127 217.525 4.09921 216.732 4.93851C215.8 5.9177 213.911 7.54968 212.839 8.36567Z" fill="#444444"/>
<path d="M191.506 0.671997C192.812 0.671997 193.884 1.76776 193.884 3.05003C193.884 4.35561 192.812 5.42805 191.506 5.42805C190.224 5.42805 189.128 4.35561 189.128 3.05003C189.128 1.76776 190.224 0.671997 191.506 0.671997ZM191.506 1.90764C190.877 1.90764 190.364 2.42055 190.364 3.05003C190.364 3.6795 190.877 4.21572 191.506 4.21572C192.136 4.21572 192.672 3.6795 192.672 3.05003C192.672 2.42055 192.136 1.90764 191.506 1.90764ZM185.934 8.1791V18.9502C185.934 20.9319 185.445 21.7945 183.323 21.7945C182.041 21.7945 180.712 21.4681 179.523 21.0251C179.15 20.8852 178.8 20.6521 178.8 20.2091C178.8 19.7895 179.103 19.4398 179.523 19.4398C179.733 19.4398 179.896 19.4864 180.362 19.6496C180.759 19.7895 181.202 19.9294 181.645 19.9294C182.414 19.9294 182.484 19.3931 182.484 18.7637V8.1791H175.746C175.28 8.1791 174.837 7.94596 174.837 7.43305C174.837 6.89683 175.28 6.68701 175.746 6.68701H182.484V3.63287C182.484 2.46717 183.113 2.0009 184.232 2.0009C185.351 2.0009 185.934 2.5138 185.934 3.63287V6.68701H192.719C193.162 6.68701 193.605 6.89683 193.605 7.43305C193.605 7.94596 193.162 8.1791 192.719 8.1791H185.934ZM193.978 17.528C193.978 18.4839 193.022 19.1833 192.113 19.1833C191.11 19.1833 190.877 18.4839 190.551 17.4114C190.247 16.4556 189.408 14.4739 188.965 13.4947C188.685 12.8652 188.382 12.2824 188.033 11.7228C187.776 11.3032 187.706 11.0934 187.706 10.9535C187.706 10.5105 188.149 10.1841 188.569 10.1841C188.895 10.1841 189.128 10.4406 189.338 10.6737C190.061 11.4431 190.737 12.2591 191.367 13.0984C192.532 14.6604 193.978 16.5955 193.978 17.528ZM176.142 19.3931C175.303 19.3931 174.464 18.717 174.464 17.8078C174.464 17.2016 174.884 16.7587 175.28 16.339C176.585 15.0101 178.078 12.9118 178.777 11.1866C178.94 10.8136 179.15 10.4406 179.616 10.4406C180.036 10.4406 180.386 10.7903 180.386 11.2099C180.386 12.1425 179.313 15.0101 178.894 15.9427C178.521 16.782 178.124 17.6679 177.635 18.4139C177.285 18.9502 176.842 19.3931 176.142 19.3931Z" fill="#444444"/>
<path d="M160.219 4.84522C159.916 8.45889 159.66 12.0959 158.494 15.5463C157.725 17.8544 156.582 20.4423 153.738 20.4423C150.078 20.4423 148.306 16.4789 148.306 13.3315C148.306 10.8369 149.215 8.36564 150.87 6.52383C153.038 4.07586 156.093 3.00342 159.287 3.00342C164.789 3.00342 169.055 6.01092 169.055 11.8394C169.055 15.3365 167.47 18.344 164.322 19.9993C163.297 20.5122 161.431 21.235 160.266 21.235C159.846 21.235 159.473 20.8852 159.473 20.4423C159.473 19.976 159.799 19.7195 160.196 19.603C161.408 19.2533 162.411 18.6005 163.25 17.6679C164.742 15.9893 165.558 13.6346 165.558 11.4198C165.558 7.71284 163.646 5.84773 160.219 4.84522ZM156.862 4.84522C155.3 5.4747 154.204 6.22075 153.295 7.6429C151.966 9.69453 151.267 12.1658 151.267 14.5905C151.267 15.6396 151.36 16.7587 151.919 17.6679C152.199 18.1575 152.712 18.6471 153.318 18.6471C154.251 18.6471 154.81 17.0384 155.323 15.523C156.372 12.0726 156.652 8.43558 156.862 4.84522Z" fill="#444444"/>
<path d="M123.71 9.39144C123.08 9.39144 122.73 8.69202 122.73 8.13249C122.73 7.29318 123.407 7.10667 124.293 6.87353C127.86 5.94097 131.52 4.84521 135.273 4.84521C139.54 4.84521 142.827 7.26987 142.827 11.7695C142.827 18.5772 134.691 20.6055 129.212 20.6055C128.652 20.6055 128.163 20.3956 128.163 19.7662C128.163 19.0901 128.676 18.9502 129.235 18.9502H129.282C133.595 18.9502 139.19 17.0851 139.19 11.9327C139.19 8.59877 136.882 6.68702 133.665 6.68702C131.03 6.68702 126.997 7.96929 124.619 9.08836C124.339 9.22825 123.966 9.39144 123.71 9.39144Z" fill="#444444"/>
<path d="M112.84 10.7903C113.982 10.9769 115.171 11.2333 116.104 11.9794C117.223 12.8886 117.736 14.2874 117.736 15.7096C117.736 20.046 113.982 21.1884 110.322 21.1884C108.504 21.1884 106.755 20.8387 105.263 19.7196C104.237 18.9502 102.908 17.4815 102.908 16.1059C102.908 15.1501 103.864 14.5905 104.727 14.5905C105.17 14.5905 105.659 14.6838 106.009 14.9869C106.499 15.4065 106.569 15.9661 106.662 16.5722C106.942 18.5073 108.27 19.6497 110.205 19.6497C112.84 19.6497 113.982 17.9944 113.982 15.5231C113.982 13.215 113.12 11.6063 110.602 11.6063H108.294C107.874 11.6063 107.524 11.2799 107.524 10.8603C107.524 10.4406 107.874 10.1142 108.294 10.1142H110.602C112.7 10.1142 113.446 8.8786 113.446 6.89691C113.446 4.82197 112.653 3.51638 110.439 3.51638C109.739 3.51638 108.993 3.65627 108.434 4.07592C107.804 4.56551 107.571 5.28824 107.384 6.03429C107.175 6.8736 106.382 7.31656 105.566 7.31656C104.727 7.31656 103.748 6.75703 103.748 5.82447C103.748 4.79865 104.727 3.8894 105.519 3.3765C107.081 2.374 108.947 1.93103 110.788 1.93103C113.749 1.93103 117.2 3.12004 117.2 6.64046C117.2 7.82947 116.757 9.01848 115.778 9.7179C114.962 10.3008 113.866 10.5805 112.84 10.7903Z" fill="#444444"/>
<path d="M89.3158 4.84522C89.0127 8.45889 88.7563 12.0959 87.5906 15.5463C86.8212 17.8544 85.6788 20.4423 82.8345 20.4423C79.1742 20.4423 77.4023 16.4789 77.4023 13.3315C77.4023 10.8369 78.3116 8.36564 79.9669 6.52383C82.1351 4.07586 85.1892 3.00342 88.3832 3.00342C93.8853 3.00342 98.1518 6.01092 98.1518 11.8394C98.1518 15.3365 96.5664 18.344 93.4191 19.9993C92.3932 20.5122 90.5281 21.235 89.3624 21.235C88.9428 21.235 88.5697 20.8852 88.5697 20.4423C88.5697 19.976 88.8961 19.7195 89.2925 19.603C90.5048 19.2533 91.5073 18.6005 92.3466 17.6679C93.8387 15.9893 94.6547 13.6346 94.6547 11.4198C94.6547 7.71284 92.743 5.84773 89.3158 4.84522ZM85.9586 4.84522C84.3965 5.4747 83.3008 6.22075 82.3915 7.6429C81.0626 9.69453 80.3632 12.1658 80.3632 14.5905C80.3632 15.6396 80.4565 16.7587 81.016 17.6679C81.2958 18.1575 81.8087 18.6471 82.4149 18.6471C83.3474 18.6471 83.9069 17.0384 84.4199 15.523C85.469 12.0726 85.7488 8.43558 85.9586 4.84522Z" fill="#444444"/>
<path d="M62.0855 4.05255C61.8524 4.05255 61.7125 4.23906 61.5959 4.40226C59.5443 7.01342 56.7699 8.94848 53.7857 10.324C52.9464 10.7203 52.0605 11.0934 51.7807 11.0934C51.4077 11.0934 51.1279 10.7437 51.1279 10.394C51.1279 10.0909 51.4077 9.90436 51.6642 9.76447C54.625 8.24907 56.9797 5.84772 58.7516 3.07336C59.078 2.56045 59.3578 2.00092 59.8474 1.62789C60.4768 1.1383 61.2928 1.02173 62.0855 1.02173C62.8549 1.02173 63.6942 1.1383 64.3237 1.62789C64.7899 2.00092 65.093 2.56045 65.4194 3.07336C67.1913 5.84772 69.546 8.24907 72.5069 9.76447C72.7633 9.90436 73.0198 10.0909 73.0198 10.394C73.0198 10.767 72.7633 11.0934 72.3903 11.0934C71.8774 11.0934 69.5926 9.95099 69.0331 9.6479C66.5618 8.34232 64.3003 6.61709 62.5751 4.40226C62.3886 4.16912 62.272 4.05255 62.0855 4.05255ZM63.6709 9.99761V12.8652H70.292C70.6884 12.8652 71.0847 13.0517 71.0847 13.4947C71.0847 13.961 70.6884 14.1475 70.292 14.1475H63.6709V20.8153H71.8074C72.2038 20.8153 72.6001 21.0018 72.6001 21.4681C72.6001 21.9111 72.2038 22.0976 71.8074 22.0976H52.3403C51.9439 22.0976 51.5476 21.9111 51.5476 21.4681C51.5476 21.0018 51.9439 20.8153 52.3403 20.8153H60.4535V14.1475H53.9023C53.506 14.1475 53.1096 13.961 53.1096 13.4947C53.1096 13.0517 53.506 12.8652 53.9023 12.8652H60.4535V9.99761H57.3061C56.9098 9.99761 56.5135 9.8111 56.5135 9.34482C56.5135 8.87854 56.9098 8.69203 57.3061 8.69203H66.8649C67.2845 8.69203 67.6576 8.87854 67.6576 9.34482C67.6576 9.8111 67.2845 9.99761 66.8649 9.99761H63.6709ZM57.7258 20.5589C56.6533 20.5589 56.4202 19.7195 56.1637 18.8569C55.8374 17.7612 55.3944 16.712 54.8115 15.7095C54.7183 15.5463 54.6483 15.4065 54.6483 15.2199C54.6483 14.8702 54.9048 14.5672 55.2778 14.5672C55.7441 14.5672 57.1896 15.8261 57.6092 16.2224C58.262 16.8519 59.521 18.0643 59.521 19.0201C59.521 19.9294 58.5651 20.5589 57.7258 20.5589ZM69.6159 16.3623C69.6159 17.3415 67.8674 18.6937 66.8882 19.4631C66.4685 19.7895 65.3961 20.5355 65.0697 20.5355C64.72 20.5355 64.3703 20.2558 64.3703 19.8827C64.3703 19.7429 64.4868 19.533 64.6267 19.3232C65.3495 18.1808 65.7691 17.0851 66.1888 15.9427C66.4685 15.2199 66.6784 14.8003 67.541 14.8003C68.3803 14.8003 69.6159 15.3598 69.6159 16.3623Z" fill="#444444"/>
<path d="M38.9814 4.26238V2.60708C38.9814 2.16412 39.028 1.72115 39.401 1.44138C39.7274 1.18493 40.1471 1.06836 40.5667 1.06836C41.0563 1.06836 41.6392 1.25487 41.9423 1.67452C42.1288 1.93098 42.1521 2.25737 42.1521 2.58377V4.26238H45.7891C46.2087 4.26238 46.5817 4.44889 46.5817 4.91517C46.5817 5.38145 46.2087 5.56796 45.7891 5.56796H42.1521V8.48221H46.5118C46.9081 8.48221 47.3045 8.66872 47.3045 9.11169C47.3045 9.57797 46.9081 9.76448 46.5118 9.76448H34.5983C34.202 9.76448 33.8057 9.57797 33.8057 9.11169C33.8057 8.66872 34.202 8.48221 34.5983 8.48221H38.9814V5.56796H35.2045C34.8082 5.56796 34.4118 5.38145 34.4118 4.91517C34.4118 4.44889 34.8082 4.26238 35.2045 4.26238H38.9814ZM33.4093 4.26238V18.6005C33.4093 19.8594 32.5001 20.3723 31.3577 20.3723H28.1171C26.9747 20.3723 26.0654 19.8594 26.0654 18.6005V4.26238C26.0654 3.00342 26.9747 2.49051 28.1171 2.49051H31.3577C32.57 2.49051 33.4093 3.00342 33.4093 4.26238ZM29.003 10.6271H30.6583V4.40226C30.6583 3.93598 30.5184 3.77278 30.0521 3.77278H29.6092C29.1429 3.77278 29.003 3.93598 29.003 4.40226V10.6271ZM41.5925 13.961H34.5983C34.202 13.961 33.8057 13.7745 33.8057 13.3082C33.8057 12.8419 34.202 12.6554 34.5983 12.6554H41.5925V11.583C41.5925 11.14 41.6392 10.6737 42.0355 10.3706C42.3619 10.1142 42.8049 9.99762 43.2012 9.99762C43.7141 9.99762 44.2737 10.1608 44.6 10.6271C44.8099 10.9069 44.8332 11.2566 44.8332 11.583V12.6554H46.5118C46.9314 12.6554 47.3045 12.8419 47.3045 13.3082C47.3045 13.7745 46.9314 13.961 46.5118 13.961H44.8332V20.3957C44.8332 21.9111 43.8307 22.6338 42.4085 22.6338H37.9789C37.5825 22.6338 37.1862 22.4473 37.1862 22.0043C37.1862 21.538 37.5825 21.3515 37.9789 21.3515H40.6833C41.3128 21.3515 41.5925 21.0718 41.5925 20.4423V13.961ZM29.003 11.9094V18.4606C29.003 18.9269 29.1429 19.0668 29.6092 19.0668H30.0521C30.5184 19.0668 30.6583 18.9269 30.6583 18.4606V11.9094H29.003ZM35.1579 14.9402C35.1579 14.5672 35.4377 14.2874 35.8107 14.2874C36.3236 14.2874 37.5359 15.2666 37.9556 15.6163C38.6783 16.2458 39.9606 17.4581 39.9606 18.2508C39.9606 19.2533 38.9581 19.9993 38.0022 19.9993C37.0463 19.9993 36.7199 19.3465 36.4868 18.5305C36.207 17.5047 35.8806 16.4789 35.391 15.5697C35.2745 15.3598 35.1579 15.1733 35.1579 14.9402Z" fill="#444444"/>
<path d="M0.93256 11.21H20.6329C21.1225 11.21 21.5888 11.4198 21.5888 11.9793C21.5888 12.5155 21.1225 12.7487 20.6329 12.7487H0.93256C0.46628 12.7487 0 12.5155 0 11.9793C0 11.4198 0.46628 11.21 0.93256 11.21Z" fill="#444444"/>
</svg>
