<svg width="25" height="15" viewBox="0 0 25 15" fill="none" xmlns="http://www.w3.org/2000/svg">
<path d="M23.6811 3.59416L13.2731 14.0022C13.1281 14.1477 12.9557 14.2632 12.766 14.342C12.5762 14.4208 12.3727 14.4614 12.1673 14.4614C11.9618 14.4614 11.7583 14.4208 11.5686 14.342C11.3788 14.2632 11.2064 14.1477 11.0614 14.0022L0.653372 3.59416C0.360082 3.30087 0.195312 2.90308 0.195313 2.48831C0.195313 2.07353 0.360082 1.67575 0.653372 1.38246C0.946663 1.08917 1.34445 0.924397 1.75923 0.924397C2.174 0.924397 2.57179 1.08917 2.86508 1.38246L12.1686 10.6859L21.472 1.38116C21.7653 1.08787 22.1631 0.923096 22.5779 0.923096C22.9927 0.923096 23.3905 1.08787 23.6837 1.38116C23.977 1.67445 24.1418 2.07223 24.1418 2.48701C24.1418 2.90178 23.977 3.29957 23.6837 3.59286L23.6811 3.59416Z" fill="#444444"/>
</svg>
