<svg width="55" height="71" viewBox="0 0 55 71" fill="none" xmlns="http://www.w3.org/2000/svg">
<path d="M29.2044 52.5933L0.534344 50.9482C0.384344 50.9282 0.24435 50.9984 0.13435 51.1087C0.0343505 51.2191 -0.0156544 51.3695 0.0043456 51.52L2.52433 69.6662C2.54433 69.8167 2.63435 69.9471 2.75435 70.0274C2.83435 70.0775 2.92436 70.0976 3.01436 70.0976C3.06436 70.0976 3.12433 70.0976 3.17433 70.0675L30.3143 60.6984C30.5443 60.6182 30.6843 60.3975 30.6443 60.1568L29.6543 53.0146C29.6243 52.7739 29.4243 52.5933 29.1843 52.5833L29.2044 52.5933Z" fill="#CBECFF"/>
<path d="M54.3539 0.632323C54.2339 0.532013 54.0839 0.491888 53.9339 0.521981L36.1939 4.07299C36.0539 4.10308 35.9339 4.19336 35.8539 4.31373C35.7839 4.44414 35.7639 4.5946 35.8139 4.72501L45.1939 31.9494C45.2639 32.16 45.4539 32.2904 45.6639 32.2904C45.7039 32.2904 45.7439 32.2904 45.7839 32.2804L53.0939 30.5149C53.3139 30.4648 53.4739 30.2742 53.4739 30.0435L54.5239 1.0436C54.5239 0.893131 54.4639 0.742666 54.3439 0.642355L54.3539 0.632323Z" fill="#CBECFF"/>
<path d="M17.0944 9.21881C17.0044 9.09844 16.8644 9.01819 16.7144 9.00816C16.5744 8.99813 16.4144 9.05831 16.3144 9.17869L1.51441 25.75C1.41441 25.8604 1.36439 26.0108 1.39439 26.1613C1.41439 26.3118 1.50441 26.4422 1.63441 26.5124L33.2044 44.6787C33.2844 44.7188 33.3644 44.7489 33.4544 44.7489C33.6144 44.7489 33.7644 44.6787 33.8644 44.5383L37.8244 39.0111C37.9444 38.8406 37.9444 38.5999 37.8244 38.4293L17.0944 9.21881Z" fill="#CBECFF"/>
</svg>
