<svg width="370" height="99" viewBox="0 0 370 99" fill="none" xmlns="http://www.w3.org/2000/svg">
<path d="M313.889 71.9171L312.489 82.6371C312.329 84.0371 312.009 85.0371 310.369 85.0371C308.769 85.0371 308.489 83.9571 308.329 82.6371L306.929 71.9171V64.2371C306.929 61.8371 308.209 60.9971 310.489 60.9971C312.689 60.9971 313.889 61.9571 313.889 64.2371V71.9171ZM310.409 87.6371C312.529 87.6371 314.249 89.3571 314.249 91.4771C314.249 93.6371 312.529 95.3571 310.409 95.3571C308.289 95.3571 306.569 93.6371 306.569 91.4771C306.569 89.3571 308.289 87.6371 310.409 87.6371Z" fill="#004898"/>
<path d="M279.929 70.677L280.089 74.877C280.169 77.077 280.329 79.317 280.329 81.557C280.329 85.317 279.369 89.597 276.649 92.317C273.289 95.677 268.169 96.637 263.609 96.637C261.649 96.637 259.089 96.597 257.329 95.797C256.449 95.397 255.889 94.357 255.889 93.397C255.889 91.917 257.089 90.557 258.609 90.557C259.209 90.557 259.849 90.717 260.449 90.797C261.649 90.997 262.889 91.117 264.129 91.117C266.569 91.117 269.929 90.717 271.769 88.957C272.249 88.517 272.649 87.957 273.009 87.397C271.369 87.837 269.689 87.997 268.009 87.997C262.689 87.997 255.369 86.757 255.369 79.997C255.369 73.317 262.729 72.237 267.929 72.237C270.049 72.237 272.209 72.397 274.249 72.917L274.169 70.477H254.169C252.329 70.477 251.489 69.197 251.489 67.757C251.489 66.277 252.689 65.037 254.169 65.037H273.609L273.569 64.157C273.569 62.397 274.929 60.957 276.689 60.957C278.369 60.957 279.689 62.277 279.769 63.917V65.037H283.369C284.889 65.037 286.089 66.317 286.089 67.837C286.089 69.637 284.809 70.677 283.369 70.677H279.929ZM274.489 79.837C274.209 78.037 272.049 77.357 267.729 77.357C266.249 77.357 262.889 77.517 261.809 78.557C261.409 78.957 261.209 79.477 261.209 80.037C261.209 82.877 265.849 82.877 268.369 82.877C270.009 82.877 273.249 82.877 274.169 81.357C274.409 80.957 274.489 80.637 274.489 80.237V79.837Z" fill="#004898"/>
<path d="M234.529 78.1569L234.569 82.0769C236.209 82.6369 237.809 83.2769 239.329 84.0769C240.369 84.5969 242.209 85.6769 242.889 86.5969C243.249 87.1169 243.489 87.6369 243.489 88.2369C243.489 89.7969 242.209 91.1569 240.609 91.1569C239.889 91.1569 239.249 90.7969 238.649 90.3969C237.329 89.4769 236.009 88.5569 234.529 87.9169C234.169 94.6769 229.089 96.5569 223.129 96.5569C220.649 96.5569 218.129 96.1569 215.969 94.9569C213.449 93.5169 211.849 91.0769 211.849 87.9969C211.849 84.9569 213.089 83.2769 215.289 81.9569C217.729 80.5569 220.809 80.3569 223.569 80.3569C225.369 80.3569 227.169 80.5169 228.929 80.7969V78.1569H213.049C211.609 78.1569 210.409 76.9569 210.409 75.5169C210.409 74.1169 211.609 72.9169 213.009 72.9169H228.889V70.1169H213.049C211.609 70.1169 210.409 68.9569 210.409 67.5169C210.409 66.0769 211.609 64.9169 213.009 64.9169H228.689V63.9969C228.689 62.4369 230.009 61.0769 231.569 61.0769C233.129 61.0769 234.449 62.3969 234.449 63.9169V64.9169H241.529C242.929 64.9169 244.129 66.0769 244.129 67.5169C244.129 68.9569 242.929 70.1169 241.529 70.1169H234.489L234.529 72.9169H241.529C242.969 72.9169 244.129 74.1169 244.129 75.5169C244.129 76.9569 242.929 78.1569 241.529 78.1569H234.529ZM228.969 85.9569C227.009 85.4769 225.009 85.2369 222.969 85.2369C221.049 85.2369 217.489 85.4369 217.489 88.0369C217.489 90.8369 220.929 91.1569 223.009 91.1569C224.809 91.1569 227.409 90.9169 228.369 89.1569C228.929 88.1569 228.969 87.0369 228.969 85.9569Z" fill="#004898"/>
<path d="M174.129 87.0371C172.329 88.2771 171.089 88.7571 170.049 88.7571C168.529 88.7571 167.209 87.3971 167.209 85.8771C167.209 84.3171 167.929 83.7171 170.929 82.1571C172.049 81.5571 173.129 80.7971 174.129 80.0371V73.1971H170.409C168.849 73.1971 167.529 71.8771 167.529 70.3171C167.529 68.7571 168.849 67.4371 170.409 67.4371H174.129V64.5171C174.129 62.8771 175.529 61.5171 177.169 61.5171C178.809 61.5171 180.169 62.9171 180.169 64.5571V68.2771C183.329 66.1171 187.089 64.8371 190.929 64.8371C195.929 64.8371 201.129 67.4771 201.129 73.1171C201.129 75.3971 200.249 77.8771 199.409 79.9571C198.369 82.5171 196.929 86.1171 196.929 88.0771C196.929 88.9971 197.449 89.7171 198.449 89.7171C198.929 89.7171 199.369 89.5571 200.129 89.1571C200.609 88.9171 201.209 88.7571 201.769 88.7571C203.369 88.7571 204.689 90.1571 204.689 91.7171C204.689 94.6771 200.729 95.7171 198.369 95.7171C194.009 95.7171 190.889 93.0371 190.889 88.5571C190.889 86.7971 191.369 85.0771 191.889 83.3971C192.489 81.5571 193.129 79.7171 193.849 77.9171C194.489 76.2771 195.009 74.8771 195.009 73.5171C195.009 72.5571 194.409 71.5571 193.529 71.1171C192.729 70.6771 191.769 70.5171 190.809 70.5171C187.649 70.5171 184.489 71.7571 182.089 73.8371C181.449 74.3971 180.809 74.9971 180.169 75.6371V93.6371C180.169 95.2771 178.809 96.6771 177.129 96.6771C175.489 96.6771 174.129 95.2771 174.129 93.6371V87.0371Z" fill="#004898"/>
<path d="M153.61 68.6371H133.13C131.57 68.6371 130.17 67.5171 130.17 65.8771C130.17 64.2371 131.57 63.0371 133.13 63.0371H153.57C155.17 63.0371 156.57 64.2371 156.57 65.8771C156.57 67.7171 155.21 68.6371 153.61 68.6371ZM135.73 75.9971C138.61 74.1971 142.61 73.7171 145.97 73.7171C152.89 73.7171 160.45 76.4771 160.45 84.5571C160.45 88.7171 158.33 92.0771 154.81 94.1971C151.49 96.1571 147.53 96.6771 143.77 96.6771C140.17 96.6771 136.37 96.2371 133.09 94.6771C131.69 93.9971 130.09 93.0371 130.09 91.3171C130.09 89.7571 131.53 88.4371 133.05 88.4371C133.85 88.4371 134.53 88.7971 135.21 89.1571C137.97 90.5971 141.21 91.0371 144.29 91.0371C147.21 91.0371 150.57 90.4771 152.77 88.3571C153.77 87.3971 154.41 86.1171 154.41 84.6771C154.41 80.2771 149.01 79.3171 145.57 79.3171C142.49 79.3171 139.17 79.9571 136.49 81.5171C135.25 82.1971 134.17 83.1171 133.21 84.1971C132.57 84.9171 131.85 85.4371 130.85 85.4371C129.01 85.4371 127.93 84.0371 127.93 82.3971C127.93 82.0371 128.01 81.6771 128.13 81.3171L130.33 73.7571C130.69 72.3971 131.81 71.3571 133.29 71.3571C134.81 71.3571 136.17 72.6371 136.17 74.1571C136.17 74.7971 135.89 75.4371 135.73 75.9971Z" fill="#004898"/>
<path d="M92.1102 63.5969H113.27C114.87 63.5969 116.19 64.9169 116.19 66.5169C116.19 68.1169 114.87 69.4369 113.27 69.4369H91.7502C90.1502 69.4369 88.8302 68.1569 88.8302 66.5169C88.8302 64.6769 90.4302 63.5969 92.1102 63.5969ZM109.63 80.4769C111.67 80.5569 112.95 81.6769 112.95 83.7969C112.95 84.5169 112.87 85.2369 112.75 85.9569C112.59 86.8769 112.47 87.8369 112.47 88.7569C112.47 90.2369 113.47 90.8769 114.87 90.8769C115.79 90.8769 116.75 90.7169 117.63 90.4369C118.63 90.1169 119.11 89.9969 119.63 89.9969C121.15 89.9969 122.23 91.3969 122.23 92.8369C122.23 93.6369 121.95 94.3969 121.35 94.9569C120.07 96.1969 116.67 96.5569 114.95 96.5569C112.99 96.5569 110.99 96.3169 109.31 95.3569C107.63 94.3969 106.47 92.6369 106.47 90.6769C106.47 89.5969 106.67 88.5169 106.83 87.4369C106.87 87.1569 106.87 86.8369 106.87 86.5569C106.87 85.4769 106.19 85.0369 105.19 85.0369C104.19 85.0369 103.31 85.6369 102.55 86.2769L91.9902 95.4769C91.2702 96.1169 90.5102 96.4769 89.5102 96.4769C87.8302 96.4769 86.2302 95.3169 86.2302 93.5169C86.2302 92.5969 86.5102 91.8369 87.3502 91.1969L103.51 78.3569L89.3902 79.3569C88.4302 79.4369 87.5502 79.2369 86.8302 78.5169C86.3102 77.9969 85.9902 77.2369 85.9902 76.4769C85.9902 74.9169 87.3502 73.6769 88.9102 73.5969L112.79 72.5169C114.35 72.4369 115.63 73.2369 115.63 74.8769C115.63 75.7569 115.19 76.4369 114.47 76.9569L109.63 80.4769Z" fill="#004898"/>
<path d="M63.6302 62.9969H68.5502V62.2369C68.5502 60.3169 70.0702 60.1169 71.6702 60.1169C73.1502 60.1169 74.2702 60.5969 74.2702 62.2369V62.9969H77.1502C78.8702 62.9969 79.6302 63.7169 79.6302 65.4369C79.6302 67.0769 78.7102 67.7169 77.1502 67.7169H74.2702V69.5969H78.1102C79.8302 69.5969 80.5502 70.3169 80.5502 72.0369C80.5502 73.6769 79.5902 74.2769 78.1102 74.2769H57.9102V81.2369C57.9102 85.2369 57.5902 90.0369 56.5102 93.8769C55.7102 96.5969 55.4302 97.5569 53.7502 97.5569C52.2302 97.5569 50.6302 96.9169 50.6302 95.1969C50.6302 94.6369 50.9102 93.3969 51.3902 91.8369C52.4302 88.3569 52.8702 85.1569 52.8702 81.5169V74.2769H52.4702C51.6302 74.2769 50.9902 73.3569 50.9902 71.9969C50.9902 70.2369 51.7902 69.5969 53.5102 69.5969H57.8302V67.7169H55.0302C53.3102 67.7169 52.5502 66.9969 52.5502 65.2769C52.5502 63.6369 53.4702 62.9969 55.0302 62.9969H57.8302V62.3169C57.8302 60.3569 59.3502 60.1169 60.9502 60.1169C62.4302 60.1169 63.6302 60.5969 63.6302 62.2769V62.9969ZM50.5502 71.1969V95.8769C50.5502 97.8369 49.5502 98.3969 47.6702 98.3969C45.9102 98.3969 45.1102 97.6369 45.1102 95.8769V80.9169C44.9502 80.9569 44.7902 80.9569 44.6302 80.9569C42.8302 80.9569 41.9902 78.8369 41.9902 77.3169C41.9902 75.7569 42.7902 74.7169 43.7902 72.9969C45.6702 69.6769 46.5902 65.8769 47.3902 62.1569C47.7102 60.8369 48.3502 60.2769 49.7102 60.2769C51.1902 60.2769 52.4702 60.9969 52.4702 62.6369C52.4702 64.0769 51.3902 68.5969 50.5502 71.1969ZM68.5502 67.7169H63.6302V69.5969H68.5502V67.7169ZM63.3902 90.9569V95.8769C63.3902 97.5169 62.7102 98.3569 60.9902 98.3569C59.3902 98.3569 58.7502 97.3969 58.7502 95.8769V80.1969C58.7502 76.8369 60.1502 75.4769 63.5102 75.4769H74.3102C77.6702 75.4769 79.0702 76.8369 79.0702 80.1969V94.0769C79.0702 97.9169 77.9102 98.1169 74.4302 98.1169C72.9902 98.1169 71.3502 97.9969 71.3502 95.6369C71.3502 94.4769 71.8302 93.4769 73.1102 93.4769C73.6702 93.4769 73.7502 92.8769 73.7502 92.4769V90.9569H70.8302V95.5569C70.8302 97.0769 70.1902 98.0369 68.5502 98.0369C66.9102 98.0369 66.2702 97.0769 66.2702 95.5569V90.9569H63.3902ZM66.2702 81.3969V79.5169H64.2302C63.7102 79.5169 63.3902 79.7169 63.3902 80.2769V81.3969H66.2702ZM70.8302 81.3969H73.7502V80.2769C73.7502 79.7569 73.5102 79.5169 72.9902 79.5169H70.8302V81.3969ZM66.2702 85.2369H63.3902V87.2369H66.2702V85.2369ZM70.8302 85.2369V87.2369H73.7502V85.2369H70.8302Z" fill="#004898"/>
<path d="M340.12 2.55688C341.72 2.55688 343.2 3.75689 343.2 5.39688C343.2 6.03689 343.12 6.67688 343 7.27689C342.32 11.2369 342.08 15.2369 342.08 19.2369C342.08 23.0769 342.32 27.5569 344.16 31.0369C344.72 31.9969 345.12 32.6769 345.12 33.5169C345.12 35.1569 343.68 36.4769 342.08 36.4769C340.64 36.4769 339.52 35.3569 338.88 34.1969C336.36 29.5969 336 24.0369 336 18.9169C336 14.6769 336.24 10.4369 337 6.23689C337.32 4.47688 337.96 2.55688 340.12 2.55688ZM350.84 4.79688H366.08C367.72 4.79688 369.12 6.15689 369.12 7.79688C369.12 9.43688 367.72 10.7969 366.08 10.7969H350.84C349.2 10.7969 347.8 9.47689 347.8 7.79688C347.8 6.95689 348.16 6.19689 348.76 5.59688C349.28 5.03688 350.12 4.79688 350.84 4.79688ZM359.44 35.4369C355.96 35.4369 352.6 34.2769 350.08 31.8369C348.08 29.8769 347.28 26.9169 347.28 24.1569C347.28 21.5569 348.24 18.8369 349.96 16.9169C350.68 16.1169 351.6 15.4769 352.72 15.4769C354.32 15.4769 355.68 16.8369 355.68 18.4369C355.68 19.2769 355.28 19.8769 354.68 20.7569C353.92 21.8769 353.48 23.1169 353.48 24.4769C353.48 28.0769 356.28 29.3969 359.48 29.3969C361.48 29.3969 363.36 28.9969 365.2 28.2369C365.6 28.0769 366.04 27.9969 366.44 27.9969C368.08 27.9969 369.36 29.3969 369.36 30.9969C369.36 32.1969 368.6 33.1569 367.56 33.6769C365.08 34.9169 362.24 35.4369 359.44 35.4369Z" fill="#004898"/>
<path d="M315.28 12.757C319 11.237 320.96 10.077 324.28 7.83698C324.84 7.47698 325.4 7.15698 326.08 7.15698C327.8 7.15698 329.24 8.83698 329.24 10.477C329.24 12.197 327.88 12.957 325.6 14.237C322.24 16.117 318.92 17.637 315.28 18.877V30.677C315.28 31.717 315.96 31.757 316.76 31.797C317.92 31.837 319.08 31.837 320.56 31.837C322.24 31.837 322.92 31.677 323.16 30.797C323.36 30.117 323.36 29.517 323.44 27.757C323.56 25.237 323.68 23.877 326.44 23.877C328.52 23.877 329.68 24.957 329.68 26.997C329.68 28.277 329.44 30.717 329.28 31.997C329.12 33.437 328.84 35.077 328 36.237C327.04 37.597 325.32 37.677 323.8 37.757C322.28 37.837 320.72 37.837 319.2 37.837C317.72 37.837 313.84 37.797 312.56 37.637C311.68 37.517 311 37.317 310.36 36.757C309.24 35.757 309.08 34.317 309.08 32.877V3.11698C309.08 0.676983 310.24 0.156982 312.44 0.156982C314.44 0.156982 315.28 1.15698 315.28 3.11698V12.757ZM303.28 10.917V35.397C303.28 37.797 302.08 38.357 299.88 38.357C297.84 38.357 296.96 37.397 296.96 35.397V19.677C296 20.717 295.28 21.397 294.16 21.397C292.36 21.397 291.16 19.557 291.16 17.877C291.16 16.517 291.76 15.717 292.64 14.797C294.68 12.637 295.84 11.437 297.44 8.87698C299.04 6.35698 299.56 5.07698 300.68 2.39698C301.2 1.15698 301.88 0.396982 303.32 0.396982C304.76 0.396982 306.64 1.11698 306.64 2.83698C306.64 4.31698 304.68 8.47698 303.28 10.917Z" fill="#004898"/>
<path d="M271.36 24.7171C271.52 23.3971 271.64 22.0371 271.64 20.6771V6.11706C271.64 1.87706 272.48 1.03706 276.68 1.03706H282.04C286.28 1.03706 287.08 1.87706 287.08 6.11706V33.1571C287.08 37.4771 286.2 38.2371 281.52 38.2371H280.88C278.72 38.2371 276.52 38.1171 276.52 35.1971C276.52 33.6371 277.4 32.3571 279.04 32.3571C279.32 32.3571 280.36 32.3971 280.64 32.3971C281.4 32.3971 281.6 32.0771 281.6 31.3571V25.9971H276.72C276.48 28.9171 275.84 32.0771 274.8 34.7971C273.96 37.0371 273.2 38.1571 271.68 38.1571C270.44 38.1571 269.08 37.5571 268.48 36.4371C268 36.7971 267.4 37.0771 266.8 37.0771C265.84 37.0771 265.2 36.4371 264.32 35.3971C263.84 34.8371 263.32 34.1971 262.64 33.4771C262.12 32.9171 261.52 32.2371 261.52 31.3971C261.52 30.1571 262.96 29.1171 264.08 29.1171C265.6 29.1171 268.2 31.8371 269 33.0771C269.6 31.9971 270.36 30.0371 270.6 28.7571C270.08 29.0371 269.64 29.0371 269.12 29.0371H257.92C259.08 29.3171 260.12 30.2771 260.12 31.5171C260.12 32.5971 258.48 34.4371 257.76 35.2371C256.8 36.2771 255 38.1171 253.52 38.1171C252.08 38.1171 250.84 36.9171 250.84 35.4371C250.84 34.3571 251.24 33.9971 252.48 32.8771C253.52 31.9571 254.4 31.1971 255.16 30.3571C255.76 29.7171 256.24 29.2371 256.96 29.0371H252.56C250.8 29.0371 249.96 28.1171 249.96 26.3971C249.96 24.9571 250.72 23.7971 252.24 23.7971H253.16V9.27706H252.44C251 9.27706 250.44 7.91706 250.44 6.67706C250.44 5.39706 251 4.07706 252.48 4.07706H253.16V3.07706C253.16 1.19706 254.16 0.237061 256.04 0.237061C257.84 0.237061 258.8 1.31706 258.8 3.07706V4.07706H263.08V3.07706C263.08 1.15706 264.12 0.237061 266 0.237061C267.84 0.237061 268.8 1.27706 268.8 3.07706V4.07706H269.6C271.12 4.07706 271.52 5.47706 271.52 6.75706C271.52 8.03706 271 9.27706 269.6 9.27706H268.8V23.7971H269.64C270.4 23.7971 270.92 24.0771 271.36 24.7171ZM277.16 11.1571H281.6V7.79706C281.6 7.23706 281.32 6.95706 280.76 6.95706H278C277.44 6.95706 277.16 7.23706 277.16 7.79706V11.1571ZM263.08 9.27706H258.8V11.4371H263.08V9.27706ZM263.08 15.4371H258.8V17.5971H263.08V15.4371ZM281.6 16.4371H277.16V20.6771H281.6V16.4371ZM263.08 21.5971H258.8V23.7971H263.08V21.5971Z" fill="#004898"/>
<path d="M223.36 33.3969C223.2 33.4369 222.96 33.4769 222.68 33.4769C221.2 33.4769 220.12 31.7569 218.96 29.5169C217.88 32.1969 216.4 34.7569 214.44 36.9569C213.76 37.6769 213.08 38.2369 212 38.2369C210.28 38.2369 208.64 36.5569 208.64 34.8369C208.64 33.8369 209.2 33.2769 209.88 32.5969C213.28 29.2769 214.64 26.7969 215.52 22.0769H211.36C209.2 22.0769 208.44 21.1169 208.44 18.9969C208.44 17.0769 209.56 16.3169 211.36 16.3169H215.84V10.5169H215C213.96 13.0769 213.12 14.7969 211.44 14.7969C210 14.7969 208.16 13.6769 208.16 12.0769C208.16 11.2369 208.56 10.4369 208.92 9.71694C210.08 7.39694 210.8 5.31694 211.48 2.79694C211.92 1.19694 212.32 0.116943 214.24 0.116943C215.64 0.116943 217.28 0.796941 217.28 2.43694C217.28 2.91694 217.16 3.63694 216.88 4.83694H222.6C223.32 4.83694 224 4.91694 224.6 5.35694C224.52 4.99694 224.52 4.67694 224.52 4.31694C224.52 2.27694 225.44 1.47694 227.44 1.47694H243.32C245.48 1.47694 246.28 2.39694 246.28 4.47694C246.28 6.43694 245.16 7.19694 243.32 7.19694H227.44C226.72 7.19694 226 7.11694 225.44 6.71694C225.52 7.07694 225.52 7.31694 225.52 7.67694C225.52 9.51694 224.68 10.5169 222.8 10.5169H221.56V16.3169H223.28C224.44 16.3169 225.56 16.5969 226 17.7969V13.9969C226 10.5569 227.4 9.15694 230.88 9.15694H239.72C243.2 9.15694 244.6 10.5569 244.6 13.9969V18.1569C244.6 20.7169 243.88 22.5169 241.08 22.9169C242.48 22.9569 244.08 23.5969 244.08 25.1969C244.08 26.5169 242.76 30.2769 242.2 31.5969H243.72C245.76 31.5969 246.68 32.4769 246.68 34.5169C246.68 36.4769 245.56 37.2369 243.72 37.2369H226.2C224.24 37.2369 223.24 36.3969 223.24 34.3969C223.24 34.0369 223.28 33.7169 223.36 33.3969ZM238.04 14.1969H232.64C231.92 14.1969 231.52 14.5969 231.52 15.3169V16.8369C231.52 17.5569 231.92 17.9169 232.64 17.9169H238.04C238.72 17.9169 239.12 17.5569 239.12 16.8369V15.3169C239.12 14.5969 238.72 14.1969 238.04 14.1969ZM225.64 30.5569C225.64 30.9569 225.56 31.2769 225.36 31.6369C225.68 31.5969 225.88 31.5969 226.2 31.5969H229C228.48 31.0769 227.68 28.4369 227.28 27.4369C226.8 26.2369 226.72 25.7969 226.72 25.3969C226.72 23.8769 228.28 23.0769 229.64 23.0769C231.48 23.0769 231.96 24.2369 232.64 26.0369C233 26.9969 233.72 28.9969 233.72 29.9569C233.72 30.7569 233.36 31.1969 232.76 31.5969H236.4C237.12 29.7569 237.64 28.0369 238.12 26.1569C238.64 24.2369 238.72 23.3569 240.32 22.9969H230.88C228.6 22.9969 226.64 22.4369 226.16 19.9169C225.88 21.5969 224.88 22.0769 223.28 22.0769H220.96V22.2369C222.32 25.1969 223.16 26.3569 225.08 28.9569C225.4 29.4369 225.64 29.9969 225.64 30.5569Z" fill="#004898"/>
<path d="M188.24 8.63708C189 9.11708 189.64 9.99708 189.64 10.9571C189.64 12.1971 189.2 14.9971 188.84 17.1971C188.44 19.5571 187.96 21.9171 187.44 24.2771C186.8 26.9171 186.2 29.7171 184.88 32.1571C183.48 34.6771 181.16 35.5971 178.36 35.5971C176.04 35.5971 174 34.6771 172.32 33.1171C169.08 30.1571 167.8 25.8371 167.8 21.5571C167.8 10.5971 175.2 2.75708 186.24 2.75708C193 2.75708 199.92 5.71708 202.88 12.1571C203.92 14.4371 204.32 17.0371 204.32 19.5171C204.32 25.4371 202.08 31.4771 196.76 34.5971C195 35.5971 192.8 36.3971 190.72 36.3971C188.96 36.3971 187.44 35.0371 187.44 33.2771C187.44 31.8371 188.52 30.5971 189.84 30.2371C194.04 29.1571 198 27.2771 198 19.3571C198 13.1971 194.32 9.35708 188.24 8.63708ZM185.12 8.55708C177.92 9.27708 173.84 14.4371 173.84 21.5571C173.84 24.2371 174.76 29.6371 178.28 29.6371C178.76 29.6371 179.24 29.4771 179.6 29.1571C180.48 28.3571 181.24 24.5971 181.52 23.3571C182.32 19.6371 183.08 15.8771 183.52 12.1171C183.68 10.7571 183.88 9.35708 185.12 8.55708Z" fill="#494949"/>
<path d="M153.76 32.7971C152.16 34.5171 150.96 35.5171 149.08 36.8771C148.24 37.4771 147.36 38.0771 146.28 38.0771C145 38.0771 144 37.3571 143.44 36.1971C143 36.5571 142.6 36.7171 142.04 36.7171C141.4 36.7171 141.04 36.5571 140 35.8771C139.4 35.4771 138.76 35.1171 137.76 34.5971C135.32 36.1971 131.4 38.1171 128.44 38.1171C126.88 38.1171 125.92 36.7171 125.92 35.2771C125.92 33.7171 126.88 33.3171 128.2 33.0771C129.56 32.7971 130.88 32.4371 132.16 31.9971C130.88 31.5571 129.8 31.1571 128.92 30.7571C128.36 30.5171 127.84 29.8371 127.84 29.0371C127.84 28.3971 128 27.9971 128.32 27.4771C128.68 26.8771 128.92 26.4371 129.12 25.9971H127.68C126.04 25.9971 125.36 25.0771 125.36 23.5171C125.36 21.8771 126.32 21.1971 127.88 21.1971H131.12C131.72 19.5171 131.8 18.7171 133.32 18.3971C133.24 17.9971 133.24 17.7971 133.24 17.3971V15.1171C132.2 16.3571 129.56 19.3171 127.88 19.3171C126.16 19.3171 125.2 17.7971 125.2 16.2371C125.2 15.0771 126.28 14.4371 127.72 13.6371C128.64 13.1171 130.04 12.0371 131 11.0771H127.88C126.28 11.0771 125.44 10.4771 125.44 8.79706C125.44 7.11706 126.28 6.55706 127.88 6.55706H133.24V2.75706C133.24 0.717062 134.32 0.237061 136.2 0.237061C138 0.237061 138.84 0.957061 138.84 2.75706V6.55706H143.64C145.28 6.55706 146.08 7.15706 146.08 8.83706C146.08 10.4771 145.16 11.0771 143.64 11.0771H140.56C141.36 11.8771 142.2 12.6771 143.08 13.3971C143.6 13.7971 144.04 14.0771 144.24 14.5971C147.08 10.1571 147.6 7.59706 148.84 2.63706C149.24 0.997063 149.96 0.357061 151.64 0.357061C153.2 0.357061 154.84 0.797061 154.84 2.63706C154.84 3.23706 154.64 4.15706 154.16 5.79706H160.72C162.76 5.79706 163.56 6.91706 163.56 8.87706C163.56 10.6771 162.76 11.7571 160.92 11.8371C160.72 17.3171 159.76 22.5171 157.36 27.4371C158.88 29.3971 160.08 30.3571 162.04 31.9971C162.84 32.6771 163.48 33.5171 163.48 34.6371C163.48 36.3171 162 38.1171 160.24 38.1171C158.8 38.1171 157.44 36.7971 156.44 35.8371C155.48 34.9171 154.56 33.8771 153.76 32.7971ZM142.96 0.637063C144.04 0.637063 145.72 1.15706 145.72 2.47706C145.72 3.31706 144.96 4.59706 144.52 5.27706C143.96 6.11706 143.4 6.51706 142.4 6.51706C141.28 6.51706 139.8 5.91706 139.8 4.59706C139.8 4.03706 140.2 3.27706 140.92 1.99706C141.4 1.07706 141.88 0.637063 142.96 0.637063ZM132.24 4.47706C132.24 6.03706 130.6 6.47706 129.36 6.47706C128.12 6.47706 127.92 5.95706 127.44 4.91706C127.2 4.39706 126.6 3.07706 126.6 2.51706C126.6 1.19706 128.16 0.677062 129.24 0.677062C130.32 0.677062 130.72 1.07706 131.24 1.91706C131.64 2.55706 132.24 3.75706 132.24 4.47706ZM153.88 21.3171C154.84 18.4771 155.24 14.8771 155.28 11.8371H152.16C152.12 11.9571 152.08 12.0371 152.04 12.1571C152.32 15.4771 152.72 18.1571 153.88 21.3171ZM150.52 27.5971C149.32 25.1571 148.44 22.5571 147.96 19.8771C147.36 20.5171 146.68 20.9971 145.76 20.9971C144.28 20.9971 142.68 19.6771 142.56 18.1571C142.44 18.1971 142.32 18.2371 142.16 18.2371C141.04 18.2371 139.68 16.5171 138.84 15.3971V17.3971C138.84 18.7171 138.48 19.5571 137.08 19.8371V20.0771C137.08 20.4371 136.96 20.8771 136.84 21.1971H143.88C145.48 21.1971 146.48 21.9171 146.48 23.5971C146.48 25.3171 145.48 25.9971 143.88 25.9971H143.72C143.44 27.8371 142.84 29.3171 141.76 30.8371C143.24 31.4371 143.92 31.5971 144.36 32.5171C145.76 31.6371 146.6 31.0771 147.44 30.5171C148.4 29.8771 149.28 29.0771 150.52 27.5971ZM137 29.1171C137.8 28.1571 138.28 27.1571 138.64 25.9971H134.64C134.32 26.5971 133.84 27.5171 133.84 27.8371C133.84 28.1171 133.96 28.2371 134.52 28.3971C135.2 28.5971 135.96 28.7971 137 29.1171Z" fill="#494949"/>
<path d="M118.32 7.23687V31.5969C118.32 35.5169 116.76 37.0769 112.88 37.0769H92.7603C88.8403 37.0769 87.2803 35.5169 87.2803 31.5969V7.23687C87.2803 3.35687 88.8403 1.79688 92.7603 1.79688H112.88C116.76 1.79688 118.32 3.27688 118.32 7.23687ZM111.92 16.2369V9.07687C111.92 8.19688 111.44 7.71687 110.56 7.71687H95.0003C94.1603 7.71687 93.6803 8.19688 93.6803 9.07687V16.2369H111.92ZM93.6803 22.0369V29.7969C93.6803 30.6369 94.1603 31.1569 95.0003 31.1569H110.56C111.44 31.1569 111.92 30.6369 111.92 29.7969V22.0369H93.6803Z" fill="#494949"/>
<path d="M58.7201 13.7169H58.4001C56.4801 13.7169 55.7601 12.6369 55.7601 10.7969V8.3969C55.7601 4.9969 57.1201 3.6369 60.4801 3.6369H64.6801V2.4369C64.6801 0.716903 65.9601 0.0769043 67.5201 0.0769043C69.0801 0.0769043 70.3201 0.716903 70.3201 2.4369V3.6369H74.5201C77.9201 3.6369 79.2801 4.9969 79.2801 8.3969V10.7969C79.2801 12.7969 78.4801 13.7169 76.4401 13.7169V14.1169C76.4401 15.8369 75.6001 16.5969 73.9201 16.5969H61.2401C59.5601 16.5969 58.7201 15.8369 58.7201 14.0769V13.7169ZM48.6001 28.9169V35.4369C48.6001 37.4769 47.7601 38.3569 45.6801 38.3569C43.8001 38.3569 43.0801 37.1969 43.0801 35.4369V6.0769C43.0801 1.8369 43.9201 1.1169 48.0801 1.1169H50.8801C54.1201 1.1169 55.8801 1.3569 55.8801 5.1169C55.8801 6.7969 55.6001 8.2369 55.1201 9.8369C54.9201 10.5569 54.0001 13.5169 53.7201 14.2769C53.6401 14.4769 53.5201 14.8369 53.5201 14.9169C53.5201 15.1169 53.6001 15.2769 53.7601 15.5169C54.6001 16.7969 55.3201 18.0769 55.8801 19.5969C56.5201 18.7969 57.3201 18.6769 58.3201 18.6769H77.2801C79.1601 18.6769 80.2001 19.4369 80.2001 21.3969C80.2001 23.2769 79.0001 23.9969 77.2801 23.9969H72.9601V31.3569C72.9601 32.2769 73.2801 32.3969 74.1201 32.3969C75.0401 32.3969 75.1601 32.1569 75.2001 30.7969C75.2401 28.6769 75.3601 27.3569 77.4401 27.3569C79.6401 27.3569 79.9601 28.6369 79.9601 30.1169C79.9601 31.9969 79.8801 35.6369 78.5201 37.0369C77.8001 37.7969 76.2801 37.9569 74.7601 37.9569C73.9601 37.9569 73.2401 37.9569 72.6801 37.9569C68.4001 37.9569 67.4401 37.3169 67.4401 32.9569V23.9969H65.4401C65.2401 28.2369 64.8801 31.8769 61.7201 35.0769C60.4401 36.3569 57.8401 38.1569 56.0001 38.1569C54.3201 38.1569 53.1601 36.3969 53.1601 34.8769C53.1601 33.6769 53.9201 33.1169 55.3601 32.3969C59.4401 30.3169 59.8401 28.3569 60.0801 23.9969H58.3201C57.8001 23.9969 57.1201 23.9169 56.6401 23.6769V24.0369C56.6401 26.1969 56.1201 29.3169 53.8001 30.1569C53.1201 30.4369 52.2801 30.5169 51.5601 30.5169C50.3201 30.5169 49.0401 30.1969 48.6001 28.9169ZM48.6001 25.7969C48.8401 25.1169 49.1201 24.8369 49.8401 24.7569C50.8401 24.6369 51.0801 23.9569 51.0801 22.5169C51.0801 20.3969 50.3601 18.4369 49.3601 16.5969C49.1201 16.1969 48.9201 15.7969 48.9201 15.3169C48.9201 15.1169 49.0801 14.3169 49.2001 13.9169C49.8801 11.6369 50.3601 9.7169 50.7201 8.2769C50.8001 7.9969 50.8801 7.5969 50.8801 7.4369C50.8801 6.9969 50.5601 6.7969 50.1601 6.7969H49.3201C48.8401 6.7969 48.6001 7.0769 48.6001 7.5169V25.7969ZM61.1601 11.5969H73.7601C73.7201 11.3169 73.7201 11.0769 73.7201 10.7969V9.67691C73.7201 9.1969 73.4401 8.9569 72.9601 8.9569H61.9601C61.4801 8.9569 61.2001 9.2369 61.2001 9.67691V10.7969C61.2001 11.0769 61.2001 11.3169 61.1601 11.5969Z" fill="#494949"/>
<path d="M19.7997 19.7171C18.5197 23.9571 16.7997 27.5171 13.8797 30.9571C12.1197 32.9971 6.87969 37.8771 4.19969 37.8771C2.19969 37.8771 0.679688 35.9571 0.679688 34.0771C0.679688 32.5171 1.55968 31.9171 2.79968 31.1971C8.39968 27.9171 12.4797 23.5171 14.7197 17.3571C15.4797 15.2771 16.3997 11.0771 16.3997 8.87709C16.3997 7.79709 15.9597 7.67709 14.9597 7.67709H9.23969C7.07968 7.67709 6.07968 6.67709 6.07968 4.51709C6.07968 2.43709 7.23969 1.51709 9.23969 1.51709H17.6797C22.3997 1.51709 22.9197 3.67709 23.1997 7.83709C23.4797 12.3171 24.4797 16.7971 26.5597 20.7971C28.7197 24.9171 32.2397 28.7571 36.2797 31.0771C37.5197 31.8371 38.3997 32.4371 38.3997 34.0371C38.3997 35.9971 36.8397 37.8771 34.8397 37.8771C32.0797 37.8771 27.3197 33.0771 25.5997 30.9971C22.8797 27.6771 21.0397 23.7971 19.7997 19.7171Z" fill="#494949"/>
</svg>
