<svg width="323" height="57" viewBox="0 0 323 57" fill="none" xmlns="http://www.w3.org/2000/svg">
<path d="M318.693 47.8319L318.045 39.6239L317.925 36.0479H321.909L321.789 39.6239L321.141 47.8319H318.693ZM319.917 54.2159C319.309 54.2159 318.805 54.0159 318.405 53.6159C318.005 53.2159 317.805 52.7119 317.805 52.1039C317.805 51.4799 318.005 50.9679 318.405 50.5679C318.805 50.1679 319.309 49.9678 319.917 49.9678C320.525 49.9678 321.029 50.1679 321.429 50.5679C321.829 50.9679 322.029 51.4799 322.029 52.1039C322.029 52.7119 321.829 53.2159 321.429 53.6159C321.029 54.0159 320.525 54.2159 319.917 54.2159Z" fill="#494949"/>
<path d="M289.199 35.7118C289.535 35.7598 289.895 35.7918 290.279 35.8078C290.663 35.8238 291.031 35.8318 291.383 35.8318C291.639 35.8318 292.023 35.8318 292.535 35.8318C293.047 35.8158 293.623 35.7998 294.263 35.7838C294.919 35.7678 295.567 35.7518 296.207 35.7358C296.847 35.7198 297.423 35.7038 297.935 35.6878C298.463 35.6558 298.871 35.6318 299.159 35.6158C299.655 35.5678 300.047 35.5278 300.335 35.4958C300.623 35.4478 300.839 35.3998 300.983 35.3518L302.543 37.4878C302.271 37.6638 301.991 37.8398 301.703 38.0158C301.415 38.1918 301.135 38.3838 300.863 38.5918C300.543 38.8158 300.159 39.1118 299.711 39.4798C299.263 39.8318 298.783 40.2078 298.271 40.6078C297.775 41.0078 297.287 41.3998 296.807 41.7838C296.343 42.1678 295.919 42.5118 295.535 42.8158C295.935 42.7198 296.319 42.6558 296.687 42.6238C297.055 42.5758 297.431 42.5518 297.815 42.5518C299.175 42.5518 300.391 42.8158 301.463 43.3438C302.551 43.8718 303.407 44.5918 304.031 45.5038C304.671 46.3998 304.991 47.4318 304.991 48.5998C304.991 49.8638 304.671 51.0078 304.031 52.0318C303.391 53.0558 302.423 53.8718 301.127 54.4798C299.847 55.0878 298.239 55.3918 296.303 55.3918C295.199 55.3918 294.199 55.2318 293.303 54.9118C292.423 54.5918 291.727 54.1358 291.215 53.5438C290.703 52.9518 290.447 52.2558 290.447 51.4558C290.447 50.7998 290.623 50.1918 290.975 49.6318C291.343 49.0558 291.847 48.5918 292.487 48.2398C293.143 47.8878 293.895 47.7118 294.743 47.7118C295.847 47.7118 296.775 47.9358 297.527 48.3838C298.295 48.8158 298.879 49.3998 299.279 50.1358C299.695 50.8718 299.911 51.6798 299.927 52.5598L297.119 52.9438C297.103 52.0638 296.879 51.3598 296.447 50.8318C296.031 50.2878 295.471 50.0158 294.767 50.0158C294.319 50.0158 293.959 50.1358 293.687 50.3758C293.415 50.5998 293.279 50.8638 293.279 51.1678C293.279 51.6158 293.503 51.9758 293.951 52.2478C294.399 52.5198 294.983 52.6558 295.703 52.6558C297.063 52.6558 298.199 52.4958 299.111 52.1758C300.023 51.8398 300.703 51.3678 301.151 50.7598C301.615 50.1358 301.847 49.3998 301.847 48.5518C301.847 47.8318 301.623 47.1998 301.175 46.6558C300.743 46.1118 300.151 45.6878 299.399 45.3838C298.647 45.0798 297.799 44.9278 296.855 44.9278C295.927 44.9278 295.079 45.0478 294.311 45.2878C293.543 45.5118 292.815 45.8398 292.127 46.2718C291.455 46.6878 290.791 47.1998 290.135 47.8078C289.495 48.3998 288.855 49.0638 288.215 49.7998L286.031 47.5438C286.463 47.1918 286.951 46.7998 287.495 46.3678C288.039 45.9198 288.591 45.4558 289.151 44.9758C289.727 44.4958 290.263 44.0478 290.759 43.6318C291.271 43.1998 291.703 42.8398 292.055 42.5518C292.391 42.2798 292.783 41.9598 293.231 41.5918C293.679 41.2238 294.143 40.8478 294.623 40.4638C295.103 40.0638 295.559 39.6878 295.991 39.3358C296.423 38.9678 296.783 38.6558 297.071 38.3998C296.831 38.3998 296.519 38.4078 296.135 38.4238C295.751 38.4398 295.327 38.4558 294.863 38.4718C294.415 38.4878 293.959 38.5038 293.495 38.5198C293.047 38.5358 292.623 38.5598 292.223 38.5918C291.839 38.6078 291.519 38.6238 291.263 38.6398C290.943 38.6558 290.607 38.6798 290.255 38.7118C289.903 38.7438 289.583 38.7838 289.295 38.8318L289.199 35.7118Z" fill="#494949"/>
<path d="M283.322 52.7518C282.762 53.2638 282.114 53.6878 281.378 54.0238C280.642 54.3598 279.786 54.5278 278.81 54.5278C277.914 54.5278 277.186 54.2158 276.626 53.5918C276.082 52.9678 275.81 52.0718 275.81 50.9038C275.81 50.2638 275.85 49.5758 275.93 48.8398C276.026 48.0878 276.13 47.3358 276.242 46.5838C276.354 45.8318 276.45 45.1198 276.53 44.4478C276.626 43.7598 276.674 43.1438 276.674 42.5998C276.674 42.0078 276.53 41.5678 276.242 41.2798C275.954 40.9758 275.554 40.8238 275.042 40.8238C274.482 40.8238 273.858 41.0238 273.17 41.4238C272.482 41.8078 271.778 42.3038 271.058 42.9118C270.338 43.5198 269.65 44.1678 268.994 44.8558C268.354 45.5438 267.794 46.1998 267.314 46.8238L267.29 43.1278C267.578 42.8078 267.954 42.4318 268.418 41.9998C268.898 41.5678 269.434 41.1198 270.026 40.6558C270.634 40.1918 271.266 39.7598 271.922 39.3598C272.594 38.9438 273.266 38.6078 273.938 38.3518C274.626 38.0958 275.29 37.9678 275.93 37.9678C276.794 37.9678 277.498 38.1278 278.042 38.4478C278.602 38.7518 279.018 39.1758 279.29 39.7198C279.562 40.2478 279.698 40.8478 279.698 41.5198C279.698 42.1438 279.658 42.8238 279.578 43.5598C279.498 44.2798 279.402 45.0158 279.29 45.7678C279.178 46.5198 279.082 47.2638 279.002 47.9998C278.938 48.7358 278.906 49.4078 278.906 50.0158C278.906 50.3358 278.986 50.5998 279.146 50.8078C279.306 50.9998 279.53 51.0958 279.818 51.0958C280.266 51.0958 280.762 50.9518 281.306 50.6638C281.85 50.3598 282.394 49.9278 282.938 49.3678L283.322 52.7518ZM266.738 41.3038C266.482 41.3358 266.154 41.3758 265.754 41.4238C265.354 41.4718 264.922 41.5278 264.458 41.5918C264.01 41.6558 263.554 41.7198 263.09 41.7838C262.626 41.8478 262.194 41.9038 261.794 41.9518L261.482 38.8798C261.834 38.8958 262.162 38.9038 262.466 38.9038C262.786 38.8878 263.154 38.8718 263.57 38.8558C263.954 38.8238 264.41 38.7838 264.938 38.7358C265.482 38.6718 266.026 38.5998 266.57 38.5198C267.13 38.4398 267.65 38.3518 268.13 38.2558C268.61 38.1598 268.986 38.0638 269.258 37.9678L270.218 39.1918C270.074 39.3838 269.906 39.6238 269.714 39.9118C269.538 40.1998 269.354 40.4958 269.162 40.7998C268.97 41.0878 268.802 41.3438 268.658 41.5678L267.242 46.0798C266.986 46.4478 266.666 46.9118 266.282 47.4718C265.914 48.0318 265.522 48.6238 265.106 49.2478C264.69 49.8718 264.282 50.4718 263.882 51.0478C263.482 51.6238 263.122 52.1278 262.802 52.5598L260.906 49.9438C261.21 49.5598 261.554 49.1198 261.938 48.6238C262.338 48.1118 262.754 47.5758 263.186 47.0158C263.618 46.4398 264.042 45.8718 264.458 45.3118C264.874 44.7358 265.258 44.1998 265.61 43.7038C265.978 43.1918 266.282 42.7518 266.522 42.3838L266.57 41.7598L266.738 41.3038ZM266.45 36.6958C266.45 36.3438 266.45 35.9918 266.45 35.6398C266.45 35.2718 266.418 34.9038 266.354 34.5358L269.858 34.6558C269.762 35.0238 269.658 35.5598 269.546 36.2638C269.45 36.9518 269.346 37.7438 269.234 38.6398C269.138 39.5358 269.042 40.4798 268.946 41.4718C268.866 42.4478 268.794 43.4238 268.73 44.3998C268.682 45.3758 268.658 46.2878 268.658 47.1358C268.658 47.7918 268.658 48.4558 268.658 49.1278C268.674 49.7998 268.69 50.4878 268.706 51.1918C268.722 51.8958 268.754 52.6238 268.802 53.3758C268.818 53.5838 268.842 53.8718 268.874 54.2398C268.906 54.6238 268.938 54.9518 268.97 55.2238H265.658C265.69 54.9358 265.706 54.6158 265.706 54.2638C265.722 53.9118 265.73 53.6398 265.73 53.4478C265.746 52.6638 265.762 51.9358 265.778 51.2638C265.794 50.5918 265.802 49.8798 265.802 49.1278C265.818 48.3758 265.842 47.5038 265.874 46.5118C265.89 46.1438 265.914 45.6798 265.946 45.1198C265.978 44.5438 266.01 43.9198 266.042 43.2478C266.09 42.5598 266.138 41.8638 266.186 41.1598C266.234 40.4558 266.274 39.7998 266.306 39.1918C266.354 38.5678 266.386 38.0398 266.402 37.6078C266.434 37.1598 266.45 36.8558 266.45 36.6958Z" fill="#494949"/>
<path d="M248.375 36.6958H256.559V39.5038H248.375V36.6958ZM236.951 34.9678H249.071V37.6318H236.951V34.9678ZM240.119 39.9118H245.879V42.4798H240.119V39.9118ZM240.119 44.9038H245.879V47.4718H240.119V44.9038ZM255.767 36.6958H256.271L256.775 36.5998L258.647 37.0798C258.343 40.3278 257.783 43.1598 256.967 45.5758C256.167 47.9918 255.119 50.0558 253.823 51.7678C252.527 53.4798 250.967 54.8878 249.143 55.9918C248.935 55.6238 248.647 55.1998 248.279 54.7198C247.927 54.2558 247.591 53.8958 247.271 53.6398C248.871 52.7918 250.255 51.5998 251.423 50.0638C252.591 48.5118 253.543 46.6638 254.279 44.5198C255.031 42.3598 255.527 39.9598 255.767 37.3198V36.6958ZM251.207 39.5758C251.591 41.6398 252.143 43.5838 252.863 45.4078C253.583 47.2318 254.495 48.8478 255.599 50.2558C256.703 51.6638 258.023 52.7838 259.559 53.6158C259.351 53.7918 259.111 54.0158 258.839 54.2878C258.583 54.5758 258.343 54.8638 258.119 55.1518C257.895 55.4558 257.711 55.7358 257.567 55.9918C255.887 54.9678 254.455 53.6798 253.271 52.1278C252.103 50.5758 251.135 48.7838 250.367 46.7518C249.599 44.7198 248.959 42.5038 248.447 40.1038L251.207 39.5758ZM238.607 36.0478H241.343V51.7438H238.607V36.0478ZM244.775 36.0478H247.535V56.1358H244.775V36.0478ZM236.375 50.6878C237.175 50.6078 238.079 50.5038 239.087 50.3758C240.111 50.2478 241.191 50.1038 242.327 49.9438C243.479 49.7838 244.615 49.6238 245.735 49.4638L245.879 52.1038C244.327 52.3758 242.759 52.6398 241.175 52.8958C239.591 53.1358 238.175 53.3598 236.927 53.5678L236.375 50.6878Z" fill="#494949"/>
<path d="M230.588 34.9198C230.556 35.1758 230.532 35.4478 230.516 35.7358C230.5 36.0078 230.484 36.2798 230.468 36.5518C230.452 36.7758 230.444 37.1198 230.444 37.5838C230.46 38.0318 230.468 38.5438 230.468 39.1198C230.468 39.6798 230.468 40.2558 230.468 40.8478C230.468 41.4238 230.468 41.9598 230.468 42.4558C230.484 42.9518 230.492 43.3358 230.492 43.6078C230.492 45.0318 230.436 46.3278 230.324 47.4958C230.228 48.6478 230.004 49.7118 229.652 50.6878C229.316 51.6638 228.796 52.5678 228.092 53.3998C227.404 54.2318 226.46 55.0318 225.26 55.7998L222.5 53.6158C222.948 53.4238 223.444 53.1518 223.988 52.7998C224.532 52.4318 224.964 52.0638 225.284 51.6958C225.748 51.2158 226.124 50.7118 226.412 50.1838C226.7 49.6558 226.924 49.0718 227.084 48.4318C227.26 47.7918 227.372 47.0798 227.42 46.2958C227.484 45.5118 227.516 44.6078 227.516 43.5838C227.516 43.1518 227.516 42.6078 227.516 41.9518C227.516 41.2958 227.508 40.6158 227.492 39.9118C227.476 39.2078 227.46 38.5598 227.444 37.9678C227.428 37.3598 227.404 36.8958 227.372 36.5758C227.356 36.2718 227.316 35.9678 227.252 35.6638C227.204 35.3598 227.156 35.1118 227.108 34.9198H230.588ZM221.132 39.5998C221.516 39.6478 221.908 39.6958 222.308 39.7438C222.708 39.7758 223.108 39.8078 223.508 39.8398C223.924 39.8558 224.34 39.8638 224.756 39.8638C225.796 39.8638 226.884 39.8398 228.02 39.7918C229.156 39.7438 230.252 39.6718 231.308 39.5758C232.364 39.4638 233.284 39.3358 234.068 39.1918L234.044 42.3118C233.292 42.3918 232.404 42.4718 231.38 42.5518C230.356 42.6158 229.276 42.6718 228.14 42.7198C227.02 42.7518 225.916 42.7678 224.828 42.7678C224.492 42.7678 224.108 42.7598 223.676 42.7438C223.244 42.7278 222.812 42.7118 222.38 42.6958C221.948 42.6798 221.532 42.6638 221.132 42.6478V39.5998ZM218.66 35.3278C218.564 35.6158 218.46 35.9518 218.348 36.3358C218.236 36.7038 218.148 37.0158 218.084 37.2718C217.94 37.9278 217.788 38.7198 217.628 39.6478C217.468 40.5598 217.332 41.5118 217.22 42.5038C217.108 43.4958 217.052 44.4718 217.052 45.4318C217.052 46.3758 217.132 47.2158 217.292 47.9518C217.452 47.5838 217.636 47.1438 217.844 46.6318C218.052 46.1038 218.252 45.6158 218.444 45.1678L219.932 46.1278C219.708 46.8158 219.484 47.5278 219.26 48.2638C219.052 48.9838 218.868 49.6718 218.708 50.3278C218.548 50.9678 218.412 51.5198 218.3 51.9838C218.252 52.1598 218.212 52.3678 218.18 52.6078C218.164 52.8318 218.156 53.0158 218.156 53.1598C218.156 53.2718 218.156 53.4238 218.156 53.6158C218.172 53.8078 218.188 53.9838 218.204 54.1438L215.54 54.4078C215.364 53.9278 215.164 53.2718 214.94 52.4398C214.732 51.5918 214.548 50.6638 214.388 49.6558C214.244 48.6318 214.172 47.6238 214.172 46.6318C214.172 45.3198 214.212 44.0558 214.292 42.8398C214.388 41.6238 214.5 40.5198 214.628 39.5278C214.756 38.5198 214.86 37.6958 214.94 37.0558C215.004 36.7198 215.044 36.3678 215.06 35.9998C215.076 35.6158 215.092 35.2718 215.108 34.9678L218.66 35.3278Z" fill="#494949"/>
<path d="M189.411 40.4879H210.459V45.7439H207.651V42.9839H192.123V45.7439H189.411V40.4879ZM192.891 44.8319H205.539V47.4959H192.891V44.8319ZM207.651 33.4799L209.595 35.8079C208.235 36.0639 206.763 36.2959 205.179 36.5039C203.611 36.6959 201.979 36.8639 200.283 37.0079C198.603 37.1519 196.915 37.2719 195.219 37.3679C193.523 37.4639 191.875 37.5279 190.275 37.5599C190.259 37.2079 190.179 36.7919 190.035 36.3119C189.907 35.8319 189.779 35.4319 189.651 35.1119C191.235 35.0639 192.851 34.9919 194.499 34.8959C196.163 34.7999 197.787 34.6879 199.371 34.5599C200.971 34.4159 202.475 34.2559 203.883 34.0799C205.291 33.8879 206.547 33.6879 207.651 33.4799ZM191.763 38.0159L194.259 37.3199C194.547 37.7519 194.819 38.2319 195.075 38.7599C195.347 39.2879 195.539 39.7519 195.651 40.1519L192.987 40.9199C192.907 40.5199 192.747 40.0479 192.507 39.5039C192.267 38.9599 192.019 38.4639 191.763 38.0159ZM198.099 37.5119L200.643 36.9359C200.883 37.4319 201.107 37.9679 201.315 38.5439C201.539 39.1199 201.683 39.6239 201.747 40.0559L199.035 40.7279C198.987 40.2959 198.867 39.7759 198.675 39.1679C198.499 38.5599 198.307 38.0079 198.099 37.5119ZM205.707 36.8879L208.755 37.6079C208.483 38.1199 208.203 38.6239 207.915 39.1199C207.627 39.6159 207.339 40.0879 207.051 40.5359C206.763 40.9679 206.499 41.3519 206.259 41.6879L203.883 41.0159C204.107 40.6159 204.331 40.1839 204.555 39.7199C204.795 39.2399 205.011 38.7519 205.203 38.2559C205.411 37.7599 205.579 37.3039 205.707 36.8879ZM204.483 44.8319H205.083L205.587 44.7359L207.555 45.9119C206.835 47.4799 205.899 48.8399 204.747 49.9919C203.611 51.1279 202.299 52.0879 200.811 52.8719C199.323 53.6559 197.707 54.2959 195.963 54.7919C194.235 55.2879 192.427 55.6639 190.539 55.9199C190.443 55.6799 190.299 55.3919 190.107 55.0559C189.915 54.7359 189.707 54.4159 189.483 54.0959C189.259 53.7919 189.051 53.5439 188.859 53.3519C190.699 53.1599 192.451 52.8719 194.115 52.4879C195.779 52.1039 197.291 51.5999 198.651 50.9759C200.011 50.3359 201.187 49.5519 202.179 48.6239C203.171 47.6959 203.939 46.5919 204.483 45.3119V44.8319ZM195.747 46.7999C196.643 47.9999 197.827 49.0399 199.299 49.9199C200.787 50.7839 202.507 51.4879 204.459 52.0319C206.427 52.5759 208.579 52.9519 210.915 53.1599C210.707 53.3679 210.491 53.6399 210.267 53.9759C210.043 54.3119 209.827 54.6399 209.619 54.9599C209.427 55.2959 209.267 55.5999 209.139 55.8719C206.739 55.5679 204.547 55.0799 202.563 54.4079C200.579 53.7359 198.803 52.8559 197.235 51.7679C195.667 50.6639 194.331 49.3439 193.227 47.8079L195.747 46.7999Z" fill="#494949"/>
<path d="M174.838 35.2078C174.774 35.5118 174.702 35.8478 174.622 36.2158C174.542 36.5678 174.47 36.8958 174.406 37.1998C174.342 37.5518 174.262 37.9518 174.166 38.3998C174.07 38.8318 173.974 39.2718 173.878 39.7198C173.798 40.1518 173.71 40.5758 173.614 40.9918C173.454 41.6798 173.254 42.4798 173.014 43.3918C172.774 44.3038 172.494 45.2878 172.174 46.3438C171.854 47.3838 171.494 48.4318 171.094 49.4878C170.694 50.5438 170.27 51.5758 169.822 52.5838C169.374 53.5758 168.894 54.4718 168.382 55.2718L165.262 54.0238C165.822 53.2718 166.342 52.4318 166.822 51.5038C167.318 50.5598 167.766 49.5998 168.166 48.6238C168.566 47.6318 168.918 46.6558 169.222 45.6958C169.542 44.7198 169.814 43.8158 170.038 42.9838C170.278 42.1518 170.462 41.4398 170.59 40.8478C170.814 39.7598 170.99 38.7118 171.118 37.7038C171.246 36.6958 171.294 35.7438 171.262 34.8478L174.838 35.2078ZM183.094 37.6318C183.478 38.1598 183.87 38.8078 184.27 39.5758C184.686 40.3278 185.094 41.1278 185.494 41.9758C185.894 42.8238 186.254 43.6398 186.574 44.4238C186.894 45.2078 187.142 45.8878 187.318 46.4638L184.27 47.8558C184.126 47.1838 183.91 46.4398 183.622 45.6238C183.35 44.8078 183.03 43.9838 182.662 43.1518C182.294 42.3038 181.902 41.5038 181.486 40.7518C181.086 39.9998 180.67 39.3678 180.238 38.8558L183.094 37.6318ZM165.094 40.1278C165.526 40.1598 165.95 40.1758 166.366 40.1758C166.798 40.1598 167.23 40.1438 167.662 40.1278C168.062 40.1118 168.542 40.0878 169.102 40.0558C169.662 40.0078 170.254 39.9598 170.878 39.9118C171.518 39.8638 172.158 39.8158 172.798 39.7678C173.438 39.7038 174.03 39.6558 174.574 39.6238C175.118 39.5918 175.566 39.5758 175.918 39.5758C176.782 39.5758 177.534 39.7198 178.174 40.0078C178.814 40.2798 179.318 40.7518 179.686 41.4238C180.07 42.0958 180.262 43.0078 180.262 44.1598C180.262 45.1038 180.222 46.1278 180.142 47.2318C180.062 48.3358 179.918 49.3918 179.71 50.3998C179.518 51.4078 179.246 52.2638 178.894 52.9678C178.51 53.7998 177.982 54.3758 177.31 54.6958C176.654 55.0158 175.87 55.1758 174.958 55.1758C174.51 55.1758 174.022 55.1358 173.494 55.0558C172.966 54.9918 172.494 54.9198 172.078 54.8398L171.574 51.6718C171.878 51.7518 172.214 51.8318 172.582 51.9118C172.966 51.9918 173.326 52.0558 173.662 52.1038C174.014 52.1518 174.294 52.1758 174.502 52.1758C174.902 52.1758 175.254 52.1038 175.558 51.9598C175.862 51.7998 176.11 51.5278 176.302 51.1438C176.526 50.6798 176.71 50.0798 176.854 49.3438C176.998 48.6078 177.102 47.8158 177.166 46.9678C177.246 46.1038 177.286 45.2798 177.286 44.4958C177.286 43.8558 177.19 43.3838 176.998 43.0798C176.822 42.7758 176.558 42.5758 176.206 42.4798C175.87 42.3678 175.454 42.3118 174.958 42.3118C174.59 42.3118 174.094 42.3438 173.47 42.4078C172.846 42.4558 172.174 42.5198 171.454 42.5998C170.75 42.6638 170.094 42.7358 169.486 42.8158C168.878 42.8958 168.406 42.9518 168.07 42.9838C167.718 43.0478 167.27 43.1198 166.726 43.1998C166.198 43.2638 165.75 43.3278 165.382 43.3918L165.094 40.1278ZM182.662 34.2958C182.87 34.5838 183.086 34.9278 183.31 35.3278C183.55 35.7278 183.782 36.1278 184.006 36.5278C184.23 36.9278 184.422 37.2798 184.582 37.5838L182.638 38.4238C182.478 38.0878 182.294 37.7198 182.086 37.3198C181.878 36.9198 181.662 36.5198 181.438 36.1198C181.214 35.7198 180.99 35.3758 180.766 35.0878L182.662 34.2958ZM185.518 33.2158C185.726 33.5198 185.95 33.8718 186.19 34.2718C186.43 34.6718 186.662 35.0718 186.886 35.4718C187.126 35.8718 187.31 36.2078 187.438 36.4798L185.542 37.2958C185.286 36.7998 184.982 36.2398 184.63 35.6158C184.278 34.9758 183.934 34.4318 183.598 33.9838L185.518 33.2158Z" fill="#494949"/>
<path d="M151.821 36.3598C151.165 37.2718 150.333 38.2158 149.325 39.1918C148.333 40.1678 147.229 41.1038 146.013 41.9998C144.813 42.8958 143.557 43.6958 142.245 44.3998C142.117 44.1598 141.949 43.8958 141.741 43.6078C141.549 43.3198 141.333 43.0398 141.093 42.7678C140.869 42.4958 140.653 42.2558 140.445 42.0478C141.821 41.3918 143.141 40.5838 144.405 39.6238C145.669 38.6478 146.797 37.6318 147.789 36.5758C148.797 35.5198 149.597 34.5038 150.189 33.5278H153.189C153.845 34.4398 154.565 35.3118 155.349 36.1438C156.133 36.9758 156.973 37.7438 157.869 38.4478C158.765 39.1518 159.685 39.7838 160.629 40.3438C161.573 40.9038 162.525 41.3758 163.485 41.7598C163.117 42.1278 162.773 42.5438 162.453 43.0078C162.133 43.4718 161.837 43.9198 161.565 44.3518C160.653 43.8718 159.725 43.3198 158.781 42.6958C157.853 42.0718 156.957 41.4078 156.093 40.7038C155.229 39.9838 154.429 39.2558 153.693 38.5198C152.957 37.7838 152.333 37.0638 151.821 36.3598ZM145.821 40.7998H157.893V43.3198H145.821V40.7998ZM142.941 45.6958H160.725V48.1918H142.941V45.6958ZM141.741 52.9918H162.141V55.4638H141.741V52.9918ZM150.261 41.8078H153.309V54.2398H150.261V41.8078ZM144.453 49.1038L146.757 48.1438C147.061 48.5438 147.357 48.9838 147.645 49.4638C147.949 49.9438 148.221 50.4158 148.461 50.8798C148.701 51.3438 148.877 51.7598 148.989 52.1278L146.517 53.2318C146.421 52.8638 146.261 52.4398 146.037 51.9598C145.813 51.4638 145.565 50.9678 145.293 50.4718C145.021 49.9758 144.741 49.5198 144.453 49.1038ZM156.645 48.1678L159.405 49.1758C158.925 49.9118 158.429 50.6478 157.917 51.3838C157.405 52.1038 156.933 52.7198 156.501 53.2318L154.341 52.3198C154.613 51.9358 154.893 51.5118 155.181 51.0478C155.469 50.5678 155.741 50.0798 155.997 49.5838C156.253 49.0718 156.469 48.5998 156.645 48.1678Z" fill="#494949"/>
<path d="M126.387 34.5118C126.371 34.6398 126.347 34.8398 126.315 35.1118C126.283 35.3678 126.251 35.6318 126.219 35.9038C126.203 36.1598 126.187 36.3918 126.171 36.5998C126.139 37.0638 126.107 37.5758 126.075 38.1358C126.059 38.6798 126.043 39.2478 126.027 39.8398C126.011 40.4158 125.995 40.9998 125.979 41.5918C125.979 42.1838 125.979 42.7598 125.979 43.3198C125.979 43.9758 125.987 44.7038 126.003 45.5038C126.019 46.2878 126.035 47.0718 126.051 47.8558C126.083 48.6238 126.099 49.3278 126.099 49.9678C126.115 50.6078 126.123 51.1038 126.123 51.4558C126.123 52.4478 126.011 53.2158 125.787 53.7598C125.579 54.3038 125.275 54.6798 124.875 54.8878C124.475 55.1118 124.011 55.2238 123.483 55.2238C122.907 55.2238 122.291 55.1038 121.635 54.8638C120.979 54.6398 120.363 54.3198 119.787 53.9038C119.227 53.4878 118.763 53.0078 118.395 52.4638C118.043 51.9038 117.867 51.3038 117.867 50.6638C117.867 49.8958 118.155 49.1358 118.731 48.3838C119.323 47.6158 120.099 46.9118 121.059 46.2718C122.035 45.6318 123.083 45.1198 124.203 44.7358C125.275 44.3358 126.379 44.0478 127.515 43.8718C128.651 43.6798 129.675 43.5838 130.587 43.5838C131.819 43.5838 132.931 43.7918 133.923 44.2078C134.915 44.6078 135.707 45.1998 136.299 45.9838C136.891 46.7678 137.187 47.7118 137.187 48.8158C137.187 49.7438 137.011 50.5998 136.659 51.3838C136.307 52.1678 135.739 52.8478 134.955 53.4238C134.187 53.9838 133.163 54.4238 131.883 54.7438C131.339 54.8558 130.795 54.9358 130.251 54.9838C129.723 55.0478 129.219 55.0958 128.739 55.1278L127.635 52.0318C128.179 52.0318 128.699 52.0238 129.195 52.0078C129.707 51.9758 130.171 51.9278 130.587 51.8638C131.243 51.7358 131.835 51.5438 132.363 51.2878C132.891 51.0318 133.307 50.6958 133.611 50.2798C133.915 49.8638 134.067 49.3678 134.067 48.7918C134.067 48.2478 133.915 47.7838 133.611 47.3998C133.323 47.0158 132.915 46.7198 132.387 46.5118C131.859 46.3038 131.243 46.1998 130.539 46.1998C129.531 46.1998 128.507 46.3038 127.467 46.5118C126.443 46.7198 125.459 47.0078 124.515 47.3758C123.811 47.6478 123.179 47.9678 122.619 48.3358C122.059 48.6878 121.619 49.0558 121.299 49.4398C120.979 49.8238 120.819 50.1918 120.819 50.5438C120.819 50.7358 120.875 50.9198 120.987 51.0958C121.115 51.2558 121.275 51.3998 121.467 51.5278C121.659 51.6558 121.851 51.7598 122.043 51.8398C122.251 51.9038 122.427 51.9358 122.571 51.9358C122.795 51.9358 122.979 51.8718 123.123 51.7438C123.267 51.5998 123.339 51.3278 123.339 50.9278C123.339 50.4958 123.323 49.8798 123.291 49.0798C123.275 48.2638 123.251 47.3598 123.219 46.3678C123.203 45.3758 123.195 44.3918 123.195 43.4158C123.195 42.7438 123.195 42.0638 123.195 41.3758C123.211 40.6878 123.219 40.0318 123.219 39.4078C123.219 38.7838 123.219 38.2318 123.219 37.7518C123.235 37.2718 123.243 36.8958 123.243 36.6238C123.243 36.4478 123.235 36.2238 123.219 35.9518C123.203 35.6798 123.179 35.4078 123.147 35.1358C123.131 34.8478 123.107 34.6398 123.075 34.5118H126.387ZM133.227 37.1038C133.835 37.3918 134.515 37.7438 135.267 38.1598C136.035 38.5758 136.763 38.9918 137.451 39.4078C138.155 39.8078 138.715 40.1678 139.131 40.4878L137.691 42.9358C137.387 42.6798 136.987 42.3918 136.491 42.0718C136.011 41.7518 135.483 41.4238 134.907 41.0878C134.347 40.7518 133.803 40.4398 133.275 40.1518C132.747 39.8478 132.291 39.6078 131.907 39.4318L133.227 37.1038ZM118.515 38.4238C119.219 38.5038 119.835 38.5598 120.363 38.5918C120.907 38.6078 121.395 38.6158 121.827 38.6158C122.451 38.6158 123.139 38.5918 123.891 38.5438C124.643 38.4798 125.411 38.3998 126.195 38.3038C126.979 38.1918 127.739 38.0638 128.475 37.9198C129.227 37.7758 129.907 37.6158 130.515 37.4398L130.587 40.4158C129.915 40.5758 129.187 40.7198 128.403 40.8478C127.619 40.9598 126.827 41.0638 126.027 41.1598C125.243 41.2558 124.491 41.3278 123.771 41.3758C123.067 41.4238 122.451 41.4478 121.923 41.4478C121.123 41.4478 120.467 41.4398 119.955 41.4238C119.443 41.4078 118.979 41.3758 118.563 41.3278L118.515 38.4238Z" fill="#494949"/>
<path d="M103.295 34.8478C103.199 35.1678 103.103 35.5598 103.007 36.0238C102.911 36.4878 102.839 36.8478 102.791 37.1038C102.679 37.6478 102.535 38.3118 102.359 39.0958C102.199 39.8798 102.015 40.7118 101.807 41.5918C101.615 42.4718 101.415 43.3118 101.207 44.1118C100.999 44.9598 100.743 45.8798 100.439 46.8718C100.135 47.8478 99.8067 48.8478 99.4547 49.8718C99.1187 50.8798 98.7747 51.8478 98.4227 52.7758C98.0707 53.6878 97.7267 54.5038 97.3907 55.2238L94.0547 54.0958C94.4067 53.4878 94.7827 52.7518 95.1827 51.8878C95.5827 51.0078 95.9667 50.0638 96.3347 49.0558C96.7187 48.0478 97.0707 47.0478 97.3907 46.0558C97.7107 45.0638 97.9827 44.1438 98.2067 43.2958C98.3667 42.7358 98.5187 42.1598 98.6627 41.5678C98.8067 40.9758 98.9347 40.3998 99.0467 39.8398C99.1587 39.2798 99.2547 38.7598 99.3347 38.2798C99.4307 37.7838 99.5027 37.3518 99.5507 36.9838C99.5987 36.5358 99.6307 36.0878 99.6467 35.6398C99.6627 35.1918 99.6547 34.8318 99.6227 34.5598L103.295 34.8478ZM97.1747 38.4238C98.1507 38.4238 99.1667 38.3758 100.223 38.2798C101.279 38.1838 102.343 38.0478 103.415 37.8718C104.487 37.6958 105.551 37.4878 106.607 37.2478V40.2478C105.615 40.4718 104.559 40.6638 103.439 40.8238C102.319 40.9838 101.215 41.1118 100.127 41.2078C99.0387 41.2878 98.0387 41.3278 97.1267 41.3278C96.5507 41.3278 96.0307 41.3198 95.5667 41.3038C95.1027 41.2718 94.6547 41.2478 94.2227 41.2318L94.1507 38.2318C94.7747 38.2958 95.3107 38.3438 95.7587 38.3758C96.2067 38.4078 96.6787 38.4238 97.1747 38.4238ZM104.711 42.0958C105.383 42.0318 106.127 41.9758 106.943 41.9278C107.759 41.8798 108.551 41.8558 109.319 41.8558C110.007 41.8558 110.703 41.8718 111.407 41.9038C112.127 41.9358 112.839 41.9918 113.543 42.0718L113.471 44.9518C112.879 44.8718 112.223 44.8078 111.503 44.7598C110.799 44.6958 110.079 44.6638 109.343 44.6638C108.527 44.6638 107.735 44.6878 106.967 44.7358C106.215 44.7678 105.463 44.8318 104.711 44.9278V42.0958ZM106.007 48.1438C105.911 48.4798 105.831 48.8318 105.767 49.1998C105.703 49.5518 105.671 49.8638 105.671 50.1358C105.671 50.3918 105.727 50.6318 105.839 50.8558C105.951 51.0798 106.127 51.2798 106.367 51.4558C106.607 51.6158 106.935 51.7438 107.351 51.8398C107.783 51.9358 108.319 51.9838 108.959 51.9838C109.775 51.9838 110.591 51.9438 111.407 51.8638C112.239 51.7678 113.087 51.6398 113.951 51.4798L113.831 54.5518C113.159 54.6318 112.415 54.7038 111.599 54.7678C110.783 54.8478 109.895 54.8878 108.935 54.8878C106.919 54.8878 105.375 54.5598 104.303 53.9038C103.247 53.2318 102.719 52.2878 102.719 51.0718C102.719 50.5278 102.767 49.9758 102.863 49.4158C102.959 48.8558 103.055 48.3358 103.151 47.8558L106.007 48.1438Z" fill="#494949"/>
<path d="M71.3516 43.8478C71.7196 43.7678 72.1436 43.6718 72.6236 43.5598C73.1036 43.4318 73.5276 43.3118 73.8956 43.1998C74.2956 43.0718 74.8316 42.9038 75.5036 42.6958C76.1756 42.4878 76.9116 42.2798 77.7116 42.0718C78.5276 41.8638 79.3436 41.6878 80.1596 41.5438C80.9916 41.3998 81.7756 41.3278 82.5116 41.3278C83.7756 41.3278 84.8796 41.5678 85.8236 42.0478C86.7836 42.5118 87.5276 43.1838 88.0556 44.0638C88.5836 44.9438 88.8476 45.9918 88.8476 47.2078C88.8476 48.2958 88.6076 49.2878 88.1276 50.1838C87.6636 51.0798 86.9516 51.8638 85.9916 52.5358C85.0316 53.2078 83.8316 53.7518 82.3916 54.1678C80.9676 54.5998 79.3036 54.8718 77.3996 54.9838L76.1276 52.0318C77.5036 51.9998 78.7676 51.8798 79.9196 51.6718C81.0876 51.4638 82.0956 51.1678 82.9436 50.7838C83.8076 50.3838 84.4716 49.8798 84.9356 49.2718C85.4156 48.6638 85.6556 47.9598 85.6556 47.1598C85.6556 46.5518 85.5116 46.0238 85.2236 45.5758C84.9516 45.1118 84.5596 44.7518 84.0476 44.4958C83.5356 44.2398 82.9276 44.1118 82.2236 44.1118C81.6636 44.1118 81.0396 44.1838 80.3516 44.3278C79.6636 44.4718 78.9516 44.6558 78.2156 44.8798C77.4956 45.1038 76.7836 45.3438 76.0796 45.5998C75.3756 45.8558 74.7196 46.1038 74.1116 46.3438C73.5036 46.5838 72.9996 46.7918 72.5996 46.9678L71.3516 43.8478Z" fill="#494949"/>
<path d="M59.2051 34.5839C59.1731 34.8239 59.1411 35.0959 59.1091 35.3999C59.0931 35.6879 59.0771 35.9839 59.0611 36.2879C59.0451 36.6079 59.0291 37.0399 59.0131 37.5839C58.9971 38.1119 58.9891 38.6959 58.9891 39.3359C58.9891 39.9759 58.9891 40.6079 58.9891 41.2319C58.9891 41.8559 58.9891 42.4239 58.9891 42.9359C58.9891 43.6079 59.0051 44.3599 59.0371 45.1919C59.0691 46.0079 59.1091 46.8399 59.1571 47.6879C59.2211 48.5199 59.2691 49.3039 59.3011 50.0399C59.3491 50.7599 59.3731 51.3599 59.3731 51.8399C59.3731 52.5119 59.1971 53.1279 58.8451 53.6879C58.4931 54.2319 57.9651 54.6639 57.2611 54.9839C56.5731 55.3039 55.7011 55.4639 54.6451 55.4639C52.7251 55.4639 51.2691 55.1119 50.2771 54.4079C49.2851 53.7039 48.7891 52.7199 48.7891 51.4559C48.7891 50.6399 49.0211 49.9279 49.4851 49.3199C49.9651 48.6959 50.6451 48.2079 51.5251 47.8559C52.4211 47.5039 53.4851 47.3279 54.7171 47.3279C56.0291 47.3279 57.2531 47.4719 58.3891 47.7599C59.5411 48.0319 60.5891 48.3919 61.5331 48.8399C62.4771 49.2879 63.3171 49.7599 64.0531 50.2559C64.7891 50.7519 65.4131 51.1999 65.9251 51.5999L64.1971 54.2879C63.6211 53.7439 62.9731 53.2079 62.2531 52.6799C61.5491 52.1519 60.7731 51.6719 59.9251 51.2399C59.0931 50.8079 58.2051 50.4639 57.2611 50.2079C56.3331 49.9359 55.3491 49.7999 54.3091 49.7999C53.4771 49.7999 52.8291 49.9439 52.3651 50.2319C51.9171 50.5199 51.6931 50.8719 51.6931 51.2879C51.6931 51.5919 51.7891 51.8559 51.9811 52.0799C52.1731 52.3039 52.4531 52.4719 52.8211 52.5839C53.1891 52.6959 53.6531 52.7519 54.2131 52.7519C54.6451 52.7519 55.0131 52.7039 55.3171 52.6079C55.6371 52.5119 55.8851 52.3359 56.0611 52.0799C56.2371 51.8239 56.3251 51.4639 56.3251 50.9999C56.3251 50.6479 56.3091 50.1439 56.2771 49.4879C56.2611 48.8319 56.2371 48.1119 56.2051 47.3279C56.1731 46.5279 56.1411 45.7439 56.1091 44.9759C56.0771 44.2079 56.0611 43.5279 56.0611 42.9359C56.0611 42.3599 56.0611 41.7599 56.0611 41.1359C56.0771 40.4959 56.0851 39.8639 56.0851 39.2399C56.0851 38.6159 56.0851 38.0479 56.0851 37.5359C56.1011 37.0079 56.1091 36.5759 56.1091 36.2399C56.1091 36.0159 56.0931 35.7439 56.0611 35.4239C56.0451 35.0879 56.0131 34.8079 55.9651 34.5839H59.2051ZM49.2451 36.8399C49.6771 36.9039 50.1571 36.9679 50.6851 37.0319C51.2131 37.0959 51.7491 37.1599 52.2931 37.2239C52.8531 37.2719 53.3811 37.3119 53.8771 37.3439C54.3731 37.3599 54.8051 37.3679 55.1731 37.3679C56.8051 37.3679 58.4291 37.3199 60.0451 37.2239C61.6771 37.1119 63.3651 36.9119 65.1091 36.6239L65.0851 39.3839C64.2691 39.4959 63.3251 39.5999 62.2531 39.6959C61.1811 39.7919 60.0371 39.8719 58.8211 39.9359C57.6211 39.9839 56.4131 40.0079 55.1971 40.0079C54.7011 40.0079 54.0851 39.9919 53.3491 39.9599C52.6291 39.9119 51.9091 39.8559 51.1891 39.7919C50.4691 39.7119 49.8451 39.6399 49.3171 39.5759L49.2451 36.8399ZM49.1251 42.0239C49.5091 42.0879 49.9651 42.1519 50.4931 42.2159C51.0211 42.2799 51.5571 42.3279 52.1011 42.3599C52.6611 42.3919 53.1891 42.4239 53.6851 42.4559C54.1811 42.4719 54.5891 42.4799 54.9091 42.4799C56.3971 42.4799 57.7411 42.4479 58.9411 42.3839C60.1571 42.3199 61.2931 42.2399 62.3491 42.1439C63.4051 42.0479 64.4211 41.9359 65.3971 41.8079L65.3731 44.6399C64.5411 44.7359 63.7331 44.8159 62.9491 44.8799C62.1811 44.9439 61.3891 44.9999 60.5731 45.0479C59.7731 45.0959 58.9091 45.1279 57.9811 45.1439C57.0531 45.1599 56.0131 45.1679 54.8611 45.1679C54.3971 45.1679 53.8211 45.1599 53.1331 45.1439C52.4451 45.1119 51.7411 45.0719 51.0211 45.0239C50.3171 44.9759 49.6931 44.9199 49.1491 44.8559L49.1251 42.0239Z" fill="#494949"/>
<path d="M40.8763 40.0078C40.5243 40.2318 40.1482 40.4478 39.7482 40.6558C39.3642 40.8638 38.9483 41.0798 38.5003 41.3038C38.1323 41.4958 37.6763 41.7198 37.1323 41.9758C36.6043 42.2318 36.0283 42.5198 35.4043 42.8398C34.7963 43.1438 34.1803 43.4718 33.5563 43.8238C32.9323 44.1598 32.3483 44.5038 31.8043 44.8558C30.8123 45.5118 30.0042 46.1918 29.3802 46.8958C28.7722 47.5998 28.4683 48.3758 28.4683 49.2238C28.4683 50.0718 28.8843 50.7278 29.7163 51.1918C30.5483 51.6398 31.7963 51.8638 33.4603 51.8638C34.2923 51.8638 35.1723 51.8318 36.1003 51.7678C37.0443 51.6878 37.9722 51.5838 38.8843 51.4558C39.7963 51.3118 40.6043 51.1518 41.3083 50.9758L41.2603 54.4318C40.5883 54.5438 39.8523 54.6478 39.0522 54.7438C38.2682 54.8398 37.4123 54.9118 36.4843 54.9598C35.5723 55.0078 34.5963 55.0318 33.5563 55.0318C32.3563 55.0318 31.2443 54.9358 30.2203 54.7438C29.2123 54.5678 28.3243 54.2718 27.5563 53.8558C26.8043 53.4398 26.2123 52.8798 25.7803 52.1758C25.3643 51.4718 25.1562 50.6078 25.1562 49.5838C25.1562 48.5598 25.3803 47.6318 25.8283 46.7998C26.2763 45.9678 26.8843 45.1998 27.6523 44.4958C28.4363 43.7918 29.2923 43.1278 30.2203 42.5038C30.7963 42.1198 31.4043 41.7518 32.0443 41.3998C32.6842 41.0318 33.3083 40.6798 33.9163 40.3438C34.5403 40.0078 35.1163 39.7038 35.6443 39.4318C36.1883 39.1438 36.6363 38.8958 36.9883 38.6878C37.4523 38.4158 37.8603 38.1678 38.2123 37.9438C38.5643 37.7198 38.9003 37.4798 39.2203 37.2238L40.8763 40.0078ZM28.8043 34.8718C29.2043 35.9278 29.6202 36.9438 30.0522 37.9198C30.5002 38.8958 30.9402 39.8078 31.3722 40.6558C31.8203 41.5038 32.2283 42.2638 32.5963 42.9358L29.8843 44.5438C29.4523 43.8078 29.0042 42.9838 28.5402 42.0718C28.0762 41.1598 27.6123 40.1998 27.1483 39.1918C26.6843 38.1678 26.2363 37.1358 25.8043 36.0958L28.8043 34.8718Z" fill="#494949"/>
<path d="M11.2051 34.5839C11.1731 34.8239 11.1411 35.0959 11.1091 35.3999C11.0931 35.6879 11.0771 35.9839 11.0611 36.2879C11.0451 36.6079 11.0291 37.0399 11.0131 37.5839C10.9971 38.1119 10.9891 38.6959 10.9891 39.3359C10.9891 39.9759 10.9891 40.6079 10.9891 41.2319C10.9891 41.8559 10.9891 42.4239 10.9891 42.9359C10.9891 43.6079 11.0051 44.3599 11.0371 45.1919C11.0691 46.0079 11.1091 46.8399 11.1571 47.6879C11.2211 48.5199 11.2691 49.3039 11.3011 50.0399C11.3491 50.7599 11.3731 51.3599 11.3731 51.8399C11.3731 52.5119 11.1971 53.1279 10.8451 53.6879C10.4931 54.2319 9.96506 54.6639 9.26106 54.9839C8.57306 55.3039 7.70106 55.4639 6.64506 55.4639C4.72506 55.4639 3.26906 55.1119 2.27706 54.4079C1.28506 53.7039 0.789062 52.7199 0.789062 51.4559C0.789062 50.6399 1.02106 49.9279 1.48506 49.3199C1.96506 48.6959 2.64506 48.2079 3.52506 47.8559C4.42106 47.5039 5.48506 47.3279 6.71706 47.3279C8.02906 47.3279 9.25306 47.4719 10.3891 47.7599C11.5411 48.0319 12.5891 48.3919 13.5331 48.8399C14.4771 49.2879 15.3171 49.7599 16.0531 50.2559C16.7891 50.7519 17.4131 51.1999 17.9251 51.5999L16.1971 54.2879C15.6211 53.7439 14.9731 53.2079 14.2531 52.6799C13.5491 52.1519 12.7731 51.6719 11.9251 51.2399C11.0931 50.8079 10.2051 50.4639 9.26106 50.2079C8.33306 49.9359 7.34906 49.7999 6.30906 49.7999C5.47706 49.7999 4.82906 49.9439 4.36506 50.2319C3.91706 50.5199 3.69306 50.8719 3.69306 51.2879C3.69306 51.5919 3.78906 51.8559 3.98106 52.0799C4.17306 52.3039 4.45306 52.4719 4.82106 52.5839C5.18906 52.6959 5.65306 52.7519 6.21306 52.7519C6.64506 52.7519 7.01306 52.7039 7.31706 52.6079C7.63706 52.5119 7.88506 52.3359 8.06106 52.0799C8.23706 51.8239 8.32506 51.4639 8.32506 50.9999C8.32506 50.6479 8.30906 50.1439 8.27706 49.4879C8.26106 48.8319 8.23706 48.1119 8.20506 47.3279C8.17306 46.5279 8.14106 45.7439 8.10906 44.9759C8.07706 44.2079 8.06106 43.5279 8.06106 42.9359C8.06106 42.3599 8.06106 41.7599 8.06106 41.1359C8.07706 40.4959 8.08506 39.8639 8.08506 39.2399C8.08506 38.6159 8.08506 38.0479 8.08506 37.5359C8.10106 37.0079 8.10906 36.5759 8.10906 36.2399C8.10906 36.0159 8.09306 35.7439 8.06106 35.4239C8.04506 35.0879 8.01306 34.8079 7.96506 34.5839H11.2051ZM1.24506 36.8399C1.67706 36.9039 2.15706 36.9679 2.68506 37.0319C3.21306 37.0959 3.74906 37.1599 4.29306 37.2239C4.85306 37.2719 5.38106 37.3119 5.87706 37.3439C6.37306 37.3599 6.80506 37.3679 7.17306 37.3679C8.80506 37.3679 10.4291 37.3199 12.0451 37.2239C13.6771 37.1119 15.3651 36.9119 17.1091 36.6239L17.0851 39.3839C16.2691 39.4959 15.3251 39.5999 14.2531 39.6959C13.1811 39.7919 12.0371 39.8719 10.8211 39.9359C9.62106 39.9839 8.41306 40.0079 7.19706 40.0079C6.70106 40.0079 6.08506 39.9919 5.34906 39.9599C4.62906 39.9119 3.90906 39.8559 3.18906 39.7919C2.46906 39.7119 1.84506 39.6399 1.31706 39.5759L1.24506 36.8399ZM1.12506 42.0239C1.50906 42.0879 1.96506 42.1519 2.49306 42.2159C3.02106 42.2799 3.55706 42.3279 4.10106 42.3599C4.66106 42.3919 5.18906 42.4239 5.68506 42.4559C6.18106 42.4719 6.58906 42.4799 6.90906 42.4799C8.39706 42.4799 9.74106 42.4479 10.9411 42.3839C12.1571 42.3199 13.2931 42.2399 14.3491 42.1439C15.4051 42.0479 16.4211 41.9359 17.3971 41.8079L17.3731 44.6399C16.5411 44.7359 15.7331 44.8159 14.9491 44.8799C14.1811 44.9439 13.3891 44.9999 12.5731 45.0479C11.7731 45.0959 10.9091 45.1279 9.98106 45.1439C9.05306 45.1599 8.01306 45.1679 6.86106 45.1679C6.39706 45.1679 5.82106 45.1599 5.13306 45.1439C4.44506 45.1119 3.74106 45.0719 3.02106 45.0239C2.31706 44.9759 1.69306 44.9199 1.14906 44.8559L1.12506 42.0239Z" fill="#494949"/>
<path d="M263.138 1.99185C263.122 2.11985 263.098 2.32785 263.066 2.61585C263.034 2.88785 263.01 3.16785 262.994 3.45585C262.994 3.72785 262.986 3.92785 262.97 4.05585C262.954 4.37585 262.938 4.80785 262.922 5.35185C262.922 5.89585 262.922 6.49585 262.922 7.15185C262.922 7.80785 262.922 8.47185 262.922 9.14385C262.938 9.79985 262.946 10.4239 262.946 11.0159C262.962 11.5919 262.97 12.0719 262.97 12.4559L259.994 11.4239C259.994 11.1199 259.994 10.7199 259.994 10.2239C259.994 9.72785 259.994 9.18385 259.994 8.59185C259.994 7.98385 259.986 7.38385 259.97 6.79185C259.97 6.19985 259.962 5.66385 259.946 5.18385C259.93 4.70385 259.914 4.33585 259.898 4.07985C259.866 3.59985 259.826 3.16785 259.778 2.78385C259.73 2.39985 259.698 2.13585 259.682 1.99185H263.138ZM249.578 4.99185C250.298 4.97585 251.098 4.96785 251.978 4.96785C252.874 4.95185 253.81 4.93585 254.786 4.91985C255.762 4.88785 256.722 4.86385 257.666 4.84785C258.626 4.83185 259.514 4.82385 260.33 4.82385C261.162 4.80785 261.882 4.79985 262.49 4.79985C263.098 4.79985 263.762 4.79985 264.482 4.79985C265.202 4.78385 265.914 4.77585 266.618 4.77585C267.322 4.77585 267.962 4.77585 268.538 4.77585C269.114 4.77585 269.57 4.77585 269.906 4.77585L269.882 7.63185C269.13 7.59985 268.13 7.56785 266.882 7.53585C265.65 7.50385 264.154 7.48785 262.394 7.48785C261.306 7.48785 260.202 7.50385 259.082 7.53585C257.962 7.55185 256.85 7.58385 255.746 7.63185C254.642 7.66385 253.578 7.70385 252.554 7.75185C251.53 7.78385 250.562 7.83185 249.65 7.89585L249.578 4.99185ZM262.562 12.0719C262.562 13.3839 262.402 14.4719 262.082 15.3359C261.778 16.1999 261.314 16.8559 260.69 17.3039C260.066 17.7359 259.29 17.9519 258.362 17.9519C257.898 17.9519 257.418 17.8639 256.922 17.6879C256.442 17.4959 255.994 17.2159 255.578 16.8479C255.178 16.4639 254.85 15.9999 254.594 15.4559C254.338 14.9119 254.21 14.2799 254.21 13.5599C254.21 12.6479 254.426 11.8559 254.858 11.1839C255.306 10.5119 255.898 9.99185 256.634 9.62385C257.37 9.23985 258.17 9.04785 259.034 9.04785C260.09 9.04785 260.97 9.28785 261.674 9.76785C262.394 10.2479 262.938 10.8879 263.306 11.6879C263.674 12.4879 263.858 13.3839 263.858 14.3759C263.858 15.1599 263.73 15.9759 263.474 16.8239C263.218 17.6719 262.786 18.5039 262.178 19.3199C261.586 20.1359 260.794 20.8719 259.802 21.5279C258.826 22.1839 257.602 22.7199 256.13 23.1359L253.586 20.5679C254.61 20.3599 255.562 20.0879 256.442 19.7519C257.322 19.4159 258.09 18.9919 258.746 18.4799C259.418 17.9679 259.938 17.3359 260.306 16.5839C260.69 15.8319 260.882 14.9359 260.882 13.8959C260.882 13.1119 260.698 12.5359 260.33 12.1679C259.962 11.7839 259.498 11.5919 258.938 11.5919C258.634 11.5919 258.338 11.6639 258.05 11.8079C257.778 11.9359 257.554 12.1439 257.378 12.4319C257.202 12.7199 257.114 13.0719 257.114 13.4879C257.114 14.0479 257.298 14.4959 257.666 14.8319C258.05 15.1519 258.482 15.3119 258.962 15.3119C259.346 15.3119 259.69 15.1919 259.994 14.9519C260.298 14.6959 260.49 14.2879 260.57 13.7279C260.666 13.1679 260.586 12.4159 260.33 11.4719L262.562 12.0719ZM266.234 1.27185C266.538 1.70385 266.842 2.18385 267.146 2.71185C267.45 3.22385 267.706 3.68785 267.914 4.10385L265.898 4.94385C265.658 4.46385 265.402 3.98385 265.13 3.50385C264.858 3.00785 264.57 2.53585 264.266 2.08785L266.234 1.27185ZM269.45 0.599854C269.754 1.03185 270.058 1.50385 270.362 2.01585C270.666 2.51185 270.93 2.97585 271.154 3.40785L269.138 4.24785C268.898 3.76785 268.634 3.28785 268.346 2.80785C268.074 2.31185 267.778 1.84785 267.458 1.41585L269.45 0.599854Z" fill="#035AAB"/>
<path d="M232.647 1.67981C233.223 1.85581 233.943 2.03981 234.807 2.23181C235.671 2.42381 236.575 2.61581 237.519 2.80781C238.463 2.98381 239.351 3.13581 240.183 3.26381C241.031 3.39181 241.719 3.48781 242.247 3.55181L241.527 6.47981C241.047 6.41581 240.463 6.32781 239.775 6.21581C239.103 6.08781 238.383 5.95181 237.615 5.80781C236.863 5.66381 236.119 5.51981 235.383 5.37581C234.647 5.21581 233.975 5.06381 233.367 4.91981C232.759 4.77581 232.263 4.65581 231.879 4.55981L232.647 1.67981ZM232.791 6.50381C232.711 6.82381 232.623 7.23981 232.527 7.75181C232.447 8.24781 232.367 8.76781 232.287 9.31181C232.207 9.85581 232.127 10.3758 232.047 10.8718C231.983 11.3678 231.927 11.7838 231.879 12.1198C232.967 11.3358 234.103 10.7598 235.287 10.3918C236.487 10.0238 237.711 9.83981 238.959 9.83981C240.367 9.83981 241.567 10.0958 242.559 10.6078C243.551 11.1198 244.303 11.7918 244.815 12.6238C245.343 13.4558 245.607 14.3598 245.607 15.3358C245.607 16.4238 245.375 17.4318 244.911 18.3598C244.447 19.2878 243.687 20.0798 242.631 20.7358C241.575 21.3918 240.191 21.8558 238.479 22.1278C236.767 22.3998 234.663 22.4318 232.167 22.2238L231.255 19.0798C233.655 19.3998 235.671 19.4478 237.303 19.2238C238.935 18.9838 240.167 18.5198 240.999 17.8318C241.847 17.1278 242.271 16.2718 242.271 15.2638C242.271 14.7358 242.119 14.2718 241.815 13.8718C241.511 13.4558 241.087 13.1358 240.543 12.9118C239.999 12.6718 239.383 12.5518 238.695 12.5518C237.351 12.5518 236.087 12.7998 234.903 13.2958C233.735 13.7758 232.775 14.4718 232.023 15.3838C231.815 15.6398 231.639 15.8798 231.495 16.1038C231.367 16.3118 231.247 16.5358 231.135 16.7758L228.375 16.0798C228.471 15.6158 228.567 15.0718 228.663 14.4478C228.759 13.8078 228.855 13.1278 228.951 12.4078C229.047 11.6718 229.135 10.9358 229.215 10.1998C229.295 9.46381 229.367 8.73581 229.431 8.01581C229.495 7.29581 229.543 6.63981 229.575 6.04781L232.791 6.50381Z" fill="#035AAB"/>
<path d="M212.897 18.7438C213.953 18.5838 214.921 18.3518 215.801 18.0478C216.681 17.7438 217.441 17.3518 218.081 16.8718C218.737 16.3918 219.241 15.8078 219.593 15.1198C219.945 14.4158 220.121 13.5918 220.121 12.6478C220.121 12.1838 220.033 11.7358 219.857 11.3038C219.681 10.8718 219.417 10.4878 219.065 10.1518C218.729 9.79977 218.321 9.52777 217.841 9.33577C217.361 9.14377 216.817 9.04777 216.209 9.04777C214.689 9.04777 213.273 9.44777 211.961 10.2478C210.649 11.0318 209.409 12.0478 208.241 13.2958V9.88777C209.681 8.54377 211.129 7.59977 212.585 7.05577C214.057 6.51177 215.433 6.23977 216.713 6.23977C217.945 6.23977 219.057 6.51177 220.049 7.05577C221.057 7.59977 221.857 8.35977 222.449 9.33577C223.041 10.3118 223.337 11.4398 223.337 12.7198C223.337 13.9358 223.145 15.0318 222.761 16.0078C222.377 16.9838 221.809 17.8398 221.057 18.5758C220.305 19.3118 219.369 19.9358 218.249 20.4478C217.129 20.9438 215.825 21.3438 214.337 21.6478L212.897 18.7438ZM207.449 8.32777C207.193 8.34377 206.865 8.38377 206.465 8.44777C206.065 8.49577 205.633 8.55177 205.169 8.61577C204.721 8.66377 204.265 8.71977 203.801 8.78377C203.337 8.84777 202.905 8.90377 202.505 8.95177L202.193 5.87977C202.545 5.89577 202.873 5.90377 203.177 5.90377C203.497 5.88777 203.865 5.87177 204.281 5.85577C204.665 5.82377 205.121 5.78377 205.649 5.73577C206.193 5.67177 206.737 5.59977 207.281 5.51977C207.841 5.43977 208.361 5.35177 208.841 5.25577C209.321 5.15977 209.697 5.06377 209.969 4.96777L210.929 6.19177C210.785 6.38377 210.617 6.62377 210.425 6.91177C210.249 7.19977 210.065 7.49577 209.873 7.79977C209.681 8.08777 209.513 8.34377 209.369 8.56777L207.953 13.0798C207.697 13.4478 207.377 13.9118 206.993 14.4718C206.625 15.0318 206.233 15.6238 205.817 16.2478C205.401 16.8718 204.993 17.4718 204.593 18.0478C204.193 18.6238 203.833 19.1278 203.513 19.5598L201.617 16.9438C201.921 16.5598 202.273 16.1198 202.673 15.6238C203.073 15.1118 203.481 14.5758 203.897 14.0158C204.329 13.4398 204.753 12.8718 205.169 12.3118C205.585 11.7358 205.969 11.1998 206.321 10.7038C206.689 10.1918 206.993 9.75177 207.233 9.38377L207.281 8.75977L207.449 8.32777ZM207.161 3.69577C207.161 3.34377 207.161 2.99177 207.161 2.63977C207.161 2.27177 207.129 1.90377 207.065 1.53577L210.569 1.65577C210.489 2.02377 210.393 2.55977 210.281 3.26377C210.169 3.95177 210.057 4.74377 209.945 5.63977C209.849 6.53577 209.753 7.47977 209.657 8.47177C209.577 9.44777 209.505 10.4238 209.441 11.3998C209.393 12.3758 209.369 13.2878 209.369 14.1358C209.369 14.7918 209.369 15.4558 209.369 16.1278C209.385 16.7998 209.401 17.4878 209.417 18.1918C209.433 18.8958 209.465 19.6238 209.513 20.3758C209.529 20.5838 209.553 20.8718 209.585 21.2398C209.617 21.6238 209.649 21.9518 209.681 22.2238H206.369C206.401 21.9518 206.417 21.6318 206.417 21.2638C206.433 20.9118 206.441 20.6398 206.441 20.4478C206.457 19.6638 206.473 18.9358 206.489 18.2638C206.505 17.5918 206.513 16.8798 206.513 16.1278C206.529 15.3758 206.553 14.5038 206.585 13.5118C206.601 13.1438 206.625 12.6798 206.657 12.1198C206.689 11.5438 206.721 10.9198 206.753 10.2478C206.801 9.55977 206.849 8.86377 206.897 8.15977C206.945 7.45577 206.985 6.79977 207.017 6.19177C207.065 5.56777 207.097 5.03977 207.113 4.60777C207.145 4.15977 207.161 3.85577 207.161 3.69577Z" fill="#035AAB"/>
<path d="M182.947 11.9998H194.395V14.0158H182.947V11.9998ZM182.611 15.2878H194.659V17.3518H182.611V15.2878ZM187.147 12.9838H189.715V15.5758C189.715 16.1358 189.635 16.7118 189.475 17.3038C189.331 17.8958 189.051 18.4798 188.635 19.0558C188.235 19.6158 187.651 20.1518 186.883 20.6638C186.115 21.1758 185.107 21.6318 183.859 22.0318C183.683 21.7758 183.427 21.4638 183.091 21.0958C182.771 20.7278 182.459 20.4238 182.155 20.1838C183.243 19.8958 184.115 19.5598 184.771 19.1758C185.443 18.7758 185.947 18.3678 186.283 17.9518C186.635 17.5198 186.867 17.0958 186.979 16.6798C187.091 16.2638 187.147 15.8718 187.147 15.5038V12.9838ZM189.475 16.1998C189.907 17.1438 190.571 17.9518 191.467 18.6238C192.363 19.2798 193.467 19.7358 194.779 19.9918C194.523 20.2318 194.235 20.5598 193.915 20.9758C193.611 21.3758 193.379 21.7358 193.219 22.0558C191.747 21.6398 190.531 20.9758 189.571 20.0638C188.611 19.1358 187.883 17.9998 187.387 16.6558L189.475 16.1998ZM184.027 10.4398L186.235 9.81577C186.491 10.1678 186.731 10.5598 186.955 10.9918C187.179 11.4238 187.331 11.8158 187.411 12.1678L185.059 12.8398C184.979 12.5038 184.843 12.1118 184.651 11.6638C184.475 11.2158 184.267 10.8078 184.027 10.4398ZM190.699 9.79177L193.339 10.5118C193.003 10.9758 192.683 11.4318 192.379 11.8798C192.091 12.3118 191.827 12.6958 191.587 13.0318L189.691 12.3838C189.883 11.9998 190.075 11.5678 190.267 11.0878C190.459 10.5918 190.603 10.1598 190.699 9.79177ZM179.971 4.67977H185.995V6.47977H179.971V4.67977ZM191.035 4.67977H197.083V6.47977H191.035V4.67977ZM196.027 1.53577H198.859V20.1118C198.859 20.7678 198.787 21.2958 198.643 21.6958C198.515 22.0958 198.259 22.4078 197.875 22.6318C197.491 22.8558 197.027 22.9998 196.483 23.0638C195.939 23.1278 195.291 23.1598 194.539 23.1598C194.507 22.7758 194.411 22.3198 194.251 21.7918C194.107 21.2798 193.947 20.8398 193.771 20.4718C194.155 20.4878 194.531 20.5038 194.899 20.5198C195.283 20.5198 195.531 20.5118 195.643 20.4958C195.803 20.4958 195.907 20.4638 195.955 20.3998C196.003 20.3358 196.027 20.2318 196.027 20.0878V1.53577ZM180.235 1.53577H187.819V9.67177H180.235V7.70377H185.131V3.52777H180.235V1.53577ZM197.515 1.53577V3.52777H192.115V7.77577H197.515V9.74377H189.379V1.53577H197.515ZM178.531 1.53577H181.339V23.1598H178.531V1.53577Z" fill="#035AAB"/>
<path d="M163.39 4.22376C164.126 4.31976 164.95 4.39176 165.862 4.43976C166.79 4.47176 167.726 4.48776 168.67 4.48776C169.63 4.47176 170.55 4.43976 171.43 4.39176C172.31 4.32776 173.07 4.26376 173.71 4.19976V7.29576C172.974 7.35976 172.166 7.41576 171.286 7.46376C170.406 7.49576 169.502 7.51176 168.574 7.51176C167.646 7.51176 166.734 7.49576 165.838 7.46376C164.958 7.41576 164.142 7.35976 163.39 7.29576V4.22376ZM165.31 14.4718C165.214 14.8718 165.142 15.2318 165.094 15.5518C165.046 15.8558 165.022 16.1678 165.022 16.4878C165.022 16.7438 165.086 16.9838 165.214 17.2078C165.342 17.4158 165.534 17.5998 165.79 17.7598C166.062 17.9038 166.406 18.0158 166.822 18.0958C167.254 18.1598 167.774 18.1918 168.382 18.1918C169.454 18.1918 170.462 18.1438 171.406 18.0478C172.35 17.9358 173.35 17.7758 174.406 17.5678L174.454 20.8078C173.686 20.9518 172.798 21.0638 171.79 21.1438C170.798 21.2238 169.622 21.2638 168.262 21.2638C166.198 21.2638 164.662 20.9198 163.654 20.2318C162.646 19.5278 162.142 18.5598 162.142 17.3278C162.142 16.8638 162.174 16.3838 162.238 15.8878C162.318 15.3758 162.422 14.8158 162.55 14.2078L165.31 14.4718ZM159.694 2.61576C159.63 2.77576 159.558 2.99976 159.478 3.28776C159.398 3.57576 159.318 3.85576 159.238 4.12776C159.174 4.39976 159.126 4.60776 159.094 4.75176C159.046 5.08776 158.966 5.52776 158.854 6.07176C158.758 6.59976 158.654 7.19976 158.542 7.87176C158.446 8.52776 158.35 9.19976 158.254 9.88776C158.158 10.5758 158.078 11.2398 158.014 11.8798C157.966 12.5198 157.942 13.0798 157.942 13.5598C157.942 13.7838 157.942 14.0398 157.942 14.3278C157.958 14.6158 157.99 14.8798 158.038 15.1198C158.15 14.8478 158.27 14.5758 158.398 14.3038C158.526 14.0318 158.654 13.7598 158.782 13.4878C158.91 13.1998 159.022 12.9278 159.118 12.6718L160.606 13.8478C160.382 14.5038 160.15 15.2078 159.91 15.9598C159.686 16.7118 159.478 17.4238 159.286 18.0958C159.11 18.7518 158.974 19.2958 158.878 19.7278C158.846 19.9038 158.814 20.1038 158.782 20.3278C158.766 20.5518 158.758 20.7278 158.758 20.8558C158.758 20.9838 158.758 21.1358 158.758 21.3118C158.774 21.5038 158.79 21.6798 158.806 21.8398L156.022 22.0318C155.782 21.1998 155.566 20.0958 155.374 18.7198C155.182 17.3278 155.086 15.8158 155.086 14.1838C155.086 13.2878 155.126 12.3758 155.206 11.4478C155.286 10.5198 155.382 9.63176 155.494 8.78376C155.606 7.91976 155.71 7.13576 155.806 6.43176C155.918 5.72776 156.014 5.14376 156.094 4.67976C156.126 4.34376 156.166 3.96776 156.214 3.55176C156.278 3.11976 156.318 2.71176 156.334 2.32776L159.694 2.61576Z" fill="#035AAB"/>
<path d="M129.333 13.1278H141.477V15.4558H129.333V13.1278ZM129.621 4.6558H141.405V6.9358H129.621V4.6558ZM133.677 11.4238L136.341 11.9758C135.941 12.8078 135.509 13.6638 135.045 14.5438C134.597 15.4238 134.149 16.2798 133.701 17.1118C133.253 17.9278 132.837 18.6558 132.453 19.2958L129.933 18.5278C130.317 17.9198 130.725 17.2078 131.157 16.3918C131.605 15.5758 132.045 14.7358 132.477 13.8718C132.925 12.9918 133.325 12.1758 133.677 11.4238ZM137.061 14.7358L139.725 14.9758C139.501 16.2398 139.165 17.3278 138.717 18.2398C138.285 19.1358 137.701 19.9038 136.965 20.5438C136.245 21.1678 135.365 21.6878 134.325 22.1038C133.285 22.5358 132.045 22.8958 130.605 23.1838C130.525 22.7838 130.373 22.3598 130.149 21.9118C129.925 21.4638 129.693 21.0958 129.453 20.8078C131.037 20.5998 132.341 20.2718 133.365 19.8238C134.405 19.3758 135.221 18.7438 135.813 17.9278C136.405 17.1118 136.821 16.0478 137.061 14.7358ZM138.765 0.887805L141.189 1.8718C140.805 2.3998 140.421 2.9278 140.037 3.45581C139.669 3.9678 139.333 4.4078 139.029 4.7758L137.181 3.95981C137.453 3.5438 137.741 3.0478 138.045 2.47181C138.349 1.87981 138.589 1.35181 138.765 0.887805ZM134.205 0.575806H136.845V11.7598H134.205V0.575806ZM130.221 1.8718L132.285 1.0078C132.605 1.4558 132.901 1.9598 133.173 2.5198C133.445 3.07981 133.637 3.56781 133.749 3.98381L131.541 4.94381C131.461 4.5278 131.293 4.0318 131.037 3.45581C130.781 2.87981 130.509 2.35181 130.221 1.8718ZM134.277 5.78381L136.125 6.91181C135.741 7.55181 135.237 8.1918 134.613 8.8318C134.005 9.4718 133.349 10.0718 132.645 10.6318C131.957 11.1758 131.277 11.6398 130.605 12.0238C130.445 11.7198 130.221 11.3598 129.933 10.9438C129.661 10.5278 129.397 10.1918 129.141 9.9358C129.781 9.6638 130.429 9.31181 131.085 8.87981C131.741 8.43181 132.349 7.9438 132.909 7.4158C133.485 6.8718 133.941 6.32781 134.277 5.78381ZM136.605 6.47981C136.829 6.5918 137.133 6.75981 137.517 6.98381C137.917 7.20781 138.341 7.4558 138.789 7.7278C139.253 7.98381 139.669 8.22381 140.037 8.44781C140.421 8.67181 140.693 8.83981 140.853 8.95181L139.341 10.9438C139.117 10.7358 138.829 10.4798 138.477 10.1758C138.125 9.8718 137.749 9.5598 137.349 9.23981C136.949 8.9198 136.565 8.61581 136.197 8.32781C135.829 8.03981 135.509 7.80781 135.237 7.6318L136.605 6.47981ZM143.061 4.94381H151.893V7.60781H143.061V4.94381ZM143.325 0.575806L146.253 1.0078C145.997 2.65581 145.669 4.25581 145.269 5.80781C144.869 7.34381 144.381 8.76781 143.805 10.0798C143.245 11.3758 142.589 12.5198 141.837 13.5118C141.693 13.3198 141.485 13.0958 141.213 12.8398C140.941 12.5838 140.653 12.3358 140.349 12.0958C140.045 11.8398 139.789 11.6318 139.581 11.4718C140.253 10.6398 140.829 9.6558 141.309 8.5198C141.805 7.36781 142.221 6.11981 142.557 4.7758C142.893 3.41581 143.149 2.01581 143.325 0.575806ZM147.693 6.57581L150.645 6.8638C150.293 9.5998 149.749 12.0078 149.013 14.0878C148.293 16.1678 147.293 17.9598 146.013 19.4638C144.733 20.9678 143.085 22.2238 141.069 23.2318C140.973 23.0078 140.829 22.7278 140.637 22.3918C140.445 22.0558 140.237 21.7198 140.013 21.3838C139.789 21.0638 139.581 20.8078 139.389 20.6158C141.213 19.8158 142.685 18.7758 143.805 17.4958C144.941 16.2158 145.813 14.6718 146.421 12.8638C147.029 11.0398 147.453 8.94381 147.693 6.57581ZM144.693 7.0798C145.029 9.09581 145.501 10.9918 146.109 12.7678C146.717 14.5438 147.517 16.1038 148.509 17.4478C149.501 18.7918 150.725 19.8478 152.181 20.6158C151.973 20.7918 151.741 21.0238 151.485 21.3118C151.229 21.6158 150.981 21.9278 150.741 22.2478C150.517 22.5678 150.333 22.8558 150.189 23.1118C148.573 22.1518 147.237 20.9118 146.181 19.3918C145.141 17.8718 144.301 16.1118 143.661 14.1118C143.021 12.0958 142.501 9.89581 142.101 7.51181L144.693 7.0798ZM132.045 18.5518L133.581 16.6078C134.525 16.9598 135.461 17.3678 136.389 17.8318C137.333 18.2958 138.205 18.7758 139.005 19.2718C139.821 19.7518 140.501 20.2158 141.045 20.6638L139.029 22.7038C138.533 22.2558 137.909 21.7838 137.157 21.2878C136.405 20.7918 135.589 20.3118 134.709 19.8478C133.829 19.3678 132.941 18.9358 132.045 18.5518Z" fill="#035AAB"/>
<path d="M108.328 2.06384H125.08V22.8238H121.984V4.96784H111.28V22.8718H108.328V2.06384ZM110.344 10.1278H123.256V12.9598H110.344V10.1278ZM110.344 18.3838H123.28V21.2878H110.344V18.3838Z" fill="#035AAB"/>
<path d="M95.0799 0.719849H97.8879V4.51185H95.0799V0.719849ZM89.7279 3.23985H103.648V7.99185H100.984V5.68785H92.2719V7.99185H89.7279V3.23985ZM91.5039 7.63185H101.8V10.1038H91.5039V7.63185ZM90.0639 11.8558H103.528V14.4238H90.0639V11.8558ZM92.7759 13.0798H95.5119C95.4639 14.3758 95.3519 15.5518 95.1759 16.6078C95.0159 17.6478 94.7279 18.5838 94.3119 19.4158C93.9119 20.2318 93.3199 20.9438 92.5359 21.5518C91.7519 22.1758 90.7199 22.7038 89.4399 23.1358C89.3599 22.8958 89.2319 22.6318 89.0559 22.3438C88.8959 22.0718 88.7119 21.7998 88.5039 21.5278C88.2959 21.2558 88.0959 21.0398 87.9039 20.8798C88.9919 20.5598 89.8559 20.1678 90.4959 19.7038C91.1359 19.2398 91.6079 18.6958 91.9119 18.0718C92.2319 17.4318 92.4479 16.7039 92.5599 15.8878C92.6719 15.0558 92.7439 14.1198 92.7759 13.0798ZM97.2159 12.7918H99.9039V19.6078C99.9039 19.9758 99.9199 20.1999 99.9519 20.2799C99.9999 20.3599 100.112 20.3998 100.288 20.3998C100.336 20.3998 100.416 20.3998 100.528 20.3998C100.64 20.3998 100.744 20.3998 100.84 20.3998C100.952 20.3998 101.04 20.3998 101.104 20.3998C101.216 20.3998 101.304 20.3358 101.368 20.2078C101.448 20.0798 101.504 19.8158 101.536 19.4158C101.568 18.9998 101.592 18.3839 101.608 17.5679C101.784 17.7119 102.008 17.8558 102.28 17.9998C102.568 18.1438 102.864 18.2719 103.168 18.3839C103.488 18.4959 103.76 18.5839 103.984 18.6479C103.92 19.7679 103.784 20.6398 103.576 21.2638C103.384 21.8878 103.112 22.3198 102.76 22.5598C102.424 22.8158 101.968 22.9438 101.392 22.9438C101.296 22.9438 101.176 22.9438 101.032 22.9438C100.888 22.9438 100.736 22.9438 100.576 22.9438C100.432 22.9438 100.288 22.9438 100.144 22.9438C99.9999 22.9438 99.8799 22.9438 99.7839 22.9438C99.0959 22.9438 98.5599 22.8398 98.1759 22.6318C97.8079 22.4238 97.5519 22.0718 97.4079 21.5758C97.2799 21.0958 97.2159 20.4478 97.2159 19.6318V12.7918ZM82.3359 1.63185H87.9999V4.22385H84.8559V23.1598H82.3359V1.63185ZM87.1359 1.63185H87.5919L87.9999 1.53585L89.8719 2.61585C89.6799 3.28785 89.4639 4.01585 89.2239 4.79985C88.9839 5.58385 88.7359 6.35185 88.4799 7.10385C88.2399 7.85585 88.0079 8.54385 87.7839 9.16785C88.5199 10.0798 88.9999 10.9438 89.2239 11.7598C89.4479 12.5758 89.5599 13.3358 89.5599 14.0398C89.5599 14.8078 89.4719 15.4478 89.2959 15.9598C89.1359 16.4718 88.8639 16.8638 88.4799 17.1358C88.2879 17.2638 88.0719 17.3678 87.8319 17.4478C87.6079 17.5278 87.3679 17.5918 87.1119 17.6398C86.6639 17.6878 86.1359 17.7038 85.5279 17.6878C85.5119 17.3518 85.4479 16.9439 85.3359 16.4639C85.2399 15.9839 85.0959 15.5758 84.9039 15.2398C85.1279 15.2558 85.3199 15.2638 85.4799 15.2638C85.6559 15.2638 85.8159 15.2638 85.9599 15.2638C86.2479 15.2478 86.4719 15.1758 86.6319 15.0478C86.7759 14.9358 86.8719 14.7678 86.9199 14.5438C86.9839 14.3038 87.0159 14.0158 87.0159 13.6798C87.0159 13.1198 86.9039 12.4798 86.6799 11.7598C86.4719 11.0398 86.0319 10.2798 85.3599 9.47985C85.5199 8.93585 85.6799 8.34385 85.8399 7.70385C86.0159 7.04785 86.1839 6.39185 86.3439 5.73585C86.5199 5.07985 86.6719 4.47185 86.7999 3.91185C86.9439 3.33585 87.0559 2.85585 87.1359 2.47185V1.63185Z" fill="#035AAB"/>
<path d="M62.1293 1.94385H68.9452V4.87185H62.1293V1.94385ZM67.5293 1.94385H70.5053C70.5053 2.71185 70.5373 3.58385 70.6013 4.55985C70.6653 5.51985 70.8013 6.55185 71.0093 7.65585C71.2173 8.74385 71.5292 9.86385 71.9452 11.0158C72.3612 12.1678 72.9133 13.3118 73.6013 14.4478C74.3053 15.5678 75.1853 16.6478 76.2413 17.6878C77.2973 18.7278 78.5613 19.6878 80.0333 20.5678C79.8253 20.7278 79.5693 20.9598 79.2653 21.2638C78.9613 21.5678 78.6653 21.8798 78.3773 22.1998C78.1053 22.5358 77.8813 22.8318 77.7052 23.0878C76.2013 22.1598 74.8973 21.1198 73.7933 19.9678C72.6893 18.7998 71.7613 17.5678 71.0093 16.2718C70.2573 14.9598 69.6493 13.6398 69.1853 12.3118C68.7213 10.9678 68.3693 9.66385 68.1293 8.39985C67.8893 7.11985 67.7292 5.92785 67.6493 4.82385C67.5693 3.71985 67.5293 2.75985 67.5293 1.94385ZM66.4972 7.22385L69.7853 7.82385C69.2413 10.1918 68.5133 12.3438 67.6013 14.2798C66.6893 16.2158 65.5933 17.9198 64.3133 19.3918C63.0493 20.8638 61.5853 22.1038 59.9213 23.1118C59.7453 22.9038 59.4972 22.6478 59.1772 22.3438C58.8572 22.0558 58.5213 21.7598 58.1693 21.4558C57.8333 21.1678 57.5373 20.9358 57.2812 20.7598C59.7933 19.4958 61.7933 17.7198 63.2813 15.4318C64.7693 13.1278 65.8412 10.3918 66.4972 7.22385Z" fill="#035AAB"/>
</svg>
