<svg width="252" height="57" viewBox="0 0 252 57" fill="none" xmlns="http://www.w3.org/2000/svg">
<path d="M248.177 47.8316L247.529 39.6236L247.409 36.0476H251.393L251.273 39.6236L250.625 47.8316H248.177ZM249.401 54.2156C248.793 54.2156 248.289 54.0156 247.889 53.6156C247.489 53.2156 247.289 52.7116 247.289 52.1036C247.289 51.4796 247.489 50.9676 247.889 50.5676C248.289 50.1676 248.793 49.9676 249.401 49.9676C250.009 49.9676 250.513 50.1676 250.913 50.5676C251.313 50.9676 251.513 51.4796 251.513 52.1036C251.513 52.7116 251.313 53.2156 250.913 53.6156C250.513 54.0156 250.009 54.2156 249.401 54.2156Z" fill="#494949"/>
<path d="M217.765 33.5035L220.765 34.1275C220.477 34.8635 220.165 35.6075 219.829 36.3595C219.509 37.0955 219.181 37.7995 218.845 38.4715C218.525 39.1275 218.213 39.7115 217.909 40.2235L215.389 39.5755C215.693 39.0315 215.989 38.4075 216.277 37.7035C216.581 36.9995 216.861 36.2795 217.117 35.5435C217.389 34.8075 217.605 34.1275 217.765 33.5035ZM214.117 38.4235C214.981 38.3915 215.973 38.3595 217.093 38.3275C218.213 38.2795 219.389 38.2235 220.621 38.1595C221.853 38.0955 223.093 38.0395 224.341 37.9915L224.317 40.5115C223.133 40.5915 221.949 40.6715 220.765 40.7515C219.581 40.8315 218.445 40.9035 217.357 40.9675C216.269 41.0315 215.269 41.0955 214.357 41.1595L214.117 38.4235ZM215.557 42.2875H223.165V44.6395H218.221V56.1355H215.557V42.2875ZM221.797 42.2875H224.653V53.2315C224.653 53.8555 224.581 54.3515 224.437 54.7195C224.293 55.1035 224.013 55.3995 223.597 55.6075C223.197 55.8315 222.717 55.9675 222.157 56.0155C221.597 56.0635 220.957 56.0875 220.237 56.0875C220.173 55.7035 220.045 55.2635 219.853 54.7675C219.677 54.2875 219.493 53.8795 219.301 53.5435C219.733 53.5595 220.157 53.5675 220.573 53.5675C220.989 53.5675 221.269 53.5595 221.413 53.5435C221.573 53.5435 221.677 53.5195 221.725 53.4715C221.773 53.4235 221.797 53.3275 221.797 53.1835V42.2875ZM216.757 45.9115H223.429V48.0475H216.757V45.9115ZM216.757 49.4395H223.429V51.5755H216.757V49.4395ZM226.549 33.6955H229.405V40.9195C229.405 41.3355 229.469 41.5995 229.597 41.7115C229.725 41.8235 230.013 41.8795 230.461 41.8795C230.557 41.8795 230.725 41.8795 230.965 41.8795C231.205 41.8795 231.461 41.8795 231.733 41.8795C232.021 41.8795 232.285 41.8795 232.525 41.8795C232.781 41.8795 232.973 41.8795 233.101 41.8795C233.373 41.8795 233.573 41.8235 233.701 41.7115C233.829 41.5835 233.925 41.3435 233.989 40.9915C234.053 40.6235 234.101 40.0875 234.133 39.3835C234.325 39.5435 234.573 39.6955 234.877 39.8395C235.181 39.9675 235.493 40.0875 235.813 40.1995C236.133 40.3115 236.421 40.3995 236.677 40.4635C236.581 41.5035 236.413 42.3115 236.173 42.8875C235.949 43.4635 235.613 43.8715 235.165 44.1115C234.717 44.3355 234.117 44.4475 233.365 44.4475C233.253 44.4475 233.085 44.4475 232.861 44.4475C232.637 44.4475 232.381 44.4475 232.093 44.4475C231.821 44.4475 231.549 44.4475 231.277 44.4475C231.021 44.4475 230.781 44.4475 230.557 44.4475C230.349 44.4475 230.189 44.4475 230.077 44.4475C229.133 44.4475 228.405 44.3435 227.893 44.1355C227.381 43.9115 227.029 43.5515 226.837 43.0555C226.645 42.5435 226.549 41.8395 226.549 40.9435V33.6955ZM233.749 35.1115L235.573 37.2235C234.853 37.5595 234.077 37.8875 233.245 38.2075C232.429 38.5115 231.597 38.7995 230.749 39.0715C229.901 39.3435 229.077 39.5835 228.277 39.7915C228.213 39.5195 228.093 39.1915 227.917 38.8075C227.757 38.4235 227.605 38.0955 227.461 37.8235C228.197 37.5835 228.949 37.3195 229.717 37.0315C230.485 36.7275 231.213 36.4075 231.901 36.0715C232.605 35.7355 233.221 35.4155 233.749 35.1115ZM226.549 44.9275H229.405V52.4875C229.405 52.9195 229.469 53.1915 229.597 53.3035C229.741 53.4155 230.045 53.4715 230.509 53.4715C230.605 53.4715 230.773 53.4715 231.013 53.4715C231.253 53.4715 231.517 53.4715 231.805 53.4715C232.109 53.4715 232.389 53.4715 232.645 53.4715C232.917 53.4715 233.109 53.4715 233.221 53.4715C233.509 53.4715 233.725 53.3995 233.869 53.2555C234.013 53.1115 234.117 52.8315 234.181 52.4155C234.261 51.9995 234.317 51.3835 234.349 50.5675C234.653 50.7915 235.053 51.0075 235.549 51.2155C236.045 51.4075 236.485 51.5515 236.869 51.6475C236.773 52.7675 236.605 53.6395 236.365 54.2635C236.141 54.9035 235.797 55.3515 235.333 55.6075C234.885 55.8635 234.277 55.9915 233.509 55.9915C233.381 55.9915 233.197 55.9915 232.957 55.9915C232.733 55.9915 232.477 55.9915 232.189 55.9915C231.917 55.9915 231.637 55.9915 231.349 55.9915C231.077 55.9915 230.829 55.9915 230.605 55.9915C230.381 55.9915 230.205 55.9915 230.077 55.9915C229.149 55.9915 228.429 55.8795 227.917 55.6555C227.405 55.4475 227.045 55.0875 226.837 54.5755C226.645 54.0795 226.549 53.3915 226.549 52.5115V44.9275ZM233.917 45.9115L235.813 48.0235C235.093 48.4235 234.301 48.7995 233.437 49.1515C232.573 49.4875 231.701 49.8075 230.821 50.1115C229.941 50.4155 229.077 50.6875 228.229 50.9275C228.165 50.6555 228.045 50.3195 227.869 49.9195C227.709 49.5195 227.549 49.1835 227.389 48.9115C228.173 48.6555 228.965 48.3595 229.765 48.0235C230.565 47.6875 231.325 47.3435 232.045 46.9915C232.765 46.6235 233.389 46.2635 233.917 45.9115ZM221.029 36.1195L223.453 35.2075C223.853 35.7835 224.237 36.4075 224.605 37.0795C224.989 37.7515 225.333 38.4155 225.637 39.0715C225.957 39.7115 226.197 40.2955 226.357 40.8235L223.717 41.8555C223.589 41.3435 223.381 40.7595 223.093 40.1035C222.821 39.4475 222.501 38.7755 222.133 38.0875C221.781 37.3835 221.413 36.7275 221.029 36.1195Z" fill="#494949"/>
<path d="M206.491 36.0235H209.515V52.5115C209.515 53.3755 209.403 54.0395 209.179 54.5035C208.955 54.9835 208.547 55.3435 207.955 55.5835C207.379 55.8235 206.643 55.9675 205.747 56.0155C204.851 56.0795 203.787 56.1115 202.555 56.1115C202.491 55.8235 202.395 55.4875 202.267 55.1035C202.139 54.7355 201.987 54.3675 201.811 53.9995C201.651 53.6315 201.491 53.3195 201.331 53.0635C201.923 53.0795 202.515 53.0955 203.107 53.1115C203.715 53.1275 204.259 53.1355 204.739 53.1355C205.219 53.1355 205.555 53.1355 205.747 53.1355C206.019 53.1355 206.211 53.0875 206.323 52.9915C206.435 52.8955 206.491 52.7195 206.491 52.4635V36.0235ZM192.787 40.8235H195.571V52.0075H192.787V40.8235ZM193.963 40.8235H203.011V50.1595H193.963V47.3995H200.179V43.5595H193.963V40.8235ZM190.555 35.2075H212.299V38.1355H190.555V35.2075Z" fill="#494949"/>
<path d="M176.322 35.2076C176.258 35.5116 176.186 35.8476 176.106 36.2156C176.026 36.5676 175.954 36.8956 175.89 37.1996C175.826 37.5516 175.746 37.9516 175.65 38.3996C175.554 38.8316 175.458 39.2716 175.362 39.7196C175.282 40.1516 175.194 40.5756 175.098 40.9916C174.938 41.6796 174.738 42.4796 174.498 43.3916C174.258 44.3036 173.978 45.2876 173.658 46.3436C173.338 47.3836 172.978 48.4316 172.578 49.4876C172.178 50.5436 171.754 51.5756 171.306 52.5836C170.858 53.5756 170.378 54.4716 169.866 55.2716L166.746 54.0236C167.306 53.2716 167.826 52.4316 168.306 51.5036C168.802 50.5596 169.25 49.5996 169.65 48.6236C170.05 47.6316 170.402 46.6556 170.706 45.6956C171.026 44.7196 171.298 43.8156 171.522 42.9836C171.762 42.1516 171.946 41.4396 172.074 40.8476C172.298 39.7596 172.474 38.7116 172.602 37.7036C172.73 36.6956 172.778 35.7436 172.746 34.8476L176.322 35.2076ZM184.578 37.6316C184.962 38.1596 185.354 38.8076 185.754 39.5756C186.17 40.3276 186.578 41.1276 186.978 41.9756C187.378 42.8236 187.738 43.6396 188.058 44.4236C188.378 45.2076 188.626 45.8876 188.802 46.4636L185.754 47.8556C185.61 47.1836 185.394 46.4396 185.106 45.6236C184.834 44.8076 184.514 43.9836 184.146 43.1516C183.778 42.3036 183.386 41.5036 182.97 40.7516C182.57 39.9996 182.154 39.3676 181.722 38.8556L184.578 37.6316ZM166.578 40.1276C167.01 40.1596 167.434 40.1756 167.85 40.1756C168.282 40.1596 168.714 40.1436 169.146 40.1276C169.546 40.1116 170.026 40.0876 170.586 40.0556C171.146 40.0076 171.738 39.9596 172.362 39.9116C173.002 39.8636 173.642 39.8156 174.282 39.7676C174.922 39.7036 175.514 39.6556 176.058 39.6236C176.602 39.5916 177.05 39.5756 177.402 39.5756C178.266 39.5756 179.018 39.7196 179.658 40.0076C180.298 40.2796 180.802 40.7516 181.17 41.4236C181.554 42.0956 181.746 43.0076 181.746 44.1596C181.746 45.1036 181.706 46.1276 181.626 47.2316C181.546 48.3356 181.402 49.3916 181.194 50.3996C181.002 51.4076 180.73 52.2636 180.378 52.9676C179.994 53.7996 179.466 54.3756 178.794 54.6956C178.138 55.0156 177.354 55.1756 176.442 55.1756C175.994 55.1756 175.506 55.1356 174.978 55.0556C174.45 54.9916 173.978 54.9196 173.562 54.8396L173.058 51.6716C173.362 51.7516 173.698 51.8316 174.066 51.9116C174.45 51.9916 174.81 52.0556 175.146 52.1036C175.498 52.1516 175.778 52.1756 175.986 52.1756C176.386 52.1756 176.738 52.1036 177.042 51.9596C177.346 51.7996 177.594 51.5276 177.786 51.1436C178.01 50.6796 178.194 50.0796 178.338 49.3436C178.482 48.6076 178.586 47.8156 178.65 46.9676C178.73 46.1036 178.77 45.2796 178.77 44.4956C178.77 43.8556 178.674 43.3836 178.482 43.0796C178.306 42.7756 178.042 42.5756 177.69 42.4796C177.354 42.3676 176.938 42.3116 176.442 42.3116C176.074 42.3116 175.578 42.3436 174.954 42.4076C174.33 42.4556 173.658 42.5196 172.938 42.5996C172.234 42.6636 171.578 42.7356 170.97 42.8156C170.362 42.8956 169.89 42.9516 169.554 42.9836C169.202 43.0476 168.754 43.1196 168.21 43.1996C167.682 43.2636 167.234 43.3276 166.866 43.3916L166.578 40.1276ZM184.146 34.2956C184.354 34.5836 184.57 34.9276 184.794 35.3276C185.034 35.7276 185.266 36.1276 185.49 36.5276C185.714 36.9276 185.906 37.2796 186.066 37.5836L184.122 38.4236C183.962 38.0876 183.778 37.7196 183.57 37.3196C183.362 36.9196 183.146 36.5196 182.922 36.1196C182.698 35.7196 182.474 35.3756 182.25 35.0876L184.146 34.2956ZM187.002 33.2156C187.21 33.5196 187.434 33.8716 187.674 34.2716C187.914 34.6716 188.146 35.0716 188.37 35.4716C188.61 35.8716 188.794 36.2076 188.922 36.4796L187.026 37.2956C186.77 36.7996 186.466 36.2396 186.114 35.6156C185.762 34.9756 185.418 34.4316 185.082 33.9836L187.002 33.2156Z" fill="#494949"/>
<path d="M161.392 40.0076C161.04 40.2316 160.664 40.4476 160.264 40.6556C159.88 40.8636 159.464 41.0796 159.016 41.3036C158.648 41.4956 158.192 41.7196 157.648 41.9756C157.12 42.2316 156.544 42.5196 155.92 42.8396C155.312 43.1436 154.696 43.4716 154.072 43.8236C153.448 44.1596 152.864 44.5036 152.32 44.8556C151.328 45.5116 150.52 46.1916 149.896 46.8956C149.288 47.5996 148.984 48.3756 148.984 49.2236C148.984 50.0716 149.4 50.7276 150.232 51.1916C151.064 51.6396 152.312 51.8636 153.976 51.8636C154.808 51.8636 155.688 51.8316 156.616 51.7676C157.56 51.6876 158.488 51.5836 159.4 51.4556C160.312 51.3116 161.12 51.1516 161.824 50.9756L161.776 54.4316C161.104 54.5436 160.368 54.6476 159.568 54.7436C158.784 54.8396 157.928 54.9116 157 54.9596C156.088 55.0076 155.112 55.0316 154.072 55.0316C152.872 55.0316 151.76 54.9356 150.736 54.7436C149.728 54.5676 148.84 54.2716 148.072 53.8556C147.32 53.4396 146.728 52.8796 146.296 52.1756C145.88 51.4716 145.672 50.6076 145.672 49.5836C145.672 48.5596 145.896 47.6316 146.344 46.7996C146.792 45.9676 147.4 45.1996 148.168 44.4956C148.952 43.7916 149.808 43.1276 150.736 42.5036C151.312 42.1196 151.92 41.7516 152.56 41.3996C153.2 41.0316 153.824 40.6796 154.432 40.3436C155.056 40.0076 155.632 39.7036 156.16 39.4316C156.704 39.1436 157.152 38.8956 157.504 38.6876C157.968 38.4156 158.376 38.1676 158.728 37.9436C159.08 37.7196 159.416 37.4796 159.736 37.2236L161.392 40.0076ZM149.32 34.8716C149.72 35.9276 150.136 36.9436 150.568 37.9196C151.016 38.8956 151.456 39.8076 151.888 40.6556C152.336 41.5036 152.744 42.2636 153.112 42.9356L150.4 44.5436C149.968 43.8076 149.52 42.9836 149.056 42.0716C148.592 41.1596 148.128 40.1996 147.664 39.1916C147.2 38.1676 146.752 37.1356 146.32 36.0956L149.32 34.8716Z" fill="#494949"/>
<path d="M122.631 36.5515C123.511 36.6475 124.503 36.7195 125.607 36.7675C126.711 36.8155 127.895 36.8395 129.159 36.8395C129.943 36.8395 130.751 36.8235 131.583 36.7915C132.431 36.7595 133.247 36.7195 134.031 36.6715C134.815 36.6235 135.511 36.5675 136.119 36.5035V39.6955C135.559 39.7435 134.879 39.7915 134.079 39.8395C133.295 39.8875 132.471 39.9275 131.607 39.9595C130.759 39.9755 129.951 39.9835 129.183 39.9835C127.935 39.9835 126.775 39.9595 125.703 39.9115C124.631 39.8635 123.607 39.7995 122.631 39.7195V36.5515ZM124.647 46.7275C124.535 47.1435 124.439 47.5515 124.359 47.9515C124.279 48.3515 124.239 48.7515 124.239 49.1515C124.239 49.9195 124.623 50.5515 125.391 51.0475C126.175 51.5435 127.431 51.7915 129.159 51.7915C130.247 51.7915 131.295 51.7515 132.303 51.6715C133.311 51.5915 134.263 51.4795 135.159 51.3355C136.071 51.1915 136.879 51.0235 137.583 50.8315L137.607 54.2155C136.903 54.3755 136.119 54.5115 135.255 54.6235C134.391 54.7515 133.455 54.8475 132.447 54.9115C131.455 54.9915 130.399 55.0315 129.279 55.0315C127.455 55.0315 125.927 54.8315 124.695 54.4315C123.463 54.0315 122.543 53.4555 121.935 52.7035C121.327 51.9355 121.023 50.9995 121.023 49.8955C121.023 49.1915 121.079 48.5515 121.191 47.9755C121.303 47.3995 121.407 46.8875 121.503 46.4395L124.647 46.7275Z" fill="#494949"/>
<path d="M109.843 46.1516C109.843 45.6236 109.707 45.1436 109.435 44.7116C109.179 44.2796 108.787 43.9356 108.259 43.6796C107.747 43.4076 107.107 43.2716 106.339 43.2716C105.475 43.2716 104.635 43.3436 103.819 43.4876C103.019 43.6316 102.299 43.7996 101.659 43.9916C101.035 44.1676 100.515 44.3196 100.099 44.4476C99.7474 44.5436 99.3554 44.6796 98.9234 44.8556C98.5074 45.0156 98.1234 45.1596 97.7714 45.2876L96.8594 41.8556C97.2754 41.8236 97.7234 41.7676 98.2034 41.6876C98.6834 41.6076 99.1154 41.5276 99.4994 41.4476C100.091 41.3036 100.763 41.1516 101.515 40.9916C102.283 40.8156 103.115 40.6636 104.011 40.5356C104.907 40.4076 105.819 40.3436 106.747 40.3436C108.027 40.3436 109.147 40.5836 110.107 41.0636C111.083 41.5276 111.843 42.1996 112.387 43.0796C112.931 43.9596 113.203 45.0236 113.203 46.2716C113.203 47.5516 112.923 48.7116 112.363 49.7516C111.803 50.7916 111.011 51.7036 109.987 52.4876C108.963 53.2556 107.755 53.8956 106.363 54.4076C104.971 54.9196 103.443 55.2876 101.779 55.5116L100.051 52.5356C101.539 52.3596 102.883 52.1036 104.083 51.7676C105.299 51.4316 106.331 51.0076 107.179 50.4956C108.043 49.9676 108.699 49.3516 109.147 48.6476C109.611 47.9276 109.843 47.0956 109.843 46.1516ZM100.411 34.6316C101.099 34.7756 101.923 34.9116 102.883 35.0396C103.859 35.1676 104.859 35.2796 105.883 35.3756C106.923 35.4716 107.907 35.5516 108.835 35.6156C109.779 35.6636 110.563 35.6956 111.187 35.7116L110.707 38.6636C110.003 38.6156 109.179 38.5516 108.235 38.4716C107.291 38.3916 106.315 38.3036 105.307 38.2076C104.299 38.0956 103.323 37.9836 102.379 37.8716C101.451 37.7436 100.635 37.6236 99.9314 37.5116L100.411 34.6316Z" fill="#494949"/>
<path d="M77.3669 35.9755H92.6549V38.5675H77.3669V35.9755ZM80.4869 42.5995V44.9755H89.2469V42.5995H80.4869ZM77.8709 40.2715H92.0309V47.3275H77.8709V40.2715ZM80.1269 47.5915C80.8629 48.7275 81.8389 49.7115 83.0549 50.5435C84.2709 51.3595 85.7189 52.0155 87.3989 52.5115C89.0789 53.0075 90.9589 53.3515 93.0389 53.5435C92.8309 53.7515 92.6149 54.0075 92.3909 54.3115C92.1829 54.6155 91.9829 54.9275 91.7909 55.2475C91.6149 55.5675 91.4629 55.8555 91.3349 56.1115C89.1749 55.8235 87.2309 55.3515 85.5029 54.6955C83.7909 54.0555 82.2949 53.2075 81.0149 52.1515C79.7509 51.0795 78.6709 49.7915 77.7749 48.2875L80.1269 47.5915ZM83.4149 33.7675H86.2709V44.7115C86.2709 45.6875 86.2069 46.6475 86.0789 47.5915C85.9509 48.5195 85.7189 49.4155 85.3829 50.2795C85.0629 51.1275 84.5989 51.9195 83.9909 52.6555C83.3829 53.3915 82.5989 54.0555 81.6389 54.6475C80.6789 55.2395 79.5109 55.7355 78.1349 56.1355C78.0389 55.9275 77.8789 55.6715 77.6549 55.3675C77.4469 55.0795 77.2309 54.7835 77.0069 54.4795C76.7829 54.1915 76.5669 53.9515 76.3589 53.7595C77.6549 53.4715 78.7269 53.1035 79.5749 52.6555C80.4389 52.1915 81.1269 51.6635 81.6389 51.0715C82.1509 50.4795 82.5349 49.8475 82.7909 49.1755C83.0469 48.4875 83.2149 47.7675 83.2949 47.0155C83.3749 46.2635 83.4149 45.4875 83.4149 44.6875V33.7675ZM75.5429 33.5515L78.2069 34.4155C77.6629 35.7755 77.0149 37.1355 76.2629 38.4955C75.5269 39.8395 74.7269 41.1195 73.8629 42.3355C73.0149 43.5355 72.1349 44.5915 71.2229 45.5035C71.1429 45.2635 71.0149 44.9595 70.8389 44.5915C70.6629 44.2235 70.4709 43.8475 70.2629 43.4635C70.0549 43.0795 69.8709 42.7755 69.7109 42.5515C70.4789 41.8155 71.2229 40.9675 71.9429 40.0075C72.6789 39.0475 73.3509 38.0155 73.9589 36.9115C74.5669 35.8075 75.0949 34.6875 75.5429 33.5515ZM73.1909 40.2235L75.9269 37.4875V37.5115V56.2075H73.1909V40.2235Z" fill="#494949"/>
<path d="M56.1556 37.2235C56.8916 37.3195 57.7156 37.3915 58.6276 37.4395C59.5556 37.4715 60.4916 37.4875 61.4356 37.4875C62.3956 37.4715 63.3156 37.4395 64.1956 37.3915C65.0756 37.3275 65.8356 37.2635 66.4756 37.1995V40.2955C65.7396 40.3595 64.9316 40.4155 64.0516 40.4635C63.1716 40.4955 62.2676 40.5115 61.3396 40.5115C60.4116 40.5115 59.4996 40.4955 58.6036 40.4635C57.7236 40.4155 56.9076 40.3595 56.1556 40.2955V37.2235ZM58.0756 47.4715C57.9796 47.8715 57.9076 48.2315 57.8596 48.5515C57.8116 48.8555 57.7876 49.1675 57.7876 49.4875C57.7876 49.7435 57.8516 49.9835 57.9796 50.2075C58.1076 50.4155 58.2996 50.5995 58.5556 50.7595C58.8276 50.9035 59.1716 51.0155 59.5876 51.0955C60.0196 51.1595 60.5396 51.1915 61.1476 51.1915C62.2196 51.1915 63.2276 51.1435 64.1716 51.0475C65.1156 50.9355 66.1156 50.7755 67.1716 50.5675L67.2196 53.8075C66.4516 53.9515 65.5636 54.0635 64.5556 54.1435C63.5636 54.2235 62.3876 54.2635 61.0276 54.2635C58.9636 54.2635 57.4276 53.9195 56.4196 53.2315C55.4116 52.5275 54.9076 51.5595 54.9076 50.3275C54.9076 49.8635 54.9396 49.3835 55.0036 48.8875C55.0836 48.3755 55.1876 47.8155 55.3156 47.2075L58.0756 47.4715ZM52.4596 35.6155C52.3956 35.7755 52.3236 35.9995 52.2436 36.2875C52.1636 36.5755 52.0836 36.8555 52.0036 37.1275C51.9396 37.3995 51.8916 37.6075 51.8596 37.7515C51.8116 38.0875 51.7316 38.5275 51.6196 39.0715C51.5236 39.5995 51.4196 40.1995 51.3076 40.8715C51.2116 41.5275 51.1156 42.1995 51.0196 42.8875C50.9236 43.5755 50.8436 44.2395 50.7796 44.8795C50.7316 45.5195 50.7076 46.0795 50.7076 46.5595C50.7076 46.7835 50.7076 47.0395 50.7076 47.3275C50.7236 47.6155 50.7556 47.8795 50.8036 48.1195C50.9156 47.8475 51.0356 47.5755 51.1636 47.3035C51.2916 47.0315 51.4196 46.7595 51.5476 46.4875C51.6756 46.1995 51.7876 45.9275 51.8836 45.6715L53.3716 46.8475C53.1476 47.5035 52.9156 48.2075 52.6756 48.9595C52.4516 49.7115 52.2436 50.4235 52.0516 51.0955C51.8756 51.7515 51.7396 52.2955 51.6436 52.7275C51.6116 52.9035 51.5796 53.1035 51.5476 53.3275C51.5316 53.5515 51.5236 53.7275 51.5236 53.8555C51.5236 53.9835 51.5236 54.1355 51.5236 54.3115C51.5396 54.5035 51.5556 54.6795 51.5716 54.8395L48.7876 55.0315C48.5476 54.1995 48.3316 53.0955 48.1396 51.7195C47.9476 50.3275 47.8516 48.8155 47.8516 47.1835C47.8516 46.2875 47.8916 45.3755 47.9716 44.4475C48.0516 43.5195 48.1476 42.6315 48.2596 41.7835C48.3716 40.9195 48.4756 40.1355 48.5716 39.4315C48.6836 38.7275 48.7796 38.1435 48.8596 37.6795C48.8916 37.3435 48.9316 36.9675 48.9796 36.5515C49.0436 36.1195 49.0836 35.7115 49.0996 35.3275L52.4596 35.6155Z" fill="#494949"/>
<path d="M25.2603 45.1195H41.4603V47.9275H25.2603V45.1195ZM25.2603 52.0315H41.4363V54.8635H25.2603V52.0315ZM23.8203 38.1835H43.0683V56.1355H40.0443V41.0875H26.7003V56.1595H23.8203V38.1835ZM31.7883 33.6235H34.7643V53.5195H31.7883V33.6235Z" fill="#004898"/>
<path d="M2.80337 41.9516H15.8594V44.6156H2.80337V41.9516ZM2.80337 47.0876H15.8594V49.7516H2.80337V47.0876ZM2.80337 52.2476H15.8594V54.9116H2.80337V52.2476ZM0.859375 36.7196H18.2834V56.0876H15.2354V39.4796H3.76338V56.1356H0.859375V36.7196ZM7.67538 33.5756L11.1554 33.9596C10.8674 34.7436 10.5634 35.5116 10.2434 36.2636C9.92338 37.0156 9.62738 37.6636 9.35538 38.2076L6.71537 37.7276C6.84338 37.3276 6.97137 36.8876 7.09937 36.4076C7.22738 35.9116 7.33938 35.4236 7.43538 34.9436C7.54738 34.4476 7.62738 33.9916 7.67538 33.5756Z" fill="#004898"/>
<path d="M236.654 1.77562C236.558 2.20762 236.478 2.59162 236.414 2.92762C236.35 3.26362 236.294 3.59162 236.246 3.91162C236.182 4.24762 236.102 4.73562 236.006 5.37562C235.926 5.99962 235.83 6.71162 235.718 7.51162C235.622 8.29562 235.518 9.11962 235.406 9.98362C235.31 10.8316 235.214 11.6636 235.118 12.4796C235.022 13.2956 234.942 14.0396 234.878 14.7116C234.83 15.3836 234.806 15.9196 234.806 16.3196C234.806 17.3116 235.102 18.0716 235.694 18.5996C236.302 19.1116 237.198 19.3676 238.382 19.3676C239.502 19.3676 240.446 19.2156 241.214 18.9116C241.982 18.5916 242.566 18.1676 242.966 17.6396C243.366 17.1116 243.566 16.5196 243.566 15.8636C243.566 15.0476 243.35 14.2556 242.918 13.4876C242.502 12.7036 241.894 11.9436 241.094 11.2076L244.478 10.4876C245.278 11.4956 245.862 12.4556 246.23 13.3676C246.614 14.2636 246.806 15.2236 246.806 16.2476C246.806 17.4476 246.462 18.5196 245.774 19.4636C245.086 20.4076 244.102 21.1436 242.822 21.6716C241.558 22.1996 240.046 22.4636 238.286 22.4636C237.038 22.4636 235.926 22.2716 234.95 21.8876C233.974 21.5036 233.214 20.8956 232.67 20.0636C232.126 19.2316 231.854 18.1516 231.854 16.8236C231.854 16.3276 231.894 15.6716 231.974 14.8556C232.054 14.0236 232.15 13.1116 232.262 12.1196C232.39 11.1116 232.518 10.0956 232.646 9.07162C232.774 8.03162 232.886 7.04762 232.982 6.11962C233.094 5.19162 233.182 4.39162 233.246 3.71962C233.278 3.15962 233.294 2.73562 233.294 2.44762C233.31 2.14362 233.302 1.85562 233.27 1.58362L236.654 1.77562ZM228.086 4.75162C228.806 4.97562 229.59 5.16762 230.438 5.32762C231.286 5.47162 232.158 5.58362 233.054 5.66362C233.95 5.72762 234.798 5.75962 235.598 5.75962C236.542 5.75962 237.422 5.72762 238.238 5.66362C239.054 5.59962 239.766 5.51962 240.374 5.42362L240.278 8.27962C239.558 8.34362 238.838 8.39962 238.118 8.44762C237.398 8.49562 236.534 8.51962 235.526 8.51962C234.71 8.51962 233.862 8.47962 232.982 8.39962C232.102 8.30362 231.23 8.18362 230.366 8.03962C229.502 7.87962 228.694 7.70362 227.942 7.51162L228.086 4.75162ZM227.582 10.7036C228.446 10.9916 229.318 11.2156 230.198 11.3756C231.094 11.5356 231.974 11.6476 232.838 11.7116C233.718 11.7596 234.558 11.7836 235.358 11.7836C236.094 11.7836 236.886 11.7596 237.734 11.7116C238.598 11.6636 239.414 11.5916 240.182 11.4956L240.11 14.3516C239.438 14.4156 238.75 14.4716 238.046 14.5196C237.342 14.5516 236.614 14.5676 235.862 14.5676C234.262 14.5676 232.726 14.4876 231.254 14.3276C229.782 14.1516 228.502 13.9116 227.414 13.6076L227.582 10.7036Z" fill="#494949"/>
<path d="M203.055 4.53558C203.535 4.51958 203.991 4.50358 204.423 4.48758C204.855 4.45558 205.183 4.43158 205.407 4.41558C205.903 4.38358 206.511 4.33558 207.231 4.27158C207.967 4.19158 208.783 4.11158 209.679 4.03158C210.591 3.95158 211.559 3.87158 212.583 3.79158C213.607 3.71158 214.671 3.62358 215.775 3.52758C216.607 3.44758 217.431 3.38358 218.247 3.33558C219.079 3.27158 219.863 3.22358 220.599 3.19158C221.351 3.14358 222.007 3.11158 222.567 3.09558L222.591 6.16758C222.159 6.16758 221.663 6.17558 221.103 6.19158C220.543 6.20758 219.983 6.23958 219.423 6.28758C218.879 6.31958 218.391 6.39158 217.959 6.50358C217.239 6.69558 216.567 7.02358 215.943 7.48758C215.319 7.93558 214.775 8.47158 214.311 9.09558C213.863 9.70358 213.511 10.3676 213.255 11.0876C212.999 11.7916 212.871 12.5036 212.871 13.2236C212.871 14.0076 213.007 14.7036 213.279 15.3116C213.567 15.9036 213.951 16.4156 214.431 16.8476C214.927 17.2636 215.503 17.6156 216.159 17.9036C216.815 18.1756 217.519 18.3836 218.271 18.5276C219.039 18.6716 219.831 18.7676 220.647 18.8156L219.519 22.1036C218.511 22.0396 217.527 21.8796 216.567 21.6236C215.623 21.3676 214.735 21.0156 213.903 20.5676C213.071 20.1196 212.343 19.5756 211.719 18.9356C211.111 18.2796 210.623 17.5356 210.255 16.7036C209.903 15.8556 209.727 14.9116 209.727 13.8716C209.727 12.7196 209.911 11.6636 210.279 10.7036C210.647 9.72758 211.103 8.87958 211.647 8.15958C212.207 7.42358 212.759 6.85558 213.303 6.45558C212.855 6.51958 212.311 6.58358 211.671 6.64758C211.047 6.71158 210.367 6.79158 209.631 6.88758C208.911 6.96758 208.175 7.05558 207.423 7.15158C206.671 7.24758 205.943 7.35958 205.239 7.48758C204.551 7.59958 203.927 7.71158 203.367 7.82358L203.055 4.53558ZM219.159 8.51958C219.367 8.80758 219.583 9.15158 219.807 9.55158C220.047 9.93558 220.279 10.3276 220.503 10.7276C220.727 11.1116 220.919 11.4636 221.079 11.7836L219.255 12.5996C218.951 11.9276 218.655 11.3356 218.367 10.8236C218.095 10.3116 217.767 9.79158 217.383 9.26358L219.159 8.51958ZM221.847 7.41558C222.055 7.70358 222.279 8.03958 222.519 8.42358C222.775 8.79158 223.023 9.17558 223.263 9.57558C223.503 9.95958 223.703 10.3036 223.863 10.6076L222.063 11.4716C221.743 10.8316 221.431 10.2636 221.127 9.76758C220.839 9.27158 220.495 8.75958 220.095 8.23158L221.847 7.41558Z" fill="#494949"/>
<path d="M183.954 9.95954V18.8155H181.122V12.6235H178.458V9.95954H183.954ZM183.954 17.5675C184.45 18.3515 185.146 18.9275 186.042 19.2955C186.954 19.6635 188.042 19.8715 189.306 19.9195C190.01 19.9515 190.85 19.9755 191.826 19.9915C192.802 19.9915 193.826 19.9835 194.898 19.9675C195.97 19.9515 197.018 19.9195 198.042 19.8715C199.082 19.8235 200.01 19.7675 200.826 19.7035C200.714 19.9275 200.594 20.2155 200.466 20.5675C200.338 20.9195 200.226 21.2795 200.13 21.6475C200.034 22.0155 199.962 22.3435 199.914 22.6315C199.178 22.6795 198.346 22.7115 197.418 22.7275C196.506 22.7595 195.554 22.7755 194.562 22.7755C193.586 22.7915 192.634 22.7915 191.706 22.7755C190.794 22.7595 189.978 22.7355 189.258 22.7035C187.77 22.6395 186.498 22.4075 185.442 22.0075C184.402 21.6235 183.482 20.9675 182.682 20.0395C182.17 20.4875 181.642 20.9515 181.098 21.4315C180.57 21.9115 179.986 22.4075 179.346 22.9195L177.93 19.9195C178.458 19.5835 179.018 19.2155 179.61 18.8155C180.202 18.4155 180.77 17.9995 181.314 17.5675H183.954ZM178.458 2.87953L180.594 1.17554C181.074 1.49553 181.57 1.87153 182.082 2.30353C182.594 2.73554 183.066 3.17553 183.498 3.62353C183.93 4.05553 184.282 4.46354 184.554 4.84754L182.25 6.74354C182.026 6.35954 181.706 5.94354 181.29 5.49554C180.874 5.03154 180.418 4.57554 179.922 4.12754C179.426 3.66354 178.938 3.24753 178.458 2.87953ZM191.058 7.94354H193.842V16.6075C193.842 17.2315 193.77 17.7195 193.626 18.0715C193.498 18.4075 193.226 18.6715 192.81 18.8635C192.394 19.0555 191.906 19.1755 191.346 19.2235C190.802 19.2555 190.154 19.2715 189.402 19.2715C189.354 18.9195 189.258 18.5195 189.114 18.0715C188.97 17.6075 188.826 17.1995 188.682 16.8475C189.066 16.8635 189.458 16.8795 189.858 16.8955C190.274 16.8955 190.546 16.8955 190.674 16.8955C190.93 16.8955 191.058 16.7835 191.058 16.5595V7.94354ZM187.266 12.9835L189.762 13.6075C189.378 14.5035 188.89 15.3755 188.298 16.2235C187.722 17.0715 187.122 17.7835 186.498 18.3595C186.338 18.2155 186.122 18.0555 185.85 17.8795C185.594 17.6875 185.33 17.5115 185.058 17.3515C184.786 17.1755 184.554 17.0395 184.362 16.9435C184.986 16.4475 185.546 15.8555 186.042 15.1675C186.554 14.4635 186.962 13.7355 187.266 12.9835ZM194.706 13.9195L196.986 12.8875C197.354 13.3195 197.73 13.7915 198.114 14.3035C198.498 14.7995 198.858 15.2955 199.194 15.7915C199.546 16.2875 199.818 16.7435 200.01 17.1595L197.586 18.3355C197.41 17.9355 197.162 17.4795 196.842 16.9675C196.538 16.4555 196.194 15.9355 195.81 15.4075C195.442 14.8795 195.074 14.3835 194.706 13.9195ZM187.986 6.43154H196.938V8.75953H187.986V6.43154ZM185.226 10.0555H199.938V12.4075H185.226V10.0555ZM192.306 3.14354C191.81 3.76753 191.202 4.41554 190.482 5.08754C189.762 5.74354 188.97 6.36754 188.106 6.95954C187.258 7.53554 186.386 8.03154 185.49 8.44754C185.346 8.07954 185.13 7.65554 184.842 7.17553C184.554 6.67953 184.274 6.27154 184.002 5.95154C184.914 5.56754 185.802 5.08754 186.666 4.51154C187.53 3.93553 188.322 3.31153 189.042 2.63953C189.762 1.95154 190.346 1.27954 190.794 0.623535H193.602C194.226 1.37554 194.922 2.07954 195.69 2.73554C196.474 3.39154 197.298 3.97553 198.162 4.48753C199.026 4.99954 199.906 5.41554 200.802 5.73554C200.498 6.10354 200.194 6.53554 199.89 7.03154C199.602 7.52754 199.346 7.98354 199.122 8.39954C198.322 7.99954 197.49 7.51954 196.626 6.95954C195.778 6.38353 194.97 5.76753 194.202 5.11153C193.45 4.43953 192.818 3.78353 192.306 3.14354Z" fill="#494949"/>
<path d="M158.465 2.20752H173.177V4.96752H158.465V2.20752ZM158.465 7.75152H173.225V10.4395H158.465V7.75152ZM158.417 13.4155H173.321V16.1275H158.417V13.4155ZM156.809 2.20752H159.641V10.8475C159.641 11.7915 159.601 12.8235 159.521 13.9435C159.441 15.0635 159.281 16.1915 159.041 17.3275C158.817 18.4475 158.473 19.5195 158.009 20.5435C157.561 21.5675 156.969 22.4795 156.233 23.2795C156.089 23.0875 155.873 22.8715 155.585 22.6315C155.297 22.3915 155.001 22.1595 154.697 21.9355C154.409 21.7115 154.161 21.5355 153.953 21.4075C154.609 20.6875 155.129 19.8955 155.513 19.0315C155.897 18.1515 156.177 17.2475 156.353 16.3195C156.545 15.3755 156.665 14.4395 156.713 13.5115C156.777 12.5675 156.809 11.6715 156.809 10.8235V2.20752ZM172.169 2.20752H175.049V19.7515C175.049 20.5195 174.953 21.1115 174.761 21.5275C174.569 21.9595 174.225 22.2875 173.729 22.5115C173.249 22.7355 172.633 22.8795 171.881 22.9435C171.129 23.0075 170.201 23.0315 169.097 23.0155C169.049 22.6315 168.929 22.1675 168.737 21.6235C168.545 21.0795 168.353 20.6235 168.161 20.2555C168.625 20.2715 169.089 20.2875 169.553 20.3035C170.017 20.3035 170.425 20.3035 170.777 20.3035C171.145 20.3035 171.409 20.3035 171.569 20.3035C171.793 20.3035 171.945 20.2635 172.025 20.1835C172.121 20.1035 172.169 19.9515 172.169 19.7275V2.20752ZM164.201 3.31152H167.105V22.8475H164.201V3.31152Z" fill="#494949"/>
<path d="M143.586 4.55953C143.426 5.77553 143.218 7.07153 142.962 8.44753C142.706 9.82353 142.362 11.2155 141.93 12.6235C141.466 14.2395 140.922 15.6315 140.298 16.7995C139.674 17.9675 138.986 18.8715 138.234 19.5115C137.498 20.1355 136.69 20.4475 135.81 20.4475C134.93 20.4475 134.114 20.1515 133.362 19.5595C132.626 18.9515 132.034 18.1195 131.586 17.0635C131.154 16.0075 130.938 14.8075 130.938 13.4635C130.938 12.0715 131.218 10.7595 131.778 9.52753C132.338 8.29553 133.113 7.20753 134.105 6.26353C135.113 5.30353 136.282 4.55153 137.61 4.00753C138.954 3.46353 140.402 3.19153 141.954 3.19153C143.442 3.19153 144.778 3.43153 145.962 3.91153C147.162 4.39153 148.186 5.05553 149.034 5.90353C149.882 6.75153 150.53 7.74353 150.978 8.87953C151.426 10.0155 151.65 11.2395 151.65 12.5515C151.65 14.2315 151.306 15.7355 150.618 17.0635C149.93 18.3915 148.906 19.4875 147.546 20.3515C146.202 21.2155 144.522 21.8075 142.506 22.1275L140.706 19.2715C141.17 19.2235 141.578 19.1675 141.93 19.1035C142.282 19.0395 142.618 18.9675 142.938 18.8875C143.706 18.6955 144.418 18.4235 145.074 18.0715C145.746 17.7035 146.33 17.2555 146.826 16.7275C147.322 16.1835 147.706 15.5515 147.978 14.8315C148.266 14.1115 148.41 13.3195 148.41 12.4555C148.41 11.5115 148.266 10.6475 147.978 9.86353C147.69 9.07953 147.266 8.39953 146.706 7.82353C146.146 7.23153 145.466 6.78353 144.666 6.47953C143.866 6.15953 142.946 5.99953 141.906 5.99953C140.626 5.99953 139.497 6.23153 138.521 6.69553C137.545 7.14353 136.721 7.72753 136.049 8.44753C135.377 9.16753 134.866 9.94353 134.514 10.7755C134.178 11.6075 134.01 12.3995 134.01 13.1515C134.01 13.9515 134.106 14.6235 134.298 15.1675C134.49 15.6955 134.721 16.0955 134.993 16.3675C135.281 16.6235 135.586 16.7515 135.906 16.7515C136.242 16.7515 136.57 16.5835 136.89 16.2475C137.226 15.8955 137.554 15.3675 137.874 14.6635C138.194 13.9595 138.514 13.0715 138.834 11.9995C139.202 10.8475 139.514 9.61553 139.77 8.30353C140.026 6.99153 140.21 5.71153 140.322 4.46353L143.586 4.55953Z" fill="#494949"/>
<path d="M111.134 4.10356H117.014V6.83956H111.134V4.10356ZM121.166 0.67156H124.166V23.1116H121.166V0.67156ZM108.47 11.2316L109.934 9.07156C110.526 9.39156 111.15 9.76756 111.806 10.1996C112.478 10.6316 113.11 11.0636 113.702 11.4956C114.294 11.9276 114.774 12.3436 115.142 12.7436L113.582 15.1676C113.246 14.7676 112.79 14.3356 112.214 13.8716C111.638 13.3916 111.022 12.9196 110.366 12.4556C109.71 11.9916 109.078 11.5836 108.47 11.2316ZM111.422 0.575562L114.302 1.17556C113.886 2.79156 113.366 4.34356 112.742 5.83156C112.134 7.31956 111.438 8.69556 110.654 9.95956C109.886 11.2076 109.054 12.2956 108.158 13.2236C107.998 13.0476 107.766 12.8476 107.462 12.6236C107.174 12.3836 106.878 12.1516 106.574 11.9276C106.27 11.6876 105.998 11.5036 105.758 11.3756C106.654 10.5596 107.462 9.59156 108.182 8.47156C108.902 7.35156 109.534 6.11956 110.078 4.77556C110.622 3.41556 111.07 2.01556 111.422 0.575562ZM119.678 6.43156C120.158 7.31156 120.734 8.18356 121.406 9.04756C122.094 9.89556 122.854 10.7036 123.686 11.4716C124.518 12.2396 125.398 12.9356 126.326 13.5596C127.27 14.1836 128.222 14.7196 129.182 15.1676C128.974 15.3596 128.734 15.6076 128.462 15.9116C128.19 16.1996 127.934 16.5036 127.694 16.8236C127.454 17.1276 127.254 17.4076 127.094 17.6636C126.086 17.1356 125.11 16.5036 124.166 15.7676C123.238 15.0316 122.35 14.2156 121.502 13.3196C120.654 12.4236 119.87 11.4716 119.15 10.4636C118.446 9.45556 117.814 8.41556 117.254 7.34356L119.678 6.43156ZM116.198 4.10356H116.75L117.254 4.00756L119.15 4.65556C118.67 7.74356 117.942 10.4796 116.966 12.8636C116.006 15.2476 114.83 17.2796 113.438 18.9596C112.046 20.6236 110.486 21.9516 108.758 22.9436C108.598 22.7356 108.382 22.4876 108.11 22.1996C107.838 21.9276 107.55 21.6556 107.246 21.3836C106.958 21.1276 106.694 20.9276 106.454 20.7836C108.166 19.8876 109.686 18.7116 111.014 17.2556C112.342 15.7836 113.446 14.0076 114.326 11.9276C115.206 9.84756 115.83 7.45556 116.198 4.75156V4.10356Z" fill="#494949"/>
<path d="M89.7994 4.75153L92.4634 3.47953C92.9754 4.05553 93.4794 4.68753 93.9754 5.37553C94.4714 6.06353 94.9114 6.74353 95.2954 7.41553C95.6954 8.07153 96.0154 8.67953 96.2554 9.23953L93.4234 10.7515C93.2314 10.2075 92.9434 9.58353 92.5594 8.87953C92.1754 8.15953 91.7434 7.43953 91.2634 6.71953C90.7834 5.99953 90.2954 5.34353 89.7994 4.75153ZM82.0234 17.3515C82.8394 17.0795 83.7834 16.7355 84.8554 16.3195C85.9434 15.9035 87.0794 15.4555 88.2634 14.9755C89.4634 14.4955 90.6474 14.0155 91.8154 13.5355L92.4874 16.3435C91.4154 16.8235 90.3274 17.3035 89.2234 17.7835C88.1194 18.2635 87.0314 18.7275 85.9594 19.1755C84.9034 19.6235 83.9194 20.0395 83.0074 20.4235L82.0234 17.3515ZM96.0874 15.2155L98.2954 13.1755C98.8394 13.7515 99.4234 14.3675 100.047 15.0235C100.687 15.6795 101.311 16.3515 101.919 17.0395C102.543 17.7115 103.119 18.3675 103.647 19.0075C104.175 19.6315 104.607 20.2075 104.943 20.7355L102.471 23.1355C102.167 22.5915 101.759 21.9835 101.247 21.3115C100.751 20.6555 100.207 19.9755 99.6154 19.2715C99.0394 18.5675 98.4394 17.8715 97.8154 17.1835C97.2074 16.4795 96.6314 15.8235 96.0874 15.2155ZM99.3514 1.99153L102.543 2.27953C102.255 4.99953 101.839 7.45553 101.295 9.64753C100.751 11.8235 100.023 13.7675 99.1114 15.4795C98.1994 17.1755 97.0474 18.6635 95.6554 19.9435C94.2794 21.2235 92.6074 22.3035 90.6394 23.1835C90.4954 22.9755 90.2874 22.7115 90.0154 22.3915C89.7434 22.0715 89.4554 21.7435 89.1514 21.4075C88.8474 21.0875 88.5754 20.8315 88.3354 20.6395C90.2554 19.9035 91.8634 18.9835 93.1594 17.8795C94.4714 16.7755 95.5434 15.4635 96.3754 13.9435C97.2074 12.4075 97.8554 10.6555 98.3194 8.68753C98.7834 6.70353 99.1274 4.47153 99.3514 1.99153ZM84.7354 2.08753L87.7594 1.96753L88.3114 17.5675L85.2874 17.6875L84.7354 2.08753Z" fill="#494949"/>
<path d="M61.6468 4.31961H75.9508V3.35961H59.9188V1.67961H78.5428V5.99961H61.6468V4.31961ZM60.8308 4.31961H63.5188C63.2628 5.08761 62.9908 5.88761 62.7028 6.71961C62.4148 7.53561 62.1508 8.24761 61.9108 8.85561L59.2948 8.68761C59.5668 8.07961 59.8388 7.38361 60.1108 6.59961C60.3828 5.79961 60.6228 5.03961 60.8308 4.31961ZM61.0708 6.93561H78.3508V8.61561H60.5668L61.0708 6.93561ZM77.3908 6.93561H80.1028C80.1028 6.93561 80.0948 7.02361 80.0788 7.19961C80.0788 7.37561 80.0788 7.53561 80.0788 7.67961C80.0148 8.46361 79.9348 9.07961 79.8388 9.52761C79.7428 9.97561 79.5908 10.3196 79.3828 10.5596C79.2068 10.7356 78.9908 10.8716 78.7348 10.9676C78.4948 11.0636 78.2468 11.1196 77.9908 11.1356C77.7508 11.1516 77.4308 11.1596 77.0308 11.1596C76.6308 11.1596 76.1908 11.1516 75.7108 11.1356C75.6948 10.8796 75.6388 10.5916 75.5428 10.2716C75.4468 9.93561 75.3428 9.64761 75.2308 9.40761C75.5188 9.43961 75.7748 9.46361 75.9988 9.47961C76.2388 9.49561 76.4228 9.49561 76.5508 9.47961C76.6628 9.47961 76.7588 9.47161 76.8388 9.45561C76.9188 9.43961 76.9908 9.39161 77.0548 9.31161C77.1508 9.21561 77.2228 9.00761 77.2708 8.68761C77.3188 8.36761 77.3588 7.87961 77.3908 7.22361V6.93561ZM65.4148 0.599609H68.0308V5.56761C68.0308 6.41561 67.9268 7.21561 67.7188 7.96761C67.5108 8.70361 67.1188 9.37561 66.5428 9.98361C65.9668 10.5916 65.1348 11.1196 64.0468 11.5676C62.9588 12.0156 61.5268 12.3756 59.7508 12.6476C59.6708 12.4396 59.5508 12.1996 59.3908 11.9276C59.2308 11.6396 59.0628 11.3596 58.8868 11.0876C58.7108 10.8156 58.5428 10.5916 58.3828 10.4156C59.9188 10.2236 61.1508 9.96761 62.0788 9.64761C63.0068 9.32761 63.7108 8.95961 64.1908 8.54361C64.6708 8.12761 64.9908 7.67161 65.1508 7.17561C65.3268 6.66361 65.4148 6.11161 65.4148 5.51961V0.599609ZM70.7188 0.599609H73.4308V10.2956H70.7188V0.599609ZM64.3348 14.3516V15.3116H74.7028V14.3516H64.3348ZM64.3348 16.8476V17.8556H74.7028V16.8476H64.3348ZM64.3348 11.8556V12.8156H74.7028V11.8556H64.3348ZM61.5268 10.2236H77.6308V19.4876H61.5268V10.2236ZM70.7428 20.6156L73.0468 19.1756C73.9108 19.4476 74.7908 19.7436 75.6868 20.0636C76.5988 20.3676 77.4628 20.6716 78.2788 20.9756C79.0948 21.2796 79.7908 21.5516 80.3668 21.7916L77.1508 23.1836C76.6868 22.9436 76.1108 22.6716 75.4228 22.3676C74.7348 22.0796 73.9908 21.7836 73.1908 21.4796C72.3908 21.1756 71.5748 20.8876 70.7428 20.6156ZM65.4628 19.1996L68.0308 20.3516C67.3748 20.7356 66.6148 21.1116 65.7508 21.4796C64.8868 21.8476 63.9988 22.1836 63.0868 22.4876C62.1908 22.7916 61.3268 23.0396 60.4948 23.2316C60.3508 23.0396 60.1508 22.8076 59.8948 22.5356C59.6388 22.2796 59.3828 22.0236 59.1268 21.7676C58.8708 21.5276 58.6308 21.3276 58.4068 21.1676C59.2708 21.0236 60.1348 20.8556 60.9988 20.6636C61.8788 20.4556 62.7028 20.2316 63.4708 19.9916C64.2388 19.7356 64.9028 19.4716 65.4628 19.1996Z" fill="#494949"/>
<path d="M40.9561 6.47961H56.3161V8.63961H40.9561V6.47961ZM40.7161 10.0076L42.1801 8.73561C42.5961 9.00761 43.0521 9.32761 43.5481 9.69561C44.0441 10.0476 44.4361 10.3676 44.7241 10.6556L43.1881 12.0476C42.9321 11.7756 42.5561 11.4476 42.0601 11.0636C41.5801 10.6636 41.1321 10.3116 40.7161 10.0076ZM50.7481 19.0316L52.9321 17.9276C53.3321 18.2796 53.7481 18.6796 54.1801 19.1276C54.6121 19.5756 55.0201 20.0156 55.4041 20.4476C55.8041 20.8796 56.1161 21.2716 56.3401 21.6236L54.0121 22.8476C53.8201 22.5116 53.5401 22.1116 53.1721 21.6476C52.8201 21.1996 52.4281 20.7436 51.9961 20.2796C51.5641 19.8156 51.1481 19.3996 50.7481 19.0316ZM45.2041 14.9516V15.8876H51.4201V14.9516H45.2041ZM45.2041 12.4796V13.3676H51.4201V12.4796H45.2041ZM42.8041 10.7756H53.9161V17.5916H42.8041V10.7756ZM42.6601 17.8796L45.2521 18.5996C44.8201 19.3996 44.2681 20.1836 43.5961 20.9516C42.9401 21.7036 42.2761 22.3356 41.6041 22.8476C41.4441 22.6876 41.2361 22.4956 40.9801 22.2716C40.7241 22.0636 40.4601 21.8556 40.1881 21.6476C39.9161 21.4556 39.6761 21.2956 39.4681 21.1676C40.1081 20.7516 40.7161 20.2556 41.2921 19.6796C41.8681 19.0876 42.3241 18.4876 42.6601 17.8796ZM54.5881 8.56761L56.2441 9.79161C55.8601 10.1596 55.4441 10.5116 54.9961 10.8476C54.5641 11.1836 54.1721 11.4716 53.8201 11.7116L52.3561 10.5836C52.7081 10.3276 53.1001 10.0076 53.5321 9.62361C53.9641 9.22361 54.3161 8.87161 54.5881 8.56761ZM51.0601 7.39161C51.4281 8.07961 51.9081 8.74361 52.5001 9.38361C53.0921 10.0236 53.7641 10.5996 54.5161 11.1116C55.2681 11.6076 56.0601 12.0076 56.8921 12.3116C56.6041 12.5516 56.3001 12.8716 55.9801 13.2716C55.6601 13.6716 55.4041 14.0236 55.2121 14.3276C54.3321 13.9276 53.4921 13.4076 52.6921 12.7676C51.9081 12.1276 51.1961 11.4076 50.5561 10.6076C49.9161 9.79161 49.3721 8.94361 48.9241 8.06361L51.0601 7.39161ZM46.9081 16.7036H49.6921V20.6636C49.6921 21.2556 49.6201 21.7116 49.4761 22.0316C49.3321 22.3676 49.0441 22.6316 48.6121 22.8236C48.1801 22.9996 47.6921 23.1036 47.1481 23.1356C46.6041 23.1676 45.9641 23.1836 45.2281 23.1836C45.1481 22.8316 45.0201 22.4316 44.8441 21.9836C44.6681 21.5516 44.5001 21.1836 44.3401 20.8796C44.7881 20.8956 45.2281 20.9036 45.6601 20.9036C46.0921 20.9036 46.3801 20.9036 46.5241 20.9036C46.6841 20.9036 46.7881 20.8796 46.8361 20.8316C46.8841 20.7676 46.9081 20.6796 46.9081 20.5676V16.7036ZM46.5001 4.82361L49.1401 5.18361C48.7561 6.39961 48.2281 7.57561 47.5561 8.71161C46.9001 9.83161 46.0681 10.8796 45.0601 11.8556C44.0521 12.8316 42.8201 13.7036 41.3641 14.4716C41.1881 14.1676 40.9321 13.8236 40.5961 13.4396C40.2601 13.0556 39.9401 12.7676 39.6361 12.5756C40.9801 11.9516 42.1081 11.2236 43.0201 10.3916C43.9481 9.55961 44.6921 8.67161 45.2521 7.72761C45.8281 6.76761 46.2441 5.79961 46.5001 4.82361ZM38.8681 2.54361H56.5321V4.94361H38.8681V2.54361ZM37.4761 2.54361H40.1401V10.2956C40.1401 11.2556 40.0921 12.3036 39.9961 13.4396C39.9001 14.5756 39.7241 15.7276 39.4681 16.8956C39.2281 18.0636 38.8681 19.1916 38.3881 20.2796C37.9241 21.3516 37.3081 22.3036 36.5401 23.1356C36.4121 22.9436 36.2201 22.7196 35.9641 22.4636C35.7081 22.2236 35.4521 21.9836 35.1961 21.7436C34.9401 21.5196 34.7161 21.3516 34.5241 21.2396C35.2121 20.4716 35.7481 19.6396 36.1321 18.7436C36.5321 17.8316 36.8281 16.8876 37.0201 15.9116C37.2121 14.9356 37.3321 13.9756 37.3801 13.0316C37.4441 12.0716 37.4761 11.1596 37.4761 10.2956V2.54361ZM45.0361 0.599609H48.0601V4.00761H45.0361V0.599609ZM34.0441 5.59161L36.1081 4.72761C36.4441 5.49561 36.7481 6.31961 37.0201 7.19961C37.3081 8.07961 37.4841 8.82361 37.5481 9.43161L35.3641 10.4396C35.3161 10.0076 35.2281 9.51961 35.1001 8.97561C34.9721 8.41561 34.8201 7.83961 34.6441 7.24761C34.4681 6.65561 34.2681 6.10361 34.0441 5.59161ZM33.8281 13.8956C34.3881 13.6556 35.0441 13.3516 35.7961 12.9836C36.5641 12.5996 37.3561 12.2076 38.1721 11.8076L38.8201 13.9676C38.1481 14.3996 37.4521 14.8316 36.7321 15.2636C36.0121 15.6956 35.3161 16.1036 34.6441 16.4876L33.8281 13.8956Z" fill="#494949"/>
<path d="M18.5918 6.35961H30.2798V8.75961H18.5918V6.35961ZM15.3277 10.5356H31.3358V13.0076H15.3277V10.5356ZM21.8317 7.24761H24.6637V11.2076C24.6637 11.9436 24.5518 12.6796 24.3278 13.4156C24.1038 14.1356 23.7118 14.8316 23.1518 15.5036C22.5918 16.1756 21.7998 16.8076 20.7758 17.3996C19.7678 17.9756 18.4718 18.4876 16.8878 18.9356C16.7758 18.7276 16.6158 18.4956 16.4078 18.2396C16.1998 17.9676 15.9838 17.7036 15.7598 17.4476C15.5358 17.1916 15.3197 16.9756 15.1117 16.7996C16.5677 16.4636 17.7437 16.0796 18.6397 15.6476C19.5357 15.2156 20.2078 14.7516 20.6558 14.2556C21.1198 13.7436 21.4318 13.2236 21.5918 12.6956C21.7518 12.1676 21.8317 11.6636 21.8317 11.1836V7.24761ZM18.3757 4.36761L21.0638 5.01561C20.6478 6.03961 20.1037 7.01561 19.4317 7.94361C18.7757 8.87161 18.1038 9.64761 17.4158 10.2716C17.2398 10.1276 16.9998 9.96761 16.6958 9.79161C16.4078 9.61561 16.1118 9.44761 15.8078 9.28761C15.5198 9.11161 15.2637 8.96761 15.0397 8.85561C15.7597 8.31161 16.4077 7.63961 16.9837 6.83961C17.5757 6.03961 18.0397 5.21561 18.3757 4.36761ZM24.4958 12.1196C25.0558 13.3036 25.9438 14.2636 27.1597 14.9996C28.3918 15.7196 29.9277 16.2076 31.7677 16.4636C31.4637 16.7516 31.1438 17.1276 30.8078 17.5916C30.4878 18.0556 30.2398 18.4796 30.0638 18.8636C28.0158 18.4476 26.3518 17.7276 25.0718 16.7036C23.7917 15.6636 22.7838 14.3116 22.0478 12.6476L24.4958 12.1196ZM11.3438 1.70361H31.8877V4.46361H14.1997V23.1596H11.3438V1.70361ZM13.0957 19.4156H32.4878V22.1756H13.0957V19.4156Z" fill="#494949"/>
</svg>
