<svg width="66" height="63" viewBox="0 0 66 63" fill="none" xmlns="http://www.w3.org/2000/svg">
<path d="M27.3975 62.2293C27.3975 62.2293 26.6568 57.729 26.2203 55.246C25.7838 52.7629 25.4863 48.7715 22.7225 45.368C19.9575 41.9656 15.2598 42.2675 13.2729 39.3865C12.1341 37.7345 11.5189 37.1114 10.6379 35.3204C10.0714 34.1693 9.16102 32.1148 7.5269 32.4167C6.35984 32.6315 6.12122 33.9262 6.12122 34.9857C6.06016 34.7855 6.00135 34.5854 5.94707 34.3853C5.71411 33.5225 5.53317 32.6473 5.34318 31.7744C5.16903 30.9727 5.00957 30.1688 4.85577 29.3626C4.58889 27.965 4.3548 26.5629 4.11505 25.1608C3.95334 24.2155 3.35963 20.5102 1.68367 21.4566C0.777836 21.9677 0.3956 24.1183 0.256502 25.0206C-0.553205 30.2751 0.654571 39.2632 2.47189 44.2893C4.5968 50.1645 8.38297 50.575 13.2989 54.1492C14.4852 55.0119 15.624 55.9357 16.601 57.0359C17.9219 58.5228 18.8289 60.3082 19.3276 62.2293H27.3975Z" fill="#CBECFF"/>
<path d="M59.0499 14.1902C59.0499 6.48775 52.8052 0.243896 45.1017 0.243896C39.5796 0.243896 34.8084 3.45176 32.5478 8.10581C30.2883 3.45176 25.516 0.243896 19.9951 0.243896C12.2916 0.243896 6.04688 6.48775 6.04688 14.1902C6.04688 16.0514 6.41441 17.8255 7.07597 19.4492C11.9512 32.5882 32.5478 45.7227 32.5478 45.7227C32.5478 45.7227 53.1433 32.5882 58.0197 19.4492C58.6812 17.8255 59.0488 16.0514 59.0488 14.1902H59.0499Z" fill="#CBECFF"/>
<path d="M37.6953 62.2291C37.6953 62.2291 38.436 57.7288 38.8726 55.2457C39.3091 52.7627 39.6065 48.7712 42.3704 45.3677C45.1353 41.9654 49.833 42.2673 51.8199 39.3862C52.9587 37.7342 53.5739 37.1112 54.4549 35.3201C55.0215 34.1691 55.9318 32.1145 57.5659 32.4164C58.733 32.6313 58.9716 33.9259 58.9716 34.9854C59.0327 34.7853 59.0915 34.5852 59.1458 34.385C59.3787 33.5223 59.5597 32.6471 59.7496 31.7742C59.9238 30.9725 60.0833 30.1686 60.2371 29.3623C60.5039 27.9648 60.738 26.5627 60.9778 25.1606C61.1395 24.2153 61.7332 20.5099 63.4092 21.4563C64.315 21.9674 64.6972 24.1181 64.8363 25.0204C65.646 30.2748 64.4383 39.263 62.6209 44.289C60.496 50.1643 56.7099 50.5747 51.7939 54.1489C50.6077 55.0117 49.4689 55.9355 48.4918 57.0357C47.1709 58.5226 46.264 60.308 45.7652 62.2291H37.6953Z" fill="#CBECFF"/>
</svg>
