<svg width="301" height="47" viewBox="0 0 301 47" fill="none" xmlns="http://www.w3.org/2000/svg">
<path d="M284.654 41.5199C283.982 41.6159 283.31 41.6159 282.686 41.6159H274.766C269.678 41.6159 268.717 40.6079 268.717 35.5199V30.4799C268.717 25.4399 269.678 24.4319 274.766 24.4319H282.686C287.774 24.4319 288.734 25.4399 288.734 30.4799V35.5199C288.734 36.6719 288.733 37.6799 288.493 38.8319C289.646 38.8319 291.278 38.9279 291.806 38.9279C292.91 38.9279 292.91 38.0159 292.91 37.3439V22.5119H285.614C281.582 22.5119 279.902 20.8319 279.902 16.7999V7.96786C279.902 3.88786 281.582 2.25586 285.614 2.25586H294.302C298.382 2.25586 300.014 3.88786 300.014 7.96786V41.1359C300.014 42.9599 299.534 44.9279 297.662 45.8879C296.654 46.4159 293.39 46.4639 291.518 46.4639H290.366C287.438 46.4639 284.558 46.3679 284.558 42.4799C284.558 42.1919 284.606 41.8559 284.654 41.5199ZM264.493 22.5119V43.0559C264.493 45.5519 263.294 46.6079 260.798 46.6079C258.446 46.6079 257.438 45.3119 257.438 43.0559V7.96786C257.438 3.88786 259.07 2.25586 263.102 2.25586H271.838C275.87 2.25586 277.502 3.88786 277.502 7.96786V16.7999C277.502 20.8319 275.87 22.5119 271.838 22.5119H264.493ZM292.91 10.3199V9.11986C292.91 8.49586 292.574 8.20786 291.998 8.20786H287.678C287.102 8.20786 286.766 8.49586 286.766 9.11986V10.3199H292.91ZM270.638 10.3199V9.11986C270.638 8.49586 270.302 8.20786 269.726 8.20786H265.406C264.782 8.20786 264.493 8.49586 264.493 9.11986V10.3199H270.638ZM292.91 17.1839V14.9759H286.766V16.2719C286.766 16.8959 287.102 17.1839 287.678 17.1839H292.91ZM264.493 17.1839H269.726C270.302 17.1839 270.638 16.8959 270.638 16.2719V14.9759H264.493V17.1839ZM281.15 30.2879H276.302C275.63 30.2879 275.342 30.6239 275.342 31.2959V34.4639C275.342 35.0879 275.63 35.4239 276.302 35.4239H281.15C281.774 35.4239 282.11 35.0879 282.11 34.4639V31.2959C282.11 30.6239 281.774 30.2879 281.15 30.2879Z" fill="#494949"/>
<path d="M222.016 17.6161H226.816C226.384 17.0881 226.096 16.5601 226.096 15.8401C226.096 14.8321 226.576 14.0161 227.056 13.2001C227.968 11.5681 228.256 10.0801 228.256 8.25611V6.86411C228.256 2.25611 230.32 2.16011 234.256 1.96811C238.528 1.77611 240.736 1.58411 243.712 1.15211C244.288 1.05611 245.248 0.960112 245.536 0.960112C247.264 0.960112 248.224 2.06411 248.224 3.79211C248.224 5.76011 246.976 6.19211 245.296 6.38411C242.176 6.76811 239.056 6.86411 235.84 6.96011C234.88 7.00811 234.544 7.10411 234.544 8.06411V8.40011H246.88C248.704 8.40011 249.712 9.12011 249.712 11.0401C249.712 12.8161 248.512 13.4401 246.88 13.4401H243.712V16.0801C243.712 16.8961 243.664 17.4241 243.04 18.0481C245.296 18.9601 245.776 21.0241 245.776 23.2321V32.6401C245.776 36.6721 244.096 38.2561 240.064 38.2561H237.232C239.632 39.1201 241.504 39.6001 244 40.0321C247.504 40.6081 249.04 40.8961 249.04 43.2001C249.04 45.1681 247.744 46.4641 245.776 46.4641C243.04 46.4641 238.144 45.0241 235.504 44.1121C232.528 43.0561 231.184 42.5761 231.184 40.7521C231.184 39.7441 231.52 38.9281 232.24 38.2561H221.584C222.256 38.9761 222.688 39.8401 222.688 40.8481C222.688 42.7681 220.144 43.5841 216.832 44.5921C214.48 45.3121 210.352 46.5121 207.904 46.5121C205.696 46.5121 204.736 44.7841 204.736 43.2001C204.736 41.0401 206.08 40.6561 208.672 40.2721C211.024 39.9361 214.432 39.0241 216.64 38.2561H213.712C209.68 38.2561 208 36.6721 208 32.6401V23.2321C208 22.1761 208.096 21.2641 208.48 20.2081C208.384 20.2561 208.24 20.2561 208.096 20.2561C206.368 20.2561 204.352 18.8161 204.352 16.9441C204.352 16.1761 204.832 15.2161 205.6 13.9681C206.608 12.3361 207.184 10.2721 207.184 8.25611V6.96011C207.184 2.54411 208.528 2.06411 212.56 1.92011C216.208 1.77611 218.608 1.63211 222.352 1.00811C222.736 0.960112 223.12 0.912109 223.456 0.912109C225.04 0.912109 226 2.20811 226 3.69611C226 6.00011 224.512 6.28811 222.592 6.48011C220.48 6.67211 216.736 6.96011 214.624 6.96011C213.808 6.96011 213.376 7.05611 213.376 7.96811V8.40011H224.032C225.76 8.40011 226.864 9.07211 226.864 10.9441C226.864 12.7201 225.808 13.4401 224.08 13.4401H222.304V16.0801C222.304 16.6081 222.256 17.1361 222.016 17.6161ZM215.872 17.6161C215.632 17.1361 215.584 16.6081 215.584 16.0801V13.4401H212.8C212.464 15.1681 212.128 16.3201 211.264 17.8561C212.08 17.6641 212.896 17.6161 213.712 17.6161H215.872ZM237.184 17.6161C236.944 17.1361 236.896 16.6081 236.896 16.0801V13.4401H233.968C233.536 15.0721 233.248 16.1761 232.288 17.6161H237.184ZM238.432 23.5681V22.8001C238.432 22.1761 238.144 21.8881 237.52 21.8881H216.208C215.584 21.8881 215.296 22.1761 215.296 22.8001V23.5681H238.432ZM238.432 26.9281H215.296V28.6561H238.432V26.9281ZM238.432 32.0641H215.296V32.8321C215.296 33.4561 215.584 33.7441 216.208 33.7441H237.52C238.096 33.7441 238.432 33.4561 238.432 32.8321V32.0641Z" fill="#494949"/>
<path d="M183.808 36.1438C186.112 34.6558 188.032 32.6398 188.032 29.7598C188.032 23.3758 179.584 22.5598 174.832 22.5598C169.744 22.5598 166.336 23.5678 161.968 26.0638L158.992 27.7918C156.784 29.0398 154 27.3598 154 24.8158C154 23.2798 155.056 22.2238 156.4 21.5998L177.52 11.2798L161.44 11.4238C159.616 11.4238 157.984 9.88776 157.984 8.06376C157.984 6.19176 159.568 4.65576 161.392 4.65576H188.8C190.672 4.65576 192.16 6.14376 192.16 8.01576C192.16 9.74376 191.152 10.6558 189.712 11.3278L178.096 16.9438C178.672 16.8958 179.2 16.8478 179.776 16.8478C187.6 16.8478 195.232 20.7838 195.232 29.4718C195.232 34.6078 192.352 39.1678 187.936 41.7118C184.192 43.9198 179.632 44.6878 175.36 44.6878C171.904 44.6878 168.304 44.1598 165.28 42.4318C162.4 40.7518 160.24 37.9678 160.24 34.5598C160.24 32.0158 161.584 29.7118 163.648 28.2238C165.952 26.5438 169.408 26.1118 172.192 26.1118C177.568 26.1118 183.904 28.3678 183.904 34.7518C183.904 35.2318 183.856 35.6638 183.808 36.1438ZM176.992 38.3998C177.04 37.9678 177.184 37.5358 177.328 37.1038C177.52 36.5758 177.568 36.0958 177.568 35.5678C177.568 32.6878 173.872 32.1118 171.664 32.1118C169.888 32.1118 166.96 32.4478 166.96 34.8478C166.96 38.0638 172.336 38.4958 174.64 38.4958C175.408 38.4958 176.176 38.4958 176.992 38.3998Z" fill="#494949"/>
<path d="M115.163 15.648V11.952H105.659C103.835 11.952 102.203 10.608 102.203 8.73603C102.203 6.81603 103.835 5.47203 105.659 5.47203H115.163C115.163 3.45603 116.795 1.72803 118.811 1.72803C120.827 1.72803 122.267 3.40803 122.267 5.37603V5.47203H138.539C140.363 5.47203 141.947 6.81603 141.947 8.64003C141.947 10.368 140.795 11.856 138.539 11.856H122.267V14.688C124.187 14.688 126.107 14.832 128.027 15.072C128.699 14.448 129.611 14.112 130.523 14.112C131.963 14.112 133.115 14.976 133.643 16.272C139.931 18.384 144.059 22.848 144.059 29.664C144.059 35.184 141.227 40.56 136.187 43.056C134.315 44.016 131.435 44.64 129.371 44.64C127.355 44.64 125.579 43.152 125.579 41.04C125.579 39.888 126.203 38.784 127.115 38.16C127.739 37.728 128.603 37.584 129.419 37.488C131.099 37.344 132.635 37.008 134.027 36.096C136.235 34.704 137.291 32.064 137.291 29.568C137.291 25.968 135.131 23.76 131.963 22.464L125.291 36.288C123.947 39.072 121.979 42.24 118.955 43.344C117.563 43.824 116.075 44.016 114.635 44.016C107.243 44.016 102.347 37.536 102.347 30.528C102.347 22.752 107.819 17.28 115.163 15.648ZM121.499 30.528L125.819 20.784C125.003 20.736 124.187 20.688 123.371 20.688C122.747 20.688 122.123 20.736 121.499 20.736V30.528ZM115.163 22.08C111.371 23.568 109.067 26.448 109.067 30.576C109.067 33.84 110.939 37.776 114.635 37.776C116.747 37.776 118.235 36.192 119.195 34.512H118.763C116.795 34.512 115.163 32.832 115.163 30.864V22.08Z" fill="#494949"/>
<path d="M64.7465 21.6959C72.4745 25.0559 79.0025 29.1839 84.9065 35.1839C86.7785 37.0559 89.1305 39.4079 89.1305 41.6159C89.1305 43.7279 87.4985 45.3119 85.4345 45.3119C83.5625 45.3119 82.4105 44.0159 81.0185 42.3359C75.5945 35.7119 66.0425 29.2799 58.1225 26.0639C55.8185 25.1999 53.5625 24.3839 53.5625 21.8399C53.5625 20.3039 54.4265 18.9599 55.8185 18.2879L82.9865 4.41589C83.5625 4.12789 84.1385 3.98389 84.7145 3.98389C86.7305 3.98389 88.5065 5.61589 88.5065 7.77589C88.5065 9.45589 87.4505 10.7039 86.0105 11.3759L64.7465 21.6959Z" fill="#494949"/>
<path d="M27.6949 16.848V24.96C29.9509 25.776 32.1109 26.736 34.2229 27.888C35.7589 28.752 38.4949 30.432 39.5509 31.824C40.0789 32.496 40.4149 33.216 40.4149 34.128C40.4149 36.144 38.6869 37.776 36.7189 37.776C35.5669 37.776 34.6549 37.2 33.7909 36.576C31.8709 35.184 29.8549 33.888 27.6469 32.976V33.408C27.6469 42.048 21.5029 44.496 13.9189 44.496C7.24688 44.496 0.046875 40.752 0.046875 33.264C0.046875 28.56 2.97488 25.008 7.29488 23.472C9.45488 22.704 11.7589 22.464 14.0149 22.464C16.0789 22.464 18.1429 22.704 20.1589 23.04V6.47999C20.1589 4.46399 21.8389 2.68799 23.9029 2.68799C25.9669 2.68799 27.6949 4.41599 27.6949 6.47999V9.64799H37.2469C39.2149 9.64799 40.8949 11.232 40.8949 13.2C40.8949 15.168 39.2629 16.848 37.2949 16.848H27.6949ZM20.2069 30C18.0469 29.472 15.8389 29.184 13.6309 29.184C10.9909 29.184 7.58288 30.048 7.58288 33.312C7.58288 36.864 11.3269 37.824 14.2069 37.824C15.7429 37.824 17.7109 37.488 18.8629 36.384C19.9189 35.376 20.2069 33.792 20.2069 32.4V30Z" fill="#494949"/>
</svg>
