<svg width="47" height="47" viewBox="0 0 47 47" fill="none" xmlns="http://www.w3.org/2000/svg">
<path d="M42.2068 23.283C42.2068 33.9039 33.6627 42.5138 23.1229 42.5138C12.5832 42.5138 4.03906 33.9039 4.03906 23.283C4.03906 12.6622 12.5832 4.05225 23.1229 4.05225C33.6627 4.05225 42.2068 12.6622 42.2068 23.283Z" fill="white"/>
<path d="M42.209 23.2827C42.2088 12.8279 33.9293 4.32123 23.6172 4.05811L23.125 4.05225C12.5854 4.05225 4.04118 12.662 4.04102 23.2827C4.04102 33.7375 12.32 42.2438 22.6318 42.5073L23.125 42.5142C33.4998 42.5141 41.9407 34.171 42.2021 23.7798L42.209 23.2827ZM46.0547 23.2827C46.0547 35.9998 35.8166 46.3598 23.125 46.3599C10.4333 46.3599 0.195312 35.9999 0.195312 23.2827C0.195474 10.5657 10.4334 0.206543 23.125 0.206543C35.8165 0.206608 46.0545 10.5657 46.0547 23.2827Z" fill="#494949"/>
<path d="M36.1424 34.5501H31.7404L29.9225 32.6871C27.9894 33.9291 25.8359 34.5501 23.4621 34.5501C20.3872 34.5501 17.6579 33.5084 15.274 31.4251C12.6799 29.1314 11.3828 26.2017 11.3828 22.636C11.3828 19.1404 12.6098 16.2257 15.0637 13.892C17.4475 11.6284 20.262 10.4966 23.5072 10.4966C26.4519 10.4966 29.0911 11.4882 31.4249 13.4713C34.2294 15.8552 35.6316 18.9651 35.6316 22.8013C35.6316 25.8061 34.5248 28.4753 32.3113 30.8091L36.1424 34.5501ZM26.512 24.9497L29.8774 28.3001C31.3598 26.7576 32.101 24.8495 32.101 22.5759C32.101 20.0819 31.2746 17.9936 29.622 16.3109C27.9693 14.6282 25.9161 13.7868 23.4621 13.7868C20.9782 13.7868 18.9349 14.6282 17.3323 16.3109C15.7198 17.9836 14.9135 20.102 14.9135 22.6661C14.9135 25.1701 15.7448 27.2183 17.4075 28.8109C19.1402 30.4535 21.1184 31.2748 23.3419 31.2748C24.8544 31.2748 26.2216 30.9293 27.4435 30.2382L21.9898 24.9497H26.512Z" fill="#494949"/>
</svg>
