<svg width="44" height="32" viewBox="0 0 44 32" fill="none" xmlns="http://www.w3.org/2000/svg">
<path d="M38.9351 14.8742C39.9779 15.5073 40.9834 16.1404 41.8027 17.1087C43.1062 18.6356 43.7021 20.4977 43.7021 22.546C43.7021 25.0413 42.8828 27.4993 41.0207 29.2869C39.0468 31.149 36.4026 31.7821 33.7212 31.7821C30.4439 31.7821 27.0549 30.851 25.1183 27.9834C24.2245 26.6427 23.4424 24.9668 23.4424 23.3281C23.4424 22.0247 24.3734 21.2426 25.6024 21.2426C26.9059 21.2426 27.6507 21.8757 27.8742 23.1419C28.0604 24.1847 28.3211 25.153 28.9915 26.0096C30.0715 27.3875 31.7846 28.0206 33.535 28.0206C35.4716 28.0206 37.4454 27.2013 38.4882 25.5254C39.0841 24.5944 39.233 23.5143 39.233 22.4343C39.233 18.9336 37.1475 17.1459 33.684 17.1459H32.7529C31.6357 17.1459 30.9281 16.5501 30.9281 15.3956C30.9281 14.2411 31.6357 13.6079 32.7529 13.6079H33.6467C36.6633 13.6079 38.1903 11.6341 38.1903 8.72922C38.1903 5.89882 36.3282 4.1112 33.535 4.1112C30.6674 4.1112 29.0287 5.67537 28.5446 8.46853C28.3211 9.80924 27.8742 10.4424 26.3845 10.4424C25.1928 10.4424 24.2245 9.73476 24.2245 8.46853C24.2245 6.79263 25.0438 5.00501 26.0866 3.66429C27.8742 1.31804 30.7418 0.3125 33.6467 0.3125C38.6372 0.3125 42.6593 3.29187 42.6593 8.58025C42.6593 11.4479 41.5048 13.5335 38.9351 14.8742Z" fill="#C1E1C4"/>
<path d="M10.8584 0.3125C13.577 0.3125 16.4074 1.46701 18.0461 3.70153C20.5041 7.09057 20.9882 12.0065 20.9882 16.0659C20.9882 20.0881 20.5041 25.0785 18.0461 28.4303C16.4074 30.6276 13.577 31.7821 10.8584 31.7821C8.10246 31.7821 5.3093 30.6276 3.67064 28.4303C1.17542 25.1158 0.728516 20.0508 0.728516 16.0659C0.728516 11.9693 1.17542 7.12781 3.67064 3.70153C5.27206 1.46701 8.1397 0.3125 10.8584 0.3125ZM10.8584 4.1112C5.23481 4.1112 5.19757 12.1183 5.19757 16.0659C5.19757 20.0136 5.27205 28.0206 10.8584 28.0206C16.4447 28.0206 16.5192 20.0136 16.5192 16.0659C16.5192 12.1183 16.4447 4.1112 10.8584 4.1112Z" fill="#C1E1C4"/>
</svg>
