<svg width="124" height="38" viewBox="0 0 124 38" fill="none" xmlns="http://www.w3.org/2000/svg">
<path d="M5.59251 0.999615C8.41352 1.03193 15.9825 9.54754 14.9197 12.2486L14.8318 12.4507C13.8674 14.5038 10.9829 15.4393 9.90794 15.7232C11.9013 21.2064 15.3452 23.8357 17.5867 25.022C18.0516 23.9896 19.5456 21.0907 21.8513 20.6079C24.6657 20.0194 31.6383 29.0414 31.1785 31.8569L31.1511 31.9897C30.4736 34.7998 22.7913 38.7362 17.4665 33.6118C3.80848 30.2003 1.50731 14.4073 1.49973 14.355C-2.62684 8.06052 2.77189 0.96825 5.59251 0.999615ZM5.57493 2.49961C5.43127 2.49836 4.92252 2.63657 4.18919 3.30039C3.50902 3.91609 2.81542 4.82991 2.30149 5.93709C1.31158 8.06984 1.05435 10.7433 2.59836 13.2867L2.75364 13.5328L2.93626 13.8111L2.98411 14.1392V14.1421C2.98477 14.1465 2.98618 14.155 2.98801 14.1666C2.99171 14.19 2.99772 14.2284 3.00657 14.2798C3.02425 14.3827 3.05304 14.5396 3.09446 14.7437C3.17746 15.1528 3.31196 15.7501 3.51536 16.481C3.92317 17.9464 4.60209 19.9314 5.68333 22.0103C7.78175 26.0448 11.3238 30.3134 17.2497 32.0014L17.8308 32.1567L18.2185 32.2534L18.5066 32.5307C20.747 34.6868 23.4759 34.9269 25.783 34.2954C26.9448 33.9773 27.9518 33.4465 28.6687 32.8764C29.4396 32.2634 29.6718 31.775 29.698 31.6147C29.6983 31.6124 29.6999 31.5986 29.7 31.5717C29.7 31.5409 29.6981 31.497 29.6912 31.4389C29.6769 31.3204 29.6449 31.1633 29.5867 30.9663C29.4692 30.5686 29.2654 30.077 28.9763 29.5141C28.3988 28.3896 27.542 27.1011 26.573 25.896C25.601 24.6872 24.5628 23.6205 23.6423 22.9077C23.1806 22.5502 22.791 22.3154 22.49 22.187C22.2714 22.0938 22.1633 22.0825 22.1394 22.0806C21.5031 22.2212 20.8374 22.7359 20.2068 23.5366C19.5933 24.3156 19.1619 25.1763 18.9539 25.6382L18.2976 27.0952L16.8845 26.3472C14.3817 25.0225 10.6419 22.1332 8.49778 16.2349L7.93724 14.6919L9.52513 14.273C10.0206 14.1421 10.9252 13.8595 11.779 13.3863C12.6069 12.9274 13.2009 12.3924 13.4734 11.815L13.5173 11.7125C13.5193 11.6948 13.5347 11.5802 13.4763 11.3209C13.4027 10.9942 13.2404 10.5625 12.9724 10.0396C12.4378 8.99686 11.5794 7.77566 10.572 6.59725C9.56753 5.4223 8.46228 4.34568 7.46946 3.57578C6.97239 3.19034 6.53074 2.90322 6.16673 2.71836C5.98642 2.62682 5.84107 2.56864 5.73118 2.53477C5.62374 2.50168 5.57492 2.49969 5.57493 2.49961Z" fill="#017C0C"/>
<path d="M22.4777 2.32422C22.6016 1.95629 22.9831 1.74793 23.3537 1.83203L23.4279 1.85254L23.9143 2.02344C28.8553 3.84486 31.1951 7.25015 32.2766 10.2393C32.831 11.7718 33.0537 13.1905 33.1389 14.2256C33.1815 14.7439 33.1903 15.169 33.1877 15.4678C33.1864 15.6173 33.1818 15.7356 33.1779 15.8184C33.176 15.8595 33.1745 15.8919 33.173 15.915C33.1723 15.9266 33.1716 15.9365 33.1711 15.9434C33.1709 15.9465 33.1703 15.9491 33.1701 15.9512V15.9551C33.1701 15.9555 33.1696 15.9561 32.4221 15.8955L33.1701 15.9561C33.1366 16.3689 32.7744 16.677 32.3615 16.6436C31.9488 16.61 31.6415 16.2477 31.675 15.835V15.834C31.6752 15.8313 31.6755 15.8264 31.676 15.8193C31.6769 15.8046 31.6784 15.7804 31.6799 15.748C31.6829 15.6833 31.6865 15.5843 31.6877 15.4551C31.69 15.1961 31.6823 14.8165 31.6438 14.3486C31.5666 13.4111 31.3643 12.1288 30.8654 10.75C29.9061 8.09848 27.8493 5.07112 23.3889 3.42871L22.9494 3.27441L22.8781 3.24609C22.532 3.08915 22.3541 2.69223 22.4777 2.32422Z" fill="#017C0C"/>
<path d="M21.8681 5.26368L21.9442 5.27736L22.3271 5.37208C26.2205 6.4084 28.029 9.05131 28.8358 11.4375C29.248 12.6566 29.4017 13.8094 29.453 14.6543C29.4788 15.0782 29.4789 15.4287 29.4726 15.6758C29.4694 15.7994 29.4641 15.8978 29.4599 15.9668C29.4578 16.0012 29.4565 16.0284 29.455 16.0479C29.4542 16.0576 29.4535 16.0655 29.453 16.0713C29.4528 16.0742 29.4522 16.0772 29.4521 16.0791V16.082C29.4137 16.4945 29.0481 16.7991 28.6357 16.7608C28.2233 16.7224 27.9197 16.3567 27.9579 15.9443L27.9589 15.9317C27.9598 15.9199 27.9612 15.9009 27.9628 15.875C27.966 15.8227 27.9708 15.7423 27.9735 15.6377C27.9789 15.428 27.9787 15.1212 27.956 14.7461C27.9102 13.9929 27.7732 12.9777 27.415 11.918C26.7286 9.88816 25.239 7.69701 21.9325 6.81935L21.6064 6.73829L21.5321 6.71779C21.1725 6.5951 20.9574 6.21711 21.0448 5.83888C21.1323 5.46077 21.4912 5.21623 21.8681 5.26368Z" fill="#017C0C"/>
<path d="M20.6652 8.76649L20.7394 8.78212L20.9601 8.84559C23.2057 9.53729 24.4058 11.3399 25.0343 12.8778C25.3613 13.678 25.547 14.4361 25.6515 14.9921C25.704 15.2711 25.7365 15.5023 25.756 15.6659C25.7658 15.7477 25.7723 15.8131 25.7765 15.8593C25.7786 15.8823 25.7804 15.9007 25.7814 15.914C25.7819 15.9203 25.7821 15.9256 25.7824 15.9296C25.7825 15.9316 25.7833 15.934 25.7834 15.9354V15.9374C25.7834 15.9377 25.7827 15.9385 25.0343 15.9882C24.6719 16.0122 24.4851 16.0247 24.3888 16.0311L25.7834 15.9384C25.8108 16.3516 25.4974 16.7088 25.0841 16.7362C24.6969 16.7618 24.3585 16.4888 24.2951 16.1141L24.2863 16.038C24.2862 16.0368 24.2865 16.0344 24.2863 16.0311C24.2857 16.0241 24.2848 16.0123 24.2834 15.996C24.2803 15.9629 24.2748 15.9109 24.2668 15.8436C24.2507 15.709 24.2224 15.5115 24.1769 15.2694C24.0854 14.7828 23.9244 14.1272 23.6457 13.4452C23.1181 12.1543 22.2175 10.8688 20.6701 10.329L20.3527 10.2313L20.2795 10.2079C19.924 10.0732 19.7213 9.68848 19.8214 9.31337C19.9218 8.93805 20.2897 8.7056 20.6652 8.76649Z" fill="#017C0C"/>
<path d="M65.4385 4C73.3218 4.00024 79.7361 10.4717 79.7363 18.4258C79.739 20.5222 79.2878 22.5954 78.4121 24.4961L81.8613 29.4492C82.0448 29.7111 82.0461 30.0594 81.8692 30.3252C81.6909 30.5897 81.3676 30.715 81.0596 30.6396L74.9981 29.166C70.5647 33.1736 64.1367 33.9963 58.8526 31.2295C55.7249 33.1671 51.8837 33.5365 48.4492 32.2285H48.4473C47.1116 31.718 45.8818 30.9638 44.8174 30.0049L39.9414 31.1904C39.7133 31.246 39.4716 31.1917 39.2881 31.0449C39.1046 30.8968 38.9987 30.6713 39 30.4346C39 30.2785 39.0496 30.1263 39.1387 29.998L41.9092 26.0195C40.247 22.3294 40.5549 18.0403 42.7295 14.6318C44.903 11.2233 48.6442 9.16246 52.6621 9.16113C53.2376 9.16113 53.813 9.20379 54.3818 9.28711C57.0941 5.94078 61.1532 4 65.4385 4ZM52.6631 10.6982C49.0924 10.6997 45.7775 12.5686 43.9043 15.6357C42.0311 18.703 41.8672 22.5307 43.4717 25.75C43.5974 26.0026 43.5753 26.3057 43.4141 26.5371L41.5488 29.2148L44.8584 28.4111C45.1114 28.3503 45.378 28.4233 45.5654 28.6045H45.5635C48.7306 31.6479 53.4619 32.3354 57.3526 30.3184C51.0105 25.9364 49.2436 17.2755 53.3545 10.7217C53.1238 10.7071 52.8925 10.6982 52.6631 10.6982ZM68.3926 5.88574C64.5911 4.97454 60.5853 5.86927 57.5205 8.31348C54.4544 10.7577 52.6664 14.4833 52.6651 18.4248L52.6631 18.4258C52.667 23.5802 55.7126 28.2389 60.4082 30.2705C65.1038 32.3021 70.5464 31.3179 74.251 27.7666C74.4384 27.5854 74.705 27.5134 74.958 27.5742L79.4531 28.666L76.9072 25.0107C76.746 24.7793 76.7238 24.4776 76.8496 24.2236C78.6075 20.7028 78.6701 16.563 77.0225 12.9893C75.3747 9.41411 72.1942 6.79706 68.3926 5.88574ZM58.4375 17.1299C59.0366 16.8799 59.7251 17.0176 60.1826 17.4805C60.6401 17.9421 60.7774 18.6368 60.5283 19.2412C60.2805 19.8442 59.6973 20.2383 59.0498 20.2383C58.6252 20.2382 58.2171 20.0675 57.917 19.7646C57.617 19.4618 57.4479 19.0504 57.4492 18.6221C57.4492 17.9688 57.8399 17.3799 58.4375 17.1299ZM65.5313 17.0068C66.4567 17.0069 67.209 17.7306 67.209 18.6221C67.209 19.5135 66.458 20.2382 65.5313 20.2383C64.6045 20.2383 63.8545 19.5148 63.8545 18.6221C63.8545 17.7293 64.6058 17.0068 65.5313 17.0068ZM71.3984 17.1299C71.9975 16.8799 72.6861 17.0175 73.1436 17.4805C73.6011 17.9421 73.737 18.6381 73.4893 19.2412C73.2415 19.8441 72.6585 20.2382 72.0098 20.2383C71.585 20.2383 71.1781 20.0675 70.8779 19.7646C70.5779 19.4618 70.4092 19.0505 70.4092 18.6221H70.4102C70.4102 17.9687 70.8008 17.3799 71.3984 17.1299Z" fill="#017C0C"/>
<path d="M119.792 0H93.2077C90.8839 0 89 1.88363 89 4.20697V28.1173C89 30.4406 90.8839 32.3243 93.2077 32.3243H102.334L105.935 37.3347C106.212 37.7213 106.788 37.7213 107.065 37.3347L110.666 32.3243H119.792C122.116 32.3243 124 30.4406 124 28.1173V4.20697C124 1.88363 122.116 0 119.792 0Z" fill="white"/>
<path d="M103.104 30.8242L103.552 31.4492L106.5 35.5508L109.448 31.4492L109.896 30.8242H119.792V32.3242H110.666L107.065 37.335L107.01 37.4023C106.736 37.6984 106.264 37.6984 105.99 37.4023L105.935 37.335L102.334 32.3242H93.208V30.8242H103.104ZM122.5 28.1172V4.20703C122.5 2.71235 121.288 1.5 119.792 1.5H93.208C91.7125 1.5 90.5 2.71235 90.5 4.20703V28.1172C90.5 29.6119 91.7125 30.8242 93.208 30.8242V32.3242L92.9912 32.3184C90.7681 32.2057 89 30.3679 89 28.1172V4.20703C89 1.95628 90.7681 0.118528 92.9912 0.00585938L93.208 0H119.792C122.116 0 124 1.88369 124 4.20703V28.1172C124 30.4405 122.116 32.3242 119.792 32.3242V30.8242C121.288 30.8242 122.5 29.6119 122.5 28.1172Z" fill="#017C0C"/>
<path d="M117.79 19.5609H113.632V12.3379H117.79V13.5923H115.159V15.1806H117.608V16.435H115.159V18.2964H117.79V19.5609Z" fill="#017C0C"/>
<path d="M111.806 19.5609H109.864L106.717 14.0981H106.677C106.69 14.4421 106.704 14.786 106.717 15.13C106.738 15.4739 106.755 15.8179 106.768 16.1618V19.5609H105.402V12.3379H107.335L110.471 17.7501H110.501C110.487 17.4196 110.474 17.0892 110.46 16.7587C110.447 16.4282 110.437 16.0944 110.43 15.7572V12.3379H111.806V19.5609Z" fill="#017C0C"/>
<path d="M104.172 19.5609H100.884V18.6909L101.764 18.2862V13.6125L100.884 13.2079V12.3379H104.172V13.2079L103.291 13.6125V18.2862L104.172 18.6909V19.5609Z" fill="#017C0C"/>
<path d="M95.751 19.5609V12.3379H97.2785V18.2964H100.212V19.5609H95.751Z" fill="#017C0C"/>
</svg>
