<svg width="75" height="52" viewBox="0 0 75 52" fill="none" xmlns="http://www.w3.org/2000/svg">
<g clip-path="url(#clip0_913_15772)">
<path d="M37.2773 8.33027C37.5324 8.46663 37.8375 8.46606 38.0919 8.33027C51.7123 1.05487 70.1024 7.11723 73.6454 8.34329C73.9909 8.46323 74.2198 8.78629 74.2198 9.14953L74.0479 49.293C74.0479 49.8339 73.5509 50.2384 73.0181 50.1309C68.2455 49.1668 50.1679 39.0772 38.0612 49.7801C37.8403 49.9753 37.4572 49.9719 37.2329 49.7801C24.623 38.998 6.52833 50.2955 1.75633 51.2608C1.22352 51.3688 0.726562 50.9632 0.726562 50.4234L1.55425 9.15801C1.55425 8.79478 1.78308 8.47172 2.12862 8.35234C5.67218 7.12515 23.6558 1.05826 37.2773 8.33027Z" fill="white"/>
<path d="M1.1582 33.765L1.55497 9.15801C1.55497 8.79477 1.78381 8.47171 2.12934 8.35233C5.6729 7.12515 23.6565 1.05825 37.2781 8.33026" stroke="#017C0C" stroke-width="1.5" stroke-linecap="round" stroke-linejoin="round"/>
<path d="M51.3325 44.9016C46.721 44.9757 42.0651 46.2413 38.0622 49.7803C37.8413 49.9755 37.4707 49.9568 37.2339 49.7803C24.2989 40.1439 6.5293 50.2957 1.75731 51.261C1.22449 51.369 0.727539 50.9634 0.727539 50.4236L0.937591 41.2607" stroke="#017C0C" stroke-width="1.5" stroke-linecap="round" stroke-linejoin="round"/>
<path d="M74.1697 23.981L74.0485 49.293C74.0485 49.8339 73.5515 50.2384 73.0187 50.1309C70.6433 49.6511 64.973 46.911 58.3828 45.5984" stroke="#017C0C" stroke-width="1.5" stroke-linecap="round" stroke-linejoin="round"/>
<path d="M37.2773 8.33027C37.5324 8.46663 37.8375 8.46606 38.0919 8.33027C51.7123 1.05487 70.1024 7.11723 73.6454 8.34329C73.9909 8.46323 74.2198 8.7863 74.2198 9.14953L74.1907 17.3449" stroke="#017C0C" stroke-width="1.5" stroke-linecap="round" stroke-linejoin="round"/>
<path d="M36.6691 7.06079C36.8911 7.17904 37.1558 7.17904 37.3778 7.06079C49.2215 0.734202 65.9028 6.0056 68.9841 7.07211C69.2847 7.17621 69.4839 7.4574 69.4833 7.77311L69.489 46.6436C69.489 47.1137 69.057 47.4656 68.5936 47.3723C64.4438 46.5338 47.9168 40.6977 37.3892 50.0049C37.1973 50.1746 36.8638 50.1718 36.6691 50.0049C25.7042 40.6293 9.04524 47.5154 4.89543 48.355C4.43206 48.449 4 48.0965 4 47.6269L4.56526 7.78047C4.56526 7.46476 4.7645 7.18356 5.06449 7.08003C8.14583 6.01296 24.8253 0.737031 36.6702 7.06079V50.0054" fill="white"/>
<path d="M36.6691 7.06079C36.8911 7.17904 37.1558 7.17904 37.3778 7.06079C49.2215 0.734202 65.9028 6.0056 68.9841 7.07211C69.2847 7.17621 69.4839 7.4574 69.4833 7.77311L69.489 46.6435C69.489 47.1137 69.057 47.4656 68.5936 47.3723C64.4438 46.5338 47.9168 40.6977 37.3892 50.0049C37.1973 50.1746 36.8638 50.1718 36.6691 50.0049C25.7042 40.6293 9.04524 47.5154 4.89543 48.355C4.43206 48.449 4 48.0965 4 47.6269L4.56526 7.78047C4.56526 7.46476 4.7645 7.18356 5.06449 7.08003C8.14583 6.01296 24.8253 0.737031 36.6702 7.06079V50.0054" stroke="#017C0C" stroke-width="1.5" stroke-linecap="round" stroke-linejoin="round"/>
<path d="M10.249 10.1865C10.249 10.1865 15.3045 7.02098 21.5554 7.65466C26.3132 8.13671 31.2389 10.0055 31.2389 10.0055" stroke="#017C0C" stroke-width="1.5" stroke-linecap="round" stroke-linejoin="round"/>
<path d="M10.249 16.898C10.249 16.898 15.3045 13.7324 21.5554 14.3661C26.3132 14.8481 31.2389 16.7169 31.2389 16.7169" stroke="#017C0C" stroke-width="1.5" stroke-linecap="round" stroke-linejoin="round"/>
<path d="M10.249 23.6089C10.249 23.6089 15.3045 20.4433 21.5554 21.077C26.3132 21.5591 31.2389 23.4279 31.2389 23.4279" stroke="#017C0C" stroke-width="1.5" stroke-linecap="round" stroke-linejoin="round"/>
<path d="M10.249 30.3194C10.249 30.3194 15.3045 27.1538 21.5554 27.7875C26.3132 28.2695 31.2389 30.1383 31.2389 30.1383" stroke="#017C0C" stroke-width="1.5" stroke-linecap="round" stroke-linejoin="round"/>
<path d="M10.249 37.0303C10.249 37.0303 15.3045 33.8647 21.5554 34.4984C26.3132 34.9805 31.2389 36.8492 31.2389 36.8492" stroke="#017C0C" stroke-width="1.5" stroke-linecap="round" stroke-linejoin="round"/>
<path d="M65.1205 10.1865C65.1205 10.1865 59.8054 7.02098 53.2323 7.65466C48.2298 8.13671 43.0508 10.0055 43.0508 10.0055" stroke="#017C0C" stroke-width="1.5" stroke-linecap="round" stroke-linejoin="round"/>
<path d="M65.1205 16.898C65.1205 16.898 59.8054 13.7324 53.2323 14.3661C48.2298 14.8481 43.0508 16.7169 43.0508 16.7169" stroke="#017C0C" stroke-width="1.5" stroke-linecap="round" stroke-linejoin="round"/>
<path d="M65.1205 23.6089C65.1205 23.6089 59.8054 20.4433 53.2323 21.077C48.2298 21.5591 43.0508 23.4279 43.0508 23.4279" stroke="#017C0C" stroke-width="1.5" stroke-linecap="round" stroke-linejoin="round"/>
<path d="M65.1205 30.3194C65.1205 30.3194 59.8054 27.1538 53.2323 27.7875C48.2298 28.2695 43.0508 30.1383 43.0508 30.1383" stroke="#017C0C" stroke-width="1.5" stroke-linecap="round" stroke-linejoin="round"/>
<path d="M65.1205 37.0303C65.1205 37.0303 59.8054 33.8647 53.2323 34.4984C48.2298 34.9805 43.0508 36.8492 43.0508 36.8492" stroke="#017C0C" stroke-width="1.5" stroke-linecap="round" stroke-linejoin="round"/>
<path d="M1.50435 37.1563C1.83395 37.4714 1.7571 38.0061 1.35123 38.2166C1.10588 38.3439 0.797349 38.2997 0.597543 38.1091C0.267949 37.7939 0.344798 37.2593 0.750671 37.0488C0.996016 36.9215 1.30455 36.9656 1.50435 37.1563Z" fill="#017C0C"/>
<path d="M55.5072 44.7732C55.7252 45.0629 55.666 45.4737 55.3745 45.6904C55.0831 45.9071 54.6698 45.8482 54.4518 45.5585C54.2338 45.2689 54.293 44.8581 54.5844 44.6414C54.8759 44.4247 55.2891 44.4836 55.5072 44.7732Z" fill="#017C0C"/>
<path d="M74.7944 20.2188C75.124 20.5339 75.0471 21.0686 74.6413 21.2791C74.3959 21.4064 74.0874 21.3622 73.8876 21.1716C73.558 20.8564 73.6348 20.3218 74.0407 20.1113C74.2861 19.984 74.5946 20.0281 74.7944 20.2188Z" fill="#017C0C"/>
</g>
<defs>
<clipPath id="clip0_913_15772">
<rect width="75" height="52" fill="white"/>
</clipPath>
</defs>
</svg>
