<svg width="43" height="32" viewBox="0 0 43 32" fill="none" xmlns="http://www.w3.org/2000/svg">
<path d="M40.0202 31H24.7881C23.224 31 22.0322 29.8827 22.0322 28.2813C22.0322 27.0896 22.6281 25.5999 23.5964 24.2592C25.6075 21.466 28.1399 19.4922 32.0504 16.997C35.5511 14.7624 37.6367 13.2355 37.6367 9.47406C37.6367 6.19676 35.7001 4.1112 32.4228 4.1112C29.071 4.1112 27.2461 6.30848 26.9854 9.51131C26.9482 10.0699 26.8737 10.6286 26.5013 11.0382C26.0544 11.5224 25.4213 11.6713 24.8254 11.6713C23.4474 11.6713 22.5909 10.852 22.5909 9.51131C22.5909 8.02162 23.0378 6.49469 23.7454 5.19122C25.533 1.80219 28.7731 0.3125 32.4973 0.3125C35.7373 0.3125 38.6795 1.46701 40.5788 4.18568C41.7333 5.78709 42.1057 7.90989 42.1057 9.88373C42.1057 15.0604 39.2753 17.2204 33.9497 20.5722C32.0131 21.8012 29.3317 23.8495 28.4006 25.153C27.7675 26.0468 27.7675 26.3075 27.7675 26.6054C27.7675 27.0896 28.2889 27.2013 28.6613 27.2013H40.0202C41.2119 27.2013 42.0685 27.8344 42.0685 29.1007C42.0685 30.3669 41.2119 31 40.0202 31Z" fill="#C1E1C4"/>
<path d="M10.2314 0.3125C12.9501 0.3125 15.7805 1.46701 17.4191 3.70153C19.8771 7.09057 20.3613 12.0065 20.3613 16.0659C20.3613 20.0881 19.8771 25.0785 17.4191 28.4303C15.7805 30.6276 12.9501 31.7821 10.2314 31.7821C7.4755 31.7821 4.68234 30.6276 3.04369 28.4303C0.548468 25.1158 0.101562 20.0508 0.101562 16.0659C0.101562 11.9693 0.548468 7.12781 3.04369 3.70153C4.6451 1.46701 7.51275 0.3125 10.2314 0.3125ZM10.2314 4.1112C4.60786 4.1112 4.57062 12.1183 4.57062 16.0659C4.57062 20.0136 4.6451 28.0206 10.2314 28.0206C15.8177 28.0206 15.8922 20.0136 15.8922 16.0659C15.8922 12.1183 15.8177 4.1112 10.2314 4.1112Z" fill="#C1E1C4"/>
</svg>
