<svg width="105" height="62" viewBox="0 0 105 62" fill="none" xmlns="http://www.w3.org/2000/svg">
<path d="M100.208 33.4961C102.538 30.9691 104.037 27.8948 104.341 24.5213C105.205 15.0629 96.4232 6.8265 84.7205 6.12635C79.774 5.83356 75.1006 6.9347 71.2843 9.01608C67.9507 4.04497 61.658 0.49964 54.1589 0.0477212C45.7645 -0.455118 38.1511 3.0584 34.1951 8.5769C31.0139 6.59737 27.1087 5.31799 22.8099 5.06339C11.1072 4.36323 0.922151 11.4666 0.0585776 20.9251C-0.316061 25.0306 1.12535 28.9005 3.83672 32.0257C2.49691 34.0689 1.63968 36.354 1.41744 38.8109C0.553862 48.2694 9.33564 56.5057 21.0383 57.1995C25.5149 57.4669 29.7693 56.5885 33.3633 54.8763C36.9255 58.4025 42.1959 60.7894 48.2536 61.1522C55.7908 61.6041 62.6867 58.8162 66.8839 54.2525C70.3445 56.9895 74.9672 58.7908 80.1677 59.1027C91.8704 59.8028 102.055 52.6994 102.919 43.241C103.243 39.7084 102.221 36.3476 100.201 33.4897L100.208 33.4961Z" fill="#F8FCFF"/>
</svg>
