<svg width="531" height="172" viewBox="0 0 531 172" fill="none" xmlns="http://www.w3.org/2000/svg">
<path d="M58.2384 126.282L39.8641 96.0605C25.424 104.97 12.1909 114.865 0.34375 125.566L25.5581 137.475L30.5652 171.502C46.5253 157.086 65.749 144.415 87.6998 133.804L58.2384 126.237V126.282Z" fill="#035AAB"/>
<path d="M490.903 95.8364L472.395 126.327L443.336 133.804C465.287 144.415 484.555 157.085 500.471 171.502L505.478 137.475L530.692 125.565C518.755 114.775 505.433 104.836 490.903 95.8812V95.8364Z" fill="#035AAB"/>
<path d="M470.966 116.522C422.862 76.361 346.012 52.3629 265.317 52.3629C184.622 52.3629 107.772 76.361 59.6679 116.522L34.1406 74.5701C90.2023 27.6931 174.474 0.82959 265.317 0.82959C356.16 0.82959 440.387 27.6931 496.493 74.5701L470.966 116.522Z" fill="#035AAB"/>
<path d="M455.911 70.9943L463.26 67.0354C463.918 66.6849 464.654 66.5414 465.327 66.9111C466.379 67.4888 466.808 68.9017 466.311 69.8063C466.126 70.1428 465.782 70.4196 465.464 70.6006L455.696 75.7229L452.669 81.2343C451.975 82.4965 451.048 82.5896 449.849 81.931C448.671 81.284 448.329 80.4115 448.987 79.2125L452.014 73.701L451.117 62.7212C451.078 62.3437 451.127 61.9052 451.312 61.5687C451.809 60.6641 453.231 60.2679 454.283 60.8456C454.956 61.2153 455.23 61.9133 455.287 62.6566L455.911 70.9943Z" fill="white"/>
<path d="M421.171 56.6838C422.287 54.265 423.952 52.205 426.386 51.0552C428.999 49.8032 431.673 50.1385 434.244 51.3254C437.055 52.6229 439.326 55.2044 439.373 58.4244C439.38 58.9826 439.313 59.586 439.071 60.109C438.558 61.2203 437.497 61.2857 436.473 60.8129C435.165 60.2094 435.207 59.4887 435.295 58.8416C435.373 58.2701 435.397 57.6465 435.197 57.1051C434.785 55.9367 433.642 55.0919 432.552 54.5889C428.979 52.9394 426.5 55.39 425.071 58.4842C423.663 61.5349 423.427 64.9678 426.935 66.5872C427.937 67.0499 429.367 67.4455 430.428 67.0366C431.107 66.7684 431.566 66.346 432.032 65.7945C432.633 65.0671 433.152 64.5139 434.59 65.1778C435.593 65.6405 436.178 66.492 435.675 67.5815C435.142 68.7364 433.906 69.7522 432.785 70.2919C430.436 71.4283 427.761 71.0393 425.451 69.9731C419.873 67.3982 418.707 62.0225 421.171 56.6838Z" fill="white"/>
<path d="M400.406 58.1086L399.45 43.6776L395.014 55.8034C394.519 57.1557 393.616 57.3876 392.331 56.9175C391.069 56.4557 390.599 55.6448 391.069 54.3601L396.76 38.8085C396.966 38.245 397.4 37.6882 398.025 37.5849C398.788 37.4552 399.821 37.7053 400.542 37.9692C401.85 38.4476 402.568 39.0682 402.655 40.5058L403.575 54.6169C403.581 54.6702 403.599 54.8302 403.611 54.9368L408.056 42.7885C408.551 41.4362 409.445 41.2268 410.73 41.6969C411.992 42.1587 412.448 42.9388 411.978 44.2235L406.279 59.7976C406.139 60.1808 405.828 60.6805 405.442 60.8971C404.732 61.3016 403.353 60.9503 402.519 60.6452C401.166 60.1503 400.499 59.5995 400.406 58.1086Z" fill="white"/>
<path d="M372.443 38.2093L379.485 40.2056C380.64 40.5328 381.096 41.211 380.756 42.4117C380.429 43.5662 379.628 43.8382 378.543 43.5306L371.5 41.5343L370.446 45.2518C370.309 45.7367 370.508 46.0923 370.992 46.2298L378.543 48.3701C379.697 48.6973 380.164 49.4282 379.823 50.6289C379.49 51.8065 378.709 52.1839 377.555 51.8567L368.48 49.2844C366.148 48.6234 365.47 47.4083 366.131 45.0762L369.606 32.8153C370.274 30.46 371.482 29.8048 373.815 30.4659L382.381 32.8941C383.536 33.2214 384.002 33.9523 383.668 35.1299C383.328 36.3306 382.547 36.708 381.393 36.3808L374.35 34.3845C373.865 34.247 373.51 34.4456 373.372 34.9305L372.443 38.2093Z" fill="white"/>
<path d="M349.677 43.007C347.852 44.3702 346.028 44.778 343.795 44.3171C340.951 43.7301 338.95 42.2634 337.724 40.2461C336.41 38.0634 336.056 35.2701 336.662 32.332C337.225 29.6055 338.472 27.3632 340.246 25.8914C342.261 24.1999 344.977 23.5106 348.197 24.1752C351.041 24.7621 353.812 26.5348 354.924 29.3375C355.23 30.1113 355.408 31.0303 355.238 31.8529C354.991 33.0516 354.019 33.4881 352.867 33.2504C351.457 32.9594 351.334 32.2479 351.258 31.5461C351.008 29.3135 349.429 28.1789 347.361 27.752C345.316 27.3299 343.848 27.9093 342.782 29.0371C341.783 30.0806 341.19 31.649 340.845 33.3179C340.423 35.3628 340.42 37.3961 341.76 39.0941C342.456 39.9974 343.414 40.4645 344.518 40.6925C347.55 41.3183 349.424 38.887 349.594 38.0643C349.667 37.7117 349.442 37.4938 349.137 37.4308L347.821 37.1591C346.669 36.9214 346.136 36.2968 346.379 35.1216C346.616 33.9699 347.409 33.6923 348.49 33.9155L351.405 34.517C353.779 35.007 354.548 36.1461 354.053 38.5435L352.816 44.5372C352.603 45.5714 351.763 45.9616 350.799 45.7627C349.812 45.559 349.294 44.8639 349.502 43.8532L349.677 43.007Z" fill="white"/>
<path d="M311.966 34.7559L310.382 37.7663C309.996 38.49 309.516 39.0075 308.707 38.9006C307.684 38.7654 306.219 37.9424 306.379 36.729C306.417 36.4435 306.536 36.096 306.665 35.8468L314.139 21.6073C315.048 19.8633 316.214 19.0975 318.213 19.3616C320.188 19.6226 321.115 20.6651 321.539 22.5852L325.057 38.2774C325.115 38.5755 325.142 38.918 325.101 39.2274C324.947 40.3932 323.316 40.8313 322.317 40.6992C321.484 40.5891 321.137 39.9139 320.97 39.1655L320.222 35.847L311.966 34.7559ZM313.74 31.4074L319.403 32.1558L317.957 25.6947C317.896 25.4204 317.78 25.0177 317.471 24.9768C317.138 24.9328 316.921 25.2914 316.791 25.5406L313.74 31.4074Z" fill="white"/>
<path d="M270.371 18.0412L270.009 31.7644C269.996 32.2682 270.276 32.5637 270.78 32.577L277.714 32.7599C278.937 32.7922 279.57 33.385 279.537 34.6326C279.505 35.8562 278.842 36.4149 277.618 36.3826L269.101 36.158C266.678 36.0941 265.72 35.0845 265.784 32.6613L266.173 17.9304C266.21 16.5149 266.992 16.0074 268.359 16.0434C269.727 16.0795 270.407 16.6737 270.371 18.0412Z" fill="white"/>
<path d="M240.63 32.857L239.574 36.0906C239.315 36.8688 238.929 37.4596 238.114 37.4901C237.082 37.5286 235.5 36.9632 235.454 35.7401C235.444 35.4523 235.502 35.0898 235.588 34.8224L240.565 19.5301C241.168 17.6583 242.189 16.7076 244.204 16.6324C246.194 16.5581 247.284 17.43 248.024 19.2517L254.127 34.1303C254.234 34.4146 254.318 34.7476 254.33 35.0594C254.374 36.2346 252.839 36.9404 251.832 36.978C250.993 37.0093 250.538 36.4018 250.247 35.6922L248.953 32.5463L240.63 32.857ZM241.817 29.2582L247.525 29.0451L245.015 22.9185C244.909 22.6582 244.727 22.2808 244.415 22.2924C244.079 22.305 243.926 22.695 243.84 22.9624L241.817 29.2582Z" fill="white"/>
<path d="M222.572 19.9941L224.097 36.6283C224.229 38.0623 223.512 38.6582 222.15 38.7831C220.835 38.9036 220.063 38.3718 219.939 37.0095L218.414 20.3753C218.282 18.9413 219.001 18.3693 220.363 18.2444C221.702 18.1217 222.447 18.6318 222.572 19.9941Z" fill="white"/>
<path d="M189.08 33.0975C188.686 30.4627 188.948 27.8272 190.352 25.5305C191.85 23.05 194.269 21.8636 197.07 21.4452C200.132 20.9879 203.447 21.9002 205.253 24.5667C205.565 25.0297 205.84 25.571 205.925 26.1407C206.106 27.3512 205.255 27.988 204.139 28.1546C202.715 28.3673 202.354 27.7417 202.072 27.1529C201.825 26.6318 201.502 26.0976 201.038 25.7543C200.053 25.0037 198.633 24.9245 197.447 25.1018C193.554 25.6832 192.825 29.0922 193.329 32.4628C193.825 35.786 195.511 38.7859 199.332 38.2151C200.424 38.052 201.837 37.5983 202.5 36.6743C202.92 36.0776 203.072 35.4725 203.159 34.7558C203.262 33.8183 203.393 33.0708 204.96 32.8368C206.052 32.6737 207.008 33.0647 207.185 34.2515C207.373 35.5096 206.897 37.0366 206.256 38.1031C204.916 40.3416 202.466 41.484 199.95 41.8599C193.873 42.7675 189.949 38.913 189.08 33.0975Z" fill="white"/>
<path d="M172.477 45.5331L163.864 33.9148L166.695 46.5126C167.011 47.9176 166.377 48.6011 165.042 48.9011C163.731 49.1957 162.897 48.7682 162.597 47.4335L158.966 31.2764C158.835 30.691 158.898 29.988 159.368 29.5626C159.94 29.0406 160.944 28.692 161.693 28.5236C163.051 28.2184 163.991 28.3515 164.843 29.5131L173.252 40.882C173.286 40.9236 173.388 41.0483 173.456 41.1314L170.619 28.5102C170.304 27.1052 170.942 26.4451 172.277 26.1452C173.588 25.8505 174.394 26.2599 174.694 27.5946L178.33 43.7751C178.419 44.1732 178.428 44.7614 178.221 45.1524C177.843 45.877 176.493 46.328 175.626 46.5226C174.221 46.8384 173.362 46.7363 172.477 45.5331Z" fill="white"/>
<path d="M137.86 52.1156L137.665 55.5118C137.614 56.3304 137.391 57.0003 136.611 57.2381C135.624 57.5389 133.949 57.3966 133.593 56.2258C133.509 55.9503 133.473 55.5849 133.488 55.3044L134.391 39.248C134.496 37.2844 135.24 36.1042 137.168 35.5166C139.074 34.9361 140.35 35.5007 141.531 37.0727L151.234 49.8975C151.41 50.1451 151.577 50.4455 151.668 50.744C152.011 51.8689 150.707 52.9434 149.743 53.2372C148.939 53.482 148.344 53.011 147.882 52.3992L145.827 49.6885L137.86 52.1156ZM138.088 48.3331L143.552 46.6684L139.559 41.3868C139.39 41.1622 139.118 40.8438 138.819 40.9348C138.498 41.0327 138.449 41.449 138.434 41.7295L138.088 48.3331Z" fill="white"/>
<path d="M117.323 62.7652L107.041 52.5946L111.758 64.6141C112.284 65.9546 111.762 66.7267 110.488 67.2264C109.237 67.7175 108.348 67.422 107.848 66.1485L101.798 50.7332C101.579 50.1747 101.534 49.4702 101.934 48.9781C102.42 48.3752 103.359 47.8777 104.074 47.5971C105.369 47.0885 106.319 47.0769 107.337 48.0952L117.38 58.0503C117.42 58.0862 117.54 58.1939 117.62 58.2658L112.894 46.2239C112.368 44.8835 112.898 44.1337 114.172 43.634C115.423 43.1429 116.281 43.4249 116.781 44.6983L122.84 60.136C122.989 60.5158 123.088 61.0958 122.942 61.5138C122.679 62.2875 121.413 62.9389 120.587 63.2633C119.246 63.7894 118.381 63.8194 117.323 62.7652Z" fill="white"/>
<path d="M88.9272 56.433L96.0378 71.548C96.6508 72.851 96.1806 73.6557 94.9427 74.2381C93.7483 74.8 92.8414 74.5635 92.259 73.3257L85.1485 58.2107C84.5355 56.9076 85.0159 56.1247 86.2538 55.5423C87.4699 54.9702 88.3449 55.1951 88.9272 56.433Z" fill="white"/>
<path d="M68.2956 75.0905L74.4146 71.724C75.4871 71.1339 76.2673 71.3073 76.8688 72.4008C77.4473 73.4521 77.0899 74.1966 76.0806 74.7519L69.9616 78.1185L73.0505 83.7329C73.7331 84.9735 73.3473 85.8158 72.1697 86.4636C70.9922 87.1115 70.0532 86.9981 69.3707 85.7574L62.2789 72.8675C61.0988 70.7227 61.4982 69.4073 63.622 68.2388L71.4863 63.912C72.5587 63.322 73.3831 63.5259 73.9731 64.5983C74.5747 65.6917 74.3056 66.4972 73.2332 67.0872L66.7567 70.6504C66.3151 70.8934 66.2016 71.2846 66.4446 71.7261L68.2956 75.0905Z" fill="white"/>
</svg>
