<svg width="389" height="102" viewBox="0 0 389 102" fill="none" xmlns="http://www.w3.org/2000/svg">
<path d="M388.112 69.9282L386.432 82.7922C386.24 84.4722 385.856 85.6722 383.888 85.6722C381.968 85.6722 381.632 84.3762 381.44 82.7922L379.76 69.9282V60.7122C379.76 57.8322 381.296 56.8242 384.032 56.8242C386.672 56.8242 388.112 57.9762 388.112 60.7122V69.9282ZM383.936 88.7922C386.48 88.7922 388.544 90.8562 388.544 93.4002C388.544 95.9922 386.48 98.0562 383.936 98.0562C381.392 98.0562 379.328 95.9922 379.328 93.4002C379.328 90.8562 381.392 88.7922 383.936 88.7922Z" fill="#494949"/>
<path d="M352.214 78.9998C352.214 81.3038 352.118 85.1438 351.062 87.1598C350.486 88.3118 349.142 88.9358 347.894 88.9358C345.926 88.9358 344.102 87.3998 344.102 85.3838C344.102 84.8078 344.15 84.2798 344.246 83.7038C344.486 82.0238 344.582 80.2958 344.582 78.6158C344.582 75.8798 344.246 71.1278 342.23 69.1118C340.934 67.7678 339.158 67.1918 337.286 67.1918C335.27 67.1918 333.926 67.8158 332.15 68.6318C331.718 68.8238 331.286 68.9198 330.806 68.9198C328.79 68.9198 327.11 67.0958 327.11 65.1278C327.11 60.9518 334.214 59.6558 337.382 59.6558C341.03 59.6558 344.87 60.8558 347.462 63.4478C351.398 67.4318 352.214 73.6718 352.214 78.9998ZM317.078 59.8958C319.046 59.8958 320.822 61.4798 320.822 63.4958C320.822 64.2158 320.726 64.8878 320.63 65.5598C319.91 69.3518 319.67 73.2398 319.67 77.0798C319.67 82.5518 320.198 92.0078 327.686 92.0078C330.182 92.0078 332.102 90.7118 333.926 89.1758C334.646 88.5518 335.462 88.1198 336.422 88.1198C338.438 88.1198 340.166 89.7518 340.166 91.8158C340.166 94.2638 337.67 96.1358 335.75 97.2398C333.302 98.6798 330.47 99.4958 327.638 99.4958C319.046 99.4958 314.246 93.1598 312.71 85.2878C312.182 82.5998 312.086 79.8638 312.086 77.0798C312.086 72.8078 312.23 67.5278 313.334 63.3518C313.814 61.4318 314.87 59.8958 317.078 59.8958Z" fill="#494949"/>
<path d="M280.4 71.224L263.168 72.328C261.104 72.472 259.328 70.792 259.328 68.728C259.328 66.856 260.816 65.224 262.688 65.128L278.048 64.12L277.376 62.008C276.56 59.608 278.528 57.064 281.024 57.064C282.704 57.064 284.144 58.216 284.672 59.8L285.92 63.64L297.44 62.92H297.68C299.648 62.92 301.232 64.552 301.232 66.52C301.232 68.392 299.792 69.976 297.92 70.12L288.224 70.744L291.296 80.104C291.44 80.584 291.488 80.872 291.488 81.304C291.488 83.368 289.712 85.048 287.648 85.048C286.064 85.048 284.576 83.992 284.048 82.456L280.4 71.224ZM281.84 99.496C272.384 99.496 261.728 96.136 261.728 84.808C261.728 81.88 263.072 76.936 266.768 76.936C268.736 76.936 270.368 78.616 270.368 80.584C270.368 81.352 270.128 81.976 269.792 82.696C269.456 83.464 269.264 84.328 269.264 85.192C269.264 87.496 270.656 89.656 272.624 90.808C275.408 92.392 278.672 92.728 281.792 92.728C285.68 92.728 289.424 91.96 292.928 90.328C293.744 89.944 294.56 89.56 295.472 89.56C297.392 89.56 298.976 91.144 298.976 93.016C298.976 98.344 285.68 99.496 281.84 99.496Z" fill="#494949"/>
<path d="M237.828 62.2958V58.3118C237.828 56.8238 239.076 55.5278 240.564 55.5278C242.052 55.5278 243.3 56.8238 243.3 58.3118V62.2478C243.3 63.7358 242.052 65.0318 240.564 65.0318C238.836 65.0318 237.828 63.8318 237.828 62.2958ZM245.46 62.2958V58.3118C245.46 56.7758 246.708 55.5758 248.196 55.5758C249.684 55.5758 250.932 56.8238 250.932 58.3118V62.2478C250.932 63.7838 249.684 65.0318 248.196 65.0318C246.468 65.0318 245.46 63.8318 245.46 62.2958ZM224.1 62.2478H235.764C235.812 64.8878 237.924 67.0478 240.564 67.0478C242.052 67.0478 243.444 66.3278 244.356 65.1758C244.404 65.3198 244.404 65.5118 244.404 65.7038C244.404 67.5278 242.916 69.1118 241.092 69.1118H222.372L215.94 96.4718C215.604 98.0078 213.972 99.1118 212.388 99.1118C210.276 99.1118 208.308 97.0958 208.788 94.8878L214.836 69.2078H209.892C208.164 69.2078 206.484 68.1518 206.484 65.7038C206.484 63.8798 208.02 62.2478 209.892 62.2478H216.468L216.996 59.9438C217.428 58.2158 218.868 56.8718 220.692 56.8718C222.996 56.8718 224.82 59.0318 224.292 61.3358L224.1 62.2478ZM244.596 79.8158H229.188C227.364 79.8158 225.828 78.2798 225.828 76.4078C225.828 74.5838 227.364 72.9998 229.188 72.9998H244.548C246.42 72.9998 247.956 74.5358 247.956 76.4078C247.956 77.3678 247.572 78.2798 246.9 78.9518C246.276 79.5278 245.412 79.8158 244.596 79.8158ZM236.484 99.4958C233.556 99.4958 230.676 99.0158 228.132 97.5758C225.252 95.8958 223.38 92.9678 223.38 89.6078C223.38 86.8238 224.964 82.8398 228.276 82.8398C230.052 82.8398 231.684 84.2318 231.684 86.0558C231.684 86.8718 231.348 87.5438 230.964 88.2158C230.724 88.5998 230.58 89.0798 230.58 89.5118C230.58 90.5198 231.348 91.2878 232.116 91.7678C233.364 92.4878 234.9 92.6318 236.292 92.6318C238.596 92.6318 240.948 92.2478 243.108 91.4798C243.876 91.1918 244.74 90.9038 245.556 90.9038C247.332 90.9038 248.724 92.5838 248.724 94.2638C248.724 99.0158 239.796 99.4958 236.484 99.4958Z" fill="#494949"/>
<path d="M169.239 76.6959C176.967 80.0559 183.495 84.1839 189.399 90.1839C191.271 92.0559 193.623 94.4079 193.623 96.6159C193.623 98.7279 191.991 100.312 189.927 100.312C188.055 100.312 186.903 99.0159 185.511 97.3359C180.087 90.7119 170.535 84.2799 162.615 81.0639C160.311 80.1999 158.055 79.3839 158.055 76.8399C158.055 75.3039 158.919 73.9599 160.311 73.2879L187.479 59.4159C188.055 59.1279 188.631 58.9839 189.207 58.9839C191.223 58.9839 192.999 60.6159 192.999 62.7759C192.999 64.4559 191.943 65.7039 190.503 66.3759L169.239 76.6959Z" fill="#494949"/>
<path d="M109.473 66.8558C109.569 64.8398 109.569 61.5758 110.481 59.8478C111.105 58.7438 112.353 58.0718 113.601 58.0718C115.713 58.0718 117.345 59.7998 117.345 61.8638C117.345 63.4958 117.105 65.1758 117.009 66.8558H131.985V61.9118C131.985 59.8958 133.665 58.1678 135.729 58.1678C137.793 58.1678 139.521 59.8958 139.521 61.9118V66.8558H142.737C144.705 66.8558 146.385 68.3918 146.385 70.4078C146.385 72.3758 144.705 73.9598 142.737 73.9598H139.521V79.7678C139.521 81.1598 138.465 83.3198 135.729 83.3198C133.761 83.3198 131.985 82.1198 131.985 79.7678V73.9598H116.769C116.721 75.6878 116.673 77.3678 116.673 79.0478C116.673 87.5918 119.457 92.4398 128.625 92.4398C132.561 92.4398 135.393 91.7678 138.945 90.1358C139.569 89.8478 140.289 89.6558 141.009 89.6558C142.977 89.6558 144.561 91.3838 144.561 93.3038C144.561 98.5838 132.609 99.5438 128.865 99.5438C122.097 99.5438 115.377 97.6718 111.777 91.4798C109.569 87.6398 109.185 83.2238 109.185 78.9038C109.185 77.2238 109.185 75.5918 109.281 73.9598H106.209C104.289 73.9598 102.609 72.3758 102.609 70.4078C102.609 68.4398 104.289 66.8558 106.209 66.8558H109.473Z" fill="#494949"/>
<path d="M61.6228 67.0479V98.1039C61.6228 100.456 60.6148 101.656 58.2148 101.656C55.9108 101.656 55.0468 100.216 55.0468 98.1039V81.0159C54.5188 81.5919 54.0388 82.0239 53.2708 82.0239C51.3508 82.0239 49.3828 79.6719 49.3828 77.5599C49.3828 76.6959 49.6708 75.9279 50.7268 74.1039C52.1188 71.7519 53.2708 69.3039 54.3268 66.8079C55.6708 63.5919 56.1508 61.9119 57.1108 58.5999C57.5908 56.9199 58.2628 55.8159 60.1828 55.8159C62.1508 55.8159 63.7828 56.8719 63.7828 58.9839C63.7828 60.9519 62.3428 65.0799 61.6228 67.0479ZM82.9348 64.5519V74.6319H92.2948C94.7428 74.6319 95.6548 75.9759 95.6548 78.2799C95.6548 80.5359 94.4548 81.6399 92.2948 81.6399H82.9348V93.2559H91.0948C93.5428 93.2559 94.4548 94.5519 94.4548 96.9039C94.4548 99.1119 93.2548 100.216 91.0948 100.216H66.6628C64.2148 100.216 63.3508 98.9199 63.3508 96.5679C63.3508 94.3599 64.5028 93.2559 66.6628 93.2559H75.3988V81.6399H65.7988C63.3508 81.6399 62.4388 80.3439 62.4388 77.9919C62.4388 75.7839 63.5908 74.6319 65.7988 74.6319H75.3988V65.2239C73.8628 65.3679 69.0628 65.6079 67.5268 65.6079C65.0308 65.6079 64.0708 63.9759 64.0708 61.6239C64.0708 59.3679 65.3668 58.7439 67.3828 58.6959C71.1748 58.5999 75.0628 58.3119 78.8548 58.0239C82.5988 57.7359 85.4788 57.3039 89.2228 56.6799C89.5588 56.6319 90.4228 56.5359 90.9028 56.5359C93.0148 56.5359 94.1668 57.9759 94.1668 60.0399C94.1668 61.4799 93.5908 62.6319 92.1988 63.1119C90.3268 63.7359 85.0468 64.3599 82.9348 64.5519Z" fill="#494949"/>
<path d="M21.9717 71.5121C26.3397 71.6561 30.9477 72.2801 34.7877 74.4881C38.9157 76.8881 41.2197 80.9681 41.2197 85.7201C41.2197 90.5681 38.7717 95.0801 34.5477 97.5281C32.4837 98.7281 30.0357 99.5441 27.6837 99.5441C25.6677 99.5441 23.9877 98.0081 23.9877 95.9921C23.9877 93.3521 26.3877 92.6801 27.2997 92.4881C31.2837 91.7201 34.0197 90.0401 34.0197 85.8641C34.0197 79.6721 26.8197 78.28 21.9237 78.232V90.4721C21.9237 96.6161 19.2837 99.3521 13.0917 99.3521C5.65169 99.3521 0.179688 94.0241 0.179688 86.5841C0.179688 77.7041 6.80369 73.2881 14.8197 71.9441V68.2481H4.16369C2.29169 68.2481 0.707688 66.712 0.707688 64.84C0.707688 62.92 2.29169 61.4321 4.16369 61.4321H14.5317V61.1441C14.5317 59.0801 16.2117 57.3521 18.2757 57.3521C20.3397 57.3521 21.9717 59.1761 21.9717 61.2401V61.4321H28.3077C30.1797 61.4321 31.8117 62.92 31.8117 64.84C31.8117 66.712 30.1797 68.2481 28.3077 68.2481H21.9717V71.5121ZM37.6197 71.2241L33.6837 63.064C32.5797 60.712 34.2117 57.8801 36.8517 57.8801C38.2917 57.8801 39.4437 58.744 40.0677 59.9921L43.9077 68.008C44.1957 68.5841 44.3397 69.2561 44.3397 69.7361C44.3397 71.6081 42.9477 73.2881 40.8357 73.2881C39.3477 73.2881 38.1957 72.4241 37.6197 71.2241ZM14.8197 78.7601C10.5957 79.6241 7.23569 81.928 7.23569 86.632C7.23569 89.464 9.05969 92.4881 12.1797 92.4881C14.0037 92.4881 14.8197 91.1921 14.8197 89.5121V78.7601Z" fill="#494949"/>
<path d="M247.143 2.86816C248.503 2.86816 249.761 3.88816 249.761 5.28216C249.761 5.82616 249.693 6.37016 249.591 6.88017C249.013 10.2462 248.809 13.6462 248.809 17.0462C248.809 20.3102 249.013 24.1182 250.577 27.0762C251.053 27.8922 251.393 28.4702 251.393 29.1842C251.393 30.5782 250.169 31.7002 248.809 31.7002C247.585 31.7002 246.633 30.7482 246.089 29.7622C243.947 25.8522 243.641 21.1262 243.641 16.7742C243.641 13.1702 243.845 9.56616 244.491 5.99616C244.763 4.50016 245.307 2.86816 247.143 2.86816ZM256.255 4.77216H269.209C270.603 4.77216 271.793 5.92817 271.793 7.32216C271.793 8.71616 270.603 9.87216 269.209 9.87216H256.255C254.861 9.87216 253.671 8.75017 253.671 7.32216C253.671 6.60816 253.977 5.96216 254.487 5.45216C254.929 4.97616 255.643 4.77216 256.255 4.77216ZM263.565 30.8162C260.607 30.8162 257.751 29.8302 255.609 27.7562C253.909 26.0902 253.229 23.5742 253.229 21.2282C253.229 19.0182 254.045 16.7062 255.507 15.0742C256.119 14.3942 256.901 13.8502 257.853 13.8502C259.213 13.8502 260.369 15.0062 260.369 16.3662C260.369 17.0802 260.029 17.5902 259.519 18.3382C258.873 19.2902 258.499 20.3442 258.499 21.5002C258.499 24.5602 260.879 25.6822 263.599 25.6822C265.299 25.6822 266.897 25.3422 268.461 24.6962C268.801 24.5602 269.175 24.4922 269.515 24.4922C270.909 24.4922 271.997 25.6822 271.997 27.0422C271.997 28.0622 271.351 28.8782 270.467 29.3202C268.359 30.3742 265.945 30.8162 263.565 30.8162Z" fill="#494949"/>
<path d="M217.258 10.6878L215.83 14.8018C218.108 13.9518 220.488 13.6458 222.902 13.6458C228.648 13.6458 235.21 15.3118 235.21 22.2818C235.21 26.2938 232.796 29.1158 229.226 30.6118C226.914 31.5638 224.262 31.8358 221.78 31.8358C218.346 31.8358 214.742 31.2578 211.716 29.5578C210.73 28.9798 209.744 28.2318 209.744 26.9738C209.744 25.7838 210.696 24.4578 211.988 24.4578C212.804 24.4578 213.552 24.7978 214.708 25.5118C216.578 26.6678 219.502 26.9738 221.95 26.9738C224.772 26.9738 230.212 26.2258 230.212 22.4518C230.212 18.8138 225.554 18.3038 222.834 18.3038C220.352 18.3038 217.768 18.6778 215.49 19.6978C214.776 20.0038 214.096 20.4118 213.416 20.8198C212.94 21.1258 212.43 21.3298 211.852 21.3298C210.118 21.3298 208.962 19.4938 209.506 17.8958L211.988 10.6878H208.214C206.888 10.6878 205.766 9.63376 205.766 8.27376C205.766 6.94776 206.888 5.89376 208.214 5.89376H213.62L214.266 4.09176C214.64 2.93576 215.49 2.05176 216.748 2.05176C218.448 2.05176 219.638 3.81976 219.094 5.41776L218.924 5.89376H232.592C233.952 5.89376 235.108 6.91376 235.108 8.27376C235.108 9.63376 233.952 10.6878 232.592 10.6878H217.258Z" fill="#494949"/>
<path d="M181.387 5.38417H193.287C194.579 5.38417 195.667 6.50617 195.667 7.79817C195.667 9.09017 194.783 10.2122 193.287 10.2122H180.163L175.675 29.3542C175.335 30.7482 174.417 31.4962 173.159 31.4962C171.561 31.4962 170.507 30.4762 170.507 29.0142C170.507 28.8102 170.541 28.5042 170.677 27.8922L174.825 10.3142H171.289C169.963 10.3142 168.875 9.15817 168.875 7.83217C168.875 6.54017 169.963 5.38417 171.289 5.38417H175.981L176.355 3.75217C176.661 2.52817 177.681 1.57617 178.973 1.57617C180.605 1.57617 181.897 3.10617 181.523 4.73817L181.387 5.38417ZM195.905 17.7942H184.991C183.699 17.7942 182.611 16.7062 182.611 15.3802C182.611 14.0882 183.699 12.9662 184.991 12.9662H195.871C197.197 12.9662 198.285 14.0542 198.285 15.3802C198.285 16.0602 198.013 16.7062 197.537 17.1822C197.129 17.5902 196.483 17.7942 195.905 17.7942ZM190.159 31.7682C188.085 31.7682 186.045 31.4282 184.243 30.4082C182.203 29.2182 180.877 27.1442 180.877 24.7642C180.877 22.7922 181.999 19.9702 184.345 19.9702C185.603 19.9702 186.759 20.9562 186.759 22.2482C186.759 22.8262 186.521 23.3022 186.249 23.7782C186.079 24.0502 185.977 24.3902 185.977 24.6962C185.977 25.4102 186.521 25.9542 187.065 26.2942C187.949 26.8042 189.037 26.9062 190.023 26.9062C191.689 26.9062 193.321 26.6342 194.851 26.0902C195.395 25.8862 196.007 25.6822 196.585 25.6822C197.843 25.6822 198.829 26.8722 198.829 28.0622C198.829 31.4282 192.505 31.7682 190.159 31.7682Z" fill="#494949"/>
<path d="M150.681 26.3618C152.891 26.1238 155.067 25.8178 157.243 25.3418C156.665 22.5198 156.189 20.9558 155.407 18.2358C155.305 17.8958 155.135 17.2158 155.135 16.8758C155.135 15.4478 156.461 14.8018 157.719 14.8018C159.657 14.8018 159.997 15.9918 161.051 19.3918C161.527 20.8878 162.376 24.0158 162.954 26.7018C163.294 28.2998 163.533 29.7618 163.533 30.6458C163.533 32.4138 162.173 33.1278 160.541 33.1278C158.807 33.1278 158.161 32.4138 157.923 30.0338C156.325 30.3738 152.109 31.1558 148.913 31.5978C147.417 31.8018 146.125 31.9718 145.445 31.9718C143.677 31.9718 143.031 30.7478 143.031 29.1158C143.031 27.1778 144.051 26.9398 145.683 26.7698C146.737 23.6078 147.519 20.3778 148.199 17.1138C149.219 12.1838 149.899 8.54582 150.477 3.47982C150.681 1.67782 151.361 0.861816 153.23 0.861816C154.557 0.861816 156.053 1.40582 156.053 2.96982C156.053 4.56782 154.149 13.3058 153.673 15.3798C152.789 19.2898 151.871 22.5538 150.681 26.3618ZM142.146 6.40382V9.56582H145.173C146.873 9.56582 147.723 10.2798 147.723 12.0138C147.723 13.6798 146.737 14.2918 145.173 14.2918H142.146V14.3598C143.676 16.7398 144.561 17.7938 146.125 19.2558C146.567 19.6978 146.737 20.1058 146.737 20.7518C146.737 22.0438 145.853 23.6758 144.527 23.6758C143.949 23.6758 143.472 23.3698 143.064 22.9618C142.69 22.5878 142.384 22.1798 142.146 21.8058V31.0878C142.146 32.8558 141.195 33.2638 139.597 33.2638C138.067 33.2638 137.285 32.6178 137.285 31.0878V24.0158C136.809 24.8998 136.163 25.9878 135.517 26.7698C135.041 27.3478 134.531 27.7218 133.749 27.7218C132.321 27.7218 131.062 26.3278 131.062 24.9338C131.062 24.1178 131.334 23.6078 132.286 22.5538C134.258 20.3438 136.129 17.4878 137.285 14.2918H133.816C132.082 14.2918 131.301 13.6118 131.301 11.8438C131.301 10.1778 132.252 9.56582 133.816 9.56582H137.285V6.94782C136.196 7.04982 135.109 7.18582 133.987 7.18582C132.525 7.18582 131.743 6.23382 131.743 4.80582C131.743 2.76582 133.102 2.62982 135.176 2.49382C138.202 2.28982 140.719 2.05182 143.439 1.50782C144.119 1.37182 145.105 1.16782 145.581 1.16782C146.975 1.16782 147.655 2.42582 147.655 3.68382C147.655 4.90782 147.043 5.48582 145.513 5.85982C144.663 6.06382 143.54 6.23382 142.146 6.40382Z" fill="#494949"/>
</svg>
