<svg width="35" height="44" viewBox="0 0 35 44" fill="none" xmlns="http://www.w3.org/2000/svg">
<path d="M17.4434 0.0491943C7.81353 0.0491943 0.00480535 7.85703 0 17.4978C0 27.1385 17.429 43.4613 17.429 43.4613C17.429 43.4613 34.8724 27.1481 34.8724 17.5074C34.8772 7.87146 27.0734 0.0491943 17.4434 0.0491943Z" fill="#A6CBEC"/>
<path d="M11.7508 14.7384C11.463 14.7384 11.1812 14.6425 10.9534 14.4566C10.4588 14.0639 9.75727 13.6802 9.50845 13.6682H9.49046C8.79497 13.6592 8.23438 13.0926 8.23438 12.3941C8.23438 11.6956 8.80696 11.12 9.51145 11.12C9.75727 11.108 10.4618 10.7243 10.9564 10.3316C11.2832 10.0708 11.7208 9.98384 12.1225 10.1068C12.5243 10.2297 12.842 10.5384 12.9679 10.9371C12.9889 11.0031 13.1748 11.6117 13.1748 12.3941C13.1748 13.1765 12.9889 13.7851 12.9679 13.851C12.839 14.2527 12.5243 14.5645 12.1195 14.6844C11.9996 14.7204 11.8737 14.7384 11.7508 14.7384Z" fill="white"/>
<path d="M13.9262 28.4669C9.55541 28.4669 6 25.2709 6 21.3404V14.4688C6 12.622 7.50191 11.12 9.34856 11.12H9.94813C10.6526 11.12 11.2222 11.6896 11.2222 12.3942C11.2222 13.0987 10.6526 13.6684 9.94813 13.6684H9.34856C8.90788 13.6684 8.55114 14.0251 8.55114 14.4659V21.3374C8.55114 23.8618 10.9644 25.9125 13.9292 25.9125C16.8941 25.9125 19.3073 23.8588 19.3073 21.3374V14.4659C19.3073 14.0251 18.9506 13.6684 18.5099 13.6684H17.9103C17.2058 13.6684 16.6363 13.0987 16.6363 12.3942C16.6363 11.6896 17.2058 11.12 17.9103 11.12H18.5099C20.3566 11.12 21.8585 12.622 21.8585 14.4688V21.3404C21.8585 25.2709 18.303 28.4669 13.9322 28.4669H13.9262Z" fill="white"/>
<path d="M16.0958 14.7383C15.9729 14.7383 15.85 14.7204 15.7271 14.6844C15.3254 14.5645 15.0076 14.2527 14.8787 13.851C14.8577 13.785 14.6719 13.1765 14.6719 12.3941C14.6719 11.6116 14.8577 11.0031 14.8787 10.9371C15.0076 10.5384 15.3224 10.2236 15.7271 10.1037C16.1288 9.98381 16.5665 10.0677 16.8933 10.3286C17.3879 10.7243 18.0894 11.108 18.3382 11.117H18.3562C19.0517 11.126 19.6123 11.6926 19.6123 12.3911C19.6123 13.0895 19.0427 13.6651 18.3382 13.6651C18.0924 13.6771 17.3759 14.0668 16.8933 14.4536C16.6654 14.6394 16.3806 14.7353 16.0958 14.7353V14.7383Z" fill="white"/>
<path d="M23.1358 33.17H17.0382C14.8558 33.17 13.0781 31.3953 13.0781 29.2098V27.1893C13.0781 26.7187 13.4588 26.3379 13.9265 26.3379C14.3942 26.3379 14.7749 26.7187 14.7749 27.1893V29.2098C14.7749 30.4569 15.7882 31.4702 17.0352 31.4702H23.1328C24.3799 31.4702 25.3932 30.4569 25.3932 29.2098V22.6596C25.3932 22.189 25.7739 21.8082 26.2415 21.8082C26.7092 21.8082 27.0899 22.189 27.0899 22.6596V29.2098C27.0899 31.3923 25.3152 33.17 23.1298 33.17H23.1358Z" fill="white"/>
<path d="M26.2384 23.5106C24.3408 23.5106 22.7969 21.9667 22.7969 20.0691C22.7969 18.1714 24.3408 16.6276 26.2384 16.6276C28.136 16.6276 29.6799 18.1714 29.6799 20.0691C29.6799 21.9667 28.136 23.5106 26.2384 23.5106ZM26.2384 18.3273C25.2791 18.3273 24.4966 19.1098 24.4966 20.0691C24.4966 21.0284 25.2791 21.8108 26.2384 21.8108C27.1977 21.8108 27.9801 21.0284 27.9801 20.0691C27.9801 19.1098 27.1977 18.3273 26.2384 18.3273Z" fill="white"/>
</svg>
