<svg width="174" height="103" viewBox="0 0 174 103" fill="none" xmlns="http://www.w3.org/2000/svg">
<path d="M167.013 56.7772C170.897 52.5657 173.394 47.4418 173.902 41.8193C175.342 26.0552 160.705 12.3279 141.201 11.161C132.957 10.673 125.168 12.5083 118.807 15.9772C113.251 7.69206 102.763 1.78317 90.2648 1.02997C76.2741 0.19191 63.5851 6.04777 56.9919 15.2453C51.6898 11.946 45.1812 9.81375 38.0165 9.38941C18.512 8.22249 1.53692 20.0615 0.0976293 35.8256C-0.526768 42.668 1.87559 49.1179 6.39453 54.3267C4.16152 57.732 2.7328 61.5404 2.36239 65.6353C0.923103 81.3994 15.5594 95.1267 35.0639 96.283C42.5249 96.7285 49.6155 95.2646 55.6055 92.4109C61.5426 98.288 70.3265 102.266 80.4226 102.871C92.9847 103.624 104.478 98.9775 111.473 91.3713C117.241 95.9329 124.945 98.9351 133.613 99.4549C153.117 100.622 170.092 88.7828 171.532 73.0187C172.071 67.1311 170.368 61.5298 167.002 56.7666L167.013 56.7772Z" fill="#F8FCFF"/>
</svg>
