<svg width="35" height="44" viewBox="0 0 35 44" fill="none" xmlns="http://www.w3.org/2000/svg">
<path d="M16.1601 0.0978002C6.55416 0.804979 -0.658628 9.17086 0.0477591 18.7827C0.754146 28.3994 19.3364 43.3945 19.3364 43.3945C19.3364 43.3945 35.5305 25.8401 34.8241 16.2282C34.1177 6.61155 25.7611 -0.609379 16.1601 0.0978002Z" fill="#C1E1C4"/>
<path d="M20.8336 34.5163C17.4318 34.5163 14.6641 32.1648 14.6641 29.2756V25.8661C14.6641 25.5972 14.8965 25.1199 15.1652 25.1199C15.4339 25.1199 15.6381 25.5972 15.6381 25.8661V29.2756C15.6381 31.6284 17.9692 33.5415 20.8336 33.5415C23.6981 33.5415 26.0291 31.6271 26.0291 29.2756C26.0291 29.0067 26.2468 28.7889 26.5155 28.7889C26.7842 28.7889 27.0018 29.0067 27.0018 29.2756C27.0018 32.1662 24.2341 34.5163 20.8323 34.5163H20.8336Z" fill="white"/>
<path d="M16.9096 25.089H13.3828V28.8575H16.9096V25.089Z" fill="white"/>
<path d="M16.9104 29.3898H13.3836C13.0894 29.3898 12.8516 29.1505 12.8516 28.8574V25.0889C12.8516 24.7945 13.0907 24.5565 13.3836 24.5565H16.9104C17.2046 24.5565 17.4425 24.7958 17.4425 25.0889V28.8574C17.4425 29.1518 17.2033 29.3898 16.9104 29.3898ZM13.9156 28.3237H16.377V25.6213H13.9156V28.3237Z" fill="white"/>
<path d="M22.7538 8.66378C22.3776 8.26848 21.8684 8.05066 21.3229 8.05066H8.97837C8.43289 8.05066 7.92504 8.26848 7.5475 8.66378C7.17131 9.05908 6.97784 9.57674 7.00202 10.1213L7.68186 24.8106C7.73022 25.8688 8.59815 26.6984 9.65686 26.6984H20.6417C21.7004 26.6984 22.5683 25.8688 22.6167 24.8106L23.2965 10.1213C23.3221 9.5754 23.1286 9.05774 22.7511 8.66378H22.7538ZM20.3448 24.5081H10.0734L9.63537 14.8824C9.63537 14.8824 12.5939 13.4612 15.1506 14.8824C17.4441 16.157 20.7102 14.8824 20.7102 14.8824L20.3434 24.5081H20.3448Z" fill="white"/>
<path d="M17.6102 27.6746H12.6968C12.4371 27.6746 12.2266 27.8852 12.2266 28.1451V30.272C12.2266 30.5319 12.4371 30.7426 12.6968 30.7426H17.6102C17.8699 30.7426 18.0804 30.5319 18.0804 30.272V28.1451C18.0804 27.8852 17.8699 27.6746 17.6102 27.6746Z" fill="white"/>
</svg>
