<svg width="228" height="23" viewBox="0 0 228 23" fill="none" xmlns="http://www.w3.org/2000/svg">
<path d="M213.299 8.41227C215.281 6.89687 217.705 4.91518 220.316 4.91518C221.296 4.91518 222.298 5.33483 222.834 6.15082C223.254 6.80361 223.347 7.6196 223.347 8.38896C223.347 9.36815 223.184 11.1167 223.068 12.4689C222.951 13.6812 222.834 14.8936 222.834 16.1292V16.5022C222.834 17.155 222.904 17.8544 223.72 17.8544C224.466 17.8544 225.119 17.4814 225.655 16.9918C225.865 16.8053 226.075 16.6421 226.355 16.6421C226.821 16.6421 227.147 17.0618 227.147 17.5047C227.147 17.9477 226.471 18.5305 225.795 19.0201C224.723 19.8128 223.394 20.4423 222.042 20.4423C219.897 20.4423 219.361 18.7637 219.361 16.9452C219.361 15.6396 219.431 14.334 219.57 13.0284C219.734 11.513 219.897 9.99763 219.897 8.73867C219.897 7.99262 219.78 7.01344 218.824 7.01344C217.029 7.01344 214.511 9.41478 213.276 10.6038C213.252 13.7279 213.252 16.8986 213.252 20.0226C213.252 20.3957 213.252 20.7454 213.159 21.0718C212.996 21.7712 212.25 22.051 211.597 22.051C211.084 22.051 210.455 21.8878 210.152 21.4448C209.918 21.0951 209.918 20.6521 209.918 20.2325C209.918 18.2508 209.988 16.2691 210.012 14.2874C209.336 15.1034 208.683 15.966 208.053 16.8286C207.797 17.1783 207.424 17.5047 206.981 17.5047C206.235 17.5047 205.582 16.7587 205.582 16.036C205.582 15.5464 205.838 15.22 206.188 14.8936C207.447 13.6346 208.729 12.4223 210.035 11.21C210.058 10.0443 210.058 8.85524 210.082 7.66623C209.172 7.73617 207.797 7.85274 207.074 7.85274C206.585 7.85274 206.258 7.47972 206.258 7.01344C206.258 6.50053 206.608 6.17413 207.121 6.15082C208.1 6.10419 209.079 6.10419 210.082 6.05756C210.082 4.93849 210.012 3.56297 210.105 2.49052C210.222 1.51133 210.874 1.20825 211.784 1.20825C212.786 1.20825 213.462 1.69785 213.462 2.74698C213.462 3.30651 213.439 3.86605 213.416 4.42558C213.369 5.75448 213.322 7.08338 213.299 8.41227Z" fill="#444444"/>
<path d="M197.842 9.53132C195.464 10.0209 193.063 10.4639 190.662 10.7903C189.613 10.9302 187.235 11.2332 186.628 11.2332C185.976 11.2332 185.579 10.6271 185.579 9.9976C185.579 9.41475 185.929 8.9951 186.325 8.92516C186.582 8.87853 188.097 8.80859 189.03 8.80859C189.566 7.52632 190.056 6.1741 190.359 4.82189H186.488C186.092 4.82189 185.696 4.63538 185.696 4.1691C185.696 3.72614 186.092 3.51631 186.488 3.51631H191.781V2.35061C191.781 1.53462 192.13 0.765259 193.366 0.765259C194.578 0.765259 194.951 1.48799 194.951 2.35061V3.51631H200.384C200.78 3.51631 201.176 3.72614 201.176 4.1691C201.176 4.63538 200.78 4.82189 200.384 4.82189H194.275C193.389 6.12748 192.48 7.43306 191.524 8.71533C193.413 8.62207 195.324 8.5055 197.213 8.29568C196.84 7.6662 196.467 7.08335 196.187 6.6637C195.977 6.36062 195.884 6.19742 195.884 6.05753C195.884 5.68451 196.164 5.40474 196.537 5.40474C196.956 5.40474 198.542 6.68701 198.985 7.08335C199.684 7.71283 201.293 9.1583 201.293 10.1375C201.293 11.0001 200.523 11.7228 199.661 11.7228C198.845 11.7228 198.588 11.3032 197.842 9.53132ZM185.509 3.98259C185.509 4.82189 184.763 5.70782 183.901 5.70782C183.225 5.70782 182.898 5.21823 182.315 4.23904C181.872 3.51631 180.94 2.53712 180.217 1.8377C180.1 1.72113 180.03 1.60456 180.03 1.41805C180.03 1.06834 180.334 0.765259 180.683 0.765259C181.243 0.765259 182.945 1.65119 183.504 1.95427C184.46 2.46718 185.509 3.09666 185.509 3.98259ZM184.856 9.29818C184.856 10.1142 184.11 10.9768 183.271 10.9768C182.782 10.9768 182.478 10.6038 182.245 10.2541C181.546 9.25155 180.707 8.36562 179.774 7.59626C179.634 7.47969 179.518 7.3398 179.518 7.15329C179.518 6.80358 179.821 6.52382 180.147 6.52382C180.753 6.52382 182.478 7.26986 183.061 7.57294C183.574 7.8294 184.18 8.17911 184.577 8.55213C184.763 8.73864 184.856 9.04173 184.856 9.29818ZM199.008 22.3307H197.516C196.42 22.3307 195.651 21.7945 195.651 20.6521V12.7487C195.651 12.0026 195.767 11.1866 196.98 11.1866C198.122 11.1866 198.309 11.9327 198.309 12.7487V20.5821C198.309 20.8619 198.402 21.0484 198.705 21.0484H198.845C199.078 21.0484 199.195 20.8619 199.241 20.6288C199.358 20.0459 199.428 19.4165 199.451 18.787C199.474 18.2274 199.871 17.901 200.43 17.901C200.966 17.901 201.549 18.2508 201.549 18.8336C201.549 19.5097 201.153 21.0251 200.827 21.538C200.43 22.1675 199.707 22.3307 199.008 22.3307ZM194.462 12.772V20.8619C194.462 21.6313 194.345 22.424 193.133 22.424C192.061 22.424 191.781 21.7245 191.781 21.0251V12.772C191.781 12.0026 191.897 11.2332 193.133 11.2332C194.322 11.2332 194.462 12.0259 194.462 12.772ZM189.286 11.3265C189.986 11.3265 190.778 11.7695 190.778 12.5388C190.778 13.5413 190.778 14.5438 190.685 15.523C190.615 16.2924 190.498 17.0851 190.265 17.8311C189.776 19.4631 188.517 20.6987 187.118 21.5847C186.675 21.8644 185.463 22.5872 184.95 22.5872C184.6 22.5872 184.32 22.2841 184.32 21.9577C184.32 21.6313 184.553 21.4448 184.903 21.1883C187.514 19.16 187.747 16.9918 187.747 13.7512C187.747 13.4014 187.747 13.0284 187.747 12.6787C187.747 11.7928 188.424 11.3265 189.286 11.3265ZM185.113 12.3756C185.463 12.3756 185.742 12.6787 185.742 13.0051C185.742 13.4014 185.16 15.1267 184.833 16.0359C184.274 17.6213 183.667 19.2299 182.968 20.722C182.572 21.5847 182.199 22.3074 181.429 22.3074C180.637 22.3074 179.844 21.4681 179.844 20.6987C179.844 20.2791 180.124 19.906 180.45 19.4864C182.059 17.4348 183.364 15.15 184.53 12.8186C184.647 12.5855 184.81 12.3756 185.113 12.3756Z" fill="#444444"/>
<path d="M166.439 4.54212C166.136 8.15579 165.879 11.7928 164.714 15.2432C163.944 17.5513 162.802 20.1392 159.958 20.1392C156.297 20.1392 154.525 16.1758 154.525 13.0284C154.525 10.5338 155.435 8.06254 157.09 6.22073C159.258 3.77276 162.312 2.70032 165.506 2.70032C171.008 2.70032 175.275 5.70782 175.275 11.5363C175.275 15.0334 173.689 18.0409 170.542 19.6962C169.516 20.2091 167.651 20.9319 166.485 20.9319C166.066 20.9319 165.693 20.5821 165.693 20.1392C165.693 19.6729 166.019 19.4164 166.416 19.2999C167.628 18.9502 168.63 18.2974 169.47 17.3648C170.962 15.6862 171.778 13.3315 171.778 11.1167C171.778 7.40974 169.866 5.54462 166.439 4.54212ZM163.082 4.54212C161.52 5.1716 160.424 5.91765 159.515 7.3398C158.186 9.39143 157.486 11.8627 157.486 14.2874C157.486 15.3365 157.58 16.4556 158.139 17.3648C158.419 17.8544 158.932 18.344 159.538 18.344C160.47 18.344 161.03 16.7353 161.543 15.2199C162.592 11.7695 162.872 8.13248 163.082 4.54212Z" fill="#444444"/>
<path d="M142.053 12.8653C143.964 13.8911 145.83 15.0568 147.508 16.409C148.254 17.0152 149.024 17.6913 149.024 18.3207C149.024 19.2999 148.068 20.0693 147.135 20.0693C146.436 20.0693 145.923 19.5331 145.13 18.3207C144.058 16.6888 142.542 15.3599 140.98 14.1942C138.929 16.6655 136.014 18.3907 133.053 19.5564C131.958 19.9994 130.652 20.4423 130.209 20.4423C129.813 20.4423 129.51 20.0693 129.51 19.673C129.51 19.2766 129.79 19.0435 130.139 18.9036C132.377 18.0643 134.406 17.0385 136.201 15.4531C137.53 14.2874 138.672 12.8653 139.558 11.3265C140.304 10.0443 141.633 7.10672 141.633 5.68456C141.633 5.31154 141.4 5.0784 141.027 5.0784H131.585C131.118 5.0784 130.699 4.86857 130.699 4.33235C130.699 3.79613 131.118 3.5863 131.585 3.5863H143.848C144.827 3.5863 145.643 4.37898 145.643 5.35817C145.643 7.13003 143.125 11.3499 142.053 12.8653Z" fill="#444444"/>
<path d="M121.886 0.741943C122.259 0.741943 123.191 1.5113 123.518 1.79107C123.914 2.14078 124.404 2.56043 124.404 2.95677C124.404 3.39974 123.984 3.81939 123.518 3.81939C123.168 3.81939 122.958 3.58625 122.748 3.30648C122.399 2.8402 121.956 2.39724 121.513 1.97758C121.349 1.81439 121.186 1.65119 121.186 1.39474C121.186 1.02171 121.513 0.741943 121.886 0.741943ZM109.459 9.69452C112.677 9.15829 115.637 8.17911 118.505 6.61707C118.878 6.40724 119.251 6.24405 119.647 6.24405C120.51 6.24405 121.303 6.99009 121.303 7.8294C121.303 8.43556 120.86 8.80858 120.347 8.9951C119.484 9.29818 118.458 9.60126 117.526 9.85771C114.891 10.6038 112.187 11.1167 109.459 11.3731V17.3648C109.459 18.5305 109.739 19.2299 110.928 19.4398C111.814 19.603 113.842 19.603 114.985 19.603C116.85 19.603 118.785 19.533 120.394 19.1833C120.813 19.0901 121.046 19.0434 121.303 19.0434C121.792 19.0434 122.165 19.4631 122.165 19.9527C122.165 20.6987 121.396 20.8619 120.79 20.9085C119.298 21.0251 117.759 21.0717 116.267 21.0717H112.7C111.254 21.0717 109.739 20.9785 108.34 20.6987C106.428 20.3257 106.009 18.787 106.009 17.0384V3.51631C106.009 2.35061 106.662 1.88433 107.781 1.88433C108.9 1.88433 109.459 2.39724 109.459 3.51631V9.69452ZM119.741 1.90764C120.044 1.90764 120.65 2.39724 121.186 2.88683C121.583 3.23654 122.399 4.0059 122.399 4.42555C122.399 4.91515 121.956 5.35811 121.466 5.35811C121.116 5.35811 120.883 5.07835 120.697 4.79858C120.324 4.23904 119.904 3.67951 119.414 3.21323C119.228 3.02671 119.041 2.8402 119.041 2.56043C119.041 2.21073 119.368 1.90764 119.741 1.90764Z" fill="#444444"/>
<path d="M78.4754 10.6504H97.3597C97.9193 10.6504 98.3156 11.0934 98.3156 11.6529C98.3156 12.2124 97.9193 12.6321 97.3364 12.6321H78.4754C77.9159 12.6321 77.5195 12.2124 77.5195 11.6529C77.5195 11.0934 77.9159 10.6504 78.4754 10.6504Z" fill="#444444"/>
<path d="M59.7301 7.06009H64.8359V3.14333C64.8359 2.00095 65.512 1.55798 66.6077 1.55798C67.6802 1.55798 68.2864 2.04758 68.2864 3.14333V7.06009H71.4104C71.8534 7.06009 72.2964 7.29322 72.2964 7.80613C72.2964 8.34235 71.8534 8.55218 71.4104 8.55218H68.2864C68.2397 13.0052 68.2864 16.3857 65.7451 18.787C64.253 20.1859 62.2014 20.862 60.2663 21.3049C59.1473 21.5614 58.6577 21.6313 58.3546 21.6313C57.9349 21.6313 57.6085 21.2816 57.6085 20.862C57.6085 20.2791 58.1448 20.1159 58.611 20.046C61.1756 19.603 63.437 18.4373 64.2064 15.8728C64.8126 13.8445 64.8359 12.1192 64.8359 8.55218H59.7301V13.4015C59.7301 14.5439 59.1006 15.0335 57.9583 15.0335C56.8625 15.0335 56.2796 14.5206 56.2796 13.4015V8.55218H53.0157C52.5494 8.55218 52.1064 8.34235 52.1064 7.80613C52.1064 7.29322 52.5494 7.06009 53.0157 7.06009H56.2796V3.18996C56.2796 2.02426 56.9091 1.55798 58.0282 1.55798C59.124 1.55798 59.7301 2.07089 59.7301 3.18996V7.06009Z" fill="#444444"/>
<path d="M32.6863 10.0442C33.2459 11.9327 34.1784 13.6579 35.3907 15.1966C35.5306 15.3598 35.6472 15.523 35.6472 15.7328C35.6472 16.0825 35.3674 16.3856 34.9944 16.3856C34.8079 16.3856 34.6447 16.2691 34.4116 16.0592C33.852 15.5463 33.2459 14.9402 32.6863 14.2407V21.2349C32.6863 22.0276 32.29 22.6571 31.1942 22.6571C30.0285 22.6571 29.7021 22.0043 29.7021 21.1184V14.8702C29.2125 15.593 26.8811 18.787 26.1118 18.787C25.7388 18.787 25.459 18.5072 25.459 18.1342C25.459 17.9244 25.5756 17.7378 25.7854 17.4581C27.5339 15.2899 28.7463 12.6321 29.5156 9.81108H26.648C26.2517 9.81108 25.8553 9.62457 25.8553 9.15829C25.8553 8.69201 26.2517 8.5055 26.648 8.5055H29.7021V2.23404C29.7021 1.44136 30.0518 0.718628 31.1942 0.718628C32.3133 0.718628 32.6863 1.30148 32.6863 2.09415V8.5055H35.0644C35.4607 8.5055 35.857 8.69201 35.857 9.15829C35.857 9.62457 35.4607 9.81108 35.0644 9.81108H32.6863V10.0442ZM45.4158 13.6812L46.6514 13.4481C46.9312 13.4014 47.0711 13.3781 47.1876 13.3781C47.4208 13.3781 47.7705 13.6346 47.7705 13.9843C47.7705 14.3573 47.4674 14.5438 47.1177 14.6138L45.4158 14.9402V21.0251C45.4158 21.8877 45.0661 22.6571 43.8304 22.6571C42.5015 22.6571 42.2451 21.8178 42.2451 21.0018V15.5463L36.8828 16.5721C36.6497 16.6188 36.5564 16.6188 36.4865 16.6188C36.1368 16.6188 35.8337 16.3623 35.8337 16.0126C35.8337 15.6163 36.1368 15.4298 36.5098 15.3598L42.2451 14.2874V2.32729C42.2451 1.48799 42.6181 0.718628 43.8304 0.718628C45.0194 0.718628 45.4158 1.41805 45.4158 2.37392V13.6812ZM36.743 1.95427C36.743 1.60456 37.0227 1.30148 37.3724 1.30148C37.8387 1.30148 39.1909 2.09415 39.6339 2.37392C40.4965 2.91014 41.872 3.74945 41.872 4.63538C41.872 5.498 41.1493 6.36061 40.2634 6.36061C39.6339 6.36061 39.3541 5.91765 39.0744 5.42805C38.4682 4.35561 37.7688 3.32979 37.0927 2.58375C36.8362 2.28066 36.743 2.11747 36.743 1.95427ZM28.0935 7.75945C27.3241 7.75945 27.091 7.10666 27.021 6.47718C26.8811 5.3348 26.6713 4.14578 26.275 3.05003C26.2283 2.91014 26.1817 2.77026 26.1817 2.60706C26.1817 2.30398 26.4149 1.97758 26.7646 1.97758C27.5106 1.97758 29.5389 5.52131 29.5389 6.3373C29.5389 7.08335 28.8162 7.75945 28.0935 7.75945ZM34.738 2.07084C35.5539 2.07084 36.3 2.74695 36.3 3.58625C36.3 4.28567 34.9711 6.10416 34.5048 6.71032C34.1551 7.1766 33.7588 7.68951 33.4557 7.68951C33.1293 7.68951 32.8728 7.38643 32.8728 7.08335C32.8728 6.94346 32.8961 6.80358 32.9428 6.6637C33.2925 5.47468 33.5256 4.26235 33.6888 3.05003C33.7588 2.5138 34.1784 2.07084 34.738 2.07084ZM35.927 7.71282C35.927 7.3398 36.23 7.06003 36.5798 7.06003C37.116 7.06003 39.051 8.29567 39.5639 8.6687C40.3566 9.22823 41.499 10.0209 41.499 10.8602C41.499 11.7928 40.6131 12.7253 39.6805 12.7253C39.051 12.7253 38.678 12.3756 38.4449 11.8394C37.8853 10.5571 37.1626 9.29818 36.23 8.27236C36.0669 8.10916 35.927 7.94596 35.927 7.71282Z" fill="#444444"/>
<path d="M18.6978 4.35561V8.92515H21.0525C21.4489 8.92515 21.8452 9.13497 21.8452 9.57794C21.8452 10.0442 21.4489 10.2307 21.0525 10.2307H18.6978V14.8935H20.1899C20.5863 14.8935 20.9826 15.08 20.9826 15.5463C20.9826 15.9893 20.5863 16.1991 20.1899 16.1991H1.74855C1.3289 16.1991 0.955873 15.9893 0.955873 15.5463C0.955873 15.08 1.3289 14.8935 1.74855 14.8935H3.26396V10.2307H0.93256C0.536222 10.2307 0.139884 10.0442 0.139884 9.57794C0.139884 9.13497 0.536222 8.92515 0.93256 8.92515H3.26396V6.50049C2.82099 6.8502 1.14239 8.1791 0.652792 8.1791C0.279768 8.1791 0 7.89933 0 7.52631C0 7.3398 0.0932559 7.19991 0.209826 7.06003C1.58535 5.40474 2.77436 3.65619 3.47378 1.65118C3.70692 1.02171 4.1732 0.648682 4.87262 0.648682C5.64199 0.648682 6.97088 1.06833 6.97088 2.04752C6.97088 2.42055 6.76106 2.74694 6.55123 3.07334H19.7703C20.1666 3.07334 20.5629 3.25985 20.5629 3.70281C20.5629 4.16909 20.1666 4.35561 19.7703 4.35561H18.6978ZM15.9001 4.35561H14.408V8.92515H15.9001V4.35561ZM11.7036 4.35561H10.1882V8.92515H11.7036V4.35561ZM7.48379 4.35561H6.01501V8.92515H7.48379V4.35561ZM15.9001 10.2307H14.408V14.8935H15.9001V10.2307ZM11.7036 10.2307H10.1882V14.8935H11.7036V10.2307ZM7.48379 10.2307H6.01501V14.8935H7.48379V10.2307ZM2.12157 22.5871C1.25896 22.5871 0.373024 21.9344 0.373024 21.0251C0.373024 20.4889 0.512908 20.3024 1.81849 19.2066C2.54123 18.6005 3.14739 17.7612 3.63698 17.0151C3.77687 16.8053 3.89344 16.6188 4.1732 16.6188C4.4996 16.6188 4.80268 16.8985 4.80268 17.2249C4.80268 18.1575 4.19652 20.0925 3.80018 20.9785C3.4971 21.7245 3.05413 22.5871 2.12157 22.5871ZM16.9026 17.4348C16.9026 17.085 17.2057 16.782 17.5554 16.782C18.4181 16.782 21.5421 19.7195 21.5421 20.8619C21.5421 21.7945 20.5163 22.4939 19.6537 22.4939C19.2107 22.4939 18.7678 22.3074 18.5113 21.911C18.3481 21.6546 18.3248 21.3049 18.2549 21.0251C18.0217 19.9294 17.5554 18.7637 17.0658 17.8777C16.9959 17.7378 16.9026 17.528 16.9026 17.4348ZM15.8302 20.8153C15.8302 21.7245 14.8976 22.3307 14.0583 22.3307C13.1957 22.3307 12.8693 21.8411 12.7761 21.0717C12.6362 19.976 12.3331 18.8569 11.9368 17.901C11.8668 17.7378 11.7969 17.5746 11.7969 17.4114C11.7969 17.0617 12.1233 16.782 12.4497 16.782C12.8693 16.782 13.7786 17.7378 14.0817 18.0642C14.6179 18.6238 15.8302 20.0226 15.8302 20.8153ZM10.3281 20.9319C10.3281 21.8644 9.41885 22.424 8.55624 22.424C7.71693 22.424 7.20402 21.9344 7.18071 21.0951C7.13408 20.0459 7.06414 18.9735 6.85431 18.0176C6.80768 17.8078 6.76106 17.6213 6.76106 17.4348C6.76106 17.085 7.06414 16.8053 7.41385 16.8053C8.25315 16.8053 10.3281 20.1159 10.3281 20.9319Z" fill="#444444"/>
</svg>
