<svg width="175" height="23" viewBox="0 0 175 23" fill="none" xmlns="http://www.w3.org/2000/svg">
<path d="M155.552 12.6631C154.945 12.8263 153.453 13.176 153.01 13.176C152.381 13.176 152.008 12.4766 152.008 11.9171C152.008 11.3575 152.358 10.7747 152.964 10.7747H153.896C154.479 10.0286 155.039 9.28259 155.575 8.48991C155.015 8.41997 154.805 7.88375 154.572 7.41747C154.083 6.4616 153.453 5.50572 152.684 4.66642C152.288 4.22345 152.194 4.06025 152.194 3.89706C152.194 3.59397 152.451 3.26758 152.8 3.26758C153.104 3.26758 154.129 3.92037 154.479 4.15351C154.899 3.36083 155.248 2.52153 155.505 1.68223C155.808 0.703038 155.971 0.306702 156.81 0.306702C157.51 0.306702 158.466 0.726353 158.466 1.54234C158.466 1.98531 157.906 2.70804 157.533 3.17432C156.997 3.82711 156.437 4.47991 155.831 5.08607C156.251 5.41246 156.764 5.78549 156.997 6.25177C157.463 5.38915 157.836 4.6431 158.256 3.89706C158.489 3.4774 158.815 3.22095 159.328 3.22095C160.051 3.22095 160.96 3.8038 160.96 4.57316C160.96 4.87624 160.82 5.17933 160.634 5.43578C159.958 6.43828 158.722 7.72055 157.883 8.65311C157.253 9.37584 156.601 10.0519 155.925 10.7047C156.88 10.6581 157.813 10.6115 158.769 10.4949C158.676 10.0286 158.536 9.53904 158.373 9.07276C158.326 8.95619 158.303 8.86294 158.303 8.74637C158.303 8.44328 158.536 8.18683 158.862 8.18683C159.165 8.18683 159.515 8.60648 159.888 9.09608C160.587 10.0519 161.31 11.1244 161.31 11.8704C161.31 12.6165 160.727 13.246 159.958 13.246C159.119 13.246 159.049 12.4999 158.979 11.8471C158.769 11.8938 158.559 11.9637 158.349 12.0103V20.7064C158.349 21.9421 157.696 22.2219 156.927 22.2219C156.158 22.2219 155.552 21.8955 155.552 20.7531V12.6631ZM168.84 3.31421V4.45659H171.918C172.338 4.45659 172.711 4.6431 172.711 5.10938C172.711 5.55235 172.338 5.73886 171.918 5.73886H168.84V6.99782H173.084C173.48 6.99782 173.876 7.18433 173.876 7.62729C173.876 8.09357 173.48 8.28009 173.084 8.28009H161.38C160.96 8.28009 160.587 8.09357 160.587 7.62729C160.587 7.18433 160.96 6.99782 161.38 6.99782H165.623V5.73886H162.546C162.149 5.73886 161.753 5.55235 161.753 5.10938C161.753 4.6431 162.149 4.45659 162.546 4.45659H165.623V3.31421H161.986C161.59 3.31421 161.194 3.12769 161.194 2.66141C161.194 2.21845 161.59 2.00862 161.986 2.00862H165.623C165.623 0.633097 166.416 0.306702 167.209 0.306702C168.048 0.306702 168.84 0.633097 168.84 2.00862H172.477C172.897 2.00862 173.27 2.21845 173.27 2.66141C173.27 3.12769 172.897 3.31421 172.477 3.31421H168.84ZM169.656 18.2118C170.006 18.3984 170.356 18.6781 170.636 18.9113C171.428 19.5874 172.244 20.1935 172.851 20.45C174.016 20.9396 174.133 21.0328 174.133 21.4525C174.133 21.7556 173.9 22.082 173.55 22.082C172.198 22.082 169.377 21.3126 168.164 20.6598C167.768 20.45 167.488 20.1469 167.488 19.6806C167.488 18.9346 168.258 18.3984 168.887 18.2118H164.877C165.553 18.375 166.393 18.9113 166.393 19.7039C166.393 20.3101 165.88 20.6132 165.39 20.823C164.201 21.3359 162.919 21.6856 161.636 21.8955C160.821 22.0587 160.331 22.1053 160.121 22.1053C159.771 22.1053 159.492 21.8022 159.492 21.4758C159.492 21.1494 159.701 20.9163 159.981 20.823C161.263 20.3567 162.243 19.7506 163.175 18.9113C163.502 18.6315 163.805 18.3284 164.224 18.2118H163.595C162.452 18.2118 161.543 17.6989 161.543 16.44V11.0545C161.543 9.74887 162.452 9.28259 163.595 9.28259H170.776C171.918 9.28259 172.827 9.7955 172.827 11.0545V16.44C172.827 17.6989 171.918 18.2118 170.776 18.2118H169.656ZM169.656 11.8238V11.1943C169.656 10.7281 169.493 10.5882 169.05 10.5882H165.273C164.807 10.5882 164.644 10.7514 164.644 11.1943V11.8238H169.656ZM169.656 13.1294H164.644V14.3184H169.656V13.1294ZM159.165 13.4092C159.422 13.4092 159.562 13.5257 159.888 13.992C160.471 14.9013 161.52 16.9063 161.52 17.8155C161.52 18.5382 160.914 19.0978 160.214 19.0978C159.305 19.0978 159.119 18.5149 159.072 17.6756C159.025 16.9296 158.839 15.624 158.629 14.7147C158.559 14.4117 158.512 14.2252 158.512 14.062C158.512 13.7122 158.792 13.4092 159.165 13.4092ZM152.614 21.2194C152.288 21.2194 152.031 20.9163 152.031 20.5899C152.031 20.4966 152.078 20.2402 152.148 20.007C152.567 18.6082 152.684 16.9296 152.731 15.1577C152.754 14.2718 152.894 13.6423 153.873 13.6423C154.572 13.6423 155.295 14.062 155.295 14.808C155.295 16.2535 154.223 19.0511 153.523 20.2635C153.127 20.9396 152.87 21.2194 152.614 21.2194ZM169.656 15.6007H164.644V16.3001C164.644 16.7897 164.807 16.9063 165.273 16.9063H169.05C169.493 16.9063 169.656 16.7664 169.656 16.3001V15.6007Z" fill="#444444"/>
<path d="M135.764 2.75467V1.96199C135.764 1.54234 135.834 1.12269 136.067 0.819608C136.37 0.423271 136.906 0.306702 137.396 0.306702C138.049 0.306702 138.608 0.563155 138.841 1.09938C138.935 1.33252 138.958 1.54234 138.958 1.7988V2.75467H145.672C146.815 2.75467 147.724 3.29089 147.724 4.52653V5.57566C147.724 6.01863 147.631 6.55485 147.374 6.85793C147.071 7.23096 146.558 7.34753 146.092 7.34753C145.533 7.34753 144.88 7.11439 144.623 6.55485C144.483 6.25177 144.483 5.90206 144.483 5.57566V4.66642C144.483 4.20014 144.344 4.06025 143.877 4.06025H130.915C130.448 4.06025 130.308 4.20014 130.308 4.66642V5.62229C130.308 6.25177 130.169 6.62479 129.982 6.85793C129.656 7.25427 129.166 7.34753 128.7 7.34753C128.14 7.34753 127.464 7.11439 127.254 6.57817C127.138 6.27508 127.114 5.94869 127.114 5.62229V4.52653C127.114 3.29089 128.024 2.75467 129.166 2.75467H135.764ZM140.124 15.181C140.963 16.7664 141.989 18.002 143.528 18.9812C144.786 19.7506 146.162 20.3567 147.607 20.7298C147.934 20.823 148.237 21.0328 148.237 21.4059C148.237 21.7556 147.934 22.0587 147.584 22.0587C147.374 22.0587 147.164 22.012 146.978 21.9654C145.509 21.639 144.087 21.196 142.735 20.5899C140.613 19.6107 138.771 18.1652 137.396 16.2768C135.647 19.0278 132.896 20.5666 129.842 21.4758C129.236 21.6623 127.837 22.082 127.231 22.082C126.881 22.082 126.602 21.8022 126.602 21.4525C126.602 21.0795 126.881 20.8696 127.208 20.7764C130.402 19.7506 133.269 18.375 134.761 15.181H127.441C127.045 15.181 126.648 14.9945 126.648 14.5282C126.648 14.062 127.045 13.8754 127.441 13.8754H135.251C135.438 13.1993 135.577 12.4999 135.671 11.8005H129.586C129.166 11.8005 128.793 11.614 128.793 11.1477C128.793 10.6814 129.166 10.4949 129.586 10.4949H135.764V8.53654H130.075C129.679 8.53654 129.283 8.35003 129.283 7.88375C129.283 7.44078 129.679 7.23096 130.075 7.23096H135.764V5.90206C135.764 5.50572 135.904 4.9695 136.184 4.68973C136.533 4.34002 136.906 4.29339 137.396 4.29339C137.932 4.29339 138.585 4.45659 138.818 5.08607C138.911 5.31921 138.958 5.55235 138.958 5.8088V7.23096H144.786C145.183 7.23096 145.579 7.44078 145.579 7.88375C145.579 8.35003 145.183 8.53654 144.786 8.53654H138.958V10.4949H145.299C145.696 10.4949 146.092 10.6814 146.092 11.1477C146.092 11.614 145.696 11.8005 145.299 11.8005H138.888C138.818 12.4999 138.702 13.1993 138.492 13.8754H147.398C147.817 13.8754 148.19 14.062 148.19 14.5282C148.19 14.9945 147.817 15.181 147.398 15.181H140.124Z" fill="#444444"/>
<path d="M113.359 4.1302C113.056 7.74387 112.799 11.3808 111.634 14.8313C110.864 17.1394 109.722 19.7273 106.877 19.7273C103.217 19.7273 101.445 15.7639 101.445 12.6165C101.445 10.1219 102.355 7.65061 104.01 5.8088C106.178 3.36084 109.232 2.28839 112.426 2.28839C117.928 2.28839 122.195 5.2959 122.195 11.1244C122.195 14.6215 120.609 17.629 117.462 19.2843C116.436 19.7972 114.571 20.5199 113.405 20.5199C112.986 20.5199 112.613 20.1702 112.613 19.7273C112.613 19.261 112.939 19.0045 113.335 18.888C114.548 18.5382 115.55 17.8855 116.39 16.9529C117.882 15.2743 118.698 12.9196 118.698 10.7047C118.698 6.99782 116.786 5.1327 113.359 4.1302ZM110.002 4.1302C108.44 4.75967 107.344 5.50572 106.435 6.92788C105.106 8.97951 104.406 11.4508 104.406 13.8754C104.406 14.9246 104.499 16.0436 105.059 16.9529C105.339 17.4425 105.852 17.9321 106.458 17.9321C107.39 17.9321 107.95 16.3234 108.463 14.808C109.512 11.3575 109.792 7.72055 110.002 4.1302Z" fill="#444444"/>
<path d="M83.1678 10.728C83.7273 10.3317 84.2636 9.95867 84.893 9.70222C85.6158 9.42245 86.3851 9.25925 87.1545 9.25925C89.0429 9.25925 90.6516 10.2618 90.6516 12.2901C90.6516 13.0827 90.535 14.3184 90.3951 15.4608C90.3252 16.1136 90.2786 16.9995 90.2786 17.3958C90.2786 18.1652 90.3019 19.0278 91.3044 19.0278C92.913 19.0278 94.1021 17.1627 94.6849 15.997C95.1279 15.1111 95.2444 14.9712 95.6641 14.9712C96.1071 14.9712 96.55 15.3209 96.55 15.7872C96.55 16.3001 95.7807 17.5823 95.4776 18.0486C94.3352 19.8671 92.3768 21.569 90.0921 21.569C87.9239 21.569 86.8281 20.2401 86.8281 18.1419C86.8281 17.5823 86.9447 16.3001 87.0612 15.3209C87.1545 14.4816 87.2477 13.619 87.2477 12.7564C87.2477 11.8005 86.8514 11.0544 85.8023 11.0544C84.1004 11.0544 82.8647 12.6398 82.1187 13.992C81.2794 15.5074 80.4867 17.8854 79.9738 19.564C79.694 20.4966 79.4376 21.266 78.2952 21.266C77.3859 21.266 76.5 20.7064 76.5 19.7272C76.5 19.1211 77.5258 16.2068 78.8314 12.9195C80.4167 8.93286 82.3518 4.03692 82.8647 2.68471C83.2611 1.61226 83.4942 0.959473 84.52 0.959473C85.3593 0.959473 86.6183 1.44907 86.6183 2.45157C86.6183 2.94116 86.082 4.10686 85.7557 4.8296C85.0096 6.41495 83.8672 9.0028 83.1678 10.728Z" fill="#444444"/>
<path d="M68.6143 11.8471C68.9873 11.8471 69.337 12.1036 69.337 12.4999C69.337 12.733 69.2671 12.9895 69.1971 13.1993C68.8008 14.5049 68.3345 15.7405 67.6351 16.9296C65.8399 19.8904 63.2054 21.266 59.755 21.266C58.0297 21.266 56.0714 20.9629 54.8124 19.6573C53.4602 18.3051 53.3203 16.2534 53.3203 14.435C53.3203 12.2668 53.3903 10.0752 53.4835 7.88373C53.5535 6.11186 53.6234 4.34 53.6933 2.59145C53.74 1.47238 54.3461 0.912842 55.4885 0.912842C56.6775 0.912842 57.2137 1.58895 57.2137 2.73133C57.2137 3.71052 57.1438 4.68971 57.0739 5.64558C56.9107 8.04692 56.8174 10.3783 56.7475 12.733C56.7242 13.1294 56.7242 13.5257 56.7242 13.922C56.7242 15.181 56.7708 16.7197 57.7733 17.629C58.6126 18.3983 59.8715 18.5848 60.9673 18.5848C64.8374 18.5848 66.7492 15.7405 67.8916 12.43C68.0081 12.0802 68.218 11.8471 68.6143 11.8471Z" fill="#444444"/>
<path d="M31.8709 10.728C32.4305 10.3317 32.9667 9.95867 33.5962 9.70222C34.3189 9.42245 35.0883 9.25925 35.8576 9.25925C37.7461 9.25925 39.3547 10.2618 39.3547 12.2901C39.3547 13.0827 39.2381 14.3184 39.0983 15.4608C39.0283 16.1136 38.9817 16.9995 38.9817 17.3958C38.9817 18.1652 39.005 19.0278 40.0075 19.0278C41.6162 19.0278 42.8052 17.1627 43.388 15.997C43.831 15.1111 43.9476 14.9712 44.3672 14.9712C44.8102 14.9712 45.2532 15.3209 45.2532 15.7872C45.2532 16.3001 44.4838 17.5823 44.1807 18.0486C43.0383 19.8671 41.08 21.569 38.7952 21.569C36.627 21.569 35.5312 20.2401 35.5312 18.1419C35.5312 17.5823 35.6478 16.3001 35.7644 15.3209C35.8576 14.4816 35.9509 13.619 35.9509 12.7564C35.9509 11.8005 35.5545 11.0544 34.5054 11.0544C32.8035 11.0544 31.5678 12.6398 30.8218 13.992C29.9825 15.5074 29.1898 17.8854 28.6769 19.564C28.3971 20.4966 28.1407 21.266 26.9983 21.266C26.0891 21.266 25.2031 20.7064 25.2031 19.7272C25.2031 19.1211 26.2289 16.2068 27.5345 12.9195C29.1199 8.93286 31.0549 4.03692 31.5678 2.68471C31.9642 1.61226 32.1973 0.959473 33.2231 0.959473C34.0624 0.959473 35.3214 1.44907 35.3214 2.45157C35.3214 2.94116 34.7852 4.10686 34.4588 4.8296C33.7127 6.41495 32.5703 9.0028 31.8709 10.728Z" fill="#444444"/>
<path d="M5.73524 6.18184C4.1732 6.22847 2.58785 6.27509 1.02582 6.29841C0.512908 6.29841 0.11657 6.08858 0.11657 5.50573C0.11657 4.89957 0.536222 4.71306 1.07244 4.71306H1.60867C3.03082 4.71306 4.45297 4.68974 5.87513 4.64311C5.96838 3.68724 6.06164 2.70805 6.24815 1.77549C6.43466 0.842934 6.97088 0.46991 7.90344 0.46991C8.74275 0.46991 9.74525 0.842934 9.74525 1.84544C9.74525 2.14852 9.60536 2.80131 9.46548 3.43079C9.37222 3.82712 9.27897 4.24678 9.23234 4.50323C11.1907 4.43329 13.1491 4.36335 15.0842 4.17684C15.4805 4.13021 15.8768 4.06027 16.2732 4.06027C16.7394 4.06027 17.0658 4.36335 17.0658 4.85294C17.0658 5.41248 16.6928 5.59899 16.1799 5.66893C15.4339 5.73887 14.921 5.76219 13.9185 5.80881C12.2632 5.90207 10.6312 5.97201 8.9992 6.04195C8.85932 6.9512 8.74275 7.83713 8.64949 8.74638C9.34891 8.62981 10.025 8.55986 10.7011 8.55986C14.6179 8.55986 18.6279 10.052 18.6279 14.6215C18.6279 17.629 16.7861 19.7273 14.035 20.6831C12.9626 21.0562 11.2373 21.4758 10.095 21.4758C9.65199 21.4758 9.27897 21.196 9.27897 20.7065C9.27897 20.0537 9.81519 19.9604 10.3514 19.8905C13.1258 19.5408 15.1075 17.5591 15.1075 14.6914C15.1075 13.0595 14.408 11.3342 12.7994 10.6814C12.1233 13.1993 11.214 15.6939 9.51211 17.6989C8.02001 19.4708 5.85181 20.823 3.4971 20.823C1.02582 20.823 0 19.1677 0 16.8596C0 14.878 0.909246 13.1061 2.26146 11.7073C3.19402 10.7514 4.3364 10.0986 5.54873 9.56237C5.59536 8.44329 5.6653 7.30091 5.73524 6.18184ZM8.6728 15.624C9.74525 13.9221 10.398 12.0103 10.7711 10.052C10.5379 10.0286 10.3048 10.0053 10.0716 10.0053C9.55874 10.0053 9.04583 10.052 8.53292 10.1918C8.50961 11.0311 8.48629 11.8938 8.48629 12.7331C8.48629 13.6889 8.50961 14.6681 8.6728 15.624ZM6.17821 18.0487C5.6653 16.2069 5.54873 13.7123 5.54873 11.7772C3.84681 12.8496 2.82099 14.9013 2.82099 16.883C2.82099 17.6756 3.05413 18.818 4.05663 18.818C4.826 18.818 5.59536 18.4916 6.17821 18.0487Z" fill="#444444"/>
</svg>
