<svg width="255" height="59" viewBox="0 0 255 59" fill="none" xmlns="http://www.w3.org/2000/svg">
<path d="M250.716 49.6324L250.068 41.4244L249.948 37.8484H253.932L253.812 41.4244L253.164 49.6324H250.716ZM251.94 56.0164C251.332 56.0164 250.828 55.8164 250.428 55.4164C250.028 55.0164 249.828 54.5124 249.828 53.9044C249.828 53.2804 250.028 52.7684 250.428 52.3684C250.828 51.9684 251.332 51.7684 251.94 51.7684C252.548 51.7684 253.052 51.9684 253.452 52.3684C253.852 52.7684 254.052 53.2804 254.052 53.9044C254.052 54.5124 253.852 55.0164 253.452 55.4164C253.052 55.8164 252.548 56.0164 251.94 56.0164Z" fill="#494949"/>
<path d="M221.223 37.5123C221.559 37.5603 221.919 37.5923 222.303 37.6083C222.687 37.6243 223.055 37.6323 223.407 37.6323C223.663 37.6323 224.047 37.6323 224.559 37.6323C225.071 37.6163 225.647 37.6003 226.287 37.5843C226.943 37.5683 227.591 37.5523 228.231 37.5363C228.871 37.5203 229.447 37.5043 229.959 37.4883C230.487 37.4563 230.895 37.4323 231.183 37.4163C231.679 37.3683 232.071 37.3283 232.359 37.2963C232.647 37.2483 232.863 37.2003 233.007 37.1523L234.567 39.2883C234.295 39.4643 234.015 39.6403 233.727 39.8163C233.439 39.9923 233.159 40.1843 232.887 40.3923C232.567 40.6163 232.183 40.9123 231.735 41.2803C231.287 41.6323 230.807 42.0083 230.295 42.4083C229.799 42.8083 229.311 43.2003 228.831 43.5843C228.367 43.9683 227.943 44.3123 227.559 44.6163C227.959 44.5203 228.343 44.4563 228.711 44.4243C229.079 44.3763 229.455 44.3523 229.839 44.3523C231.199 44.3523 232.415 44.6163 233.487 45.1443C234.575 45.6723 235.431 46.3923 236.055 47.3043C236.695 48.2003 237.015 49.2323 237.015 50.4003C237.015 51.6643 236.695 52.8083 236.055 53.8323C235.415 54.8563 234.447 55.6723 233.151 56.2803C231.871 56.8883 230.263 57.1923 228.327 57.1923C227.223 57.1923 226.223 57.0323 225.327 56.7123C224.447 56.3923 223.751 55.9363 223.239 55.3443C222.727 54.7523 222.471 54.0563 222.471 53.2563C222.471 52.6003 222.647 51.9923 222.999 51.4323C223.367 50.8563 223.871 50.3923 224.511 50.0403C225.167 49.6883 225.919 49.5123 226.767 49.5123C227.871 49.5123 228.799 49.7363 229.551 50.1843C230.319 50.6163 230.903 51.2003 231.303 51.9363C231.719 52.6723 231.935 53.4803 231.951 54.3603L229.143 54.7443C229.127 53.8643 228.903 53.1603 228.471 52.6323C228.055 52.0883 227.495 51.8163 226.791 51.8163C226.343 51.8163 225.983 51.9363 225.711 52.1763C225.439 52.4003 225.303 52.6643 225.303 52.9683C225.303 53.4163 225.527 53.7763 225.975 54.0483C226.423 54.3203 227.007 54.4563 227.727 54.4563C229.087 54.4563 230.223 54.2963 231.135 53.9763C232.047 53.6403 232.727 53.1683 233.175 52.5603C233.639 51.9363 233.871 51.2003 233.871 50.3523C233.871 49.6323 233.647 49.0003 233.199 48.4563C232.767 47.9123 232.175 47.4883 231.423 47.1843C230.671 46.8803 229.823 46.7283 228.879 46.7283C227.951 46.7283 227.103 46.8483 226.335 47.0883C225.567 47.3123 224.839 47.6403 224.151 48.0723C223.479 48.4883 222.815 49.0003 222.159 49.6083C221.519 50.2003 220.879 50.8643 220.239 51.6003L218.055 49.3443C218.487 48.9923 218.975 48.6003 219.519 48.1683C220.063 47.7203 220.615 47.2563 221.175 46.7763C221.751 46.2963 222.287 45.8483 222.783 45.4323C223.295 45.0003 223.727 44.6403 224.079 44.3523C224.415 44.0803 224.807 43.7603 225.255 43.3923C225.703 43.0243 226.167 42.6483 226.647 42.2643C227.127 41.8643 227.583 41.4883 228.015 41.1363C228.447 40.7683 228.807 40.4563 229.095 40.2003C228.855 40.2003 228.543 40.2083 228.159 40.2243C227.775 40.2403 227.351 40.2563 226.887 40.2723C226.439 40.2883 225.983 40.3043 225.519 40.3203C225.071 40.3363 224.647 40.3603 224.247 40.3923C223.863 40.4083 223.543 40.4243 223.287 40.4403C222.967 40.4563 222.631 40.4803 222.279 40.5123C221.927 40.5443 221.607 40.5843 221.319 40.6323L221.223 37.5123Z" fill="#494949"/>
<path d="M215.346 54.5522C214.786 55.0642 214.138 55.4882 213.402 55.8242C212.666 56.1602 211.81 56.3282 210.834 56.3282C209.938 56.3282 209.21 56.0162 208.65 55.3922C208.106 54.7682 207.834 53.8722 207.834 52.7042C207.834 52.0642 207.874 51.3762 207.954 50.6402C208.05 49.8882 208.154 49.1362 208.266 48.3842C208.378 47.6322 208.474 46.9202 208.554 46.2482C208.65 45.5602 208.698 44.9442 208.698 44.4002C208.698 43.8082 208.554 43.3682 208.266 43.0802C207.978 42.7762 207.578 42.6242 207.066 42.6242C206.506 42.6242 205.882 42.8242 205.194 43.2242C204.506 43.6082 203.802 44.1042 203.082 44.7122C202.362 45.3202 201.674 45.9682 201.018 46.6562C200.378 47.3442 199.818 48.0002 199.338 48.6242L199.314 44.9282C199.602 44.6082 199.978 44.2322 200.442 43.8002C200.922 43.3682 201.458 42.9202 202.05 42.4562C202.658 41.9922 203.29 41.5602 203.946 41.1602C204.618 40.7442 205.29 40.4082 205.962 40.1522C206.65 39.8962 207.314 39.7682 207.954 39.7682C208.818 39.7682 209.522 39.9282 210.066 40.2482C210.626 40.5522 211.042 40.9762 211.314 41.5202C211.586 42.0482 211.722 42.6482 211.722 43.3202C211.722 43.9442 211.682 44.6242 211.602 45.3602C211.522 46.0802 211.426 46.8162 211.314 47.5682C211.202 48.3202 211.106 49.0642 211.026 49.8002C210.962 50.5362 210.93 51.2082 210.93 51.8162C210.93 52.1362 211.01 52.4002 211.17 52.6082C211.33 52.8002 211.554 52.8962 211.842 52.8962C212.29 52.8962 212.786 52.7522 213.33 52.4642C213.874 52.1602 214.418 51.7282 214.962 51.1682L215.346 54.5522ZM198.762 43.1042C198.506 43.1362 198.178 43.1762 197.778 43.2242C197.378 43.2722 196.946 43.3282 196.482 43.3922C196.034 43.4562 195.578 43.5202 195.114 43.5842C194.65 43.6482 194.218 43.7042 193.818 43.7522L193.506 40.6802C193.858 40.6962 194.186 40.7042 194.49 40.7042C194.81 40.6882 195.178 40.6722 195.594 40.6562C195.978 40.6242 196.434 40.5842 196.962 40.5362C197.506 40.4722 198.05 40.4002 198.594 40.3202C199.154 40.2402 199.674 40.1522 200.154 40.0562C200.634 39.9602 201.01 39.8642 201.282 39.7682L202.242 40.9922C202.098 41.1842 201.93 41.4242 201.738 41.7122C201.562 42.0002 201.378 42.2962 201.186 42.6002C200.994 42.8882 200.826 43.1442 200.682 43.3682L199.266 47.8802C199.01 48.2482 198.69 48.7122 198.306 49.2722C197.938 49.8322 197.546 50.4242 197.13 51.0482C196.714 51.6722 196.306 52.2722 195.906 52.8482C195.506 53.4242 195.146 53.9282 194.826 54.3602L192.93 51.7442C193.234 51.3602 193.578 50.9202 193.962 50.4242C194.362 49.9122 194.778 49.3762 195.21 48.8162C195.642 48.2402 196.066 47.6722 196.482 47.1122C196.898 46.5362 197.282 46.0002 197.634 45.5042C198.002 44.9922 198.306 44.5522 198.546 44.1842L198.594 43.5602L198.762 43.1042ZM198.474 38.4962C198.474 38.1442 198.474 37.7922 198.474 37.4402C198.474 37.0722 198.442 36.7042 198.378 36.3362L201.882 36.4562C201.786 36.8242 201.682 37.3602 201.57 38.0642C201.474 38.7522 201.37 39.5442 201.258 40.4402C201.162 41.3362 201.066 42.2802 200.97 43.2722C200.89 44.2482 200.818 45.2242 200.754 46.2002C200.706 47.1762 200.682 48.0882 200.682 48.9362C200.682 49.5922 200.682 50.2562 200.682 50.9282C200.698 51.6002 200.714 52.2882 200.73 52.9922C200.746 53.6962 200.778 54.4242 200.826 55.1762C200.842 55.3842 200.866 55.6722 200.898 56.0402C200.93 56.4242 200.962 56.7522 200.994 57.0242H197.682C197.714 56.7362 197.73 56.4162 197.73 56.0642C197.746 55.7122 197.754 55.4402 197.754 55.2482C197.77 54.4642 197.786 53.7362 197.802 53.0642C197.818 52.3922 197.826 51.6802 197.826 50.9282C197.842 50.1762 197.866 49.3042 197.898 48.3122C197.914 47.9442 197.938 47.4802 197.97 46.9202C198.002 46.3442 198.034 45.7202 198.066 45.0482C198.114 44.3602 198.162 43.6642 198.21 42.9602C198.258 42.2562 198.298 41.6002 198.33 40.9922C198.378 40.3682 198.41 39.8402 198.426 39.4082C198.458 38.9602 198.474 38.6562 198.474 38.4962Z" fill="#494949"/>
<path d="M180.398 38.4963H188.582V41.3043H180.398V38.4963ZM168.974 36.7683H181.094V39.4323H168.974V36.7683ZM172.142 41.7123H177.902V44.2803H172.142V41.7123ZM172.142 46.7043H177.902V49.2723H172.142V46.7043ZM187.79 38.4963H188.294L188.798 38.4003L190.67 38.8803C190.366 42.1283 189.806 44.9603 188.99 47.3763C188.19 49.7923 187.142 51.8563 185.846 53.5683C184.55 55.2803 182.99 56.6883 181.166 57.7923C180.958 57.4243 180.67 57.0003 180.302 56.5203C179.95 56.0563 179.614 55.6963 179.294 55.4403C180.894 54.5923 182.278 53.4003 183.446 51.8643C184.614 50.3123 185.566 48.4643 186.302 46.3203C187.054 44.1603 187.55 41.7603 187.79 39.1203V38.4963ZM183.23 41.3763C183.614 43.4403 184.166 45.3843 184.886 47.2083C185.606 49.0323 186.518 50.6483 187.622 52.0563C188.726 53.4643 190.046 54.5843 191.582 55.4163C191.374 55.5923 191.134 55.8163 190.862 56.0883C190.606 56.3763 190.366 56.6643 190.142 56.9523C189.918 57.2563 189.734 57.5363 189.59 57.7923C187.91 56.7683 186.478 55.4803 185.294 53.9283C184.126 52.3763 183.158 50.5843 182.39 48.5523C181.622 46.5203 180.982 44.3043 180.47 41.9043L183.23 41.3763ZM170.63 37.8483H173.366V53.5443H170.63V37.8483ZM176.798 37.8483H179.558V57.9363H176.798V37.8483ZM168.398 52.4883C169.198 52.4083 170.102 52.3043 171.11 52.1763C172.134 52.0483 173.214 51.9043 174.35 51.7443C175.502 51.5843 176.638 51.4243 177.758 51.2643L177.902 53.9043C176.35 54.1763 174.782 54.4403 173.198 54.6963C171.614 54.9363 170.198 55.1603 168.95 55.3683L168.398 52.4883Z" fill="#494949"/>
<path d="M162.611 36.7202C162.579 36.9762 162.555 37.2482 162.539 37.5362C162.523 37.8082 162.507 38.0802 162.491 38.3522C162.475 38.5762 162.467 38.9202 162.467 39.3842C162.483 39.8322 162.491 40.3442 162.491 40.9202C162.491 41.4802 162.491 42.0562 162.491 42.6482C162.491 43.2242 162.491 43.7602 162.491 44.2562C162.507 44.7522 162.515 45.1362 162.515 45.4082C162.515 46.8322 162.459 48.1282 162.347 49.2962C162.251 50.4482 162.027 51.5122 161.675 52.4882C161.339 53.4642 160.819 54.3682 160.115 55.2002C159.427 56.0322 158.483 56.8322 157.283 57.6002L154.523 55.4162C154.971 55.2242 155.467 54.9522 156.011 54.6002C156.555 54.2322 156.987 53.8642 157.307 53.4962C157.771 53.0162 158.147 52.5122 158.435 51.9842C158.723 51.4562 158.947 50.8722 159.107 50.2322C159.283 49.5922 159.395 48.8802 159.443 48.0962C159.507 47.3122 159.539 46.4082 159.539 45.3842C159.539 44.9522 159.539 44.4082 159.539 43.7522C159.539 43.0962 159.531 42.4162 159.515 41.7122C159.499 41.0082 159.483 40.3602 159.467 39.7682C159.451 39.1602 159.427 38.6962 159.395 38.3762C159.379 38.0722 159.339 37.7682 159.275 37.4642C159.227 37.1602 159.179 36.9122 159.131 36.7202H162.611ZM153.155 41.4002C153.539 41.4482 153.931 41.4962 154.331 41.5442C154.731 41.5762 155.131 41.6082 155.531 41.6402C155.947 41.6562 156.363 41.6642 156.779 41.6642C157.819 41.6642 158.907 41.6402 160.043 41.5922C161.179 41.5442 162.275 41.4722 163.331 41.3762C164.387 41.2642 165.307 41.1362 166.091 40.9922L166.067 44.1122C165.315 44.1922 164.427 44.2722 163.403 44.3522C162.379 44.4162 161.299 44.4722 160.163 44.5202C159.043 44.5522 157.939 44.5682 156.851 44.5682C156.515 44.5682 156.131 44.5602 155.699 44.5442C155.267 44.5282 154.835 44.5122 154.403 44.4962C153.971 44.4802 153.555 44.4642 153.155 44.4482V41.4002ZM150.683 37.1282C150.587 37.4162 150.483 37.7522 150.371 38.1362C150.259 38.5042 150.171 38.8162 150.107 39.0722C149.963 39.7282 149.811 40.5202 149.651 41.4482C149.491 42.3602 149.355 43.3122 149.243 44.3042C149.131 45.2962 149.075 46.2722 149.075 47.2322C149.075 48.1762 149.155 49.0162 149.315 49.7522C149.475 49.3842 149.659 48.9442 149.867 48.4322C150.075 47.9042 150.275 47.4162 150.467 46.9682L151.955 47.9282C151.731 48.6162 151.507 49.3282 151.283 50.0642C151.075 50.7842 150.891 51.4722 150.731 52.1282C150.571 52.7682 150.435 53.3202 150.323 53.7842C150.275 53.9602 150.235 54.1682 150.203 54.4082C150.187 54.6322 150.179 54.8162 150.179 54.9602C150.179 55.0722 150.179 55.2242 150.179 55.4162C150.195 55.6082 150.211 55.7842 150.227 55.9442L147.563 56.2082C147.387 55.7282 147.187 55.0722 146.963 54.2402C146.755 53.3922 146.571 52.4642 146.411 51.4562C146.267 50.4322 146.195 49.4242 146.195 48.4322C146.195 47.1202 146.235 45.8562 146.315 44.6402C146.411 43.4242 146.523 42.3202 146.651 41.3282C146.779 40.3202 146.883 39.4962 146.963 38.8562C147.027 38.5202 147.067 38.1682 147.083 37.8002C147.099 37.4162 147.115 37.0722 147.131 36.7682L150.683 37.1282Z" fill="#494949"/>
<path d="M121.427 42.2883H142.475V47.5443H139.667V44.7843H124.139V47.5443H121.427V42.2883ZM124.907 46.6323H137.555V49.2963H124.907V46.6323ZM139.667 35.2803L141.611 37.6083C140.251 37.8643 138.779 38.0963 137.195 38.3043C135.627 38.4963 133.995 38.6643 132.299 38.8083C130.619 38.9523 128.931 39.0723 127.235 39.1683C125.539 39.2643 123.891 39.3283 122.291 39.3603C122.275 39.0083 122.195 38.5923 122.051 38.1123C121.923 37.6323 121.795 37.2323 121.667 36.9123C123.251 36.8643 124.867 36.7923 126.515 36.6963C128.179 36.6003 129.803 36.4883 131.387 36.3603C132.987 36.2163 134.491 36.0563 135.899 35.8803C137.307 35.6883 138.563 35.4883 139.667 35.2803ZM123.779 39.8163L126.275 39.1203C126.563 39.5523 126.835 40.0323 127.091 40.5603C127.363 41.0883 127.555 41.5523 127.667 41.9523L125.003 42.7203C124.923 42.3203 124.763 41.8483 124.523 41.3043C124.283 40.7603 124.035 40.2643 123.779 39.8163ZM130.115 39.3123L132.659 38.7363C132.899 39.2323 133.123 39.7683 133.331 40.3443C133.555 40.9203 133.699 41.4243 133.763 41.8563L131.051 42.5283C131.003 42.0963 130.883 41.5763 130.691 40.9683C130.515 40.3603 130.323 39.8083 130.115 39.3123ZM137.723 38.6883L140.771 39.4083C140.499 39.9203 140.219 40.4243 139.931 40.9203C139.643 41.4163 139.355 41.8883 139.067 42.3363C138.779 42.7683 138.515 43.1523 138.275 43.4883L135.899 42.8163C136.123 42.4163 136.347 41.9843 136.571 41.5203C136.811 41.0403 137.027 40.5523 137.219 40.0563C137.427 39.5603 137.595 39.1043 137.723 38.6883ZM136.499 46.6323H137.099L137.603 46.5363L139.571 47.7123C138.851 49.2803 137.915 50.6403 136.763 51.7923C135.627 52.9283 134.315 53.8883 132.827 54.6723C131.339 55.4563 129.723 56.0963 127.979 56.5923C126.251 57.0883 124.443 57.4643 122.555 57.7203C122.459 57.4803 122.315 57.1923 122.123 56.8563C121.931 56.5363 121.723 56.2163 121.499 55.8963C121.275 55.5923 121.067 55.3443 120.875 55.1523C122.715 54.9603 124.467 54.6723 126.131 54.2883C127.795 53.9043 129.307 53.4003 130.667 52.7763C132.027 52.1363 133.203 51.3523 134.195 50.4243C135.187 49.4963 135.955 48.3923 136.499 47.1123V46.6323ZM127.763 48.6003C128.659 49.8003 129.843 50.8403 131.315 51.7203C132.803 52.5843 134.523 53.2883 136.475 53.8323C138.443 54.3763 140.595 54.7523 142.931 54.9603C142.723 55.1683 142.507 55.4403 142.283 55.7763C142.059 56.1123 141.843 56.4403 141.635 56.7603C141.443 57.0963 141.283 57.4003 141.155 57.6723C138.755 57.3683 136.563 56.8803 134.579 56.2083C132.595 55.5363 130.819 54.6563 129.251 53.5683C127.683 52.4643 126.347 51.1443 125.243 49.6083L127.763 48.6003Z" fill="#494949"/>
<path d="M112.039 47.8003V45.8995H114.329V39.4915H112.37V38.0371C112.927 37.9411 113.402 37.8211 113.796 37.6771C114.199 37.5235 114.578 37.3315 114.933 37.1011H116.661V45.8995H118.634V47.8003H112.039Z" fill="#494949"/>
<path d="M102.656 36.9715L103.909 35.5027C104.293 35.6755 104.705 35.8867 105.147 36.1363C105.589 36.3763 106.006 36.6259 106.4 36.8851C106.793 37.1443 107.115 37.3939 107.365 37.6339L105.982 39.2755C105.761 39.0355 105.464 38.7763 105.089 38.4979C104.725 38.2195 104.326 37.9507 103.894 37.6915C103.462 37.4227 103.049 37.1827 102.656 36.9715ZM101.806 42.6451H109.237V44.4739H101.806V42.6451ZM100.769 46.8499H110.072V48.6643H100.769V46.8499ZM101.288 38.6707H109.769V40.4851H101.288V38.6707ZM104.456 39.2755H106.457V47.6563H104.456V39.2755ZM97.4143 36.9859L98.4511 35.5891C98.7583 35.6947 99.0847 35.8291 99.4303 35.9923C99.7759 36.1555 100.107 36.3283 100.424 36.5107C100.741 36.6931 101 36.8707 101.201 37.0435L100.078 38.5987C99.8959 38.4259 99.6511 38.2435 99.3439 38.0515C99.0463 37.8499 98.7247 37.6579 98.3791 37.4755C98.0431 37.2835 97.7215 37.1203 97.4143 36.9859ZM96.4062 40.9027L97.3999 39.4627C97.7071 39.5683 98.0383 39.6979 98.3935 39.8515C98.7487 40.0051 99.0847 40.1683 99.4015 40.3411C99.7279 40.5139 99.9967 40.6819 100.208 40.8451L99.1423 42.4435C98.9599 42.2707 98.7103 42.0931 98.3935 41.9107C98.0863 41.7283 97.7551 41.5459 97.3999 41.3635C97.0543 41.1811 96.7231 41.0275 96.4062 40.9027ZM97.0543 47.6707C97.3135 47.3155 97.5967 46.8931 97.9039 46.4035C98.2207 45.9139 98.5423 45.3907 98.8687 44.8339C99.1951 44.2675 99.5023 43.7107 99.7903 43.1635L101.187 44.4307C100.937 44.9299 100.669 45.4387 100.381 45.9571C100.102 46.4755 99.8191 46.9891 99.5311 47.4979C99.2527 47.9971 98.9647 48.4867 98.6671 48.9667L97.0543 47.6707Z" fill="#494949"/>
<path d="M83.3103 36.5763C83.2143 37.0083 83.1343 37.3923 83.0703 37.7283C83.0063 38.0643 82.9503 38.3923 82.9023 38.7123C82.8383 39.0483 82.7583 39.5363 82.6623 40.1763C82.5823 40.8003 82.4863 41.5123 82.3743 42.3123C82.2783 43.0963 82.1743 43.9203 82.0623 44.7843C81.9663 45.6323 81.8703 46.4643 81.7743 47.2803C81.6783 48.0963 81.5983 48.8403 81.5343 49.5123C81.4863 50.1843 81.4623 50.7203 81.4623 51.1203C81.4623 52.1123 81.7583 52.8723 82.3503 53.4003C82.9583 53.9123 83.8543 54.1683 85.0383 54.1683C86.1583 54.1683 87.1023 54.0163 87.8703 53.7123C88.6383 53.3923 89.2223 52.9683 89.6223 52.4403C90.0223 51.9123 90.2223 51.3203 90.2223 50.6643C90.2223 49.8483 90.0063 49.0563 89.5743 48.2883C89.1583 47.5043 88.5503 46.7443 87.7503 46.0083L91.1343 45.2883C91.9343 46.2963 92.5183 47.2563 92.8863 48.1683C93.2703 49.0643 93.4623 50.0243 93.4623 51.0483C93.4623 52.2483 93.1183 53.3203 92.4303 54.2643C91.7423 55.2083 90.7583 55.9443 89.4783 56.4723C88.2143 57.0003 86.7023 57.2643 84.9423 57.2643C83.6943 57.2643 82.5823 57.0723 81.6063 56.6883C80.6303 56.3043 79.8703 55.6963 79.3263 54.8643C78.7823 54.0323 78.5103 52.9523 78.5103 51.6243C78.5103 51.1283 78.5503 50.4723 78.6303 49.6563C78.7103 48.8243 78.8063 47.9123 78.9183 46.9203C79.0463 45.9123 79.1743 44.8963 79.3023 43.8723C79.4303 42.8323 79.5423 41.8483 79.6383 40.9203C79.7503 39.9923 79.8383 39.1923 79.9023 38.5203C79.9343 37.9603 79.9503 37.5363 79.9503 37.2483C79.9663 36.9443 79.9583 36.6563 79.9263 36.3843L83.3103 36.5763ZM74.7423 39.5523C75.4623 39.7763 76.2463 39.9683 77.0943 40.1283C77.9423 40.2723 78.8143 40.3843 79.7103 40.4643C80.6063 40.5283 81.4543 40.5603 82.2543 40.5603C83.1983 40.5603 84.0783 40.5283 84.8943 40.4643C85.7103 40.4003 86.4223 40.3203 87.0303 40.2243L86.9343 43.0803C86.2143 43.1443 85.4943 43.2003 84.7743 43.2483C84.0543 43.2963 83.1903 43.3203 82.1823 43.3203C81.3663 43.3203 80.5183 43.2803 79.6383 43.2003C78.7583 43.1043 77.8863 42.9843 77.0223 42.8403C76.1583 42.6803 75.3503 42.5043 74.5983 42.3123L74.7423 39.5523ZM74.2383 45.5043C75.1023 45.7923 75.9743 46.0163 76.8543 46.1763C77.7503 46.3363 78.6303 46.4483 79.4943 46.5123C80.3743 46.5603 81.2143 46.5843 82.0143 46.5843C82.7503 46.5843 83.5423 46.5603 84.3903 46.5123C85.2543 46.4643 86.0703 46.3923 86.8383 46.2963L86.7663 49.1523C86.0943 49.2163 85.4063 49.2723 84.7023 49.3203C83.9983 49.3523 83.2703 49.3683 82.5183 49.3683C80.9183 49.3683 79.3823 49.2883 77.9103 49.1283C76.4383 48.9523 75.1583 48.7123 74.0703 48.4083L74.2383 45.5043Z" fill="#004898"/>
<path d="M49.7109 39.3362C50.1909 39.3202 50.6469 39.3042 51.0789 39.2882C51.5109 39.2562 51.8389 39.2322 52.0629 39.2162C52.5589 39.1842 53.1669 39.1362 53.8869 39.0722C54.6229 38.9922 55.4389 38.9122 56.3349 38.8322C57.2469 38.7522 58.2149 38.6722 59.2389 38.5922C60.2629 38.5122 61.3269 38.4242 62.4309 38.3282C63.2629 38.2482 64.0869 38.1842 64.9029 38.1362C65.7349 38.0722 66.5189 38.0242 67.2549 37.9922C68.0069 37.9442 68.6629 37.9122 69.2229 37.8962L69.2469 40.9682C68.8149 40.9682 68.3189 40.9762 67.7589 40.9922C67.1989 41.0082 66.6389 41.0402 66.0789 41.0882C65.5349 41.1202 65.0469 41.1922 64.6149 41.3042C63.8949 41.4962 63.2229 41.8242 62.5989 42.2882C61.9749 42.7362 61.4309 43.2722 60.9669 43.8962C60.5189 44.5042 60.1669 45.1682 59.9109 45.8882C59.6549 46.5922 59.5269 47.3042 59.5269 48.0242C59.5269 48.8082 59.6629 49.5042 59.9349 50.1122C60.2229 50.7042 60.6069 51.2162 61.0869 51.6482C61.5829 52.0642 62.1589 52.4162 62.8149 52.7042C63.4709 52.9762 64.1749 53.1842 64.9269 53.3282C65.6949 53.4722 66.4869 53.5682 67.3029 53.6162L66.1749 56.9042C65.1669 56.8402 64.1829 56.6802 63.2229 56.4242C62.2789 56.1682 61.3909 55.8162 60.5589 55.3682C59.7269 54.9202 58.9989 54.3762 58.3749 53.7362C57.7669 53.0802 57.2789 52.3362 56.9109 51.5042C56.5589 50.6562 56.3829 49.7122 56.3829 48.6722C56.3829 47.5202 56.5669 46.4642 56.9349 45.5042C57.3029 44.5282 57.7589 43.6802 58.3029 42.9602C58.8629 42.2242 59.4149 41.6562 59.9589 41.2562C59.5109 41.3202 58.9669 41.3842 58.3269 41.4482C57.7029 41.5122 57.0229 41.5922 56.2869 41.6882C55.5669 41.7682 54.8309 41.8562 54.0789 41.9522C53.3269 42.0482 52.5989 42.1602 51.8949 42.2882C51.2069 42.4002 50.5829 42.5122 50.0229 42.6242L49.7109 39.3362ZM65.8149 43.3202C66.0229 43.6082 66.2389 43.9522 66.4629 44.3522C66.7029 44.7362 66.9349 45.1282 67.1589 45.5282C67.3829 45.9122 67.5749 46.2642 67.7349 46.5842L65.9109 47.4002C65.6069 46.7282 65.3109 46.1362 65.0229 45.6242C64.7509 45.1122 64.4229 44.5922 64.0389 44.0642L65.8149 43.3202ZM68.5029 42.2162C68.7109 42.5042 68.9349 42.8402 69.1749 43.2242C69.4309 43.5922 69.6789 43.9762 69.9189 44.3762C70.1589 44.7602 70.3589 45.1042 70.5189 45.4082L68.7189 46.2722C68.3989 45.6322 68.0869 45.0642 67.7829 44.5682C67.4949 44.0722 67.1509 43.5602 66.7509 43.0322L68.5029 42.2162Z" fill="#004898"/>
<path d="M30.0825 42.1684H46.7385V44.4244H30.0825V42.1684ZM30.2505 49.1524H43.4265V51.4084H30.2505V49.1524ZM33.3225 40.5844H36.0345V46.0324H40.4505V40.5844H43.2585V48.1924H33.3225V40.5844ZM42.7065 49.1524H43.2585L43.7625 49.0564L45.5625 49.9684C44.9225 51.2644 44.0825 52.3764 43.0425 53.3044C42.0185 54.2164 40.8425 54.9844 39.5145 55.6084C38.2025 56.2324 36.7785 56.7284 35.2425 57.0964C33.7065 57.4804 32.0985 57.7844 30.4185 58.0084C30.3065 57.6404 30.1305 57.2164 29.8905 56.7364C29.6665 56.2724 29.4425 55.8884 29.2185 55.5844C30.7385 55.4564 32.2025 55.2484 33.6105 54.9604C35.0345 54.6724 36.3385 54.2884 37.5225 53.8084C38.7065 53.3284 39.7385 52.7364 40.6185 52.0324C41.5145 51.3124 42.2105 50.4804 42.7065 49.5364V49.1524ZM35.1945 50.9284C35.9145 51.8244 36.8745 52.5924 38.0745 53.2324C39.2745 53.8564 40.6585 54.3604 42.2265 54.7444C43.7945 55.1284 45.5065 55.4004 47.3625 55.5604C47.1545 55.7524 46.9385 55.9924 46.7145 56.2804C46.5065 56.5844 46.3065 56.8884 46.1145 57.1924C45.9385 57.4964 45.7865 57.7764 45.6585 58.0324C43.7225 57.7764 41.9465 57.3924 40.3305 56.8804C38.7145 56.3684 37.2665 55.6964 35.9865 54.8644C34.7065 54.0164 33.6185 53.0004 32.7225 51.8164L35.1945 50.9284ZM35.3145 35.4004H38.3145V39.0244H35.3145V35.4004ZM28.1145 37.5844H46.8825V40.1524H28.1145V37.5844ZM26.7225 37.5844H29.4825V44.3284C29.4825 45.3204 29.4505 46.4004 29.3865 47.5684C29.3225 48.7364 29.2025 49.9364 29.0265 51.1684C28.8505 52.4004 28.5865 53.6004 28.2345 54.7684C27.8985 55.9204 27.4585 56.9604 26.9145 57.8884C26.7545 57.7284 26.5305 57.5364 26.2425 57.3124C25.9545 57.1044 25.6585 56.9044 25.3545 56.7124C25.0505 56.5204 24.7865 56.3844 24.5625 56.3044C25.0585 55.4564 25.4505 54.5204 25.7385 53.4964C26.0265 52.4724 26.2425 51.4324 26.3865 50.3764C26.5305 49.3044 26.6185 48.2484 26.6505 47.2084C26.6985 46.1684 26.7225 45.2084 26.7225 44.3284V37.5844Z" fill="#004898"/>
<path d="M8.48081 37.4882H23.3608V40.2242H8.48081V37.4882ZM19.0168 38.4722H21.8968V54.5522C21.8968 55.3682 21.7928 56.0002 21.5848 56.4482C21.3928 56.8962 21.0408 57.2322 20.5288 57.4562C20.0008 57.6642 19.3288 57.8002 18.5128 57.8642C17.6968 57.9442 16.7288 57.9762 15.6088 57.9602C15.5608 57.5602 15.4408 57.0722 15.2488 56.4962C15.0568 55.9362 14.8568 55.4482 14.6488 55.0322C15.1768 55.0482 15.6888 55.0642 16.1848 55.0802C16.6968 55.0962 17.1448 55.1042 17.5288 55.1042C17.9288 55.1042 18.2088 55.1042 18.3688 55.1042C18.6088 55.1042 18.7768 55.0642 18.8728 54.9842C18.9688 54.8882 19.0168 54.7362 19.0168 54.5282V38.4722ZM8.76881 42.8402H11.4808V53.1362H8.76881V42.8402ZM9.94481 42.8402H16.8088V51.5762H9.94481V49.0802H14.1448V45.3122H9.94481V42.8402ZM6.00881 35.3762L8.72081 36.2402C8.20881 37.5682 7.60881 38.9122 6.92081 40.2722C6.23281 41.6322 5.48081 42.9122 4.66481 44.1122C3.86481 45.3122 3.03281 46.3682 2.16881 47.2802C2.07281 47.0402 1.93681 46.7362 1.76081 46.3682C1.58481 45.9842 1.39281 45.6002 1.18481 45.2162C0.976813 44.8162 0.792813 44.5042 0.632812 44.2802C1.35281 43.5602 2.04081 42.7282 2.69681 41.7842C3.36881 40.8242 3.99281 39.8002 4.56881 38.7122C5.14481 37.6082 5.62481 36.4962 6.00881 35.3762ZM3.84881 42.1202L6.70481 39.2402L6.72881 39.2642V57.8882H3.84881V42.1202Z" fill="#004898"/>
<path d="M202.749 4.02417C203.485 4.12017 204.309 4.19217 205.221 4.24017C206.149 4.27217 207.085 4.28817 208.029 4.28817C208.989 4.27217 209.909 4.24017 210.789 4.19217C211.669 4.12817 212.429 4.06417 213.069 4.00017V7.09617C212.333 7.16017 211.525 7.21617 210.645 7.26417C209.765 7.29617 208.861 7.31217 207.933 7.31217C207.005 7.31217 206.093 7.29617 205.197 7.26417C204.317 7.21617 203.501 7.16017 202.749 7.09617V4.02417ZM204.669 14.2722C204.573 14.6722 204.501 15.0322 204.453 15.3522C204.405 15.6562 204.381 15.9682 204.381 16.2882C204.381 16.5442 204.445 16.7842 204.573 17.0082C204.701 17.2162 204.893 17.4002 205.149 17.5602C205.421 17.7042 205.765 17.8162 206.181 17.8962C206.613 17.9602 207.133 17.9922 207.741 17.9922C208.813 17.9922 209.821 17.9442 210.765 17.8482C211.709 17.7362 212.709 17.5762 213.765 17.3682L213.813 20.6082C213.045 20.7522 212.157 20.8642 211.149 20.9442C210.157 21.0242 208.981 21.0642 207.621 21.0642C205.557 21.0642 204.021 20.7202 203.013 20.0322C202.005 19.3282 201.501 18.3602 201.501 17.1282C201.501 16.6642 201.533 16.1842 201.597 15.6882C201.677 15.1762 201.781 14.6162 201.909 14.0082L204.669 14.2722ZM199.053 2.41617C198.989 2.57617 198.917 2.80017 198.837 3.08817C198.757 3.37617 198.677 3.65617 198.597 3.92817C198.533 4.20017 198.485 4.40817 198.453 4.55217C198.405 4.88817 198.325 5.32817 198.213 5.87217C198.117 6.40017 198.013 7.00017 197.901 7.67217C197.805 8.32817 197.709 9.00017 197.613 9.68817C197.517 10.3762 197.437 11.0402 197.373 11.6802C197.325 12.3202 197.301 12.8802 197.301 13.3602C197.301 13.5842 197.301 13.8402 197.301 14.1282C197.317 14.4162 197.349 14.6802 197.397 14.9202C197.509 14.6482 197.629 14.3762 197.757 14.1042C197.885 13.8322 198.013 13.5602 198.141 13.2882C198.269 13.0002 198.381 12.7282 198.477 12.4722L199.965 13.6482C199.741 14.3042 199.509 15.0082 199.269 15.7602C199.045 16.5122 198.837 17.2242 198.645 17.8962C198.469 18.5522 198.333 19.0962 198.237 19.5282C198.205 19.7042 198.173 19.9042 198.141 20.1282C198.125 20.3522 198.117 20.5282 198.117 20.6562C198.117 20.7842 198.117 20.9362 198.117 21.1122C198.133 21.3042 198.149 21.4802 198.165 21.6402L195.381 21.8322C195.141 21.0002 194.925 19.8962 194.733 18.5202C194.541 17.1282 194.445 15.6162 194.445 13.9842C194.445 13.0882 194.485 12.1762 194.565 11.2482C194.645 10.3202 194.741 9.43217 194.853 8.58418C194.965 7.72017 195.069 6.93617 195.165 6.23217C195.277 5.52817 195.373 4.94417 195.453 4.48018C195.485 4.14417 195.525 3.76817 195.573 3.35217C195.637 2.92017 195.677 2.51217 195.693 2.12817L199.053 2.41617Z" fill="#494949"/>
<path d="M185.378 2.82429C185.49 3.57629 185.65 4.37629 185.858 5.22429C186.082 6.05629 186.378 6.91229 186.746 7.79229C187.13 8.67229 187.626 9.55229 188.234 10.4323C188.842 11.3123 189.602 12.1763 190.514 13.0243L188.57 15.7843C187.69 14.8083 186.882 13.7203 186.146 12.5203C185.426 11.3043 184.754 9.96029 184.13 8.48829C183.506 7.01629 182.914 5.40829 182.354 3.66429L185.378 2.82429ZM169.586 4.02429C170.018 4.05629 170.466 4.05629 170.93 4.02429C171.506 3.99229 172.162 3.94429 172.898 3.88029C173.634 3.80029 174.378 3.71229 175.13 3.61629C175.882 3.50429 176.578 3.38429 177.218 3.25629C177.858 3.11229 178.378 2.96829 178.778 2.82429L179.69 5.48829C179.514 5.55229 179.314 5.63229 179.09 5.72829C178.866 5.80829 178.658 5.90429 178.466 6.01629C178.146 6.25629 177.77 6.60029 177.338 7.04829C176.922 7.48029 176.49 7.99229 176.042 8.58429C175.61 9.17629 175.21 9.84029 174.842 10.5763C174.474 11.2963 174.17 12.0803 173.93 12.9283C173.706 13.7603 173.594 14.6403 173.594 15.5683C173.594 16.2723 173.698 16.8723 173.906 17.3683C174.13 17.8643 174.426 18.2643 174.794 18.5683C175.162 18.8723 175.602 19.1043 176.114 19.2643C176.626 19.4083 177.162 19.4803 177.722 19.4803C179.546 19.4803 180.938 18.8563 181.898 17.6083C182.874 16.3603 183.418 14.6003 183.53 12.3283C183.658 10.0403 183.37 7.37629 182.666 4.33629L185.474 8.92029C185.73 10.2163 185.874 11.5203 185.906 12.8323C185.954 14.1283 185.85 15.3683 185.594 16.5523C185.338 17.7363 184.89 18.7923 184.25 19.7203C183.61 20.6483 182.746 21.3763 181.658 21.9043C180.586 22.4323 179.258 22.6963 177.674 22.6963C176.698 22.6963 175.778 22.5603 174.914 22.2883C174.066 22.0323 173.306 21.6323 172.634 21.0883C171.978 20.5603 171.458 19.8963 171.074 19.0963C170.706 18.2803 170.522 17.3283 170.522 16.2403C170.522 15.2643 170.618 14.3443 170.81 13.4803C171.002 12.6163 171.266 11.8003 171.602 11.0323C171.954 10.2483 172.362 9.48829 172.826 8.75229C173.306 8.01629 173.818 7.28829 174.362 6.56829C174.074 6.58429 173.722 6.61629 173.306 6.66429C172.906 6.71229 172.514 6.76029 172.13 6.80829C171.762 6.85629 171.458 6.89629 171.218 6.92829C170.978 6.96029 170.746 6.99229 170.522 7.02429C170.314 7.05629 170.074 7.09629 169.802 7.14429L169.586 4.02429ZM187.538 1.50429C187.682 1.82429 187.842 2.19229 188.018 2.60829C188.194 3.02429 188.362 3.44029 188.522 3.85629C188.682 4.25629 188.818 4.62429 188.93 4.96029L187.13 5.56029C187.002 5.17629 186.858 4.78429 186.698 4.38429C186.554 3.96829 186.402 3.56029 186.242 3.16029C186.082 2.76029 185.914 2.39229 185.738 2.05629L187.538 1.50429ZM190.106 0.592285C190.378 1.08829 190.642 1.67229 190.898 2.34429C191.17 3.00029 191.402 3.56829 191.594 4.04829L189.794 4.64829C189.602 4.10429 189.378 3.52029 189.122 2.89629C188.882 2.25629 188.634 1.68829 188.378 1.19229L190.106 0.592285Z" fill="#494949"/>
<path d="M155.373 1.64835C155.277 1.96835 155.181 2.36035 155.085 2.82435C154.989 3.28835 154.917 3.64835 154.869 3.90435C154.757 4.44835 154.613 5.11235 154.437 5.89635C154.277 6.68035 154.093 7.51235 153.885 8.39235C153.693 9.27235 153.493 10.1124 153.285 10.9124C153.077 11.7604 152.821 12.6804 152.517 13.6724C152.213 14.6484 151.885 15.6484 151.533 16.6724C151.197 17.6804 150.853 18.6484 150.501 19.5764C150.149 20.4884 149.805 21.3044 149.469 22.0244L146.133 20.8964C146.485 20.2884 146.861 19.5524 147.261 18.6884C147.661 17.8084 148.045 16.8644 148.413 15.8564C148.797 14.8484 149.149 13.8484 149.469 12.8564C149.789 11.8644 150.061 10.9444 150.285 10.0964C150.445 9.53635 150.597 8.96035 150.741 8.36835C150.885 7.77635 151.013 7.20035 151.125 6.64035C151.237 6.08035 151.333 5.56035 151.413 5.08035C151.509 4.58435 151.581 4.15235 151.629 3.78435C151.677 3.33635 151.709 2.88835 151.725 2.44035C151.741 1.99235 151.733 1.63235 151.701 1.36035L155.373 1.64835ZM149.253 5.22435C150.229 5.22435 151.245 5.17635 152.301 5.08035C153.357 4.98435 154.421 4.84835 155.493 4.67235C156.565 4.49635 157.629 4.28835 158.685 4.04835V7.04835C157.693 7.27235 156.637 7.46435 155.517 7.62435C154.397 7.78435 153.293 7.91235 152.205 8.00835C151.117 8.08835 150.117 8.12835 149.205 8.12835C148.629 8.12835 148.109 8.12035 147.645 8.10435C147.181 8.07235 146.733 8.04835 146.301 8.03235L146.229 5.03235C146.853 5.09635 147.389 5.14435 147.837 5.17635C148.285 5.20835 148.757 5.22435 149.253 5.22435ZM156.789 8.89635C157.461 8.83235 158.205 8.77635 159.021 8.72835C159.837 8.68035 160.629 8.65635 161.397 8.65635C162.085 8.65635 162.781 8.67235 163.485 8.70435C164.205 8.73635 164.917 8.79235 165.621 8.87235L165.549 11.7524C164.957 11.6724 164.301 11.6084 163.581 11.5604C162.877 11.4964 162.157 11.4644 161.421 11.4644C160.605 11.4644 159.813 11.4884 159.045 11.5364C158.293 11.5684 157.541 11.6324 156.789 11.7284V8.89635ZM158.085 14.9444C157.989 15.2804 157.909 15.6324 157.845 16.0004C157.781 16.3524 157.749 16.6644 157.749 16.9364C157.749 17.1924 157.805 17.4324 157.917 17.6564C158.029 17.8804 158.205 18.0804 158.445 18.2564C158.685 18.4164 159.013 18.5444 159.429 18.6404C159.861 18.7364 160.397 18.7844 161.037 18.7844C161.853 18.7844 162.669 18.7444 163.485 18.6644C164.317 18.5684 165.165 18.4404 166.029 18.2804L165.909 21.3524C165.237 21.4324 164.493 21.5044 163.677 21.5684C162.861 21.6484 161.973 21.6884 161.013 21.6884C158.997 21.6884 157.453 21.3604 156.381 20.7044C155.325 20.0324 154.797 19.0884 154.797 17.8724C154.797 17.3284 154.845 16.7764 154.941 16.2164C155.037 15.6564 155.133 15.1364 155.229 14.6564L158.085 14.9444Z" fill="#494949"/>
<path d="M125.277 2.51234C125.613 2.56034 125.973 2.59234 126.357 2.60834C126.741 2.62434 127.109 2.63234 127.461 2.63234C127.717 2.63234 128.101 2.63234 128.613 2.63234C129.125 2.61634 129.701 2.60034 130.341 2.58434C130.997 2.56834 131.645 2.55234 132.285 2.53634C132.925 2.52034 133.501 2.50434 134.013 2.48834C134.541 2.45634 134.949 2.43234 135.237 2.41634C135.733 2.36834 136.125 2.32834 136.413 2.29634C136.701 2.24834 136.917 2.20034 137.061 2.15234L138.621 4.28834C138.349 4.46434 138.069 4.64034 137.781 4.81634C137.493 4.99234 137.213 5.18434 136.941 5.39234C136.621 5.61634 136.237 5.91234 135.789 6.28034C135.341 6.63234 134.861 7.00834 134.349 7.40834C133.853 7.80834 133.365 8.20034 132.885 8.58434C132.421 8.96834 131.997 9.31234 131.613 9.61634C132.013 9.52034 132.397 9.45634 132.765 9.42434C133.133 9.37634 133.509 9.35234 133.893 9.35234C135.253 9.35234 136.469 9.61634 137.541 10.1443C138.629 10.6723 139.485 11.3923 140.109 12.3043C140.749 13.2003 141.069 14.2323 141.069 15.4003C141.069 16.6643 140.749 17.8083 140.109 18.8323C139.469 19.8563 138.501 20.6723 137.205 21.2803C135.925 21.8883 134.317 22.1923 132.381 22.1923C131.277 22.1923 130.277 22.0323 129.381 21.7123C128.501 21.3923 127.805 20.9363 127.293 20.3443C126.781 19.7523 126.525 19.0563 126.525 18.2563C126.525 17.6003 126.701 16.9923 127.053 16.4323C127.421 15.8563 127.925 15.3923 128.565 15.0403C129.221 14.6883 129.973 14.5123 130.821 14.5123C131.925 14.5123 132.853 14.7363 133.605 15.1843C134.373 15.6163 134.957 16.2003 135.357 16.9363C135.773 17.6723 135.989 18.4803 136.005 19.3603L133.197 19.7443C133.181 18.8643 132.957 18.1603 132.525 17.6323C132.109 17.0883 131.549 16.8163 130.845 16.8163C130.397 16.8163 130.037 16.9363 129.765 17.1763C129.493 17.4003 129.357 17.6643 129.357 17.9683C129.357 18.4163 129.581 18.7763 130.029 19.0483C130.477 19.3203 131.061 19.4563 131.781 19.4563C133.141 19.4563 134.277 19.2963 135.189 18.9763C136.101 18.6403 136.781 18.1683 137.229 17.5603C137.693 16.9363 137.925 16.2003 137.925 15.3523C137.925 14.6323 137.701 14.0003 137.253 13.4563C136.821 12.9123 136.229 12.4883 135.477 12.1843C134.725 11.8803 133.877 11.7283 132.933 11.7283C132.005 11.7283 131.157 11.8483 130.389 12.0883C129.621 12.3123 128.893 12.6403 128.205 13.0723C127.533 13.4883 126.869 14.0003 126.213 14.6083C125.573 15.2003 124.933 15.8643 124.293 16.6003L122.109 14.3443C122.541 13.9923 123.029 13.6003 123.573 13.1683C124.117 12.7203 124.669 12.2563 125.229 11.7763C125.805 11.2963 126.341 10.8483 126.837 10.4323C127.349 10.0003 127.781 9.64034 128.133 9.35234C128.469 9.08034 128.861 8.76034 129.309 8.39234C129.757 8.02434 130.221 7.64834 130.701 7.26434C131.181 6.86434 131.637 6.48834 132.069 6.13634C132.501 5.76834 132.861 5.45634 133.149 5.20034C132.909 5.20034 132.597 5.20834 132.213 5.22434C131.829 5.24034 131.405 5.25634 130.941 5.27234C130.493 5.28834 130.037 5.30434 129.573 5.32034C129.125 5.33634 128.701 5.36034 128.301 5.39234C127.917 5.40834 127.597 5.42434 127.341 5.44034C127.021 5.45634 126.685 5.48034 126.333 5.51234C125.981 5.54434 125.661 5.58434 125.373 5.63234L125.277 2.51234Z" fill="#494949"/>
<path d="M111.669 1.4563C111.653 1.5843 111.629 1.7923 111.597 2.0803C111.581 2.3523 111.565 2.6323 111.549 2.9203C111.533 3.1923 111.517 3.3923 111.501 3.5203C111.485 3.8403 111.477 4.2723 111.477 4.8163C111.477 5.3443 111.477 5.9363 111.477 6.5923C111.477 7.2483 111.477 7.9123 111.477 8.5843C111.493 9.2403 111.501 9.8643 111.501 10.4563C111.517 11.0323 111.525 11.5123 111.525 11.8963L108.525 10.8883C108.525 10.5843 108.525 10.1843 108.525 9.6883C108.525 9.1763 108.525 8.6243 108.525 8.0323C108.525 7.4243 108.517 6.8243 108.501 6.2323C108.501 5.6403 108.493 5.1043 108.477 4.6243C108.461 4.1443 108.445 3.7843 108.429 3.5443C108.397 3.0483 108.357 2.6163 108.309 2.2483C108.261 1.8643 108.221 1.6003 108.189 1.4563H111.669ZM98.1094 4.4323C98.8134 4.4323 99.6134 4.4243 100.509 4.4083C101.405 4.3923 102.341 4.3763 103.317 4.3603C104.293 4.3443 105.253 4.3283 106.197 4.3123C107.141 4.2963 108.029 4.2883 108.861 4.2883C109.693 4.2723 110.413 4.2643 111.021 4.2643C111.629 4.2643 112.293 4.2643 113.013 4.2643C113.733 4.2483 114.445 4.2403 115.149 4.2403C115.853 4.2403 116.493 4.2403 117.069 4.2403C117.661 4.2403 118.117 4.2403 118.437 4.2403L118.413 7.0723C117.661 7.0403 116.669 7.0163 115.437 7.0003C114.205 6.9683 112.701 6.9523 110.925 6.9523C109.837 6.9523 108.733 6.9683 107.613 7.0003C106.493 7.0163 105.381 7.0403 104.277 7.0723C103.173 7.1043 102.109 7.1443 101.085 7.1923C100.061 7.2243 99.0934 7.2723 98.1814 7.3363L98.1094 4.4323ZM111.093 11.5363C111.093 12.8483 110.933 13.9363 110.613 14.8003C110.309 15.6643 109.845 16.3203 109.221 16.7683C108.597 17.2003 107.821 17.4163 106.893 17.4163C106.445 17.4163 105.973 17.3203 105.477 17.1283C104.997 16.9363 104.549 16.6563 104.133 16.2883C103.717 15.9203 103.381 15.4643 103.125 14.9203C102.885 14.3763 102.765 13.7363 102.765 13.0003C102.765 12.0883 102.981 11.3043 103.413 10.6483C103.845 9.9763 104.421 9.4563 105.141 9.0883C105.877 8.7043 106.685 8.5123 107.565 8.5123C108.621 8.5123 109.501 8.7523 110.205 9.2323C110.925 9.6963 111.461 10.3283 111.813 11.1283C112.181 11.9283 112.365 12.8323 112.365 13.8403C112.365 14.6243 112.237 15.4403 111.981 16.2883C111.725 17.1363 111.301 17.9683 110.709 18.7843C110.133 19.5843 109.349 20.3123 108.357 20.9683C107.381 21.6243 106.157 22.1603 104.685 22.5763L102.117 20.0323C103.141 19.8243 104.093 19.5523 104.973 19.2163C105.853 18.8803 106.621 18.4563 107.277 17.9443C107.949 17.4323 108.469 16.8003 108.837 16.0483C109.221 15.2963 109.413 14.3923 109.413 13.3363C109.413 12.5683 109.221 11.9923 108.837 11.6083C108.469 11.2243 108.021 11.0323 107.493 11.0323C107.189 11.0323 106.893 11.1043 106.605 11.2483C106.317 11.3923 106.085 11.6083 105.909 11.8963C105.733 12.1843 105.645 12.5363 105.645 12.9523C105.645 13.4963 105.829 13.9363 106.197 14.2723C106.581 14.5923 107.013 14.7523 107.493 14.7523C107.877 14.7523 108.213 14.6323 108.501 14.3923C108.805 14.1523 109.005 13.7523 109.101 13.1923C109.197 12.6323 109.117 11.8803 108.861 10.9363L111.093 11.5363Z" fill="#494949"/>
<path d="M86.4471 0.520264H89.2551V4.31226H86.4471V0.520264ZM81.0951 3.04026H95.0151V7.79226H92.3511V5.48826H83.6391V7.79226H81.0951V3.04026ZM82.8711 7.43226H93.1671V9.90426H82.8711V7.43226ZM81.4311 11.6563H94.8951V14.2243H81.4311V11.6563ZM84.1431 12.8803H86.8791C86.8311 14.1763 86.7191 15.3523 86.5431 16.4083C86.3831 17.4483 86.0951 18.3843 85.6791 19.2163C85.2791 20.0323 84.6871 20.7443 83.9031 21.3523C83.1191 21.9763 82.0871 22.5043 80.8071 22.9363C80.7271 22.6963 80.5991 22.4323 80.4231 22.1443C80.2631 21.8723 80.0791 21.6003 79.8711 21.3283C79.6631 21.0563 79.4631 20.8403 79.2711 20.6803C80.3591 20.3603 81.2231 19.9683 81.8631 19.5043C82.5031 19.0403 82.9751 18.4963 83.2791 17.8723C83.5991 17.2323 83.8151 16.5043 83.9271 15.6883C84.0391 14.8563 84.1111 13.9203 84.1431 12.8803ZM88.5831 12.5923H91.2711V19.4083C91.2711 19.7763 91.2871 20.0003 91.3191 20.0803C91.3671 20.1603 91.4791 20.2003 91.6551 20.2003C91.7031 20.2003 91.7831 20.2003 91.8951 20.2003C92.0071 20.2003 92.1111 20.2003 92.2071 20.2003C92.3191 20.2003 92.4071 20.2003 92.4711 20.2003C92.5831 20.2003 92.6711 20.1363 92.7351 20.0083C92.8151 19.8803 92.8711 19.6163 92.9031 19.2163C92.9351 18.8003 92.9591 18.1843 92.9751 17.3683C93.1511 17.5123 93.3751 17.6563 93.6471 17.8003C93.9351 17.9443 94.2311 18.0723 94.5351 18.1843C94.8551 18.2963 95.1271 18.3843 95.3511 18.4483C95.2871 19.5683 95.1511 20.4403 94.9431 21.0643C94.7511 21.6883 94.4791 22.1203 94.1271 22.3603C93.7911 22.6163 93.3351 22.7443 92.7591 22.7443C92.6631 22.7443 92.5431 22.7443 92.3991 22.7443C92.2551 22.7443 92.1031 22.7443 91.9431 22.7443C91.7991 22.7443 91.6551 22.7443 91.5111 22.7443C91.3671 22.7443 91.2471 22.7443 91.1511 22.7443C90.4631 22.7443 89.9271 22.6403 89.5431 22.4323C89.1751 22.2243 88.9191 21.8723 88.7751 21.3763C88.6471 20.8963 88.5831 20.2483 88.5831 19.4323V12.5923ZM73.7031 1.43226H79.3671V4.02426H76.2231V22.9603H73.7031V1.43226ZM78.5031 1.43226H78.9591L79.3671 1.33626L81.2391 2.41626C81.0471 3.08826 80.8311 3.81626 80.5911 4.60026C80.3511 5.38426 80.1031 6.15226 79.8471 6.90426C79.6071 7.65626 79.3751 8.34426 79.1511 8.96826C79.8871 9.88026 80.3671 10.7443 80.5911 11.5603C80.8151 12.3763 80.9271 13.1363 80.9271 13.8403C80.9271 14.6083 80.8391 15.2483 80.6631 15.7603C80.5031 16.2723 80.2311 16.6643 79.8471 16.9363C79.6551 17.0643 79.4391 17.1683 79.1991 17.2483C78.9751 17.3283 78.7351 17.3923 78.4791 17.4403C78.0311 17.4883 77.5031 17.5043 76.8951 17.4883C76.8791 17.1523 76.8151 16.7443 76.7031 16.2643C76.6071 15.7843 76.4631 15.3763 76.2711 15.0403C76.4951 15.0563 76.6871 15.0643 76.8471 15.0643C77.0231 15.0643 77.1831 15.0643 77.3271 15.0643C77.6151 15.0483 77.8391 14.9763 77.9991 14.8483C78.1431 14.7363 78.2391 14.5683 78.2871 14.3443C78.3511 14.1043 78.3831 13.8163 78.3831 13.4803C78.3831 12.9203 78.2711 12.2803 78.0471 11.5603C77.8391 10.8403 77.3991 10.0803 76.7271 9.28026C76.8871 8.73626 77.0471 8.14426 77.2071 7.50426C77.3831 6.84826 77.5511 6.19226 77.7111 5.53626C77.8871 4.88026 78.0391 4.27226 78.1671 3.71226C78.3111 3.13626 78.4231 2.65626 78.5031 2.27226V1.43226Z" fill="#494949"/>
<path d="M53.4964 1.74438H60.3124V4.67238H53.4964V1.74438ZM58.8964 1.74438H61.8724C61.8724 2.51238 61.9044 3.38438 61.9684 4.36038C62.0324 5.32038 62.1684 6.35238 62.3764 7.45638C62.5844 8.54438 62.8964 9.66438 63.3124 10.8164C63.7284 11.9684 64.2804 13.1124 64.9684 14.2484C65.6724 15.3684 66.5524 16.4484 67.6084 17.4884C68.6644 18.5284 69.9284 19.4884 71.4004 20.3684C71.1924 20.5284 70.9364 20.7604 70.6324 21.0644C70.3284 21.3684 70.0324 21.6804 69.7444 22.0004C69.4724 22.3364 69.2484 22.6324 69.0724 22.8884C67.5684 21.9604 66.2644 20.9204 65.1604 19.7684C64.0564 18.6004 63.1284 17.3684 62.3764 16.0724C61.6244 14.7604 61.0164 13.4404 60.5524 12.1124C60.0884 10.7684 59.7364 9.46439 59.4964 8.20039C59.2564 6.92039 59.0964 5.72838 59.0164 4.62438C58.9364 3.52038 58.8964 2.56038 58.8964 1.74438ZM57.8644 7.02439L61.1524 7.62438C60.6084 9.99238 59.8804 12.1444 58.9684 14.0804C58.0564 16.0164 56.9604 17.7204 55.6804 19.1924C54.4164 20.6644 52.9524 21.9044 51.2884 22.9124C51.1124 22.7044 50.8644 22.4484 50.5444 22.1444C50.2244 21.8564 49.8884 21.5604 49.5364 21.2564C49.2004 20.9684 48.9044 20.7364 48.6484 20.5604C51.1604 19.2964 53.1604 17.5204 54.6484 15.2324C56.1364 12.9284 57.2084 10.1924 57.8644 7.02439Z" fill="#494949"/>
</svg>
