<svg width="353" height="203" viewBox="0 0 353 203" fill="none" xmlns="http://www.w3.org/2000/svg">
<path fill-rule="evenodd" clip-rule="evenodd" d="M68.1369 32.4189C94.0287 20.7639 105.118 0.460551 150.052 0.530944C193.43 0.601337 208.959 23.2578 235.44 33.7262C261.395 43.9835 286.508 43.6014 298.67 68.3495C310.369 92.1524 295.724 117.011 285.835 135.866C275.945 154.732 276.566 179.349 247.055 194.634C211.778 212.896 184.634 192.161 152.63 192.161C120.625 192.161 93.4501 211.046 56.3009 193.448C23.097 177.72 29.7988 158.121 19.9092 139.255C10.0196 120.39 -7.79225 92.0216 3.77019 68.6713C17.7314 40.4739 42.2345 44.074 68.1264 32.4189H68.1369Z" fill="#CBECFF"/>
<mask id="mask0_2007_150" style="mask-type:alpha" maskUnits="userSpaceOnUse" x="268" y="113" width="85" height="56">
<path d="M278.682 113.185L352.427 128.536L340.084 168.681L275.087 148.697L268.834 131.604L278.682 113.185Z" fill="#D9D9D9"/>
</mask>
<g mask="url(#mask0_2007_150)">
<path d="M267.432 20.6574C268.701 -30.5834 194.35 -45.9517 165.998 -10.2469C125.292 -33.1185 53.6772 -1.16394 24.8073 56.8731C2.50437 101.719 27.1331 169.381 78.6181 181.868C79.0473 231.452 142.353 253.288 193.989 206.425C225.698 227.69 282.43 185.551 272.732 151.077C289.93 152.564 309.413 150.177 333.582 142.211C310.761 137.764 293.184 130.983 280.571 124.716C344.868 87.8454 313.753 18.2906 267.432 20.6574Z" fill="#CBECFF"/>
</g>
<path d="M250.18 143.32L249.38 127.8L249.3 123.08H253.7L253.62 127.8L252.82 143.32H250.18ZM251.5 153.2C250.78 153.2 250.167 152.96 249.66 152.48C249.18 152 248.94 151.36 248.94 150.56C248.94 149.76 249.194 149.12 249.7 148.64C250.207 148.133 250.807 147.88 251.5 147.88C252.194 147.88 252.794 148.133 253.3 148.64C253.807 149.12 254.06 149.76 254.06 150.56C254.06 151.36 253.807 152 253.3 152.48C252.794 152.96 252.194 153.2 251.5 153.2Z" fill="#494949"/>
<path d="M220.3 139.68C220.3 138.56 220.006 137.573 219.42 136.72C218.86 135.84 218.06 135.16 217.02 134.68C216.006 134.173 214.82 133.92 213.46 133.92C211.913 133.92 210.46 134.04 209.1 134.28C207.74 134.52 206.5 134.8 205.38 135.12C204.286 135.44 203.34 135.707 202.54 135.92C201.926 136.107 201.326 136.307 200.74 136.52C200.18 136.733 199.66 136.947 199.18 137.16L198.14 133.44C198.7 133.387 199.3 133.307 199.94 133.2C200.606 133.093 201.233 132.973 201.82 132.84C202.78 132.627 203.886 132.373 205.14 132.08C206.42 131.787 207.793 131.52 209.26 131.28C210.753 131.04 212.26 130.92 213.78 130.92C215.673 130.92 217.366 131.267 218.86 131.96C220.353 132.653 221.526 133.667 222.38 135C223.26 136.307 223.7 137.907 223.7 139.8C223.7 141.987 223.246 143.933 222.34 145.64C221.433 147.32 220.153 148.787 218.5 150.04C216.873 151.267 214.953 152.293 212.74 153.12C210.526 153.947 208.126 154.547 205.54 154.92L203.74 151.88C206.14 151.587 208.353 151.12 210.38 150.48C212.406 149.813 214.153 148.987 215.62 148C217.113 147.013 218.26 145.827 219.06 144.44C219.886 143.053 220.3 141.467 220.3 139.68ZM203.5 121.68C204.593 121.92 205.9 122.147 207.42 122.36C208.966 122.573 210.553 122.773 212.18 122.96C213.833 123.12 215.38 123.253 216.82 123.36C218.286 123.467 219.513 123.52 220.5 123.52L220.02 126.6C218.9 126.52 217.593 126.427 216.1 126.32C214.633 126.187 213.1 126.04 211.5 125.88C209.926 125.693 208.393 125.507 206.9 125.32C205.433 125.107 204.126 124.907 202.98 124.72L203.5 121.68Z" fill="#494949"/>
<path d="M172.98 128.16C172.926 128.453 172.873 128.933 172.82 129.6C172.766 130.267 172.74 130.88 172.74 131.44C172.74 131.867 172.74 132.467 172.74 133.24C172.74 134.013 172.74 134.827 172.74 135.68C172.74 136.533 172.74 137.32 172.74 138.04C172.74 138.893 172.753 139.893 172.78 141.04C172.833 142.187 172.886 143.373 172.94 144.6C173.02 145.8 173.086 146.933 173.14 148C173.193 149.067 173.22 149.947 173.22 150.64C173.22 151.493 173.02 152.293 172.62 153.04C172.22 153.787 171.58 154.387 170.7 154.84C169.846 155.32 168.673 155.56 167.18 155.56C165.633 155.56 164.246 155.347 163.02 154.92C161.793 154.52 160.833 153.92 160.14 153.12C159.473 152.347 159.14 151.373 159.14 150.2C159.14 148.547 159.873 147.227 161.34 146.24C162.806 145.227 164.913 144.72 167.66 144.72C169.34 144.72 170.94 144.92 172.46 145.32C173.98 145.693 175.406 146.2 176.74 146.84C178.073 147.48 179.273 148.173 180.34 148.92C181.433 149.667 182.38 150.413 183.18 151.16L181.5 153.96C180.7 153.133 179.78 152.32 178.74 151.52C177.7 150.72 176.566 150 175.34 149.36C174.14 148.693 172.86 148.173 171.5 147.8C170.166 147.4 168.78 147.2 167.34 147.2C165.74 147.2 164.446 147.453 163.46 147.96C162.473 148.44 161.98 149.147 161.98 150.08C161.98 150.853 162.406 151.507 163.26 152.04C164.113 152.547 165.313 152.8 166.86 152.8C167.953 152.8 168.78 152.52 169.34 151.96C169.9 151.373 170.18 150.613 170.18 149.68C170.18 148.987 170.153 148.16 170.1 147.2C170.073 146.213 170.033 145.173 169.98 144.08C169.926 142.96 169.873 141.853 169.82 140.76C169.793 139.667 169.78 138.693 169.78 137.84C169.78 137.28 169.78 136.587 169.78 135.76C169.78 134.933 169.78 134.133 169.78 133.36C169.78 132.56 169.78 131.933 169.78 131.48C169.78 130.867 169.753 130.24 169.7 129.6C169.646 128.933 169.58 128.453 169.5 128.16H172.98ZM171.3 134.32C171.833 134.32 172.553 134.307 173.46 134.28C174.393 134.227 175.406 134.173 176.5 134.12C177.593 134.067 178.686 134 179.78 133.92C180.873 133.84 181.846 133.747 182.7 133.64L182.74 136.44C181.913 136.547 180.953 136.64 179.86 136.72C178.793 136.773 177.7 136.827 176.58 136.88C175.486 136.933 174.473 136.973 173.54 137C172.633 137.027 171.886 137.04 171.3 137.04V134.32Z" fill="#494949"/>
<path d="M125.1 121.84C124.994 122.507 124.914 123.187 124.86 123.88C124.807 124.547 124.767 125.213 124.74 125.88C124.687 127 124.634 128.387 124.58 130.04C124.527 131.693 124.474 133.453 124.42 135.32C124.367 137.16 124.327 139 124.3 140.84C124.274 142.68 124.26 144.333 124.26 145.8C124.26 147.267 124.54 148.44 125.1 149.32C125.66 150.2 126.434 150.827 127.42 151.2C128.407 151.573 129.54 151.76 130.82 151.76C132.634 151.76 134.274 151.533 135.74 151.08C137.207 150.6 138.514 149.973 139.66 149.2C140.807 148.4 141.82 147.507 142.7 146.52C143.607 145.533 144.42 144.52 145.14 143.48L147.42 146.2C146.727 147.16 145.874 148.16 144.86 149.2C143.874 150.213 142.7 151.16 141.34 152.04C139.98 152.92 138.407 153.64 136.62 154.2C134.86 154.76 132.887 155.04 130.7 155.04C128.807 155.04 127.127 154.747 125.66 154.16C124.194 153.573 123.047 152.627 122.22 151.32C121.394 150.013 120.98 148.28 120.98 146.12C120.98 144.92 120.994 143.6 121.02 142.16C121.047 140.693 121.087 139.187 121.14 137.64C121.194 136.093 121.234 134.587 121.26 133.12C121.287 131.627 121.314 130.253 121.34 129C121.367 127.747 121.38 126.707 121.38 125.88C121.38 125.133 121.354 124.413 121.3 123.72C121.247 123.027 121.167 122.387 121.06 121.8L125.1 121.84Z" fill="#494949"/>
<path d="M94.4203 121.24C94.3669 121.587 94.3136 121.973 94.2603 122.4C94.2336 122.827 94.2069 123.333 94.1803 123.92C94.1803 124.32 94.1669 124.92 94.1403 125.72C94.1403 126.52 94.1403 127.427 94.1403 128.44C94.1403 129.427 94.1403 130.427 94.1403 131.44C94.1403 132.453 94.1403 133.387 94.1403 134.24C94.1403 135.573 94.1669 136.973 94.2203 138.44C94.2736 139.907 94.3403 141.333 94.4203 142.72C94.5003 144.107 94.5669 145.373 94.6203 146.52C94.6736 147.667 94.7003 148.573 94.7003 149.24C94.7003 150.173 94.4736 151.067 94.0203 151.92C93.5936 152.773 92.8603 153.467 91.8203 154C90.8069 154.56 89.4203 154.84 87.6603 154.84C84.7803 154.84 82.5803 154.333 81.0603 153.32C79.5403 152.333 78.7803 150.88 78.7803 148.96C78.7803 147.733 79.1403 146.667 79.8603 145.76C80.6069 144.853 81.6736 144.147 83.0603 143.64C84.4469 143.107 86.1003 142.84 88.0203 142.84C90.1269 142.84 92.1003 143.093 93.9403 143.6C95.8069 144.08 97.5136 144.693 99.0603 145.44C100.607 146.187 101.98 146.973 103.18 147.8C104.38 148.6 105.367 149.32 106.14 149.96L104.3 152.8C103.394 151.947 102.34 151.093 101.14 150.24C99.9669 149.387 98.6736 148.6 97.2603 147.88C95.8736 147.16 94.3669 146.587 92.7403 146.16C91.1403 145.707 89.4336 145.48 87.6203 145.48C85.7003 145.48 84.2336 145.8 83.2203 146.44C82.2336 147.08 81.7403 147.867 81.7403 148.8C81.7403 149.387 81.9269 149.933 82.3003 150.44C82.6736 150.92 83.2736 151.307 84.1003 151.6C84.9269 151.893 85.9936 152.04 87.3003 152.04C88.0736 152.04 88.7803 151.947 89.4203 151.76C90.0603 151.547 90.5669 151.187 90.9403 150.68C91.3403 150.173 91.5403 149.467 91.5403 148.56C91.5403 147.787 91.5136 146.787 91.4603 145.56C91.4336 144.307 91.3936 142.987 91.3403 141.6C91.2869 140.187 91.2336 138.827 91.1803 137.52C91.1536 136.213 91.1403 135.12 91.1403 134.24C91.1403 133.333 91.1403 132.413 91.1403 131.48C91.1403 130.52 91.1403 129.573 91.1403 128.64C91.1403 127.707 91.1403 126.813 91.1403 125.96C91.1669 125.107 91.1803 124.333 91.1803 123.64C91.1803 123.32 91.1669 122.907 91.1403 122.4C91.1136 121.893 91.0736 121.507 91.0203 121.24H94.4203ZM79.1003 125.6C79.7669 125.707 80.5403 125.813 81.4203 125.92C82.3003 126.027 83.2203 126.133 84.1803 126.24C85.1669 126.32 86.1003 126.387 86.9803 126.44C87.8869 126.467 88.6736 126.48 89.3403 126.48C91.8736 126.48 94.4603 126.387 97.1003 126.2C99.7669 126.013 102.394 125.707 104.98 125.28L104.94 128.2C103.474 128.36 101.874 128.52 100.14 128.68C98.4069 128.84 96.6203 128.973 94.7803 129.08C92.9669 129.187 91.1669 129.24 89.3803 129.24C88.4469 129.24 87.3403 129.2 86.0603 129.12C84.7803 129.04 83.5136 128.947 82.2603 128.84C81.0336 128.733 79.9936 128.64 79.1403 128.56L79.1003 125.6ZM78.9003 134.08C79.6203 134.187 80.4203 134.293 81.3003 134.4C82.1803 134.507 83.0869 134.587 84.0203 134.64C84.9536 134.693 85.8469 134.747 86.7003 134.8C87.5536 134.827 88.3136 134.84 88.9803 134.84C90.9269 134.84 92.8069 134.8 94.6203 134.72C96.4603 134.613 98.2603 134.48 100.02 134.32C101.807 134.133 103.567 133.907 105.3 133.64L105.26 136.64C103.927 136.827 102.594 136.987 101.26 137.12C99.9536 137.227 98.6336 137.32 97.3003 137.4C95.9936 137.48 94.6469 137.547 93.2603 137.6C91.9003 137.627 90.4603 137.64 88.9403 137.64C88.0336 137.64 86.9803 137.613 85.7803 137.56C84.6069 137.507 83.4069 137.44 82.1803 137.36C80.9803 137.28 79.9003 137.187 78.9403 137.08L78.9003 134.08Z" fill="#494949"/>
<path d="M45.1005 121.84C44.9938 122.507 44.9138 123.187 44.8605 123.88C44.8071 124.547 44.7671 125.213 44.7405 125.88C44.6871 127 44.6338 128.387 44.5805 130.04C44.5271 131.693 44.4738 133.453 44.4205 135.32C44.3671 137.16 44.3271 139 44.3005 140.84C44.2738 142.68 44.2605 144.333 44.2605 145.8C44.2605 147.267 44.5405 148.44 45.1005 149.32C45.6605 150.2 46.4338 150.827 47.4205 151.2C48.4071 151.573 49.5405 151.76 50.8205 151.76C52.6338 151.76 54.2738 151.533 55.7405 151.08C57.2071 150.6 58.5138 149.973 59.6605 149.2C60.8071 148.4 61.8205 147.507 62.7005 146.52C63.6071 145.533 64.4205 144.52 65.1405 143.48L67.4205 146.2C66.7271 147.16 65.8738 148.16 64.8605 149.2C63.8738 150.213 62.7005 151.16 61.3405 152.04C59.9805 152.92 58.4071 153.64 56.6205 154.2C54.8605 154.76 52.8871 155.04 50.7005 155.04C48.8071 155.04 47.1271 154.747 45.6605 154.16C44.1938 153.573 43.0471 152.627 42.2205 151.32C41.3938 150.013 40.9805 148.28 40.9805 146.12C40.9805 144.92 40.9938 143.6 41.0205 142.16C41.0471 140.693 41.0871 139.187 41.1405 137.64C41.1938 136.093 41.2338 134.587 41.2605 133.12C41.2871 131.627 41.3138 130.253 41.3405 129C41.3671 127.747 41.3805 126.707 41.3805 125.88C41.3805 125.133 41.3538 124.413 41.3005 123.72C41.2471 123.027 41.1671 122.387 41.0605 121.8L45.1005 121.84Z" fill="#494949"/>
<path d="M230.34 65.7201H233.14V75.0801H230.34V65.7201ZM240.66 65.7201H243.5V75.0801H240.66V65.7201ZM237.98 82.9201H240.42V102H237.98V82.9201ZM223.82 69.1601H249.78V71.8001H223.82V69.1601ZM231.26 87.8801H247.18V90.0001H231.26V87.8801ZM231.26 93.4401H247.18V95.5601H231.26V93.4401ZM225.86 76.4801H249.98V79.1201H225.86V76.4801ZM224.54 76.4801H227.3V85.1201C227.3 86.3734 227.26 87.7468 227.18 89.2401C227.1 90.7068 226.926 92.2134 226.66 93.7601C226.393 95.2801 226.006 96.7601 225.5 98.2001C225.02 99.6401 224.393 100.973 223.62 102.2C223.46 102.013 223.233 101.8 222.94 101.56C222.673 101.32 222.393 101.08 222.1 100.84C221.833 100.627 221.593 100.467 221.38 100.36C222.34 98.8401 223.033 97.1868 223.46 95.4001C223.913 93.6134 224.206 91.8268 224.34 90.0401C224.473 88.2534 224.54 86.6001 224.54 85.0801V76.4801ZM229.74 82.0801H247.54V84.4001H232.34V102.2H229.74V82.0801ZM246.34 82.0801H248.94V99.2801C248.94 99.9468 248.86 100.467 248.7 100.84C248.54 101.24 248.233 101.547 247.78 101.76C247.3 101.973 246.66 102.107 245.86 102.16C245.086 102.213 244.1 102.227 242.9 102.2C242.873 101.88 242.78 101.493 242.62 101.04C242.486 100.587 242.326 100.187 242.14 99.8401C242.993 99.8668 243.753 99.8801 244.42 99.8801C245.086 99.8801 245.526 99.8668 245.74 99.8401C246.14 99.8401 246.34 99.6401 246.34 99.2401V82.0801ZM220.82 65.6001L223.58 66.3601C222.833 68.6801 221.94 70.9734 220.9 73.2401C219.886 75.5068 218.78 77.6534 217.58 79.6801C216.38 81.6801 215.113 83.4534 213.78 85.0001C213.7 84.7601 213.566 84.4534 213.38 84.0801C213.193 83.6801 212.993 83.2934 212.78 82.9201C212.566 82.5201 212.38 82.2001 212.22 81.9601C213.393 80.6001 214.513 79.0534 215.58 77.3201C216.646 75.5601 217.62 73.6801 218.5 71.6801C219.406 69.6801 220.18 67.6534 220.82 65.6001ZM217.58 75.4001L220.38 72.6401L220.46 72.7201V102.2H217.58V75.4001Z" fill="#494949"/>
<path d="M176.1 67.68L177.62 65.6C178.34 65.84 179.1 66.1466 179.9 66.52C180.726 66.8666 181.513 67.2266 182.26 67.6C183.006 67.9733 183.606 68.32 184.06 68.6399L182.5 71C182.02 70.6533 181.42 70.28 180.7 69.88C179.98 69.48 179.22 69.0933 178.42 68.72C177.62 68.32 176.846 67.9733 176.1 67.68ZM173.1 74.3599L174.58 72.24C175.326 72.4533 176.1 72.72 176.9 73.0399C177.726 73.36 178.513 73.68 179.26 74C180.006 74.32 180.62 74.64 181.1 74.96L179.62 77.32C179.14 77 178.526 76.6666 177.78 76.32C177.033 75.9466 176.246 75.5866 175.42 75.24C174.62 74.8933 173.846 74.5999 173.1 74.3599ZM174.22 87.08C174.94 86.44 175.74 85.6666 176.62 84.76C177.526 83.8533 178.46 82.8933 179.42 81.88C180.38 80.8666 181.286 79.8533 182.14 78.84L183.74 80.88C182.593 82.2666 181.38 83.7066 180.1 85.2C178.82 86.6933 177.566 88.0933 176.34 89.4L174.22 87.08ZM189.82 88.32H192.9V102.24H189.82V88.32ZM173.62 91.6H209.54V94.36H173.62V91.6ZM189.42 65.2L192.3 66.08C191.633 67.5466 190.82 68.9866 189.86 70.4C188.926 71.8133 187.926 73.1333 186.86 74.3599C185.793 75.5866 184.726 76.6533 183.66 77.56C183.5 77.3733 183.273 77.1466 182.98 76.88C182.713 76.6133 182.42 76.36 182.1 76.12C181.806 75.8533 181.54 75.64 181.3 75.48C182.926 74.2533 184.46 72.7333 185.9 70.92C187.366 69.08 188.54 67.1733 189.42 65.2ZM186.34 72.36L189.26 69.88V86.48H186.34V72.36ZM188.14 69.8H207.74V72.24H186.66L188.14 69.8ZM186.34 85.6H208.86V88.08H186.34V85.6ZM187.54 75.16H206.58V77.44H187.54V75.16ZM187.54 80.32H206.66V82.6H187.54V80.32ZM195.78 70.72H198.62V86.52H195.78V70.72ZM197.9 65.4L201.14 66.0399C200.553 67.0266 199.953 68.0133 199.34 69C198.726 69.9866 198.153 70.8399 197.62 71.5599L195.14 70.92C195.646 70.1466 196.153 69.24 196.66 68.2C197.166 67.16 197.58 66.2266 197.9 65.4Z" fill="#494949"/>
<path d="M149.74 72.0001C150.833 72.1601 152.1 72.2934 153.54 72.4001C155.007 72.4801 156.513 72.5201 158.06 72.5201C159.633 72.4934 161.127 72.4401 162.54 72.3601C163.98 72.2534 165.193 72.1201 166.18 71.9601V75.2001C165.113 75.3068 163.86 75.4001 162.42 75.4801C161.007 75.5334 159.527 75.5601 157.98 75.5601C156.46 75.5601 154.98 75.5334 153.54 75.4801C152.1 75.4001 150.833 75.3068 149.74 75.2001V72.0001ZM151.3 88.2801C151.113 89.0001 150.967 89.6534 150.86 90.2401C150.753 90.8268 150.7 91.4001 150.7 91.9601C150.7 92.4134 150.793 92.8668 150.98 93.3201C151.193 93.7468 151.54 94.1334 152.02 94.4801C152.527 94.8001 153.22 95.0668 154.1 95.2801C154.98 95.4668 156.1 95.5601 157.46 95.5601C159.273 95.5601 160.98 95.4801 162.58 95.3201C164.18 95.1334 165.78 94.8668 167.38 94.5201L167.46 97.8801C166.207 98.1468 164.74 98.3601 163.06 98.5201C161.407 98.6534 159.54 98.7201 157.46 98.7201C154.1 98.7201 151.633 98.1868 150.06 97.1201C148.513 96.0534 147.74 94.5868 147.74 92.7201C147.74 92.0534 147.793 91.3468 147.9 90.6001C148.033 89.8268 148.207 88.9601 148.42 88.0001L151.3 88.2801ZM142.1 68.9201C142.047 69.1334 141.967 69.4134 141.86 69.7601C141.78 70.0801 141.687 70.4134 141.58 70.7601C141.5 71.0801 141.433 71.3601 141.38 71.6001C141.247 72.3468 141.087 73.2134 140.9 74.2001C140.713 75.1601 140.527 76.2001 140.34 77.3201C140.18 78.4134 140.02 79.5334 139.86 80.6801C139.727 81.8001 139.607 82.8934 139.5 83.9601C139.42 85.0268 139.38 86.0134 139.38 86.9201C139.38 87.9068 139.407 88.8401 139.46 89.7201C139.54 90.6001 139.633 91.5334 139.74 92.5201C139.98 91.9068 140.233 91.2534 140.5 90.5601C140.767 89.8668 141.033 89.1868 141.3 88.5201C141.593 87.8268 141.847 87.2134 142.06 86.6801L143.74 87.9601C143.393 88.9201 143.02 89.9734 142.62 91.1201C142.22 92.2668 141.86 93.3734 141.54 94.4401C141.247 95.4801 141.033 96.3068 140.9 96.9201C140.847 97.2134 140.793 97.5334 140.74 97.8801C140.687 98.2268 140.673 98.5068 140.7 98.7201C140.727 98.9334 140.74 99.1601 140.74 99.4001C140.767 99.6668 140.793 99.9068 140.82 100.12L137.94 100.32C137.54 98.9068 137.193 97.0934 136.9 94.8801C136.607 92.6401 136.46 90.1734 136.46 87.4801C136.46 86.0134 136.527 84.5201 136.66 83.0001C136.793 81.4534 136.967 79.9601 137.18 78.5201C137.393 77.0534 137.593 75.7201 137.78 74.5201C137.993 73.2934 138.153 72.2668 138.26 71.4401C138.34 70.9601 138.407 70.4801 138.46 70.0001C138.513 69.4934 138.54 69.0268 138.54 68.6001L142.1 68.9201Z" fill="#494949"/>
<path d="M118.26 68.04C118.18 68.36 118.1 68.72 118.02 69.12C117.94 69.4933 117.86 69.8666 117.78 70.24C117.727 70.6133 117.66 70.92 117.58 71.16C117.207 72.84 116.754 74.5733 116.22 76.36C115.714 78.1466 115.14 79.92 114.5 81.68C113.86 83.44 113.167 85.08 112.42 86.6C111.7 88.12 110.94 89.44 110.14 90.56C109.127 91.9466 108.1 93.2 107.06 94.32C106.047 95.4133 105.007 96.2666 103.94 96.88C102.874 97.4933 101.727 97.8 100.5 97.8C99.5138 97.8 98.5938 97.52 97.7404 96.96C96.8871 96.4 96.2071 95.5866 95.7004 94.52C95.1938 93.4533 94.9404 92.1466 94.9404 90.6C94.9404 88.92 95.2471 87.24 95.8604 85.56C96.5004 83.88 97.3671 82.3333 98.4604 80.92C99.5804 79.5066 100.834 78.3333 102.22 77.4C104.194 76.04 106.18 75.08 108.18 74.52C110.18 73.96 112.194 73.68 114.22 73.68C116.834 73.68 119.154 74.2266 121.18 75.32C123.234 76.4133 124.834 77.9466 125.98 79.92C127.154 81.8666 127.74 84.1466 127.74 86.76C127.74 89.4 127.14 91.7066 125.94 93.68C124.767 95.6266 123.1 97.2 120.94 98.4C118.807 99.5733 116.314 100.36 113.46 100.76L111.58 97.92C113.687 97.7333 115.54 97.3333 117.14 96.72C118.767 96.1066 120.127 95.3066 121.22 94.32C122.314 93.3333 123.14 92.1866 123.7 90.88C124.287 89.5733 124.58 88.16 124.58 86.64C124.58 84.6666 124.14 82.92 123.26 81.4C122.38 79.8533 121.127 78.64 119.5 77.76C117.9 76.88 116.034 76.44 113.9 76.44C111.954 76.44 110.1 76.76 108.34 77.4C106.607 78.0133 104.954 78.8933 103.38 80.04C102.26 80.84 101.287 81.8266 100.46 83C99.6338 84.1733 98.9804 85.4 98.5004 86.68C98.0471 87.9333 97.8204 89.16 97.8204 90.36C97.8204 91.6933 98.0871 92.7466 98.6204 93.52C99.1804 94.2666 99.9138 94.64 100.82 94.64C101.46 94.64 102.114 94.4533 102.78 94.08C103.447 93.68 104.1 93.16 104.74 92.52C105.38 91.88 105.994 91.1733 106.58 90.4C107.194 89.6 107.74 88.8 108.22 88C108.887 86.96 109.54 85.76 110.18 84.4C110.82 83.04 111.42 81.5866 111.98 80.04C112.567 78.4666 113.074 76.8933 113.5 75.32C113.954 73.72 114.314 72.2 114.58 70.76C114.66 70.36 114.714 69.8666 114.74 69.28C114.794 68.6933 114.82 68.1733 114.82 67.72L118.26 68.04ZM101.9 69.84C102.007 70.4 102.127 71 102.26 71.64C102.42 72.2533 102.567 72.84 102.7 73.4C102.967 74.36 103.3 75.44 103.7 76.64C104.1 77.84 104.514 79.04 104.94 80.24C105.394 81.44 105.86 82.5733 106.34 83.64C106.82 84.68 107.274 85.5466 107.7 86.24C108.394 87.4133 109.18 88.6133 110.06 89.84C110.94 91.0666 111.86 92.1333 112.82 93.04L110.3 95.12C109.5 94.2133 108.727 93.2533 107.98 92.24C107.234 91.2266 106.487 90.0666 105.74 88.76C105.234 87.9866 104.727 87.0533 104.22 85.96C103.714 84.84 103.194 83.64 102.66 82.36C102.154 81.08 101.66 79.7733 101.18 78.44C100.7 77.08 100.274 75.7733 99.9004 74.52C99.7138 73.88 99.5004 73.2533 99.2604 72.64C99.0471 72 98.8204 71.4266 98.5804 70.92L101.9 69.84Z" fill="#494949"/>
<path d="M69.8199 83.44H72.8999V102.2H69.8199V83.44ZM60.5399 76.8V81.16H82.1799V76.8H60.5399ZM60.5399 69.96V74.24H82.1799V69.96H60.5399ZM57.5799 67.28H85.2599V83.88H57.5799V67.28ZM53.3799 89.8H89.7799V92.72H53.3799V89.8Z" fill="#494949"/>
</svg>
