<svg width="380" height="120" viewBox="0 0 380 120" fill="none" xmlns="http://www.w3.org/2000/svg">
<path d="M353.121 99.1041V115.472C353.121 117.536 351.393 119.264 349.281 119.264C347.217 119.264 345.489 117.536 345.489 115.472V80.9601C345.489 78.8481 347.217 77.1201 349.329 77.1201C351.393 77.1201 353.121 78.8481 353.121 80.9121V91.1361C357.825 93.1521 362.865 94.1121 367.953 94.1121C369.825 94.1121 371.697 93.9681 373.473 93.5841C375.009 93.2961 375.393 93.2481 375.921 93.2481C377.889 93.2481 379.425 95.0721 379.425 96.9921C379.425 98.1921 378.897 99.2961 377.889 99.9681C375.825 101.312 370.593 101.504 368.097 101.504C363.009 101.504 357.921 100.88 353.121 99.1041Z" fill="#004898"/>
<path d="M294.514 79.5199L309.058 81.5839C310.882 81.8239 312.226 83.5519 312.226 85.3279C312.226 87.4399 310.306 89.4079 308.098 89.1199L293.458 87.0559C291.538 86.8159 290.05 85.2799 290.05 83.2639C290.05 81.3439 291.73 79.5199 293.89 79.4719C294.034 79.4719 294.226 79.4719 294.514 79.5199ZM302.194 111.056C308.914 111.056 315.298 108.512 318.802 102.512C320.626 99.3439 321.25 95.5519 321.25 91.9039C321.25 91.1839 321.202 90.4159 321.154 89.6479C321.106 89.1199 321.058 88.5439 321.058 88.0159C321.058 85.9039 322.834 84.3199 324.85 84.3199C328.69 84.3199 328.834 88.7359 328.834 91.5199C328.834 94.4959 328.594 97.3759 327.826 100.208C326.722 104.336 324.61 108.128 321.538 111.152C316.21 116.432 309.106 118.544 301.714 118.544C298.306 118.544 290.002 118.112 290.002 113.312C290.002 111.44 291.586 109.664 293.506 109.664C294.37 109.664 295.042 109.856 296.434 110.288C298.306 110.864 300.226 111.056 302.194 111.056Z" fill="#004898"/>
<path d="M256.738 97.088C253.042 98 249.25 98.432 245.458 98.432C242.578 98.432 238.018 98.096 238.018 94.256C238.018 92.2399 239.602 90.368 241.666 90.368C242.05 90.368 242.386 90.4159 242.77 90.464C244.114 90.6079 245.458 90.704 246.802 90.704C255.874 90.704 265.714 86.144 270.946 79.616C272.05 78.272 272.866 77.6479 274.354 77.6479C276.37 77.6479 278.242 79.328 278.242 81.392C278.242 83.36 275.602 86.432 272.962 88.688C270.418 90.896 267.73 92.72 264.562 94.208V115.328C264.562 117.488 262.786 119.264 260.674 119.264C258.514 119.264 256.738 117.488 256.738 115.328V97.088Z" fill="#004898"/>
<path d="M232.93 80.72C232.93 84.176 230.05 87.056 226.594 87.056C223.186 87.056 220.258 84.176 220.258 80.72C220.258 77.264 223.186 74.384 226.594 74.384C230.05 74.384 232.93 77.264 232.93 80.72ZM212.722 83.312H218.674C219.778 86.72 222.994 89.12 226.594 89.12C227.41 89.12 228.226 88.976 229.042 88.784C228.37 89.648 227.314 90.224 226.21 90.224H212.626V115.52C212.626 117.44 210.994 119.024 209.074 119.024C207.202 119.024 205.522 117.44 205.522 115.52V90.224H191.986C190.114 90.224 188.53 88.688 188.53 86.768C188.53 84.896 190.114 83.312 191.986 83.312H205.474V80.528C205.474 78.56 207.106 76.928 209.074 76.928C211.042 76.928 212.722 78.56 212.722 80.528V83.312ZM229.426 80.72C229.426 79.184 228.13 77.888 226.594 77.888C225.058 77.888 223.762 79.184 223.762 80.72C223.762 82.256 225.106 83.552 226.594 83.552C228.13 83.552 229.426 82.256 229.426 80.72ZM221.842 94.304C223.378 94.304 225.058 95.648 225.154 96.8C225.202 97.664 225.25 99.056 225.25 100.208C225.25 104.048 226.354 107.792 229.186 110.48C230.098 111.344 231.01 112.352 231.01 113.696C231.01 115.568 229.378 117.104 227.554 117.104C225.826 117.104 224.29 115.712 223.186 114.512C221.026 112.16 219.586 109.136 218.818 106.064C218.338 104 218.242 101.936 218.242 99.872C218.242 97.808 218.338 96.944 218.866 96.032C219.442 94.976 220.69 94.304 221.842 94.304ZM192.898 100.256C192.898 98.816 192.898 97.712 193.042 96.8C193.282 95.264 194.818 94.304 196.306 94.304C197.842 94.304 199.186 95.36 199.666 96.8C199.858 97.472 199.954 98 199.954 100.304C199.954 104.192 199.138 107.936 197.266 111.344C196.018 113.648 193.378 117.104 190.498 117.104C188.722 117.104 187.138 115.472 187.138 113.696C187.138 112.352 188.098 111.344 189.01 110.48C191.794 107.792 192.898 104.048 192.898 100.256Z" fill="#004898"/>
<path d="M161.985 84.992C162.897 85.568 163.665 86.624 163.665 87.776C163.665 89.264 163.137 92.624 162.705 95.264C162.225 98.096 161.649 100.928 161.025 103.76C160.257 106.928 159.537 110.288 157.953 113.216C156.273 116.24 153.489 117.344 150.129 117.344C147.345 117.344 144.897 116.24 142.881 114.368C138.993 110.816 137.457 105.632 137.457 100.496C137.457 87.344 146.337 77.936 159.585 77.936C167.697 77.936 176.001 81.488 179.553 89.216C180.801 91.952 181.281 95.072 181.281 98.048C181.281 105.152 178.593 112.4 172.209 116.144C170.097 117.344 167.457 118.304 164.961 118.304C162.849 118.304 161.025 116.672 161.025 114.56C161.025 112.832 162.321 111.344 163.905 110.912C168.945 109.616 173.697 107.36 173.697 97.856C173.697 90.464 169.281 85.856 161.985 84.992ZM158.241 84.896C149.601 85.76 144.705 91.952 144.705 100.496C144.705 103.712 145.809 110.192 150.033 110.192C150.609 110.192 151.185 110 151.617 109.616C152.673 108.656 153.585 104.144 153.921 102.656C154.881 98.192 155.793 93.68 156.321 89.168C156.513 87.536 156.753 85.856 158.241 84.896Z" fill="#004898"/>
<path d="M126.338 86C126.338 96.88 121.698 106.8 112.018 112.48C105.538 116.32 98.0975 117.84 90.5775 117.84C87.6175 117.84 83.2175 117.44 80.6575 117.04C76.5775 116.4 72.8175 115.44 69.2175 113.44C67.1375 112.24 65.5375 110.16 65.5375 107.68C65.5375 104.64 68.1775 101.76 71.2975 101.76C72.6575 101.76 74.0175 102.16 75.2975 102.64C80.2575 104.48 85.4575 105.52 90.8175 105.52C103.218 105.52 113.698 99.76 113.698 86.08C113.698 73.2 103.298 70.32 92.4975 70.32C84.0975 70.32 75.7775 71.04 67.5375 72.32C66.7375 72.48 65.8575 72.56 65.0575 72.56C61.6975 72.56 58.9775 69.68 58.9775 66.32C58.9775 64.72 59.5375 63.12 60.7375 62C62.8175 59.92 70.9775 59.28 74.0175 59.04C80.0975 58.48 86.1775 58 92.2575 58C110.978 58 126.338 64.88 126.338 86Z" fill="#004898"/>
<path d="M36.7027 80.8C42.4627 84.88 45.5827 90 45.5827 97.2C45.5827 102.72 43.9027 108 39.9027 112C35.1827 116.64 29.1827 117.76 22.7827 117.76C15.8227 117.76 9.10274 116.16 4.62274 110.4C2.22274 107.36 0.302734 103.12 0.302734 99.2C0.302734 95.2 3.02274 93.52 6.78274 93.52C12.0627 93.52 13.0227 95.76 13.5827 99.92C13.9027 102.16 15.0227 103.6 16.3827 104.64C18.0627 106 20.6227 106.48 22.9427 106.48C26.3827 106.48 29.1027 105.2 30.9427 102.24C31.8227 100.8 32.0627 98.72 32.0627 96.96C32.0627 90.8 29.0227 87.36 22.7027 87.36H21.5027C17.9827 87.36 16.1427 85.76 16.1427 82.16C16.1427 78.56 18.0627 77.12 21.5027 77.12H22.7027C28.1427 77.12 30.1427 73.2 30.1427 68.24C30.1427 63.36 27.4227 60.32 22.4627 60.32C17.5027 60.32 15.0227 62.64 14.3027 67.52C13.7427 71.2 12.5427 72.64 7.98273 72.64C4.30273 72.64 1.66273 70.96 1.66273 67.04C1.66273 63.52 3.42274 59.44 5.50274 56.64C9.66273 51.04 15.9827 49.04 22.7027 49.04C34.2227 49.04 43.5027 55.52 43.5027 67.76C43.5027 73.2 41.3427 77.84 36.7027 80.8Z" fill="#004898"/>
<path d="M267.568 10.992C268.48 11.568 269.248 12.624 269.248 13.776C269.248 15.264 268.72 18.624 268.288 21.264C267.808 24.096 267.232 26.928 266.608 29.76C265.84 32.928 265.12 36.288 263.536 39.216C261.856 42.24 259.072 43.344 255.712 43.344C252.928 43.344 250.48 42.24 248.464 40.368C244.576 36.816 243.04 31.632 243.04 26.496C243.04 13.344 251.92 3.93604 265.168 3.93604C273.28 3.93604 281.584 7.48804 285.136 15.216C286.384 17.952 286.864 21.072 286.864 24.048C286.864 31.152 284.176 38.4 277.792 42.144C275.68 43.344 273.04 44.304 270.544 44.304C268.432 44.304 266.608 42.672 266.608 40.56C266.608 38.832 267.904 37.344 269.488 36.912C274.528 35.616 279.28 33.36 279.28 23.856C279.28 16.464 274.864 11.856 267.568 10.992ZM263.824 10.896C255.184 11.76 250.288 17.952 250.288 26.496C250.288 29.712 251.392 36.192 255.616 36.192C256.192 36.192 256.768 36 257.2 35.616C258.256 34.656 259.168 30.144 259.504 28.656C260.464 24.192 261.376 19.68 261.904 15.168C262.096 13.536 262.336 11.856 263.824 10.896Z" fill="#494949"/>
<path d="M201.088 16.6079C199.024 17.7119 196.912 18.6719 195.76 18.6719C193.552 18.6719 192.256 16.1279 192.256 14.2079C192.256 11.5199 194.608 11.0879 198.448 9.50393C202 8.06393 205.12 5.85593 208.144 3.59993C210.784 1.63193 211.744 0.575928 215.248 0.575928C218.752 0.575928 220 1.96793 222.736 3.98393C226.672 6.91193 230.512 9.16793 235.072 10.9919C236.656 11.6159 237.712 12.2399 237.712 14.1119C237.712 16.2239 236.368 18.7199 233.968 18.7199C232.72 18.7199 230.56 17.6639 228.736 16.6559C228.592 18.8639 227.392 19.5359 225.28 19.5359H218.368V22.7039H232.48C235.072 22.7039 235.984 23.8079 235.984 26.3039C235.984 28.6559 234.64 29.5199 232.48 29.5199H229.072C229.984 29.9039 230.896 30.6239 230.896 31.7279C230.896 33.0239 229.12 37.4399 228.112 38.3039H233.488C236.08 38.3039 236.992 39.4079 236.992 41.9039C236.992 44.2559 235.696 45.1199 233.488 45.1199H196.144C193.552 45.1199 192.592 44.0159 192.592 41.4719C192.592 39.1679 193.984 38.3039 196.144 38.3039H201.52C200.752 37.5359 200.032 35.5679 199.456 34.2719C199.072 33.5039 198.688 32.6879 198.688 31.8719C198.688 30.6239 199.696 29.9519 200.704 29.5199H197.2C194.656 29.5199 193.696 28.4159 193.696 25.9199C193.696 23.5679 195.04 22.7039 197.2 22.7039H211.264V19.5359H204.544C202.432 19.5359 201.184 18.8159 201.088 16.6079ZM207.376 12.9599H222.784C220.24 11.1839 218.032 9.35993 215.824 7.24793C215.584 7.00793 215.344 6.81593 215.056 6.81593C214.576 6.81593 214.144 7.34393 213.856 7.67993C212.032 9.59993 209.584 11.4719 207.376 12.9599ZM204.688 29.5199C205.696 30.1439 206.176 31.6799 206.608 32.7359C207.088 33.7919 207.712 35.3279 207.712 36.4799C207.712 37.3919 207.328 37.8719 206.512 38.3039H211.264V29.5199H204.688ZM223.12 38.3039C222.304 37.8239 221.776 37.1999 221.776 36.1919C221.776 35.1839 222.688 33.8879 223.6 31.3439C223.888 30.6239 224.176 29.9519 224.848 29.5199H218.368V38.3039H223.12Z" fill="#494949"/>
<path d="M159.376 17.0881C159.616 15.2641 160.768 14.6881 162.496 14.6881H169.744V11.5201H163.84C161.584 11.5201 160.624 10.4161 160.624 8.16007C160.624 6.09607 161.824 5.13607 163.84 5.13607H169.744V3.79206C169.744 1.15207 171.376 0.768066 173.632 0.768066C175.744 0.768066 176.992 1.53607 176.992 3.79206V5.13607H183.424C185.68 5.13607 186.736 6.09607 186.736 8.40007C186.736 10.6081 185.488 11.5201 183.424 11.5201H176.992V14.6881H184.624C187.168 14.6881 187.936 15.7921 187.936 18.2401C187.936 20.3041 187.024 21.5041 184.864 21.5041H182.992V24.4321H184.576C186.88 24.4321 187.552 25.9201 187.552 28.0321C187.552 30.0001 186.64 31.2961 184.576 31.2961H182.992V41.0401C182.992 43.2961 182.368 44.9281 180.784 45.6481C179.44 46.2721 177.424 46.3681 175.744 46.3681H174.112C171.088 46.3681 168.4 46.2721 168.4 42.3361V41.7601C168.064 41.8561 167.776 41.9041 167.44 41.9041C165.568 41.9041 165.04 40.9921 164.128 39.1201C163.744 38.3521 163.216 37.4881 162.736 36.7681C162.112 35.8561 161.632 35.1361 161.632 34.2721C161.632 32.7361 162.784 31.8241 164.128 31.2961H162.928C160.384 31.2961 159.712 30.0001 159.712 27.6481C159.712 25.4881 160.72 24.4321 162.928 24.4321H175.744V21.5041H162.496C160.768 21.5041 159.616 20.8801 159.376 19.0561V38.3041C159.376 43.2961 158.416 44.2561 153.424 44.2561H149.44C144.448 44.2561 143.536 43.2961 143.536 38.3041V8.73607C143.536 3.74407 144.448 2.83207 149.44 2.83207H153.424C158.416 2.83207 159.376 3.79206 159.376 8.73607V17.0881ZM153.232 20.4961V10.3681C153.232 9.79207 152.944 9.45607 152.32 9.45607H150.88C150.256 9.45607 149.968 9.79207 149.968 10.3681V20.4961H153.232ZM153.232 26.4481H149.968V36.7681C149.968 37.3921 150.256 37.6801 150.88 37.6801H152.32C152.944 37.6801 153.232 37.3921 153.232 36.7681V26.4481ZM167.248 31.2961C167.872 31.5841 169.264 33.2641 170.32 34.9921C171.088 36.2401 171.712 37.5361 171.712 38.3041C171.712 38.5441 171.616 38.8801 171.52 39.1681C172.336 39.1681 173.152 39.2161 173.968 39.2161C175.504 39.2161 175.744 38.5921 175.744 37.1521V31.2961H167.248Z" fill="#494949"/>
<path d="M96.3524 19.4399H133.888C136.528 19.4399 137.632 20.8799 137.632 23.4239C137.632 25.8719 136.384 27.2159 133.888 27.2159H96.3524C93.7124 27.2159 92.6084 25.7759 92.6084 23.2319C92.6084 22.1279 92.9924 20.8799 93.8084 20.1599C94.5284 19.5839 95.4884 19.4399 96.3524 19.4399Z" fill="#494949"/>
</svg>
