<svg width="66" height="66" viewBox="0 0 66 66" fill="none" xmlns="http://www.w3.org/2000/svg">
<path d="M57.8578 0.272949H7.23222C3.2545 0.272949 0.0361611 3.52773 0.0361611 7.5058L0 58.1357C0 62.1138 3.2545 65.3686 7.23222 65.3686H57.8578C61.8355 65.3686 65.09 62.1138 65.09 58.1357V7.5058C65.09 3.52773 61.8355 0.272949 57.8578 0.272949ZM50.6255 40.0536H39.7772V50.9029C39.7772 52.8919 38.15 54.5193 36.1611 54.5193H28.9289C26.94 54.5193 25.3128 52.8919 25.3128 50.9029V40.0536H14.4644C12.4756 40.0536 10.8483 38.4262 10.8483 36.4372V29.2043C10.8483 27.2153 12.4756 25.5879 14.4644 25.5879H25.3128V14.7386C25.3128 12.7496 26.94 11.1222 28.9289 11.1222H36.1611C38.15 11.1222 39.7772 12.7496 39.7772 14.7386V25.5879H50.6255C52.6144 25.5879 54.2417 27.2153 54.2417 29.2043V36.4372C54.2417 38.4262 52.6144 40.0536 50.6255 40.0536Z" fill="#CBECFF"/>
</svg>
