<svg width="404" height="92" viewBox="0 0 404 92" fill="none" xmlns="http://www.w3.org/2000/svg">
<path d="M397.962 78.2084L396.934 65.1783L396.743 59.5015H403.068L402.877 65.1783L401.849 78.2084H397.962ZM399.905 88.3428C398.94 88.3428 398.14 88.0253 397.505 87.3903C396.87 86.7553 396.553 85.9553 396.553 84.9901C396.553 83.9995 396.87 83.1867 397.505 82.5517C398.14 81.9167 398.94 81.5992 399.905 81.5992C400.871 81.5992 401.671 81.9167 402.306 82.5517C402.941 83.1867 403.258 83.9995 403.258 84.9901C403.258 85.9553 402.941 86.7553 402.306 87.3903C401.671 88.0253 400.871 88.3428 399.905 88.3428Z" fill="#494949"/>
<path d="M351.139 58.9682C351.672 59.0444 352.243 59.0952 352.853 59.1206C353.463 59.146 354.047 59.1587 354.606 59.1587C355.012 59.1587 355.622 59.1587 356.434 59.1587C357.247 59.1333 358.162 59.1079 359.178 59.0825C360.219 59.0571 361.248 59.0317 362.264 59.0063C363.28 58.9809 364.194 58.9555 365.007 58.9301C365.845 58.8793 366.493 58.8412 366.95 58.8158C367.737 58.7396 368.36 58.6761 368.817 58.6253C369.274 58.5491 369.617 58.4729 369.845 58.3967L372.322 61.7876C371.89 62.067 371.446 62.3464 370.988 62.6258C370.531 62.9052 370.087 63.21 369.655 63.5402C369.147 63.8958 368.537 64.3657 367.826 64.9499C367.115 65.5086 366.353 66.1055 365.54 66.7405C364.753 67.3755 363.978 67.9978 363.216 68.6074C362.48 69.217 361.806 69.7631 361.197 70.2457C361.832 70.0933 362.441 69.9917 363.026 69.9409C363.61 69.8647 364.207 69.8266 364.816 69.8266C366.975 69.8266 368.906 70.2457 370.607 71.0839C372.335 71.9221 373.693 73.065 374.684 74.5128C375.7 75.9352 376.208 77.5735 376.208 79.4277C376.208 81.4343 375.7 83.2503 374.684 84.8759C373.668 86.5015 372.131 87.7969 370.074 88.7621C368.042 89.7273 365.489 90.2098 362.416 90.2098C360.663 90.2098 359.076 89.9559 357.654 89.4479C356.257 88.9399 355.152 88.216 354.339 87.2762C353.526 86.3364 353.12 85.2315 353.12 83.9615C353.12 82.9201 353.399 81.9549 353.958 81.066C354.542 80.1516 355.342 79.415 356.358 78.8562C357.4 78.2974 358.593 78.018 359.94 78.018C361.692 78.018 363.165 78.3736 364.359 79.0848C365.578 79.7706 366.505 80.6977 367.14 81.8661C367.801 83.0344 368.144 84.3171 368.169 85.7141L363.711 86.3237C363.686 84.9267 363.33 83.8091 362.645 82.9709C361.984 82.1073 361.095 81.6756 359.978 81.6756C359.266 81.6756 358.695 81.8661 358.263 82.247C357.831 82.6026 357.615 83.0217 357.615 83.5043C357.615 84.2155 357.971 84.787 358.682 85.2188C359.393 85.6506 360.321 85.8665 361.464 85.8665C363.622 85.8665 365.426 85.6125 366.874 85.1045C368.321 84.5711 369.401 83.8218 370.112 82.8566C370.849 81.866 371.217 80.6977 371.217 79.3515C371.217 78.2085 370.861 77.2052 370.15 76.3416C369.464 75.478 368.525 74.8049 367.331 74.3223C366.137 73.8397 364.791 73.5984 363.292 73.5984C361.819 73.5984 360.473 73.7889 359.254 74.1699C358.035 74.5255 356.879 75.0462 355.787 75.732C354.72 76.3924 353.666 77.2052 352.624 78.1704C351.608 79.1102 350.592 80.1643 349.576 81.3327L346.109 77.7513C346.795 77.1925 347.57 76.5702 348.433 75.8844C349.297 75.1732 350.173 74.4366 351.062 73.6746C351.977 72.9127 352.828 72.2015 353.615 71.5411C354.428 70.8553 355.114 70.2838 355.672 69.8266C356.206 69.3948 356.828 68.8868 357.539 68.3026C358.25 67.7184 358.987 67.1215 359.749 66.5119C360.511 65.8769 361.235 65.28 361.921 64.7213C362.606 64.1371 363.178 63.6418 363.635 63.2354C363.254 63.2354 362.759 63.2481 362.149 63.2735C361.54 63.2989 360.867 63.3243 360.13 63.3497C359.419 63.3751 358.695 63.4005 357.958 63.4259C357.247 63.4513 356.574 63.4894 355.939 63.5402C355.329 63.5656 354.821 63.591 354.415 63.6164C353.907 63.6418 353.374 63.6799 352.815 63.7307C352.256 63.7815 351.748 63.845 351.291 63.9212L351.139 58.9682Z" fill="#494949"/>
<path d="M341.804 86.0189C340.915 86.8317 339.886 87.5048 338.718 88.0382C337.549 88.5715 336.19 88.8382 334.641 88.8382C333.219 88.8382 332.063 88.343 331.174 87.3524C330.31 86.3618 329.879 84.9394 329.879 83.0852C329.879 82.0692 329.942 80.977 330.069 79.8086C330.221 78.6149 330.387 77.4211 330.564 76.2273C330.742 75.0335 330.895 73.9032 331.022 72.8364C331.174 71.7442 331.25 70.7664 331.25 69.9028C331.25 68.963 331.022 68.2645 330.564 67.8073C330.107 67.3247 329.472 67.0834 328.659 67.0834C327.77 67.0834 326.78 67.4009 325.688 68.0359C324.595 68.6455 323.478 69.4329 322.335 70.3981C321.192 71.3633 320.1 72.3919 319.058 73.4841C318.042 74.5763 317.153 75.6177 316.391 76.6083L316.353 70.741C316.81 70.233 317.407 69.6361 318.144 68.9503C318.906 68.2645 319.757 67.5533 320.697 66.8167C321.662 66.0801 322.665 65.3943 323.706 64.7593C324.773 64.0989 325.84 63.5655 326.907 63.1591C327.999 62.7528 329.053 62.5496 330.069 62.5496C331.441 62.5496 332.558 62.8036 333.422 63.3115C334.311 63.7941 334.971 64.4672 335.403 65.3308C335.835 66.169 336.051 67.1215 336.051 68.1883C336.051 69.1789 335.987 70.2584 335.86 71.4268C335.733 72.5697 335.581 73.7381 335.403 74.9319C335.225 76.1257 335.073 77.3068 334.946 78.4752C334.844 79.6436 334.793 80.7103 334.793 81.6755C334.793 82.1835 334.92 82.6026 335.174 82.9328C335.428 83.2376 335.784 83.39 336.241 83.39C336.952 83.39 337.74 83.1614 338.603 82.7042C339.467 82.2216 340.331 81.5358 341.194 80.6468L341.804 86.0189ZM315.477 67.8454C315.071 67.8962 314.55 67.9597 313.915 68.0359C313.28 68.1121 312.594 68.201 311.857 68.3026C311.146 68.4042 310.422 68.5058 309.686 68.6074C308.949 68.709 308.263 68.7979 307.628 68.8741L307.133 63.9973C307.692 64.0227 308.213 64.0354 308.695 64.0354C309.203 64.01 309.787 63.9846 310.448 63.9592C311.057 63.9084 311.781 63.8449 312.619 63.7687C313.483 63.6671 314.347 63.5528 315.21 63.4258C316.099 63.2988 316.925 63.1591 317.687 63.0068C318.449 62.8544 319.046 62.702 319.477 62.5496L321.001 64.4926C320.773 64.7974 320.506 65.1784 320.201 65.6356C319.922 66.0928 319.63 66.5627 319.325 67.0453C319.02 67.5025 318.753 67.9089 318.525 68.2645L316.277 75.4272C315.871 76.0114 315.363 76.748 314.753 77.637C314.169 78.526 313.547 79.4658 312.886 80.4563C312.226 81.4469 311.578 82.3994 310.943 83.3138C310.308 84.2282 309.737 85.0283 309.229 85.7141L306.219 81.5612C306.701 80.9516 307.247 80.2531 307.857 79.4658C308.492 78.653 309.152 77.8021 309.838 76.9131C310.524 75.9987 311.197 75.097 311.857 74.208C312.518 73.2936 313.127 72.4427 313.686 71.6553C314.27 70.8426 314.753 70.1441 315.134 69.5599L315.21 68.5693L315.477 67.8454ZM315.02 60.5303C315.02 59.9715 315.02 59.4127 315.02 58.8539C315.02 58.2697 314.969 57.6855 314.867 57.1013L320.43 57.2918C320.278 57.876 320.112 58.7269 319.935 59.8445C319.782 60.9367 319.617 62.194 319.439 63.6163C319.287 65.0387 319.135 66.5373 318.982 68.1121C318.855 69.6615 318.741 71.2108 318.639 72.7602C318.563 74.3096 318.525 75.7574 318.525 77.1036C318.525 78.145 318.525 79.1991 318.525 80.2658C318.55 81.3326 318.576 82.4248 318.601 83.5424C318.627 84.66 318.677 85.8157 318.754 87.0095C318.779 87.3397 318.817 87.7969 318.868 88.3811C318.919 88.9906 318.969 89.5113 319.02 89.9431H313.762C313.813 89.4859 313.839 88.9779 313.839 88.4192C313.864 87.8604 313.877 87.4286 313.877 87.1238C313.902 85.8792 313.928 84.7235 313.953 83.6567C313.978 82.5899 313.991 81.4596 313.991 80.2658C314.016 79.0721 314.055 77.6878 314.105 76.113C314.131 75.5288 314.169 74.7922 314.22 73.9032C314.27 72.9888 314.321 71.9982 314.372 70.9315C314.448 69.8393 314.524 68.7344 314.601 67.6168C314.677 66.4992 314.74 65.4578 314.791 64.4926C314.867 63.502 314.918 62.6639 314.944 61.9781C314.994 61.2669 315.02 60.7843 315.02 60.5303Z" fill="#494949"/>
<path d="M286.331 60.5303H299.323V64.9879H286.331V60.5303ZM268.196 57.7871H287.436V62.0162H268.196V57.7871ZM273.225 65.6356H282.369V69.7123H273.225V65.6356ZM273.225 73.5603H282.369V77.637H273.225V73.5603ZM298.066 60.5303H298.866L299.666 60.3779L302.638 61.1399C302.155 66.296 301.266 70.7918 299.971 74.6271C298.701 78.4625 297.037 81.739 294.98 84.4568C292.922 87.1746 290.446 89.4097 287.55 91.1623C287.22 90.5781 286.763 89.905 286.179 89.143C285.62 88.4065 285.086 87.835 284.578 87.4286C287.118 86.0824 289.315 84.1901 291.17 81.7517C293.024 79.288 294.535 76.3543 295.704 72.9507C296.897 69.5218 297.685 65.7118 298.066 61.5209V60.5303ZM290.827 65.1022C291.436 68.3788 292.313 71.4648 293.456 74.3604C294.599 77.256 296.046 79.8214 297.799 82.0565C299.552 84.2917 301.647 86.0697 304.085 87.3905C303.755 87.6699 303.374 88.0254 302.942 88.4572C302.536 88.9144 302.155 89.3716 301.799 89.8288C301.444 90.3114 301.152 90.7559 300.923 91.1623C298.256 89.5367 295.983 87.4921 294.103 85.0283C292.249 82.5645 290.713 79.7197 289.493 76.494C288.274 73.2682 287.258 69.7504 286.445 65.9404L290.827 65.1022ZM270.825 59.5016H275.168V84.4187H270.825V59.5016ZM280.616 59.5016H284.998V91.3909H280.616V59.5016ZM267.281 82.7423C268.551 82.6153 269.986 82.4502 271.587 82.247C273.212 82.0438 274.927 81.8152 276.73 81.5612C278.559 81.3072 280.362 81.0532 282.14 80.7992L282.369 84.9902C279.905 85.422 277.416 85.8411 274.901 86.2475C272.387 86.6285 270.139 86.9841 268.158 87.3143L267.281 82.7423Z" fill="#494949"/>
<path d="M258.099 57.7109C258.048 58.1173 258.01 58.5491 257.985 59.0063C257.959 59.4381 257.934 59.8699 257.909 60.3017C257.883 60.6573 257.871 61.2034 257.871 61.94C257.896 62.6512 257.909 63.464 257.909 64.3784C257.909 65.2673 257.909 66.1817 257.909 67.1215C257.909 68.0359 257.909 68.8868 257.909 69.6742C257.934 70.4616 257.947 71.0712 257.947 71.503C257.947 73.7635 257.858 75.8209 257.68 77.6751C257.528 79.5039 257.172 81.193 256.613 82.7423C256.08 84.2917 255.254 85.7268 254.137 87.0476C253.045 88.3684 251.546 89.6384 249.641 90.8575L245.26 87.3905C245.971 87.0857 246.758 86.6539 247.622 86.0951C248.485 85.5109 249.171 84.9267 249.679 84.3425C250.416 83.5805 251.013 82.7804 251.47 81.9422C251.927 81.1041 252.283 80.177 252.537 79.161C252.816 78.145 252.994 77.0147 253.07 75.7701C253.172 74.5255 253.222 73.0905 253.222 71.4649C253.222 70.7791 253.222 69.9155 253.222 68.8741C253.222 67.8327 253.21 66.7532 253.184 65.6356C253.159 64.5181 253.134 63.4894 253.108 62.5496C253.083 61.5844 253.045 60.8478 252.994 60.3398C252.968 59.8572 252.905 59.3746 252.803 58.892C252.727 58.4094 252.651 58.0157 252.575 57.7109H258.099ZM243.088 65.1403C243.698 65.2165 244.32 65.2927 244.955 65.3689C245.59 65.4197 246.225 65.4705 246.86 65.5213C247.52 65.5467 248.181 65.5594 248.841 65.5594C250.492 65.5594 252.219 65.5213 254.023 65.4451C255.826 65.3689 257.566 65.2546 259.242 65.1022C260.919 64.9245 262.379 64.7213 263.624 64.4927L263.585 69.4456C262.392 69.5726 260.982 69.6996 259.356 69.8266C257.731 69.9282 256.016 70.0171 254.213 70.0933C252.435 70.1441 250.682 70.1695 248.955 70.1695C248.422 70.1695 247.812 70.1568 247.126 70.1314C246.441 70.106 245.755 70.0806 245.069 70.0552C244.383 70.0298 243.723 70.0044 243.088 69.979V65.1403ZM239.164 58.3586C239.011 58.8158 238.846 59.3492 238.668 59.9588C238.491 60.543 238.351 61.0383 238.249 61.4447C238.021 62.4861 237.779 63.7434 237.525 65.2165C237.271 66.6643 237.055 68.1756 236.878 69.7504C236.7 71.3252 236.611 72.8746 236.611 74.3985C236.611 75.8971 236.738 77.2306 236.992 78.399C237.246 77.8148 237.538 77.1163 237.868 76.3035C238.198 75.4653 238.516 74.6906 238.821 73.9794L241.183 75.5034C240.827 76.5956 240.472 77.7259 240.116 78.8943C239.786 80.0373 239.494 81.1295 239.24 82.1708C238.986 83.1868 238.77 84.0631 238.592 84.7997C238.516 85.0791 238.452 85.4093 238.402 85.7903C238.376 86.1459 238.364 86.438 238.364 86.6666C238.364 86.8444 238.364 87.0857 238.364 87.3905C238.389 87.6953 238.414 87.9747 238.44 88.2287L234.211 88.6478C233.931 87.8858 233.614 86.8444 233.258 85.5236C232.928 84.1774 232.636 82.7042 232.382 81.1041C232.153 79.4785 232.039 77.8783 232.039 76.3035C232.039 74.2207 232.103 72.2142 232.23 70.2838C232.382 68.3534 232.56 66.6008 232.763 65.026C232.966 63.4259 233.131 62.1178 233.258 61.1018C233.36 60.5684 233.423 60.0096 233.449 59.4254C233.474 58.8158 233.5 58.2697 233.525 57.7871L239.164 58.3586Z" fill="#494949"/>
<path d="M192.721 66.5499H226.134V74.8937H221.677V70.5122H197.026V74.8937H192.721V66.5499ZM198.245 73.4459H218.324V77.6749H198.245V73.4459ZM221.677 55.4248L224.763 59.1205C222.604 59.5269 220.267 59.8951 217.752 60.2253C215.263 60.5301 212.672 60.7968 209.98 61.0254C207.313 61.254 204.633 61.4445 201.941 61.5969C199.249 61.7493 196.633 61.8509 194.093 61.9017C194.067 61.3429 193.94 60.6825 193.712 59.9205C193.508 59.1586 193.305 58.5236 193.102 58.0156C195.617 57.9394 198.182 57.8251 200.798 57.6727C203.44 57.5203 206.018 57.3425 208.532 57.1393C211.072 56.9107 213.46 56.6567 215.695 56.3773C217.93 56.0725 219.924 55.755 221.677 55.4248ZM196.455 62.6256L200.417 61.5207C200.874 62.2065 201.306 62.9685 201.713 63.8067C202.144 64.6449 202.449 65.3815 202.627 66.0165L198.398 67.2357C198.271 66.6007 198.017 65.8514 197.636 64.9878C197.255 64.1242 196.861 63.3368 196.455 62.6256ZM206.513 61.8255L210.552 60.9111C210.933 61.6985 211.288 62.5494 211.618 63.4638C211.974 64.3782 212.203 65.1783 212.304 65.8641L207.999 66.9309C207.923 66.2451 207.732 65.4196 207.427 64.4544C207.148 63.4892 206.843 62.6129 206.513 61.8255ZM218.591 60.8349L223.429 61.9779C222.997 62.7907 222.553 63.5908 222.096 64.3782C221.639 65.1656 221.181 65.9149 220.724 66.6261C220.267 67.3119 219.848 67.9215 219.467 68.4548L215.695 67.3881C216.051 66.7531 216.406 66.0673 216.762 65.3307C217.143 64.5687 217.486 63.794 217.791 63.0066C218.121 62.2192 218.387 61.4953 218.591 60.8349ZM216.648 73.4459H217.6L218.4 73.2935L221.524 75.1604C220.381 77.6495 218.895 79.8085 217.067 81.6373C215.263 83.4407 213.18 84.9647 210.818 86.2092C208.456 87.4538 205.891 88.4698 203.122 89.2572C200.379 90.0446 197.509 90.6415 194.512 91.0479C194.359 90.6669 194.131 90.2097 193.826 89.6763C193.521 89.1683 193.191 88.6603 192.835 88.1523C192.48 87.6697 192.15 87.276 191.845 86.9712C194.766 86.6664 197.547 86.2092 200.189 85.5996C202.83 84.9901 205.23 84.19 207.389 83.1994C209.548 82.1834 211.415 80.9388 212.99 79.4656C214.565 77.9924 215.784 76.2399 216.648 74.2079V73.4459ZM202.779 76.5701C204.202 78.475 206.081 80.126 208.418 81.523C210.78 82.8946 213.511 84.0122 216.609 84.8758C219.734 85.7393 223.15 86.3362 226.858 86.6664C226.528 86.9966 226.185 87.4284 225.83 87.9618C225.474 88.4952 225.131 89.0159 224.801 89.5239C224.496 90.0573 224.242 90.5399 224.039 90.9717C220.229 90.4891 216.749 89.7144 213.6 88.6476C210.45 87.5808 207.631 86.1838 205.141 84.4567C202.652 82.7041 200.531 80.6086 198.779 78.1702L202.779 76.5701Z" fill="#494949"/>
<path d="M177.816 74.9999V71.9824H181.451V61.8099H178.342V59.501C179.226 59.3486 179.98 59.1581 180.605 58.9295C181.245 58.6857 181.847 58.3809 182.411 58.0151H185.154V71.9824H188.286V74.9999H177.816Z" fill="#494949"/>
<path d="M162.912 57.8095L164.901 55.4778C165.511 55.7521 166.166 56.0874 166.867 56.4836C167.568 56.8646 168.231 57.2608 168.856 57.6723C169.481 58.0838 169.991 58.48 170.387 58.861L168.193 61.467C167.842 61.086 167.37 60.6746 166.776 60.2326C166.197 59.7907 165.564 59.3639 164.878 58.9525C164.192 58.5257 163.537 58.1447 162.912 57.8095ZM161.564 66.8162H173.359V69.7194H161.564V66.8162ZM159.918 73.4912H174.685V76.3716H159.918V73.4912ZM160.741 60.5069H174.205V63.3873H160.741V60.5069ZM165.77 61.467H168.947V74.7714H165.77V61.467ZM154.591 57.8323L156.237 55.6149C156.725 55.7826 157.243 55.9959 157.792 56.255C158.34 56.5141 158.866 56.7884 159.369 57.078C159.872 57.3675 160.283 57.6495 160.604 57.9238L158.82 60.3926C158.531 60.1183 158.142 59.8288 157.655 59.524C157.182 59.2039 156.672 58.8991 156.123 58.6096C155.59 58.3048 155.079 58.0457 154.591 57.8323ZM152.991 64.0502L154.569 61.7642C155.056 61.9318 155.582 62.1376 156.146 62.3814C156.71 62.6253 157.243 62.8843 157.746 63.1587C158.264 63.433 158.691 63.6997 159.026 63.9587L157.335 66.4962C157.045 66.2219 156.649 65.9399 156.146 65.6504C155.658 65.3608 155.132 65.0712 154.569 64.7817C154.02 64.4921 153.494 64.2483 152.991 64.0502ZM154.02 74.7943C154.431 74.2304 154.881 73.5598 155.369 72.7826C155.872 72.0054 156.382 71.1748 156.9 70.2909C157.418 69.3917 157.906 68.5078 158.363 67.6392L160.581 69.6508C160.184 70.4433 159.758 71.251 159.301 72.0739C158.859 72.8969 158.409 73.7122 157.952 74.5199C157.51 75.3124 157.053 76.0896 156.58 76.8516L154.02 74.7943Z" fill="#494949"/>
<path d="M132.211 57.4823C132.059 58.1681 131.932 58.7777 131.83 59.3111C131.729 59.8445 131.64 60.3652 131.564 60.8731C131.462 61.4065 131.335 62.1812 131.183 63.1972C131.056 64.1878 130.903 65.3181 130.725 66.5881C130.573 67.8327 130.408 69.1407 130.23 70.5123C130.078 71.8585 129.925 73.1793 129.773 74.4747C129.621 75.7701 129.494 76.9511 129.392 78.0179C129.316 79.0847 129.278 79.9356 129.278 80.5706C129.278 82.1454 129.748 83.3519 130.687 84.1901C131.653 85.0029 133.075 85.4093 134.954 85.4093C136.732 85.4093 138.231 85.168 139.45 84.6854C140.669 84.1774 141.596 83.5043 142.231 82.6661C142.866 81.8279 143.184 80.8881 143.184 79.8467C143.184 78.5513 142.841 77.294 142.155 76.0749C141.495 74.8303 140.53 73.6238 139.26 72.4554L144.632 71.3124C145.902 72.9126 146.829 74.4366 147.413 75.8844C148.023 77.3068 148.327 78.8307 148.327 80.4563C148.327 82.3613 147.781 84.0631 146.689 85.5617C145.597 87.0602 144.035 88.2286 142.003 89.0668C139.996 89.905 137.596 90.3241 134.802 90.3241C132.821 90.3241 131.056 90.0193 129.506 89.4097C127.957 88.8001 126.75 87.8349 125.887 86.5141C125.023 85.1934 124.591 83.4789 124.591 81.3707C124.591 80.5833 124.655 79.5419 124.782 78.2465C124.909 76.9258 125.061 75.478 125.239 73.9032C125.442 72.303 125.645 70.6901 125.849 69.0645C126.052 67.4136 126.23 65.8515 126.382 64.3783C126.56 62.9051 126.7 61.6351 126.801 60.5683C126.852 59.6794 126.877 59.0063 126.877 58.5491C126.903 58.0665 126.89 57.6093 126.839 57.1775L132.211 57.4823ZM118.61 62.2066C119.753 62.5622 120.997 62.867 122.344 63.121C123.69 63.3496 125.074 63.5274 126.496 63.6544C127.919 63.756 129.265 63.8068 130.535 63.8068C132.033 63.8068 133.43 63.756 134.726 63.6544C136.021 63.5528 137.152 63.4258 138.117 63.2734L137.964 67.8073C136.821 67.9089 135.678 67.9978 134.535 68.074C133.392 68.1502 132.021 68.1883 130.421 68.1883C129.125 68.1883 127.779 68.1248 126.382 67.9978C124.985 67.8454 123.601 67.6549 122.229 67.4263C120.858 67.1723 119.575 66.8929 118.381 66.5881L118.61 62.2066ZM117.81 71.6553C119.181 72.1125 120.566 72.4681 121.963 72.7221C123.385 72.9761 124.782 73.1539 126.153 73.2555C127.55 73.3317 128.884 73.3698 130.154 73.3698C131.322 73.3698 132.58 73.3317 133.926 73.2555C135.297 73.1793 136.593 73.065 137.812 72.9126L137.698 77.4464C136.631 77.548 135.539 77.6369 134.421 77.7131C133.303 77.7639 132.148 77.7893 130.954 77.7893C128.414 77.7893 125.976 77.6623 123.639 77.4083C121.302 77.129 119.27 76.748 117.543 76.2654L117.81 71.6553Z" fill="#004898"/>
<path d="M78.8721 61.8636C79.6341 61.8382 80.358 61.8128 81.0437 61.7874C81.7295 61.7366 82.2502 61.6985 82.6058 61.6731C83.3932 61.6223 84.3584 61.5461 85.5014 61.4445C86.6698 61.3175 87.9652 61.1905 89.3876 61.0635C90.8353 60.9365 92.372 60.8095 93.9976 60.6825C95.6232 60.5555 97.3123 60.4158 99.0648 60.2634C100.386 60.1364 101.694 60.0348 102.989 59.9586C104.31 59.857 105.554 59.7808 106.723 59.73C107.917 59.6538 108.958 59.603 109.847 59.5776L109.885 64.4544C109.199 64.4544 108.412 64.4671 107.523 64.4925C106.634 64.5179 105.745 64.5687 104.856 64.6449C103.992 64.6957 103.218 64.81 102.532 64.9878C101.389 65.2926 100.322 65.8133 99.3315 66.5499C98.3409 67.261 97.4774 68.1119 96.7408 69.1025C96.0296 70.0677 95.4708 71.1218 95.0644 72.2648C94.658 73.3824 94.4548 74.5127 94.4548 75.6556C94.4548 76.9002 94.6707 78.0051 95.1025 78.9703C95.5597 79.9101 96.1693 80.7229 96.9313 81.4087C97.7186 82.0691 98.633 82.6279 99.6744 83.0851C100.716 83.5169 101.833 83.847 103.027 84.0756C104.246 84.3042 105.504 84.4566 106.799 84.5328L105.008 89.7525C103.408 89.6509 101.846 89.3969 100.322 88.9905C98.8235 88.5841 97.4139 88.0253 96.0931 87.3141C94.7723 86.6029 93.6166 85.7393 92.626 84.7233C91.6608 83.682 90.8861 82.5009 90.3019 81.1801C89.7431 79.8339 89.4637 78.3353 89.4637 76.6843C89.4637 74.8556 89.7558 73.1792 90.34 71.6552C90.9242 70.1058 91.6481 68.7596 92.5117 67.6166C93.4007 66.4483 94.277 65.5466 95.1406 64.9116C94.4294 65.0132 93.5658 65.1148 92.5498 65.2164C91.5592 65.318 90.4797 65.445 89.3113 65.5974C88.1684 65.7244 87 65.8641 85.8062 66.0165C84.6124 66.1689 83.4567 66.3467 82.3391 66.5499C81.2469 66.7276 80.2564 66.9054 79.3674 67.0832L78.8721 61.8636ZM104.437 68.1881C104.767 68.6453 105.11 69.1914 105.466 69.8264C105.847 70.436 106.215 71.0583 106.57 71.6933C106.926 72.3029 107.231 72.8617 107.485 73.3697L104.589 74.6651C104.107 73.5983 103.637 72.6585 103.18 71.8457C102.748 71.0329 102.227 70.2074 101.618 69.3692L104.437 68.1881ZM108.704 66.4356C109.034 66.8927 109.39 67.4261 109.771 68.0357C110.177 68.6199 110.571 69.2295 110.952 69.8645C111.333 70.4741 111.65 71.0202 111.904 71.5028L109.047 72.8744C108.539 71.8584 108.044 70.9567 107.561 70.1693C107.104 69.3819 106.558 68.5691 105.923 67.7309L108.704 66.4356Z" fill="#004898"/>
<path d="M47.7072 66.3596H74.1483V69.9409H47.7072V66.3596ZM47.9739 77.4465H68.8906V81.0279H47.9739V77.4465ZM52.8507 63.845H57.1559V72.4936H64.1662V63.845H68.6239V75.9225H52.8507V63.845ZM67.7476 77.4465H68.6239L69.424 77.2941L72.2814 78.7419C71.2655 80.7993 69.932 82.5646 68.281 84.0377C66.6554 85.4855 64.7885 86.7047 62.6804 87.6953C60.5976 88.6859 58.337 89.4733 55.8986 90.0575C53.4603 90.6671 50.9076 91.1497 48.2406 91.5053C48.0628 90.9211 47.7834 90.248 47.4024 89.486C47.0468 88.7494 46.6912 88.1398 46.3356 87.6572C48.7486 87.454 51.0727 87.1238 53.3079 86.6666C55.5684 86.2094 57.6385 85.5998 59.5181 84.8378C61.3977 84.0758 63.036 83.1361 64.4329 82.0185C65.8553 80.8755 66.9602 79.5547 67.7476 78.0561V77.4465ZM55.8224 80.2659C56.9654 81.6883 58.4894 82.9075 60.3944 83.9234C62.2994 84.914 64.4964 85.7141 66.9856 86.3237C69.4748 86.9333 72.1925 87.3651 75.1389 87.6191C74.8087 87.9239 74.4658 88.3049 74.1102 88.7621C73.78 89.2447 73.4625 89.7273 73.1577 90.2099C72.8783 90.6925 72.637 91.137 72.4338 91.5434C69.3605 91.137 66.5411 90.5274 63.9757 89.7146C61.4104 88.9018 59.1117 87.835 57.0797 86.5142C55.0477 85.168 53.3206 83.5552 51.8982 81.6756L55.8224 80.2659ZM56.0129 55.6155H60.7754V61.3685H56.0129V55.6155ZM44.5831 59.0825H74.3769V63.1592H44.5831V59.0825ZM42.3733 59.0825H46.7547V69.7885C46.7547 71.3633 46.7039 73.0778 46.6023 74.932C46.5007 76.7861 46.3102 78.6911 46.0309 80.6469C45.7515 82.6027 45.3324 84.5076 44.7736 86.3618C44.2402 88.1906 43.5417 89.8416 42.6781 91.3148C42.4241 91.0608 42.0685 90.756 41.6113 90.4004C41.1541 90.0702 40.6842 89.7527 40.2016 89.4479C39.719 89.1431 39.2999 88.9272 38.9443 88.8002C39.7317 87.454 40.354 85.9681 40.8112 84.3425C41.2684 82.717 41.6113 81.066 41.8399 79.3896C42.0685 77.6878 42.2082 76.0114 42.259 74.3605C42.3352 72.7095 42.3733 71.1855 42.3733 69.7885V59.0825Z" fill="#004898"/>
<path d="M13.4175 58.9302H37.0393V63.2735H13.4175V58.9302ZM30.1432 60.4922H34.7152V86.0189C34.7152 87.3143 34.5501 88.3176 34.2199 89.0288C33.9151 89.74 33.3563 90.2734 32.5435 90.629C31.7053 90.9592 30.6385 91.1751 29.3432 91.2767C28.0478 91.4037 26.5111 91.4545 24.7331 91.4291C24.6569 90.7941 24.4664 90.0194 24.1616 89.105C23.8568 88.216 23.5393 87.4413 23.2091 86.7809C24.0473 86.8063 24.8601 86.8317 25.6475 86.8571C26.4603 86.8825 27.1715 86.8952 27.7811 86.8952C28.4161 86.8952 28.8606 86.8952 29.1146 86.8952C29.4955 86.8952 29.7622 86.8317 29.9146 86.7047C30.067 86.5523 30.1432 86.311 30.1432 85.9808V60.4922ZM13.8747 67.4264H18.18V83.7711H13.8747V67.4264ZM15.7416 67.4264H26.6381V81.2946H15.7416V77.3322H22.409V71.3506H15.7416V67.4264ZM9.49328 55.5774L13.7985 56.949C12.9857 59.0571 12.0333 61.1907 10.9411 63.3497C9.84888 65.5087 8.65509 67.5406 7.35971 69.4456C6.08972 71.3506 4.76894 73.027 3.39736 74.4748C3.24496 74.0938 3.02906 73.6112 2.74966 73.027C2.47027 72.4174 2.16547 71.8078 1.83527 71.1982C1.50508 70.5632 1.21298 70.0679 0.958984 69.7123C2.10197 68.5693 3.19416 67.2486 4.23555 65.75C5.30233 64.226 6.29292 62.6004 7.20731 60.8732C8.1217 59.1207 8.88369 57.3554 9.49328 55.5774ZM6.06432 66.2834L10.5982 61.7114L10.6363 61.7495V91.3148H6.06432V66.2834Z" fill="#004898"/>
<path d="M321.817 6.36851C322.986 6.52091 324.294 6.6352 325.741 6.7114C327.215 6.7622 328.701 6.7876 330.199 6.7876C331.723 6.7622 333.184 6.7114 334.581 6.6352C335.978 6.53361 337.184 6.43201 338.2 6.33041V11.2453C337.032 11.3468 335.749 11.4357 334.352 11.5119C332.955 11.5627 331.52 11.5881 330.047 11.5881C328.574 11.5881 327.126 11.5627 325.703 11.5119C324.306 11.4357 323.011 11.3468 321.817 11.2453V6.36851ZM324.865 22.637C324.713 23.272 324.599 23.8435 324.522 24.3515C324.446 24.8341 324.408 25.3294 324.408 25.8374C324.408 26.2438 324.51 26.6248 324.713 26.9804C324.916 27.3106 325.221 27.6027 325.627 27.8567C326.059 28.0853 326.605 28.263 327.265 28.39C327.951 28.4916 328.777 28.5424 329.742 28.5424C331.444 28.5424 333.044 28.4662 334.542 28.3138C336.041 28.1361 337.629 27.8821 339.305 27.5519L339.381 32.6953C338.162 32.9239 336.752 33.1017 335.152 33.2287C333.577 33.3557 331.71 33.4192 329.551 33.4192C326.275 33.4192 323.837 32.8731 322.236 31.7809C320.636 30.6633 319.836 29.1266 319.836 27.1709C319.836 26.4343 319.887 25.6723 319.988 24.8849C320.115 24.0721 320.281 23.1831 320.484 22.2179L324.865 22.637ZM315.95 3.81584C315.848 4.06983 315.734 4.42543 315.607 4.88263C315.48 5.33982 315.353 5.78431 315.226 6.21611C315.124 6.6479 315.048 6.9781 314.997 7.2067C314.921 7.74009 314.794 8.43858 314.616 9.30217C314.464 10.1404 314.299 11.0929 314.121 12.1596C313.969 13.201 313.816 14.2678 313.664 15.36C313.512 16.4522 313.385 17.5063 313.283 18.5223C313.207 19.5383 313.169 20.4272 313.169 21.1892C313.169 21.5448 313.169 21.9512 313.169 22.4084C313.194 22.8656 313.245 23.2847 313.321 23.6657C313.499 23.2339 313.689 22.8021 313.893 22.3703C314.096 21.9385 314.299 21.5067 314.502 21.0749C314.705 20.6177 314.883 20.1859 315.035 19.7796L317.398 21.6464C317.042 22.6878 316.674 23.8054 316.293 24.9992C315.937 26.193 315.607 27.3233 315.302 28.39C315.023 29.4314 314.807 30.295 314.655 30.9808C314.604 31.2602 314.553 31.5777 314.502 31.9333C314.477 32.2889 314.464 32.5683 314.464 32.7715C314.464 32.9747 314.464 33.216 314.464 33.4954C314.489 33.8002 314.515 34.0796 314.54 34.3336L310.121 34.6384C309.74 33.3176 309.397 31.565 309.092 29.3806C308.787 27.1709 308.635 24.7706 308.635 22.1798C308.635 20.7574 308.698 19.3097 308.825 17.8365C308.952 16.3633 309.105 14.9536 309.282 13.6074C309.46 12.2358 309.625 10.9913 309.778 9.87366C309.956 8.75608 310.108 7.82899 310.235 7.0924C310.286 6.55901 310.349 5.96211 310.425 5.30172C310.527 4.61593 310.591 3.96824 310.616 3.35864L315.95 3.81584Z" fill="#494949"/>
<path d="M294.234 4.46343C294.411 5.65721 294.665 6.9272 294.996 8.27338C295.351 9.59417 295.821 10.953 296.405 12.35C297.015 13.747 297.802 15.144 298.767 16.541C299.733 17.938 300.939 19.3096 302.387 20.6557L299.301 25.0372C297.904 23.4878 296.621 21.7606 295.453 19.8556C294.31 17.9253 293.243 15.7917 292.252 13.4549C291.262 11.1181 290.322 8.56548 289.433 5.79691L294.234 4.46343ZM269.164 6.3684C269.85 6.4192 270.561 6.4192 271.298 6.3684C272.212 6.3176 273.253 6.2414 274.422 6.1398C275.59 6.01281 276.771 5.87311 277.965 5.72071C279.159 5.54291 280.264 5.35242 281.28 5.14922C282.296 4.92062 283.121 4.69202 283.756 4.46343L285.204 8.69248C284.925 8.79408 284.607 8.92107 284.251 9.07347C283.896 9.20047 283.566 9.35287 283.261 9.53066C282.753 9.91166 282.156 10.4578 281.47 11.1689C280.81 11.8547 280.124 12.6675 279.413 13.6073C278.727 14.5471 278.092 15.6012 277.508 16.7696C276.924 17.9126 276.441 19.1572 276.06 20.5033C275.704 21.8241 275.527 23.2211 275.527 24.6943C275.527 25.8119 275.692 26.7644 276.022 27.5518C276.378 28.3391 276.847 28.9741 277.432 29.4567C278.016 29.9393 278.714 30.3076 279.527 30.5616C280.34 30.7902 281.191 30.9045 282.08 30.9045C284.975 30.9045 287.185 29.9139 288.709 27.9327C290.259 25.9516 291.122 23.1576 291.3 19.5508C291.503 15.9187 291.046 11.6896 289.928 6.8637L294.386 14.1407C294.792 16.1981 295.021 18.2682 295.072 20.3509C295.148 22.4083 294.983 24.3768 294.576 26.2564C294.17 28.1359 293.459 29.8123 292.443 31.2855C291.427 32.7587 290.055 33.9144 288.328 34.7526C286.626 35.5908 284.518 36.0099 282.004 36.0099C280.454 36.0099 278.994 35.794 277.622 35.3622C276.276 34.9558 275.07 34.3208 274.003 33.4572C272.961 32.619 272.136 31.5649 271.526 30.2949C270.942 28.9995 270.65 27.4883 270.65 25.7611C270.65 24.2117 270.802 22.7512 271.107 21.3796C271.412 20.008 271.831 18.7127 272.364 17.4935C272.923 16.2489 273.571 15.0424 274.308 13.874C275.07 12.7056 275.882 11.5499 276.746 10.407C276.289 10.4324 275.73 10.4832 275.07 10.5594C274.435 10.6356 273.812 10.7118 273.203 10.788C272.618 10.8642 272.136 10.9276 271.755 10.9784C271.374 11.0292 271.006 11.08 270.65 11.1308C270.32 11.1816 269.939 11.2451 269.507 11.3213L269.164 6.3684ZM297.663 2.36795C297.891 2.87594 298.145 3.46014 298.425 4.12053C298.704 4.78092 298.971 5.44131 299.225 6.10171C299.479 6.7367 299.695 7.32089 299.872 7.85429L297.015 8.80677C296.812 8.19718 296.583 7.57489 296.329 6.9399C296.1 6.2795 295.859 5.63181 295.605 4.99682C295.351 4.36183 295.084 3.77763 294.805 3.24424L297.663 2.36795ZM301.739 0.920166C302.171 1.70756 302.59 2.63465 302.996 3.70143C303.428 4.74282 303.797 5.64451 304.101 6.4065L301.244 7.35899C300.939 6.4954 300.584 5.56831 300.177 4.57772C299.796 3.56174 299.402 2.66005 298.996 1.87266L301.739 0.920166Z" fill="#494949"/>
<path d="M246.609 2.5966C246.456 3.10459 246.304 3.72689 246.152 4.46348C245.999 5.20007 245.885 5.77156 245.809 6.17796C245.631 7.04155 245.402 8.09564 245.123 9.34022C244.869 10.5848 244.577 11.9056 244.247 13.3026C243.942 14.6996 243.624 16.033 243.294 17.303C242.964 18.6492 242.558 20.1097 242.075 21.6845C241.592 23.2339 241.072 24.8213 240.513 26.4469C239.979 28.0471 239.433 29.5838 238.875 31.057C238.316 32.5047 237.77 33.8001 237.236 34.9431L231.94 33.1524C232.499 32.1873 233.096 31.0189 233.731 29.6473C234.366 28.2503 234.976 26.7517 235.56 25.1515C236.169 23.5514 236.728 21.9639 237.236 20.3891C237.744 18.8143 238.176 17.3538 238.532 16.0076C238.786 15.1187 239.027 14.2043 239.256 13.2645C239.484 12.3247 239.687 11.4103 239.865 10.5213C240.043 9.63232 240.195 8.80683 240.322 8.04484C240.475 7.25744 240.589 6.57165 240.665 5.98746C240.741 5.27627 240.792 4.56508 240.818 3.85388C240.843 3.14269 240.83 2.5712 240.78 2.1394L246.609 2.5966ZM236.893 8.27343C238.443 8.27343 240.056 8.19723 241.732 8.04484C243.408 7.89244 245.097 7.67654 246.799 7.39714C248.501 7.11775 250.19 6.78755 251.867 6.40656V11.169C250.292 11.5246 248.615 11.8294 246.837 12.0834C245.059 12.3374 243.307 12.5406 241.58 12.693C239.852 12.82 238.265 12.8835 236.817 12.8835C235.903 12.8835 235.077 12.8708 234.341 12.8454C233.604 12.7946 232.893 12.7565 232.207 12.7311L232.093 7.96864C233.083 8.07024 233.934 8.14643 234.646 8.19723C235.357 8.24803 236.106 8.27343 236.893 8.27343ZM248.857 14.1027C249.923 14.0011 251.105 13.9122 252.4 13.836C253.695 13.7598 254.953 13.7217 256.172 13.7217C257.264 13.7217 258.369 13.7471 259.486 13.7979C260.629 13.8487 261.76 13.9376 262.877 14.0646L262.763 18.6365C261.823 18.5095 260.782 18.4079 259.639 18.3317C258.521 18.2301 257.378 18.1793 256.21 18.1793C254.914 18.1793 253.657 18.2174 252.438 18.2936C251.244 18.3444 250.05 18.446 248.857 18.5984V14.1027ZM250.914 23.7038C250.762 24.2371 250.635 24.7959 250.533 25.3801C250.431 25.9389 250.381 26.4342 250.381 26.866C250.381 27.2724 250.47 27.6534 250.647 28.009C250.825 28.3646 251.105 28.6821 251.486 28.9615C251.866 29.2155 252.387 29.4187 253.048 29.5711C253.733 29.7235 254.584 29.7997 255.6 29.7997C256.896 29.7997 258.191 29.7362 259.486 29.6092C260.807 29.4568 262.153 29.2536 263.525 28.9996L263.334 33.8763C262.268 34.0033 261.087 34.1176 259.791 34.2192C258.496 34.3462 257.086 34.4097 255.562 34.4097C252.362 34.4097 249.911 33.889 248.209 32.8476C246.533 31.7809 245.694 30.2823 245.694 28.3519C245.694 27.4883 245.771 26.612 245.923 25.723C246.075 24.834 246.228 24.0085 246.38 23.2466L250.914 23.7038Z" fill="#494949"/>
<path d="M198.832 3.96822C199.365 4.04442 199.937 4.09522 200.546 4.12062C201.156 4.14602 201.74 4.15872 202.299 4.15872C202.705 4.15872 203.315 4.15872 204.128 4.15872C204.94 4.13332 205.855 4.10792 206.871 4.08252C207.912 4.05712 208.941 4.03172 209.957 4.00632C210.973 3.98092 211.887 3.95552 212.7 3.93012C213.538 3.87932 214.186 3.84122 214.643 3.81582C215.431 3.73962 216.053 3.67612 216.51 3.62533C216.967 3.54913 217.31 3.47293 217.539 3.39673L220.015 6.78759C219.583 7.06698 219.139 7.34638 218.682 7.62578C218.225 7.90517 217.78 8.20997 217.348 8.54017C216.84 8.89576 216.231 9.36566 215.519 9.94985C214.808 10.5086 214.046 11.1055 213.234 11.7405C212.446 12.3755 211.671 12.9978 210.909 13.6074C210.173 14.217 209.5 14.7631 208.89 15.2457C209.525 15.0933 210.135 14.9917 210.719 14.9409C211.303 14.8647 211.9 14.8266 212.51 14.8266C214.669 14.8266 216.599 15.2457 218.301 16.0839C220.028 16.9221 221.387 18.0651 222.377 19.5128C223.393 20.9352 223.901 22.5735 223.901 24.4277C223.901 26.4343 223.393 28.2503 222.377 29.8759C221.361 31.5015 219.825 32.7969 217.767 33.7621C215.735 34.7273 213.183 35.2099 210.109 35.2099C208.357 35.2099 206.769 34.9559 205.347 34.4479C203.95 33.9399 202.845 33.216 202.032 32.2762C201.219 31.3364 200.813 30.2315 200.813 28.9615C200.813 27.9201 201.092 26.955 201.651 26.066C202.235 25.1516 203.036 24.415 204.052 23.8562C205.093 23.2974 206.287 23.018 207.633 23.018C209.385 23.018 210.859 23.3736 212.052 24.0848C213.272 24.7706 214.199 25.6977 214.834 26.866C215.494 28.0344 215.837 29.3171 215.862 30.7141L211.405 31.3237C211.379 29.9267 211.024 28.8091 210.338 27.9709C209.678 27.1073 208.789 26.6756 207.671 26.6756C206.96 26.6756 206.388 26.8661 205.956 27.247C205.525 27.6026 205.309 28.0217 205.309 28.5043C205.309 29.2155 205.664 29.787 206.376 30.2188C207.087 30.6506 208.014 30.8665 209.157 30.8665C211.316 30.8665 213.119 30.6125 214.567 30.1045C216.015 29.5711 217.094 28.8218 217.805 27.8566C218.542 26.866 218.91 25.6977 218.91 24.3515C218.91 23.2085 218.555 22.2052 217.844 21.3416C217.158 20.478 216.218 19.8049 215.024 19.3223C213.83 18.8397 212.484 18.5984 210.986 18.5984C209.512 18.5984 208.166 18.7889 206.947 19.1699C205.728 19.5255 204.572 20.0462 203.48 20.732C202.413 21.3924 201.359 22.2052 200.318 23.1704C199.302 24.1102 198.286 25.1643 197.27 26.3327L193.803 22.7513C194.489 22.1925 195.263 21.5702 196.127 20.8844C196.99 20.1732 197.867 19.4366 198.756 18.6746C199.67 17.9127 200.521 17.2015 201.308 16.5411C202.121 15.8553 202.807 15.2838 203.366 14.8266C203.899 14.3948 204.521 13.8868 205.233 13.3026C205.944 12.7184 206.68 12.1215 207.442 11.5119C208.204 10.8769 208.928 10.28 209.614 9.72125C210.3 9.13706 210.871 8.64177 211.329 8.23537C210.948 8.23537 210.452 8.24807 209.843 8.27347C209.233 8.29887 208.56 8.32427 207.823 8.34967C207.112 8.37507 206.388 8.40047 205.652 8.42587C204.94 8.45127 204.267 8.48937 203.632 8.54017C203.023 8.56557 202.515 8.59097 202.108 8.61637C201.6 8.64176 201.067 8.67986 200.508 8.73067C199.949 8.78146 199.441 8.84496 198.984 8.92116L198.832 3.96822Z" fill="#494949"/>
<path d="M177.229 2.29175C177.204 2.49495 177.166 2.82514 177.115 3.28234C177.09 3.71413 177.064 4.15863 177.039 4.61582C177.013 5.04762 176.988 5.36511 176.963 5.56831C176.937 6.0763 176.925 6.76209 176.925 7.62569C176.925 8.46388 176.925 9.40366 176.925 10.4451C176.925 11.4864 176.925 12.5405 176.925 13.6073C176.95 14.6487 176.963 15.6393 176.963 16.5791C176.988 17.4935 177.001 18.2555 177.001 18.8651L172.238 17.2649C172.238 16.7823 172.238 16.1473 172.238 15.3599C172.238 14.5471 172.238 13.6708 172.238 12.731C172.238 11.7658 172.226 10.8133 172.2 9.87356C172.2 8.93377 172.188 8.08288 172.162 7.32089C172.137 6.5589 172.111 5.9874 172.086 5.60641C172.035 4.81902 171.972 4.13323 171.895 3.54903C171.819 2.93944 171.756 2.52035 171.705 2.29175H177.229ZM155.703 7.01609C156.821 7.01609 158.091 7.00339 159.513 6.97799C160.935 6.95259 162.421 6.92719 163.971 6.90179C165.52 6.87639 167.044 6.85099 168.543 6.82559C170.041 6.8002 171.451 6.7875 172.772 6.7875C174.092 6.7621 175.235 6.7494 176.201 6.7494C177.166 6.7494 178.22 6.7494 179.363 6.7494C180.506 6.724 181.636 6.7113 182.754 6.7113C183.871 6.7113 184.887 6.7113 185.802 6.7113C186.742 6.7113 187.465 6.7113 187.973 6.7113L187.935 11.207C186.742 11.1562 185.167 11.1181 183.211 11.0927C181.255 11.0419 178.868 11.0165 176.048 11.0165C174.321 11.0165 172.569 11.0419 170.791 11.0927C169.013 11.1181 167.247 11.1562 165.495 11.207C163.742 11.2578 162.053 11.3213 160.427 11.3975C158.802 11.4483 157.265 11.5245 155.817 11.6261L155.703 7.01609ZM176.315 18.2936C176.315 20.3763 176.061 22.1035 175.553 23.4751C175.07 24.8467 174.334 25.8881 173.343 26.5993C172.353 27.2851 171.121 27.6279 169.648 27.6279C168.936 27.6279 168.187 27.4756 167.4 27.1708C166.638 26.866 165.926 26.4215 165.266 25.8373C164.606 25.2531 164.072 24.5292 163.666 23.6656C163.285 22.802 163.094 21.786 163.094 20.6176C163.094 19.1698 163.437 17.9253 164.123 16.8839C164.809 15.8171 165.723 14.9916 166.866 14.4074C168.035 13.7978 169.317 13.493 170.714 13.493C172.391 13.493 173.788 13.874 174.905 14.636C176.048 15.3726 176.899 16.3759 177.458 17.6459C178.042 18.9159 178.334 20.3509 178.334 21.9511C178.334 23.1957 178.131 24.4911 177.725 25.8373C177.318 27.1835 176.645 28.5042 175.705 29.7996C174.791 31.0696 173.546 32.2253 171.972 33.2667C170.422 34.3081 168.479 35.159 166.142 35.8194L162.066 31.7808C163.691 31.4506 165.203 31.0188 166.6 30.4854C167.997 29.952 169.216 29.2789 170.257 28.4661C171.324 27.6533 172.149 26.6501 172.734 25.4563C173.343 24.2625 173.648 22.8274 173.648 21.151C173.648 19.9318 173.343 19.0175 172.734 18.4079C172.149 17.7983 171.438 17.4935 170.6 17.4935C170.117 17.4935 169.648 17.6078 169.19 17.8364C168.733 18.065 168.365 18.4079 168.085 18.8651C167.806 19.3222 167.666 19.881 167.666 20.5414C167.666 21.405 167.958 22.1035 168.543 22.6369C169.152 23.1449 169.838 23.3989 170.6 23.3989C171.21 23.3989 171.743 23.2084 172.2 22.8274C172.683 22.4464 173 21.8114 173.153 20.9224C173.305 20.0334 173.178 18.8397 172.772 17.3411L176.315 18.2936Z" fill="#494949"/>
<path d="M137.187 0.805908H141.645V6.82564H137.187V0.805908ZM128.691 4.80636H150.788V12.3501H146.559V8.69252H132.729V12.3501H128.691V4.80636ZM131.51 11.7786H147.855V15.7028H131.51V11.7786ZM129.224 18.4841H150.598V22.5607H129.224V18.4841ZM133.529 20.4272H137.873C137.797 22.4846 137.619 24.3514 137.339 26.0278C137.085 27.6788 136.628 29.1647 135.968 30.4855C135.333 31.7808 134.393 32.9111 133.148 33.8763C131.904 34.8669 130.265 35.7051 128.234 36.3909C128.107 36.0099 127.903 35.5908 127.624 35.1336C127.37 34.7018 127.078 34.27 126.748 33.8382C126.417 33.4064 126.1 33.0635 125.795 32.8095C127.522 32.3015 128.894 31.6792 129.91 30.9426C130.926 30.2061 131.675 29.3425 132.158 28.3519C132.666 27.3359 133.009 26.1802 133.186 24.8848C133.364 23.564 133.479 22.0782 133.529 20.4272ZM140.578 19.97H144.845V30.7903C144.845 31.3744 144.87 31.73 144.921 31.857C144.997 31.984 145.175 32.0475 145.455 32.0475C145.531 32.0475 145.658 32.0475 145.836 32.0475C146.013 32.0475 146.178 32.0475 146.331 32.0475C146.509 32.0475 146.648 32.0475 146.75 32.0475C146.928 32.0475 147.067 31.9459 147.169 31.7427C147.296 31.5395 147.385 31.1205 147.436 30.4855C147.486 29.8251 147.525 28.8472 147.55 27.5518C147.829 27.7804 148.185 28.009 148.617 28.2376C149.074 28.4662 149.544 28.6694 150.026 28.8472C150.534 29.025 150.966 29.1647 151.322 29.2663C151.22 31.0442 151.004 32.4285 150.674 33.4191C150.369 34.4097 149.938 35.0955 149.379 35.4765C148.845 35.8829 148.121 36.0861 147.207 36.0861C147.055 36.0861 146.864 36.0861 146.636 36.0861C146.407 36.0861 146.166 36.0861 145.912 36.0861C145.683 36.0861 145.455 36.0861 145.226 36.0861C144.997 36.0861 144.807 36.0861 144.654 36.0861C143.562 36.0861 142.711 35.921 142.102 35.5908C141.518 35.2606 141.111 34.7018 140.883 33.9144C140.679 33.1524 140.578 32.1237 140.578 30.8284V19.97ZM116.956 2.25369H125.948V6.36844H120.957V36.429H116.956V2.25369ZM124.576 2.25369H125.3L125.948 2.10129L128.919 3.81577C128.615 4.88256 128.272 6.03825 127.891 7.28283C127.51 8.52742 127.116 9.7466 126.71 10.9404C126.329 12.1342 125.96 13.2264 125.605 14.2169C126.773 15.6647 127.535 17.0363 127.891 18.3317C128.246 19.6271 128.424 20.8336 128.424 21.9512C128.424 23.1703 128.284 24.1863 128.005 24.9991C127.751 25.8119 127.319 26.4342 126.71 26.866C126.405 27.0692 126.062 27.2343 125.681 27.3613C125.325 27.4883 124.944 27.5899 124.538 27.6661C123.827 27.7423 122.988 27.7677 122.023 27.7423C121.998 27.2089 121.896 26.5612 121.718 25.7992C121.566 25.0372 121.338 24.3895 121.033 23.8561C121.388 23.8815 121.693 23.8942 121.947 23.8942C122.226 23.8942 122.48 23.8942 122.709 23.8942C123.166 23.8688 123.522 23.7545 123.776 23.5513C124.004 23.3735 124.157 23.1068 124.233 22.7512C124.335 22.3703 124.385 21.9131 124.385 21.3797C124.385 20.4907 124.208 19.4747 123.852 18.3317C123.522 17.1887 122.823 15.9822 121.757 14.7122C122.011 13.8487 122.265 12.9089 122.519 11.8929C122.798 10.8515 123.065 9.8101 123.319 8.76871C123.598 7.72733 123.839 6.76214 124.043 5.87315C124.271 4.95876 124.449 4.19677 124.576 3.58718V2.25369Z" fill="#494949"/>
<path d="M84.8768 2.74902H95.697V7.39717H84.8768V2.74902ZM93.4492 2.74902H98.1735C98.1735 3.96821 98.2243 5.35249 98.3259 6.90187C98.4275 8.42586 98.6434 10.0641 98.9736 11.8167C99.3038 13.5439 99.7991 15.3219 100.459 17.1507C101.12 18.9794 101.996 20.7955 103.088 22.5989C104.206 24.3769 105.603 26.0913 107.279 27.7423C108.956 29.3933 110.962 30.9173 113.299 32.3143C112.969 32.5683 112.562 32.9366 112.08 33.4192C111.597 33.9018 111.127 34.397 110.67 34.905C110.238 35.4384 109.883 35.9083 109.603 36.3147C107.216 34.8415 105.146 33.1906 103.393 31.3618C101.641 29.5076 100.167 27.5518 98.9736 25.4945C97.7798 23.4117 96.8146 21.3162 96.078 19.208C95.3415 17.0745 94.7827 15.0044 94.4017 12.9978C94.0207 10.9658 93.7667 9.07355 93.6397 7.32097C93.5127 5.56839 93.4492 4.04441 93.4492 2.74902ZM91.8109 11.1309L97.0305 12.0834C96.1669 15.8426 95.0113 19.2588 93.5635 22.3322C92.1157 25.4056 90.3758 28.1106 88.3438 30.4474C86.3373 32.7842 84.0132 34.7526 81.3716 36.3528C81.0922 36.0226 80.6985 35.6162 80.1905 35.1336C79.6825 34.6764 79.1491 34.2066 78.5903 33.724C78.057 33.2668 77.5871 32.8985 77.1807 32.6191C81.1684 30.6125 84.3434 27.7931 86.7056 24.161C89.0677 20.5034 90.7695 16.1601 91.8109 11.1309Z" fill="#494949"/>
</svg>
