<svg width="75" height="78" viewBox="0 0 75 78" fill="none" xmlns="http://www.w3.org/2000/svg">
<path d="M20.4367 1.41373C23.7896 0.882249 29.5419 0.215088 37.2913 0.215088C45.0408 0.215088 50.7929 0.882249 54.1459 1.41373C56.5613 1.79658 58.1919 3.90077 58.1919 6.27867C58.1919 10.1243 56.6241 13.6029 54.0938 16.111C54.0359 16.1225 53.9755 16.1343 53.9128 16.1464C53.1203 16.2999 51.9238 16.5084 50.3503 16.7181C47.203 17.1379 42.5484 17.5627 36.6015 17.5627C30.6544 17.5627 25.9997 17.1379 22.8525 16.7181C22.0779 16.6149 21.3948 16.5119 20.8061 16.4156C18.0903 13.8886 16.3906 10.2826 16.3906 6.27867C16.3906 3.90077 18.0214 1.79658 20.4367 1.41373Z" fill="#CBECFF"/>
<path d="M56.0205 20.6184C60.5877 23.8233 64.5284 28.0222 67.5859 32.6536C71.9708 39.2954 74.5829 46.8931 74.583 53.8323C74.583 62.7086 70.3078 68.7772 63.4688 72.5745C56.6906 76.3377 47.4129 77.8693 37.292 77.8694C27.171 77.8694 17.8925 76.3378 11.1143 72.5745C4.27517 68.7771 0 62.7085 0 53.8323C0.000113311 46.8931 2.61223 39.2954 6.99707 32.6536C9.98434 28.1285 13.8141 24.0166 18.248 20.8411C18.2657 20.8445 18.2839 20.8483 18.3018 20.8518C19.1896 21.0237 20.4865 21.2482 22.165 21.4719C25.5221 21.9196 30.4071 22.3625 36.6016 22.3625C42.7959 22.3625 47.681 21.9196 51.0381 21.4719C52.7165 21.2482 54.0135 21.0237 54.9014 20.8518C55.3454 20.7658 55.6876 20.6925 55.9238 20.6399C55.9583 20.6323 55.9905 20.6253 56.0205 20.6184ZM49.4814 33.2493C48.5584 33.2493 47.8197 33.6644 47.2197 34.3567L38.1279 45.2024L29.0352 34.3567C28.4352 33.6644 27.6965 33.2493 26.7734 33.2493C25.1121 33.2495 23.589 34.6336 23.5889 36.3411C23.5889 37.0795 23.9125 37.6798 24.374 38.2336L33.0967 48.7571H26.4043C25.0199 48.7572 23.7737 49.7258 23.7734 51.2024C23.7734 52.6331 24.9738 53.5569 26.3584 53.5569H34.9434V56.8333H26.4043C25.0199 56.8334 23.7736 57.8028 23.7734 59.2795C23.7734 60.7564 24.9738 61.634 26.3584 61.634H34.9434V68.3254C34.9434 70.0793 36.4202 71.2795 38.1279 71.2795C39.8355 71.2794 41.3125 70.0792 41.3125 68.3254V61.634H49.8965C51.2811 61.634 52.4814 60.7565 52.4814 59.2795C52.4813 57.8027 51.2813 56.8333 49.8506 56.8333H41.3125V53.5569H49.8965C51.2811 53.5569 52.4814 52.6332 52.4814 51.2024C52.4812 49.7257 51.2812 48.7571 49.8506 48.7571H43.2051L51.8818 38.2336C52.3433 37.6798 52.666 37.0795 52.666 36.3411C52.6659 34.6335 51.1429 33.2493 49.4814 33.2493Z" fill="#CBECFF"/>
</svg>
