<svg width="429" height="87" viewBox="0 0 429 87" fill="none" xmlns="http://www.w3.org/2000/svg">
<path d="M423.224 73.3741L422.212 60.5646L422.025 54.9839H428.243L428.055 60.5646L427.044 73.3741H423.224ZM425.134 83.337C424.185 83.337 423.399 83.0249 422.774 82.4006C422.15 81.7764 421.838 80.9898 421.838 80.041C421.838 79.0672 422.15 78.2681 422.774 77.6439C423.399 77.0196 424.185 76.7075 425.134 76.7075C426.083 76.7075 426.869 77.0196 427.494 77.6439C428.118 78.2681 428.43 79.0672 428.43 80.041C428.43 80.9898 428.118 81.7764 427.494 82.4006C426.869 83.0249 426.083 83.337 425.134 83.337Z" fill="#494949"/>
<path d="M377.192 54.4595C377.716 54.5344 378.278 54.5844 378.878 54.6093C379.477 54.6343 380.051 54.6468 380.6 54.6468C381 54.6468 381.599 54.6468 382.398 54.6468C383.197 54.6218 384.096 54.5969 385.095 54.5719C386.119 54.5469 387.13 54.5219 388.129 54.497C389.128 54.472 390.026 54.447 390.826 54.4221C391.65 54.3721 392.286 54.3347 392.736 54.3097C393.51 54.2348 394.121 54.1724 394.571 54.1224C395.02 54.0475 395.358 53.9726 395.582 53.8977L398.017 57.2312C397.592 57.5058 397.155 57.7805 396.706 58.0552C396.256 58.3298 395.819 58.6295 395.395 58.9541C394.896 59.3036 394.296 59.7656 393.597 60.3399C392.898 60.8892 392.149 61.476 391.35 62.1003C390.576 62.7245 389.814 63.3363 389.065 63.9355C388.341 64.5348 387.679 65.0716 387.08 65.5461C387.704 65.3962 388.304 65.2964 388.878 65.2464C389.452 65.1715 390.039 65.1341 390.638 65.1341C392.761 65.1341 394.658 65.5461 396.331 66.3701C398.029 67.1941 399.365 68.3177 400.339 69.741C401.338 71.1393 401.837 72.7498 401.837 74.5726C401.837 76.5452 401.338 78.3306 400.339 79.9286C399.34 81.5267 397.83 82.8001 395.807 83.749C393.809 84.6978 391.3 85.1722 388.279 85.1722C386.556 85.1722 384.995 84.9226 383.597 84.4232C382.223 83.9238 381.137 83.2121 380.338 82.2882C379.539 81.3644 379.14 80.2782 379.14 79.0297C379.14 78.0059 379.414 77.0571 379.964 76.1832C380.538 75.2842 381.325 74.5601 382.323 74.0108C383.347 73.4615 384.521 73.1868 385.844 73.1868C387.567 73.1868 389.015 73.5364 390.189 74.2355C391.387 74.9097 392.299 75.8211 392.923 76.9697C393.572 78.1183 393.909 79.3793 393.934 80.7526L389.552 81.3519C389.527 79.9785 389.178 78.8799 388.503 78.0559C387.854 77.2069 386.98 76.7824 385.882 76.7824C385.182 76.7824 384.621 76.9697 384.196 77.3442C383.772 77.6938 383.559 78.1058 383.559 78.5802C383.559 79.2794 383.909 79.8412 384.608 80.2657C385.307 80.6902 386.219 80.9024 387.342 80.9024C389.465 80.9024 391.238 80.6527 392.661 80.1533C394.084 79.629 395.145 78.8924 395.844 77.9435C396.569 76.9697 396.931 75.8211 396.931 74.4977C396.931 73.3741 396.581 72.3878 395.882 71.5388C395.208 70.6898 394.284 70.0281 393.11 69.5537C391.937 69.0793 390.613 68.8421 389.14 68.8421C387.692 68.8421 386.368 69.0293 385.17 69.4039C383.971 69.7535 382.835 70.2653 381.762 70.9395C380.713 71.5887 379.677 72.3878 378.653 73.3366C377.654 74.2605 376.655 75.2967 375.656 76.4453L372.248 72.9246C372.922 72.3753 373.684 71.7635 374.533 71.0893C375.382 70.3902 376.243 69.6661 377.117 68.917C378.016 68.1679 378.853 67.4687 379.627 66.8195C380.426 66.1453 381.1 65.5835 381.649 65.1341C382.174 64.7096 382.785 64.2102 383.484 63.6359C384.184 63.0616 384.908 62.4748 385.657 61.8755C386.406 61.2513 387.118 60.6645 387.792 60.1152C388.466 59.5409 389.028 59.054 389.477 58.6544C389.103 58.6544 388.616 58.6669 388.016 58.6919C387.417 58.7169 386.755 58.7418 386.031 58.7668C385.332 58.7918 384.621 58.8167 383.896 58.8417C383.197 58.8667 382.536 58.9041 381.911 58.9541C381.312 58.979 380.813 59.004 380.413 59.029C379.914 59.0539 379.389 59.0914 378.84 59.1413C378.291 59.1913 377.791 59.2537 377.342 59.3286L377.192 54.4595Z" fill="#494949"/>
<path d="M338.371 56.1077C341.118 56.4323 343.64 56.632 345.937 56.7069C348.259 56.7569 350.407 56.7069 352.379 56.5571C354.102 56.4073 355.75 56.1826 357.323 55.8829C358.897 55.5833 360.445 55.1963 361.968 54.7218L362.567 59.0291C361.219 59.4037 359.758 59.7283 358.185 60.0029C356.612 60.2776 355.001 60.4898 353.353 60.6397C351.431 60.7895 349.208 60.8644 346.686 60.8644C344.189 60.8394 341.505 60.6896 338.634 60.4149L338.371 56.1077ZM337.697 63.9731C339.97 64.1729 342.142 64.3102 344.214 64.3851C346.287 64.46 348.234 64.46 350.057 64.3851C351.88 64.3102 353.541 64.2103 355.039 64.0855C357.061 63.9107 358.797 63.661 360.245 63.3364C361.693 62.9868 362.954 62.6622 364.028 62.3626L364.777 66.7822C363.653 67.0569 362.417 67.3191 361.069 67.5687C359.721 67.8184 358.285 68.0307 356.762 68.2055C355.164 68.3553 353.328 68.4801 351.256 68.58C349.208 68.6549 347.048 68.6799 344.776 68.6549C342.504 68.605 340.232 68.5176 337.959 68.3928L337.697 63.9731ZM350.207 57.1564C350.032 56.4572 349.833 55.7706 349.608 55.0964C349.383 54.3972 349.133 53.6856 348.859 52.9615L353.915 52.3997C354.065 53.5732 354.252 54.7343 354.477 55.8829C354.727 57.0066 355.001 58.0928 355.301 59.1415C355.626 60.1902 355.938 61.2015 356.237 62.1753C356.537 63.0243 356.924 63.9981 357.398 65.0967C357.898 66.1704 358.435 67.2566 359.009 68.3553C359.583 69.429 360.158 70.4028 360.732 71.2767C360.982 71.6263 361.231 71.9634 361.481 72.288C361.756 72.5877 362.068 72.8873 362.417 73.1869L360.133 76.6328C359.433 76.4829 358.559 76.3331 357.511 76.1833C356.487 76.0335 355.413 75.8961 354.29 75.7713C353.191 75.6464 352.18 75.5341 351.256 75.4342L351.63 71.876C352.404 71.9509 353.241 72.0258 354.14 72.1008C355.064 72.1757 355.8 72.2506 356.35 72.3255C355.351 70.6525 354.489 69.017 353.765 67.4189C353.066 65.8209 352.479 64.3352 352.005 62.9618C351.705 62.0879 351.456 61.3388 351.256 60.7146C351.056 60.0654 350.869 59.4661 350.694 58.9167C350.544 58.3424 350.382 57.7557 350.207 57.1564ZM344.889 72.6626C344.439 73.2868 344.052 73.936 343.727 74.6102C343.403 75.2594 343.241 75.996 343.241 76.82C343.241 78.1934 343.877 79.1921 345.151 79.8164C346.449 80.4157 348.334 80.7153 350.806 80.7153C352.579 80.7153 354.252 80.6404 355.825 80.4906C357.423 80.3408 358.884 80.141 360.207 79.8913L359.945 84.648C358.647 84.8728 357.186 85.0475 355.563 85.1724C353.94 85.2972 352.367 85.3597 350.844 85.3597C348.347 85.3597 346.187 85.0975 344.364 84.5731C342.566 84.0487 341.168 83.2372 340.169 82.1386C339.17 81.0149 338.659 79.5667 338.634 77.7938C338.609 76.5953 338.758 75.5216 339.083 74.5728C339.433 73.5989 339.82 72.6626 340.244 71.7637L344.889 72.6626Z" fill="#494949"/>
<path d="M297.359 57.3061C298.108 57.2811 298.82 57.2562 299.494 57.2312C300.168 57.1813 300.68 57.1438 301.03 57.1188C301.804 57.0689 302.753 56.994 303.876 56.8941C305.025 56.7693 306.299 56.6444 307.697 56.5196C309.12 56.3947 310.631 56.2699 312.229 56.145C313.827 56.0202 315.487 55.8828 317.21 55.733C318.509 55.6082 319.795 55.5083 321.068 55.4334C322.367 55.3335 323.59 55.2586 324.739 55.2087C325.912 55.1337 326.936 55.0838 327.81 55.0588L327.847 59.853C327.173 59.853 326.399 59.8655 325.525 59.8905C324.651 59.9154 323.777 59.9654 322.903 60.0403C322.054 60.0902 321.293 60.2026 320.619 60.3774C319.495 60.677 318.446 61.1889 317.472 61.913C316.499 62.6122 315.65 63.4487 314.926 64.4225C314.226 65.3713 313.677 66.4076 313.278 67.5312C312.878 68.6299 312.678 69.741 312.678 70.8647C312.678 72.0882 312.891 73.1744 313.315 74.1232C313.764 75.0471 314.364 75.8461 315.113 76.5203C315.887 77.1695 316.786 77.7188 317.81 78.1683C318.833 78.5928 319.932 78.9174 321.106 79.1421C322.304 79.3668 323.54 79.5167 324.814 79.5916L323.053 84.7228C321.48 84.623 319.944 84.3733 318.446 83.9737C316.973 83.5742 315.587 83.0249 314.289 82.3258C312.99 81.6266 311.854 80.7776 310.88 79.7788C309.932 78.7551 309.17 77.594 308.596 76.2956C308.046 74.9722 307.772 73.499 307.772 71.8759C307.772 70.0781 308.059 68.4301 308.633 66.9319C309.208 65.4088 309.919 64.0854 310.768 62.9617C311.642 61.8131 312.504 60.9267 313.352 60.3025C312.653 60.4024 311.804 60.5022 310.806 60.6021C309.832 60.702 308.771 60.8268 307.622 60.9767C306.498 61.1015 305.35 61.2388 304.176 61.3887C303.003 61.5385 301.866 61.7133 300.768 61.913C299.694 62.0878 298.72 62.2626 297.846 62.4374L297.359 57.3061ZM322.491 63.5236C322.816 63.973 323.153 64.5099 323.503 65.1341C323.877 65.7334 324.239 66.3451 324.589 66.9694C324.938 67.5687 325.238 68.118 325.488 68.6174L322.641 69.8908C322.167 68.8421 321.705 67.9182 321.255 67.1192C320.831 66.3202 320.319 65.5087 319.72 64.6847L322.491 63.5236ZM326.686 61.8007C327.011 62.2501 327.36 62.7745 327.735 63.3737C328.135 63.9481 328.522 64.5473 328.896 65.1716C329.271 65.7708 329.583 66.3077 329.832 66.7821L327.023 68.1305C326.524 67.1317 326.037 66.2453 325.563 65.4712C325.113 64.6971 324.576 63.8981 323.952 63.0741L326.686 61.8007Z" fill="#494949"/>
<path d="M274.362 53.6732C274.262 54.1476 274.15 54.672 274.025 55.2463C273.9 55.7956 273.788 56.3075 273.688 56.7819C273.588 57.3312 273.463 57.9555 273.313 58.6546C273.163 59.3288 273.013 60.0155 272.864 60.7146C272.739 61.3888 272.601 62.0505 272.452 62.6997C272.202 63.7734 271.89 65.0219 271.515 66.4452C271.141 67.8685 270.704 69.4041 270.204 71.0521C269.705 72.6751 269.143 74.3106 268.519 75.9586C267.895 77.6066 267.233 79.2172 266.534 80.7903C265.835 82.3384 265.086 83.7367 264.287 84.9852L259.417 83.0375C260.291 81.864 261.103 80.5531 261.852 79.1048C262.626 77.6316 263.325 76.1334 263.949 74.6103C264.574 73.0622 265.123 71.539 265.597 70.0408C266.097 68.5177 266.521 67.1069 266.871 65.8085C267.245 64.51 267.533 63.3989 267.732 62.475C268.082 60.7771 268.357 59.1415 268.556 57.5685C268.756 55.9954 268.831 54.5097 268.781 53.1114L274.362 53.6732ZM287.246 57.4561C287.845 58.2801 288.457 59.2914 289.081 60.4899C289.731 61.6635 290.367 62.912 290.992 64.2354C291.616 65.5588 292.178 66.8322 292.677 68.0557C293.176 69.2792 293.564 70.3405 293.838 71.2394L289.081 73.4117C288.857 72.363 288.52 71.2019 288.07 69.9285C287.646 68.655 287.146 67.3691 286.572 66.0706C285.998 64.7472 285.386 63.4988 284.737 62.3252C284.112 61.1516 283.463 60.1653 282.789 59.3663L287.246 57.4561ZM259.155 61.3514C259.829 61.4013 260.491 61.4263 261.14 61.4263C261.815 61.4013 262.489 61.3763 263.163 61.3514C263.787 61.3264 264.536 61.2889 265.41 61.239C266.284 61.1641 267.208 61.0892 268.182 61.0143C269.181 60.9394 270.179 60.8645 271.178 60.7895C272.177 60.6897 273.101 60.6148 273.95 60.5648C274.799 60.5149 275.498 60.4899 276.047 60.4899C277.396 60.4899 278.569 60.7146 279.568 61.1641C280.567 61.5886 281.353 62.3252 281.928 63.3739C282.527 64.4226 282.827 65.8459 282.827 67.6437C282.827 69.1169 282.764 70.715 282.639 72.4379C282.514 74.1608 282.29 75.8088 281.965 77.3819C281.665 78.955 281.241 80.2909 280.692 81.3895C280.092 82.688 279.268 83.5869 278.22 84.0863C277.196 84.5857 275.972 84.8354 274.549 84.8354C273.85 84.8354 273.088 84.7729 272.264 84.6481C271.44 84.5482 270.704 84.4358 270.055 84.311L269.268 79.367C269.742 79.4919 270.267 79.6167 270.841 79.7415C271.44 79.8664 272.002 79.9663 272.527 80.0412C273.076 80.1161 273.513 80.1535 273.837 80.1535C274.462 80.1535 275.011 80.0412 275.485 79.8165C275.96 79.5668 276.347 79.1423 276.647 78.543C276.996 77.8189 277.283 76.8825 277.508 75.7339C277.733 74.5853 277.895 73.3493 277.995 72.0259C278.12 70.6775 278.182 69.3916 278.182 68.1681C278.182 67.1693 278.032 66.4327 277.733 65.9583C277.458 65.4839 277.046 65.1717 276.497 65.0219C275.972 64.8471 275.323 64.7597 274.549 64.7597C273.975 64.7597 273.201 64.8097 272.227 64.9095C271.253 64.9845 270.204 65.0843 269.081 65.2092C267.982 65.3091 266.958 65.4214 266.009 65.5463C265.061 65.6711 264.324 65.7585 263.8 65.8085C263.25 65.9083 262.551 66.0207 261.702 66.1455C260.878 66.2454 260.179 66.3453 259.605 66.4452L259.155 61.3514ZM286.572 52.2499C286.897 52.6994 287.234 53.2362 287.583 53.8605C287.958 54.4847 288.32 55.1089 288.669 55.7332C289.019 56.3574 289.319 56.9068 289.568 57.3812L286.535 58.6921C286.285 58.1677 285.998 57.5934 285.673 56.9692C285.348 56.3449 285.011 55.7207 284.662 55.0965C284.312 54.4722 283.963 53.9354 283.613 53.4859L286.572 52.2499ZM291.029 50.5645C291.354 51.0389 291.703 51.5882 292.078 52.2125C292.452 52.8367 292.814 53.4609 293.164 54.0852C293.539 54.7094 293.826 55.2338 294.025 55.6583L291.067 56.9317C290.667 56.1577 290.193 55.2837 289.643 54.3099C289.094 53.3111 288.557 52.4622 288.033 51.763L291.029 50.5645Z" fill="#494949"/>
<path d="M251.065 61.164C250.516 61.5135 249.929 61.8506 249.305 62.1752C248.705 62.4998 248.056 62.8369 247.357 63.1865C246.783 63.4861 246.071 63.8357 245.222 64.2352C244.398 64.6347 243.499 65.0842 242.525 65.5836C241.576 66.058 240.615 66.5699 239.641 67.1192C238.667 67.6436 237.756 68.1804 236.907 68.7298C235.359 69.7535 234.098 70.8147 233.124 71.9134C232.175 73.0121 231.701 74.2231 231.701 75.5465C231.701 76.8699 232.35 77.8937 233.649 78.6178C234.947 79.3169 236.895 79.6665 239.492 79.6665C240.79 79.6665 242.163 79.6166 243.611 79.5167C245.085 79.3918 246.533 79.2295 247.956 79.0298C249.379 78.805 250.64 78.5553 251.739 78.2807L251.664 83.6741C250.615 83.8489 249.467 84.0112 248.218 84.161C246.995 84.3109 245.659 84.4232 244.211 84.4981C242.787 84.573 241.264 84.6105 239.641 84.6105C237.769 84.6105 236.033 84.4607 234.435 84.161C232.862 83.8864 231.476 83.4244 230.278 82.7752C229.104 82.126 228.18 81.2521 227.506 80.1534C226.857 79.0547 226.532 77.7064 226.532 76.1083C226.532 74.5103 226.882 73.062 227.581 71.7636C228.28 70.4652 229.229 69.2666 230.427 68.168C231.651 67.0693 232.987 66.033 234.435 65.0592C235.334 64.46 236.283 63.8857 237.282 63.3363C238.28 62.762 239.254 62.2127 240.203 61.6883C241.177 61.164 242.076 60.6895 242.9 60.265C243.749 59.8156 244.448 59.4286 244.997 59.104C245.721 58.6795 246.358 58.2924 246.908 57.9429C247.457 57.5933 247.981 57.2187 248.481 56.8192L251.065 61.164ZM232.225 53.1487C232.85 54.7967 233.499 56.3823 234.173 57.9054C234.872 59.4286 235.559 60.8518 236.233 62.1752C236.932 63.4986 237.569 64.6847 238.143 65.7334L233.911 68.2429C233.237 67.0943 232.537 65.8083 231.813 64.385C231.089 62.9618 230.365 61.4636 229.641 59.8905C228.917 58.2924 228.218 56.6819 227.543 55.0589L232.225 53.1487Z" fill="#494949"/>
<path d="M190.576 55.7705C191.949 55.9203 193.497 56.0326 195.22 56.1076C196.943 56.1825 198.791 56.2199 200.763 56.2199C201.987 56.2199 203.248 56.1949 204.546 56.145C205.87 56.0951 207.143 56.0326 208.367 55.9577C209.59 55.8828 210.676 55.7954 211.625 55.6956V60.677C210.751 60.7519 209.69 60.8268 208.442 60.9017C207.218 60.9766 205.932 61.0391 204.584 61.089C203.26 61.114 201.999 61.1265 200.801 61.1265C198.853 61.1265 197.043 61.089 195.37 61.0141C193.697 60.9392 192.099 60.8393 190.576 60.7145V55.7705ZM193.722 71.6512C193.547 72.3004 193.397 72.9371 193.273 73.5614C193.148 74.1856 193.085 74.8099 193.085 75.4341C193.085 76.6326 193.685 77.6189 194.883 78.393C196.107 79.1671 198.067 79.5541 200.763 79.5541C202.461 79.5541 204.097 79.4917 205.67 79.3668C207.243 79.242 208.729 79.0672 210.127 78.8425C211.55 78.6177 212.811 78.3556 213.91 78.0559L213.947 83.337C212.849 83.5867 211.625 83.7989 210.277 83.9737C208.929 84.1735 207.468 84.3233 205.895 84.4232C204.347 84.548 202.699 84.6105 200.951 84.6105C198.104 84.6105 195.72 84.2983 193.797 83.6741C191.874 83.0499 190.439 82.151 189.49 80.9774C188.541 79.7788 188.066 78.3181 188.066 76.5952C188.066 75.4965 188.154 74.4977 188.329 73.5988C188.503 72.6999 188.666 71.9009 188.815 71.2017L193.722 71.6512Z" fill="#494949"/>
<path d="M170.614 70.7524C170.614 69.9284 170.401 69.1793 169.977 68.5051C169.577 67.8309 168.965 67.294 168.141 66.8945C167.342 66.47 166.344 66.2578 165.145 66.2578C163.797 66.2578 162.486 66.3702 161.212 66.5949C159.964 66.8196 158.84 67.0818 157.842 67.3814C156.868 67.6561 156.056 67.8933 155.407 68.0931C154.858 68.2429 154.246 68.4551 153.572 68.7298C152.922 68.9795 152.323 69.2042 151.774 69.404L150.351 64.048C151 63.998 151.699 63.9107 152.448 63.7858C153.197 63.661 153.871 63.5361 154.471 63.4113C155.394 63.1865 156.443 62.9493 157.617 62.6996C158.815 62.425 160.114 62.1877 161.512 61.988C162.91 61.7882 164.334 61.6884 165.782 61.6884C167.779 61.6884 169.527 62.0629 171.025 62.812C172.549 63.5361 173.735 64.5848 174.584 65.9582C175.433 67.3315 175.857 68.992 175.857 70.9396C175.857 72.9372 175.42 74.7475 174.546 76.3705C173.672 77.9936 172.436 79.4168 170.838 80.6404C169.24 81.8389 167.355 82.8377 165.183 83.6367C163.01 84.4357 160.626 85.01 158.029 85.3596L155.332 80.7153C157.654 80.4406 159.752 80.0411 161.624 79.5167C163.522 78.9923 165.133 78.3307 166.456 77.5316C167.804 76.7076 168.828 75.7463 169.527 74.6476C170.251 73.524 170.614 72.2256 170.614 70.7524ZM155.894 52.7742C156.968 52.9989 158.253 53.2111 159.752 53.4109C161.275 53.6107 162.835 53.7854 164.434 53.9353C166.057 54.0851 167.592 54.2099 169.04 54.3098C170.514 54.3847 171.737 54.4347 172.711 54.4596L171.962 59.0665C170.863 58.9916 169.577 58.8917 168.104 58.7669C166.631 58.642 165.108 58.5047 163.535 58.3549C161.962 58.1801 160.438 58.0053 158.965 57.8305C157.517 57.6308 156.243 57.4435 155.145 57.2687L155.894 52.7742Z" fill="#494949"/>
<path d="M119.937 54.8715H143.796V58.9166H119.937V54.8715ZM124.806 65.209V68.917H138.477V65.209H124.806ZM120.724 61.5759H142.822V72.5875H120.724V61.5759ZM124.245 72.9995C125.393 74.7724 126.916 76.308 128.814 77.6064C130.712 78.8799 132.971 79.9037 135.593 80.6777C138.215 81.4518 141.149 81.9886 144.395 82.2883C144.07 82.6129 143.733 83.0124 143.384 83.4868C143.059 83.9612 142.747 84.4481 142.447 84.9475C142.173 85.4469 141.936 85.8964 141.736 86.2959C138.365 85.8464 135.331 85.1098 132.634 84.0861C129.963 83.0873 127.628 81.7639 125.63 80.1159C123.658 78.4429 121.972 76.4329 120.574 74.0857L124.245 72.9995ZM129.376 51.4257H133.833V68.505C133.833 70.0281 133.733 71.5263 133.533 72.9995C133.334 74.4478 132.971 75.8461 132.447 77.1944C131.948 78.5178 131.224 79.7538 130.275 80.9024C129.326 82.051 128.102 83.0873 126.604 84.0112C125.106 84.9351 123.283 85.7091 121.136 86.3334C120.986 86.0087 120.736 85.6092 120.387 85.1348C120.062 84.6854 119.725 84.2234 119.375 83.749C119.026 83.2995 118.689 82.925 118.364 82.6254C120.387 82.1759 122.06 81.6016 123.383 80.9024C124.731 80.1783 125.805 79.3543 126.604 78.4304C127.403 77.5066 128.002 76.5203 128.402 75.4715C128.802 74.3978 129.064 73.2742 129.189 72.1006C129.313 70.9271 129.376 69.716 129.376 68.4675V51.4257ZM117.091 51.0886L121.248 52.437C120.399 54.5594 119.388 56.6818 118.214 58.8043C117.066 60.9017 115.817 62.8993 114.469 64.797C113.146 66.6697 111.772 68.3177 110.349 69.741C110.224 69.3664 110.024 68.892 109.75 68.3177C109.475 67.7434 109.175 67.1566 108.851 66.5574C108.526 65.9581 108.239 65.4837 107.989 65.1341C109.188 63.9855 110.349 62.6621 111.473 61.1639C112.621 59.6657 113.67 58.0552 114.619 56.3323C115.568 54.6094 116.392 52.8615 117.091 51.0886ZM113.42 61.501L117.69 57.2312V57.2686V86.4457H113.42V61.501Z" fill="#494949"/>
<path d="M86.8274 56.8193C87.976 56.9691 89.262 57.0814 90.6852 57.1564C92.1335 57.2063 93.5942 57.2313 95.0674 57.2313C96.5656 57.2063 98.0014 57.1563 99.3747 57.0814C100.748 56.9816 101.934 56.8817 102.933 56.7818V61.6134C101.784 61.7133 100.523 61.8007 99.15 61.8756C97.7766 61.9256 96.3659 61.9505 94.9176 61.9505C93.4694 61.9505 92.0461 61.9256 90.6478 61.8756C89.2745 61.8007 88.001 61.7133 86.8274 61.6134V56.8193ZM89.8238 72.8124C89.674 73.4366 89.5616 73.9984 89.4867 74.4978C89.4118 74.9722 89.3743 75.4591 89.3743 75.9585C89.3743 76.358 89.4742 76.7326 89.674 77.0822C89.8737 77.4068 90.1734 77.6939 90.5729 77.9436C90.9974 78.1683 91.5342 78.3431 92.1834 78.468C92.8576 78.5679 93.6691 78.6178 94.618 78.6178C96.291 78.6178 97.864 78.5429 99.3373 78.3931C100.81 78.2183 102.371 77.9686 104.019 77.644L104.094 82.7004C102.895 82.9251 101.51 83.0999 99.9365 83.2247C98.3884 83.3496 96.5531 83.412 94.4307 83.412C91.2096 83.412 88.8125 82.8751 87.2394 81.8014C85.6663 80.7028 84.8798 79.1921 84.8798 77.2694C84.8798 76.5453 84.9297 75.7962 85.0296 75.0222C85.1545 74.2231 85.3168 73.3492 85.5165 72.4003L89.8238 72.8124ZM81.0594 54.3098C80.9596 54.5595 80.8472 54.9091 80.7223 55.3585C80.5975 55.808 80.4726 56.245 80.3478 56.6694C80.2479 57.0939 80.173 57.4185 80.1231 57.6433C80.0482 58.1676 79.9233 58.8543 79.7485 59.7033C79.5987 60.5273 79.4364 61.4636 79.2616 62.5123C79.1118 63.5361 78.962 64.5848 78.8122 65.6585C78.6623 66.7322 78.5375 67.7685 78.4376 68.7673C78.3627 69.766 78.3253 70.64 78.3253 71.3891C78.3253 71.7387 78.3253 72.1382 78.3253 72.5876C78.3502 73.0371 78.4002 73.4491 78.4751 73.8236C78.6499 73.3991 78.8371 72.9747 79.0369 72.5502C79.2366 72.1257 79.4364 71.7012 79.6362 71.2767C79.8359 70.8273 80.0107 70.4028 80.1605 70.0033L82.4827 71.8385C82.1331 72.8623 81.7711 73.961 81.3965 75.1345C81.0469 76.3081 80.7223 77.4193 80.4227 78.468C80.148 79.4917 79.9358 80.3407 79.786 81.0149C79.736 81.2896 79.6861 81.6017 79.6362 81.9513C79.6112 82.3008 79.5987 82.5755 79.5987 82.7753C79.5987 82.975 79.5987 83.2122 79.5987 83.4869C79.6237 83.7865 79.6486 84.0612 79.6736 84.3109L75.3289 84.6105C74.9543 83.3121 74.6173 81.5892 74.3176 79.4418C74.018 77.2694 73.8682 74.9098 73.8682 72.3629C73.8682 70.9646 73.9306 69.5413 74.0554 68.0931C74.1803 66.6448 74.3301 65.259 74.5049 63.9356C74.6797 62.5873 74.842 61.3637 74.9918 60.2651C75.1666 59.1664 75.3164 58.255 75.4413 57.5309C75.4912 57.0065 75.5536 56.4197 75.6285 55.7705C75.7284 55.0964 75.7908 54.4596 75.8158 53.8604L81.0594 54.3098Z" fill="#494949"/>
<path d="M38.6232 69.1419H63.9051V73.5241H38.6232V69.1419ZM38.6232 79.9288H63.8676V84.3484H38.6232V79.9288ZM36.376 58.3175H66.4145V86.3335H61.6952V62.8495H40.8705V86.371H36.376V58.3175ZM48.8109 51.2012H53.4552V82.251H48.8109V51.2012Z" fill="#004898"/>
<path d="M3.56604 64.1979H23.9413V68.3553H3.56604V64.1979ZM3.56604 72.2131H23.9413V76.3706H3.56604V72.2131ZM3.56604 80.2659H23.9413V84.4233H3.56604V80.2659ZM0.532227 56.0328H27.7242V86.2586H22.9675V60.34H5.06423V86.3335H0.532227V56.0328ZM11.1693 51.1262L16.6002 51.7255C16.1508 52.949 15.6763 54.1476 15.177 55.3211C14.6776 56.4947 14.2156 57.506 13.7911 58.3549L9.67114 57.6059C9.87089 56.9816 10.0707 56.2949 10.2704 55.5459C10.4702 54.7718 10.645 54.0102 10.7948 53.2611C10.9696 52.4871 11.0944 51.7754 11.1693 51.1262Z" fill="#004898"/>
<path d="M386.885 1.99885C386.735 2.67304 386.61 3.27231 386.51 3.79667C386.41 4.32104 386.323 4.83291 386.248 5.33231C386.148 5.85667 386.023 6.61825 385.874 7.61704C385.749 8.59085 385.599 9.702 385.424 10.9505C385.274 12.174 385.112 13.4599 384.937 14.8083C384.787 16.1317 384.638 17.4301 384.488 18.7036C384.338 19.977 384.213 21.1381 384.113 22.1869C384.038 23.2356 384.001 24.0721 384.001 24.6963C384.001 26.2444 384.463 27.4305 385.387 28.2545C386.336 29.0535 387.734 29.453 389.582 29.453C391.329 29.453 392.803 29.2158 394.001 28.7414C395.2 28.242 396.111 27.5803 396.735 26.7563C397.36 25.9323 397.672 25.0084 397.672 23.9847C397.672 22.7112 397.335 21.4752 396.66 20.2767C396.011 19.0532 395.062 17.8671 393.814 16.7185L399.095 15.5949C400.344 17.1679 401.255 18.6661 401.829 20.0894C402.428 21.4877 402.728 22.9859 402.728 24.5839C402.728 26.4567 402.191 28.1296 401.118 29.6029C400.044 31.0761 398.508 32.2247 396.511 33.0487C394.538 33.8727 392.178 34.2847 389.432 34.2847C387.484 34.2847 385.749 33.985 384.226 33.3858C382.702 32.7865 381.516 31.8376 380.667 30.5392C379.818 29.2408 379.394 27.5553 379.394 25.4829C379.394 24.7088 379.456 23.685 379.581 22.4116C379.706 21.1132 379.856 19.6899 380.031 18.1418C380.23 16.5687 380.43 14.9831 380.63 13.385C380.83 11.762 381.004 10.2264 381.154 8.77813C381.329 7.32989 381.466 6.0814 381.566 5.03267C381.616 4.15873 381.641 3.49704 381.641 3.04758C381.666 2.57316 381.654 2.1237 381.604 1.69922L386.885 1.99885ZM373.514 6.64322C374.637 6.99279 375.861 7.29243 377.184 7.54213C378.508 7.76685 379.868 7.94164 381.267 8.06649C382.665 8.16637 383.988 8.21631 385.237 8.21631C386.71 8.21631 388.083 8.16637 389.357 8.06649C390.63 7.96661 391.741 7.84176 392.69 7.69195L392.54 12.149C391.417 12.2489 390.293 12.3363 389.17 12.4112C388.046 12.4861 386.698 12.5236 385.124 12.5236C383.851 12.5236 382.528 12.4612 381.154 12.3363C379.781 12.1865 378.42 11.9992 377.072 11.7745C375.723 11.5248 374.462 11.2501 373.289 10.9505L373.514 6.64322ZM372.727 15.9319C374.075 16.3814 375.436 16.731 376.81 16.9807C378.208 17.2304 379.581 17.4052 380.93 17.505C382.303 17.5799 383.614 17.6174 384.862 17.6174C386.011 17.6174 387.247 17.5799 388.57 17.505C389.919 17.4301 391.192 17.3178 392.391 17.1679L392.278 21.625C391.23 21.7249 390.156 21.8123 389.057 21.8872C387.959 21.9372 386.822 21.9621 385.649 21.9621C383.152 21.9621 380.755 21.8373 378.458 21.5876C376.16 21.3129 374.163 20.9384 372.465 20.4639L372.727 15.9319Z" fill="#494949"/>
<path d="M334.448 6.30611C335.197 6.28114 335.909 6.25617 336.583 6.2312C337.257 6.18126 337.769 6.14381 338.119 6.11884C338.893 6.0689 339.842 5.99399 340.965 5.89411C342.114 5.76926 343.387 5.64441 344.786 5.51957C346.209 5.39472 347.72 5.26987 349.318 5.14502C350.916 5.02017 352.576 4.88284 354.299 4.73302C355.598 4.60817 356.884 4.50829 358.157 4.43338C359.455 4.33351 360.679 4.2586 361.828 4.20866C363.001 4.13375 364.025 4.08381 364.899 4.05884L364.936 8.85302C364.262 8.85302 363.488 8.8655 362.614 8.89047C361.74 8.91544 360.866 8.96538 359.992 9.04029C359.143 9.09023 358.382 9.2026 357.708 9.37738C356.584 9.67702 355.535 10.1889 354.561 10.913C353.588 11.6122 352.739 12.4487 352.014 13.4225C351.315 14.3713 350.766 15.4076 350.366 16.5312C349.967 17.6299 349.767 18.741 349.767 19.8647C349.767 21.0882 349.979 22.1744 350.404 23.1232C350.853 24.0471 351.453 24.8461 352.202 25.5203C352.976 26.1695 353.875 26.7188 354.898 27.1683C355.922 27.5928 357.021 27.9174 358.194 28.1421C359.393 28.3668 360.629 28.5167 361.902 28.5916L360.142 33.7228C358.569 33.623 357.033 33.3733 355.535 32.9737C354.062 32.5742 352.676 32.0249 351.378 31.3257C350.079 30.6266 348.943 29.7776 347.969 28.7788C347.021 27.7551 346.259 26.594 345.685 25.2956C345.135 23.9722 344.861 22.499 344.861 20.8759C344.861 19.0781 345.148 17.4301 345.722 15.9319C346.296 14.4088 347.008 13.0854 347.857 11.9617C348.731 10.8131 349.592 9.92672 350.441 9.30247C349.742 9.40235 348.893 9.50223 347.894 9.60211C346.921 9.70199 345.859 9.82684 344.711 9.97666C343.587 10.1015 342.439 10.2388 341.265 10.3887C340.091 10.5385 338.955 10.7133 337.857 10.913C336.783 11.0878 335.809 11.2626 334.935 11.4374L334.448 6.30611ZM359.58 12.5236C359.905 12.973 360.242 13.5099 360.592 14.1341C360.966 14.7334 361.328 15.3451 361.678 15.9694C362.027 16.5687 362.327 17.118 362.577 17.6174L359.73 18.8908C359.256 17.8421 358.794 16.9182 358.344 16.1192C357.92 15.3202 357.408 14.5087 356.809 13.6847L359.58 12.5236ZM363.775 10.8007C364.1 11.2501 364.449 11.7745 364.824 12.3737C365.223 12.948 365.61 13.5473 365.985 14.1716C366.36 14.7708 366.672 15.3077 366.921 15.7821L364.112 17.1305C363.613 16.1317 363.126 15.2453 362.652 14.4712C362.202 13.6971 361.665 12.8981 361.041 12.0741L363.775 10.8007Z" fill="#494949"/>
<path d="M304.634 14.771V28.5917H300.215V18.9284H296.057V14.771H304.634ZM304.634 26.6441C305.409 27.8676 306.495 28.7665 307.893 29.3408C309.316 29.9151 311.014 30.2397 312.987 30.3146C314.086 30.3646 315.396 30.402 316.92 30.427C318.443 30.427 320.041 30.4145 321.714 30.3895C323.387 30.3646 325.022 30.3146 326.62 30.2397C328.243 30.1648 329.692 30.0774 330.965 29.9775C330.79 30.3271 330.603 30.7766 330.403 31.3259C330.203 31.8752 330.029 32.437 329.879 33.0114C329.729 33.5857 329.617 34.0975 329.542 34.547C328.393 34.6219 327.095 34.6718 325.646 34.6968C324.223 34.7467 322.738 34.7717 321.189 34.7717C319.666 34.7967 318.181 34.7967 316.732 34.7717C315.309 34.7467 314.036 34.7093 312.912 34.6594C310.59 34.5595 308.605 34.1974 306.957 33.5732C305.334 32.9739 303.898 31.9501 302.649 30.5019C301.85 31.2011 301.026 31.9252 300.177 32.6743C299.353 33.4234 298.442 34.1974 297.443 34.9964L295.233 30.3146C296.057 29.7903 296.931 29.216 297.855 28.5917C298.779 27.9675 299.666 27.3183 300.514 26.6441H304.634ZM296.057 3.7219L299.391 1.06263C300.14 1.56202 300.914 2.14881 301.713 2.82299C302.512 3.49717 303.249 4.18384 303.923 4.88299C304.597 5.55717 305.146 6.1939 305.571 6.79317L301.975 9.75208C301.626 9.15281 301.126 8.5036 300.477 7.80444C299.828 7.08032 299.116 6.36869 298.342 5.66954C297.568 4.94541 296.806 4.2962 296.057 3.7219ZM315.721 11.6248H320.066V25.1459C320.066 26.1197 319.953 26.8813 319.729 27.4306C319.529 27.955 319.104 28.367 318.455 28.6666C317.806 28.9663 317.044 29.1535 316.17 29.2284C315.322 29.2784 314.31 29.3034 313.137 29.3034C313.062 28.754 312.912 28.1298 312.687 27.4306C312.462 26.7065 312.238 26.0698 312.013 25.5204C312.612 25.5454 313.224 25.5704 313.848 25.5954C314.498 25.5954 314.922 25.5954 315.122 25.5954C315.521 25.5954 315.721 25.4206 315.721 25.071V11.6248ZM309.803 19.4903L313.698 20.4641C313.099 21.8624 312.338 23.2232 311.414 24.5466C310.515 25.87 309.578 26.9812 308.605 27.8801C308.355 27.6554 308.018 27.4057 307.593 27.131C307.194 26.8314 306.782 26.5567 306.357 26.307C305.933 26.0323 305.571 25.8201 305.271 25.6703C306.245 24.8962 307.119 23.9723 307.893 22.8986C308.692 21.8 309.329 20.6638 309.803 19.4903ZM321.414 20.951L324.972 19.3404C325.547 20.0146 326.133 20.7512 326.733 21.5503C327.332 22.3243 327.894 23.0984 328.418 23.8724C328.967 24.6465 329.392 25.3581 329.692 26.0074L325.909 27.8426C325.634 27.2184 325.247 26.5067 324.748 25.7077C324.273 24.9087 323.736 24.0972 323.137 23.2732C322.563 22.4492 321.988 21.6751 321.414 20.951ZM310.927 9.26517H324.897V12.8983H310.927V9.26517ZM306.62 14.9208H329.579V18.5914H306.62V14.9208ZM317.669 4.1339C316.895 5.10772 315.946 6.11899 314.822 7.16772C313.698 8.19147 312.462 9.16529 311.114 10.0892C309.791 10.9881 308.43 11.7621 307.032 12.4114C306.807 11.8371 306.47 11.1754 306.02 10.4263C305.571 9.6522 305.134 9.01547 304.709 8.51608C306.133 7.91681 307.518 7.16772 308.867 6.26881C310.215 5.3699 311.451 4.39608 312.575 3.34735C313.698 2.27366 314.61 1.22493 315.309 0.201172H319.691C320.665 1.37475 321.751 2.47341 322.95 3.49717C324.173 4.52093 325.459 5.43232 326.808 6.23135C328.156 7.03038 329.529 7.6796 330.928 8.17899C330.453 8.75329 329.979 9.42747 329.504 10.2015C329.055 10.9756 328.655 11.6872 328.306 12.3364C327.057 11.7122 325.759 10.9631 324.41 10.0892C323.087 9.19026 321.826 8.22893 320.628 7.20517C319.454 6.15644 318.468 5.13269 317.669 4.1339Z" fill="#494949"/>
<path d="M264.858 2.6731H287.818V6.98037H264.858V2.6731ZM264.858 11.3251H287.892V15.52H264.858V11.3251ZM264.783 20.1644H288.042V24.3967H264.783V20.1644ZM262.273 2.6731H266.693V16.1567C266.693 17.6299 266.631 19.2405 266.506 20.9884C266.381 22.7362 266.131 24.4966 265.757 26.2695C265.407 28.0173 264.87 29.6903 264.146 31.2884C263.447 32.8864 262.523 34.3097 261.375 35.5582C261.15 35.2586 260.813 34.9215 260.363 34.5469C259.914 34.1724 259.452 33.8103 258.978 33.4607C258.528 33.1112 258.141 32.8365 257.816 32.6367C258.84 31.5131 259.652 30.2771 260.251 28.9287C260.85 27.5554 261.287 26.1446 261.562 24.6964C261.861 23.2232 262.049 21.7624 262.124 20.3142C262.224 18.841 262.273 17.4427 262.273 16.1193V2.6731ZM286.244 2.6731H290.739V30.0524C290.739 31.2509 290.589 32.1748 290.289 32.824C289.99 33.4982 289.453 34.0101 288.679 34.3596C287.93 34.7092 286.969 34.9339 285.795 35.0338C284.621 35.1337 283.173 35.1712 281.45 35.1462C281.375 34.5469 281.188 33.8228 280.888 32.9738C280.589 32.1249 280.289 31.4132 279.99 30.8389C280.714 30.8639 281.438 30.8889 282.162 30.9138C282.886 30.9138 283.523 30.9138 284.072 30.9138C284.646 30.9138 285.058 30.9138 285.308 30.9138C285.658 30.9138 285.895 30.8514 286.02 30.7266C286.17 30.6017 286.244 30.3645 286.244 30.0149V2.6731ZM273.81 4.396H278.341V34.884H273.81V4.396Z" fill="#494949"/>
<path d="M241.636 6.34365C241.386 8.24135 241.062 10.2639 240.662 12.4113C240.263 14.5587 239.726 16.731 239.052 18.9284C238.328 21.4503 237.479 23.6227 236.505 25.4455C235.531 27.2683 234.457 28.679 233.284 29.6778C232.135 30.6516 230.874 31.1386 229.501 31.1386C228.127 31.1386 226.854 30.6766 225.68 29.7527C224.532 28.8039 223.608 27.5055 222.909 25.8575C222.235 24.2095 221.897 22.3367 221.897 20.2393C221.897 18.0669 222.334 16.0194 223.208 14.0967C224.082 12.1741 225.293 10.4761 226.841 9.00292C228.415 7.50474 230.237 6.33117 232.31 5.4822C234.407 4.63323 236.667 4.20874 239.089 4.20874C241.411 4.20874 243.496 4.58329 245.344 5.33238C247.217 6.08147 248.815 7.11771 250.138 8.4411C251.462 9.7645 252.473 11.3126 253.172 13.0855C253.871 14.8583 254.221 16.7685 254.221 18.816C254.221 21.4378 253.684 23.785 252.61 25.8575C251.537 27.93 249.938 29.6404 247.816 30.9887C245.719 32.3371 243.097 33.261 239.951 33.7604L237.141 29.3033C237.866 29.2284 238.502 29.141 239.052 29.0411C239.601 28.9412 240.125 28.8289 240.625 28.704C241.823 28.4044 242.934 27.9799 243.958 27.4306C245.007 26.8563 245.918 26.1571 246.692 25.3331C247.466 24.4841 248.066 23.4978 248.49 22.3742C248.94 21.2506 249.164 20.0146 249.164 18.6662C249.164 17.193 248.94 15.8446 248.49 14.6211C248.041 13.3976 247.379 12.3364 246.505 11.4375C245.631 10.5136 244.57 9.81444 243.321 9.34001C242.073 8.84062 240.637 8.59092 239.014 8.59092C237.017 8.59092 235.256 8.95298 233.733 9.6771C232.21 10.3763 230.924 11.2877 229.875 12.4113C228.827 13.5349 228.028 14.746 227.478 16.0444C226.954 17.3428 226.692 18.5788 226.692 19.7524C226.692 21.0009 226.841 22.0496 227.141 22.8986C227.441 23.7226 227.803 24.3468 228.227 24.7713C228.677 25.1708 229.151 25.3706 229.651 25.3706C230.175 25.3706 230.687 25.1084 231.186 24.584C231.711 24.0347 232.222 23.2107 232.722 22.112C233.221 21.0133 233.721 19.6275 234.22 17.9546C234.794 16.1567 235.281 14.2341 235.681 12.1866C236.08 10.139 236.367 8.14147 236.542 6.19383L241.636 6.34365Z" fill="#494949"/>
<path d="M190.997 5.63204H200.174V9.90186H190.997V5.63204ZM206.653 0.276037H211.335V35.296H206.653V0.276037ZM186.84 16.756L189.125 13.3851C190.048 13.8845 191.022 14.4713 192.046 15.1455C193.095 15.8197 194.081 16.4939 195.005 17.168C195.929 17.8422 196.678 18.4914 197.252 19.1157L194.818 22.8986C194.293 22.2743 193.582 21.6002 192.683 20.876C191.784 20.1269 190.822 19.3903 189.799 18.6662C188.775 17.9421 187.789 17.3054 186.84 16.756ZM191.447 0.126221L195.941 1.06258C195.292 3.58452 194.481 6.00658 193.507 8.32877C192.558 10.6509 191.472 12.7983 190.248 14.7709C189.05 16.7186 187.751 18.4165 186.353 19.8648C186.103 19.5901 185.741 19.278 185.267 18.9284C184.817 18.5539 184.355 18.1918 183.881 17.8422C183.406 17.4677 182.982 17.1805 182.607 16.9808C184.006 15.7073 185.267 14.1966 186.39 12.4488C187.514 10.7009 188.5 8.77822 189.349 6.68076C190.198 4.55834 190.897 2.37349 191.447 0.126221ZM204.331 9.26513C205.08 10.6385 205.979 11.9993 207.028 13.3477C208.101 14.6711 209.288 15.932 210.586 17.1306C211.884 18.3291 213.258 19.4153 214.706 20.3891C216.179 21.3629 217.665 22.1994 219.163 22.8986C218.838 23.1982 218.464 23.5852 218.039 24.0597C217.615 24.5091 217.215 24.9836 216.841 25.4829C216.466 25.9574 216.154 26.3943 215.905 26.7939C214.331 25.9699 212.808 24.9836 211.335 23.8349C209.887 22.6863 208.501 21.4129 207.178 20.0146C205.854 18.6163 204.631 17.1306 203.507 15.5575C202.408 13.9844 201.422 12.3614 200.548 10.6884L204.331 9.26513ZM198.9 5.63204H199.762L200.548 5.48222L203.507 6.49349C202.758 11.3126 201.622 15.5825 200.099 19.3029C198.601 23.0234 196.765 26.1946 194.593 28.8164C192.421 31.4133 189.986 33.4857 187.289 35.0339C187.04 34.7092 186.702 34.3222 186.278 33.8728C185.853 33.4483 185.404 33.0238 184.93 32.5993C184.48 32.1998 184.068 31.8877 183.694 31.6629C186.365 30.2646 188.737 28.4294 190.81 26.1571C192.882 23.8599 194.605 21.0883 195.979 17.8422C197.352 14.5962 198.326 10.8632 198.9 6.64331V5.63204Z" fill="#494949"/>
<path d="M157.7 6.64331L161.857 4.65822C162.656 5.55713 163.443 6.54343 164.217 7.61713C164.991 8.69083 165.678 9.75204 166.277 10.8008C166.901 11.8245 167.4 12.7734 167.775 13.6473L163.355 16.0069C163.056 15.158 162.606 14.1842 162.007 13.0855C161.408 11.9619 160.734 10.8382 159.984 9.71458C159.235 8.59095 158.474 7.56719 157.7 6.64331ZM145.564 26.3069C146.838 25.8825 148.311 25.3456 149.984 24.6964C151.682 24.0472 153.455 23.348 155.303 22.5989C157.175 21.8499 159.023 21.1008 160.846 20.3517L161.895 24.7339C160.222 25.4829 158.524 26.232 156.801 26.9811C155.078 27.7302 153.38 28.4543 151.707 29.1535C150.059 29.8526 148.523 30.5019 147.1 31.1011L145.564 26.3069ZM167.513 22.9735L170.959 19.7899C171.808 20.6888 172.719 21.6501 173.693 22.6739C174.692 23.6976 175.665 24.7463 176.614 25.82C177.588 26.8688 178.487 27.8925 179.311 28.8913C180.135 29.8651 180.809 30.764 181.334 31.588L177.476 35.3335C177.001 34.4845 176.365 33.5357 175.566 32.4869C174.791 31.4632 173.943 30.402 173.019 29.3033C172.12 28.2046 171.183 27.1185 170.21 26.0448C169.261 24.9461 168.362 23.9223 167.513 22.9735ZM172.607 2.33604L177.588 2.78549C177.139 7.03034 176.489 10.8632 175.64 14.284C174.791 17.6799 173.655 20.7137 172.232 23.3855C170.809 26.0323 169.011 28.3545 166.839 30.352C164.691 32.3496 162.082 34.0351 159.011 35.4084C158.786 35.0838 158.461 34.6718 158.037 34.1724C157.612 33.673 157.163 33.1611 156.688 32.6368C156.214 32.1374 155.79 31.7379 155.415 31.4382C158.411 30.2896 160.921 28.8539 162.943 27.1309C164.991 25.408 166.664 23.3605 167.962 20.9884C169.261 18.5913 170.272 15.8571 170.996 12.7859C171.72 9.68961 172.257 6.20634 172.607 2.33604ZM149.797 2.48586L154.516 2.29858L155.378 26.644L150.658 26.8313L149.797 2.48586Z" fill="#494949"/>
<path d="M113.766 5.96903H136.089V4.47085H111.069V1.84903H140.134V8.59085H113.766V5.96903ZM112.492 5.96903H116.687C116.288 7.16757 115.863 8.41606 115.414 9.71448C114.964 10.9879 114.552 12.0991 114.178 13.0479L110.095 12.7858C110.52 11.8369 110.944 10.7507 111.369 9.52721C111.793 8.27873 112.168 7.09266 112.492 5.96903ZM112.867 10.0516H139.834V12.6734H112.08L112.867 10.0516ZM138.336 10.0516H142.568C142.568 10.0516 142.556 10.1889 142.531 10.4636C142.531 10.7382 142.531 10.9879 142.531 11.2127C142.431 12.4362 142.306 13.3975 142.156 14.0967C142.006 14.7958 141.769 15.3327 141.445 15.7072C141.17 15.9819 140.833 16.1941 140.433 16.3439C140.059 16.4938 139.672 16.5812 139.272 16.6061C138.898 16.6311 138.398 16.6436 137.774 16.6436C137.15 16.6436 136.463 16.6311 135.714 16.6061C135.689 16.2066 135.602 15.7572 135.452 15.2578C135.302 14.7334 135.14 14.2839 134.965 13.9094C135.414 13.9593 135.814 13.9968 136.164 14.0218C136.538 14.0467 136.825 14.0467 137.025 14.0218C137.2 14.0218 137.35 14.0093 137.474 13.9843C137.599 13.9593 137.712 13.8844 137.812 13.7596C137.961 13.6098 138.074 13.2851 138.149 12.7858C138.224 12.2864 138.286 11.5248 138.336 10.501V10.0516ZM119.646 0.163574H123.729V7.91667C123.729 9.24006 123.566 10.4885 123.242 11.6621C122.917 12.8107 122.305 13.8595 121.406 14.8083C120.508 15.7571 119.209 16.5811 117.511 17.2803C115.813 17.9795 113.578 18.5413 110.807 18.9658C110.682 18.6411 110.495 18.2666 110.245 17.8421C109.995 17.3927 109.733 16.9557 109.458 16.5312C109.184 16.1067 108.922 15.7572 108.672 15.4825C111.069 15.1828 112.992 14.7833 114.44 14.2839C115.888 13.7845 116.987 13.2102 117.736 12.561C118.485 11.9118 118.984 11.2002 119.234 10.4261C119.509 9.62709 119.646 8.76563 119.646 7.84176V0.163574ZM127.924 0.163574H132.156V15.2952H127.924V0.163574ZM117.961 21.625V23.1232H134.141V21.625H117.961ZM117.961 25.5203V27.0934H134.141V25.5203H117.961ZM117.961 17.7298V19.2279H134.141V17.7298H117.961ZM113.578 15.1828H138.71V29.6403H113.578V15.1828ZM127.961 31.4007L131.557 29.1534C132.905 29.5779 134.278 30.0398 135.677 30.5392C137.1 31.0136 138.448 31.4881 139.722 31.9625C140.995 32.4369 142.081 32.8614 142.98 33.2359L137.961 35.4083C137.237 35.0338 136.338 34.6093 135.265 34.1348C134.191 33.6854 133.03 33.2235 131.781 32.749C130.533 32.2746 129.259 31.8252 127.961 31.4007ZM119.721 29.1908L123.729 30.9887C122.705 31.5879 121.519 32.1747 120.17 32.749C118.822 33.3233 117.436 33.8477 116.013 34.3221C114.615 34.7965 113.266 35.1836 111.968 35.4832C111.743 35.1836 111.431 34.8215 111.032 34.397C110.632 33.9975 110.232 33.598 109.833 33.1985C109.433 32.8239 109.059 32.5118 108.709 32.2621C110.058 32.0374 111.406 31.7752 112.754 31.4756C114.128 31.151 115.414 30.8014 116.612 30.4268C117.811 30.0273 118.847 29.6153 119.721 29.1908Z" fill="#494949"/>
<path d="M81.4804 9.33994H105.451V12.7108H81.4804V9.33994ZM81.1059 14.8458L83.3906 12.8607C84.0398 13.2852 84.7515 13.7845 85.5255 14.3588C86.2996 14.9082 86.9114 15.4076 87.3608 15.857L84.9637 18.0294C84.5642 17.6049 83.9774 17.093 83.2034 16.4938C82.4543 15.8695 81.7551 15.3202 81.1059 14.8458ZM96.7619 28.9287L100.17 27.2058C100.795 27.7551 101.444 28.3793 102.118 29.0785C102.792 29.7776 103.429 30.4643 104.028 31.1385C104.652 31.8127 105.139 32.4244 105.489 32.9738L101.856 34.8839C101.556 34.3596 101.119 33.7353 100.545 33.0112C99.9955 32.3121 99.3837 31.6004 98.7095 30.8763C98.0354 30.1522 97.3861 29.503 96.7619 28.9287ZM88.1099 22.5614V24.0221H97.8106V22.5614H88.1099ZM88.1099 18.7036V20.0894H97.8106V18.7036H88.1099ZM84.3644 16.0443H101.706V26.6814H84.3644V16.0443ZM84.1397 27.1308L88.1848 28.2545C87.5106 29.503 86.6492 30.7265 85.6004 31.925C84.5767 33.0986 83.5404 34.0849 82.4917 34.8839C82.242 34.6342 81.9174 34.3346 81.5179 33.985C81.1184 33.6604 80.7064 33.3358 80.2819 33.0112C79.8574 32.7116 79.4829 32.4619 79.1583 32.2621C80.1571 31.6129 81.1059 30.8388 82.0048 29.9399C82.9037 29.0161 83.6154 28.0797 84.1397 27.1308ZM102.755 12.5985L105.339 14.5087C104.74 15.083 104.091 15.6323 103.391 16.1567C102.717 16.681 102.105 17.1305 101.556 17.505L99.2714 15.7447C99.8207 15.3452 100.432 14.8458 101.107 14.2465C101.781 13.6222 102.33 13.0729 102.755 12.5985ZM97.2488 10.7632C97.8231 11.8369 98.5722 12.8731 99.4961 13.8719C100.42 14.8707 101.469 15.7696 102.642 16.5687C103.816 17.3427 105.052 17.967 106.35 18.4414C105.901 18.8159 105.426 19.3153 104.927 19.9396C104.428 20.5638 104.028 21.1131 103.728 21.5876C102.355 20.9633 101.044 20.1518 99.7957 19.153C98.5722 18.1542 97.4611 17.0306 96.4623 15.7821C95.4635 14.5087 94.6145 13.1853 93.9154 11.8119L97.2488 10.7632ZM90.7692 25.2956H95.1139V31.4756C95.1139 32.3995 95.0015 33.1111 94.7768 33.6105C94.5521 34.1348 94.1026 34.5468 93.4284 34.8465C92.7543 35.1212 91.9927 35.2835 91.1437 35.3334C90.2948 35.3833 89.296 35.4083 88.1474 35.4083C88.0225 34.859 87.8228 34.2347 87.5481 33.5356C87.2734 32.8614 87.0112 32.2871 86.7615 31.8127C87.4607 31.8376 88.1474 31.8501 88.8215 31.8501C89.4957 31.8501 89.9452 31.8501 90.1699 31.8501C90.4196 31.8501 90.5819 31.8127 90.6568 31.7378C90.7317 31.6379 90.7692 31.5005 90.7692 31.3258V25.2956ZM90.1324 6.75557L94.2524 7.31739C93.6532 9.21509 92.8292 11.0504 91.7804 12.8232C90.7567 14.5711 89.4583 16.2066 87.8852 17.7298C86.3121 19.2529 84.3894 20.6138 82.1172 21.8123C81.8425 21.3379 81.443 20.801 80.9186 20.2018C80.3943 19.6025 79.8949 19.153 79.4204 18.8534C81.5179 17.8796 83.2783 16.7435 84.7015 15.445C86.1498 14.1466 87.3109 12.7608 88.1848 11.2876C89.0837 9.78939 89.7329 8.27873 90.1324 6.75557ZM78.2219 3.19739H105.788V6.94285H78.2219V3.19739ZM76.0495 3.19739H80.207V15.2952C80.207 16.7934 80.1321 18.4289 79.9823 20.2018C79.8325 21.9746 79.5578 23.7724 79.1583 25.5952C78.7837 27.418 78.2219 29.1784 77.4728 30.8763C76.7487 32.5493 75.7874 34.035 74.5888 35.3334C74.3891 35.0338 74.0894 34.6842 73.6899 34.2847C73.2904 33.9101 72.8909 33.5356 72.4914 33.161C72.0918 32.8115 71.7423 32.5493 71.4426 32.3745C72.5163 31.1759 73.3528 29.8775 73.9521 28.4792C74.5763 27.0559 75.0383 25.5827 75.3379 24.0596C75.6375 22.5364 75.8248 21.0382 75.8997 19.565C75.9996 18.0668 76.0495 16.6436 76.0495 15.2952V3.19739ZM87.8477 0.163574H92.567V5.48212H87.8477V0.163574ZM70.6935 7.95412L73.9146 6.60576C74.439 7.8043 74.9134 9.09024 75.3379 10.4636C75.7874 11.8369 76.062 12.998 76.1619 13.9468L72.7535 15.5199C72.6786 14.8458 72.5413 14.0842 72.3415 13.2352C72.1418 12.3613 71.9046 11.4624 71.6299 10.5385C71.3552 9.6146 71.0431 8.75315 70.6935 7.95412ZM70.3564 20.9134C71.2304 20.5388 72.2541 20.0644 73.4277 19.4901C74.6263 18.8908 75.8623 18.2791 77.1357 17.6548L78.147 21.0258C77.0983 21.6999 76.0121 22.3741 74.8885 23.0483C73.7648 23.7225 72.6786 24.3592 71.6299 24.9585L70.3564 20.9134Z" fill="#494949"/>
<path d="M46.572 9.15266H64.8124V12.8981H46.572V9.15266ZM41.4782 15.6697H66.4604V19.5276H41.4782V15.6697ZM51.6284 10.5385H56.048V16.7185C56.048 17.8671 55.8732 19.0157 55.5237 20.1643C55.1741 21.2879 54.5623 22.3741 53.6884 23.4228C52.8144 24.4716 51.5784 25.4579 49.9804 26.3817C48.4073 27.2807 46.3847 28.0797 43.9127 28.7788C43.738 28.4542 43.4883 28.0922 43.1637 27.6927C42.839 27.2682 42.502 26.8562 42.1524 26.4567C41.8028 26.0571 41.4657 25.72 41.1411 25.4454C43.4133 24.921 45.2486 24.3217 46.6469 23.6476C48.0452 22.9734 49.094 22.2493 49.7931 21.4752C50.5172 20.6762 51.0041 19.8647 51.2538 19.0407C51.5035 18.2167 51.6284 17.4301 51.6284 16.681V10.5385ZM46.2349 6.04393L50.4298 7.0552C49.7806 8.65326 48.9317 10.1764 47.8829 11.6247C46.8592 13.0729 45.8104 14.2839 44.7367 15.2577C44.4621 15.033 44.0875 14.7833 43.6131 14.5087C43.1637 14.234 42.7017 13.9718 42.2273 13.7221C41.7778 13.4474 41.3783 13.2227 41.0287 13.0479C42.1524 12.199 43.1637 11.1502 44.0626 9.90175C44.9864 8.65326 45.7106 7.36732 46.2349 6.04393ZM55.7858 18.1417C56.6598 19.9895 58.0456 21.4877 59.9433 22.6363C61.866 23.7599 64.263 24.5215 67.1346 24.921C66.6601 25.3705 66.1607 25.9573 65.6364 26.6814C65.137 27.4055 64.75 28.0672 64.4753 28.6665C61.2792 28.0173 58.6823 26.8936 56.6847 25.2956C54.6872 23.6725 53.1141 21.5626 51.9655 18.9657L55.7858 18.1417ZM35.2607 1.88647H67.3218V6.19375H39.7178V35.3708H35.2607V1.88647ZM37.9949 29.5279H68.2582V33.8352H37.9949V29.5279Z" fill="#494949"/>
</svg>
