<svg width="503" height="87" viewBox="0 0 503 87" fill="none" xmlns="http://www.w3.org/2000/svg">
<path d="M497.058 73.3637L496.046 60.5402L495.858 54.9534H502.083L501.895 60.5402L500.883 73.3637H497.058ZM498.971 83.3375C498.021 83.3375 497.233 83.025 496.608 82.4001C495.983 81.7752 495.671 80.9878 495.671 80.0379C495.671 79.063 495.983 78.2631 496.608 77.6382C497.233 77.0132 498.021 76.7008 498.971 76.7008C499.92 76.7008 500.708 77.0132 501.333 77.6382C501.958 78.2631 502.27 79.063 502.27 80.0379C502.27 80.9878 501.958 81.7752 501.333 82.4001C500.708 83.025 499.92 83.3375 498.971 83.3375Z" fill="#494949"/>
<path d="M450.976 54.4284C451.501 54.5034 452.063 54.5534 452.663 54.5784C453.263 54.6034 453.838 54.6159 454.388 54.6159C454.788 54.6159 455.388 54.6159 456.188 54.6159C456.988 54.5909 457.887 54.5659 458.887 54.5409C459.912 54.5159 460.925 54.4909 461.924 54.4659C462.924 54.4409 463.824 54.4159 464.624 54.3909C465.449 54.3409 466.086 54.3034 466.536 54.2784C467.311 54.2034 467.924 54.1409 468.374 54.0909C468.824 54.0159 469.161 53.941 469.386 53.866L471.823 57.2031C471.398 57.478 470.961 57.753 470.511 58.028C470.061 58.3029 469.624 58.6029 469.199 58.9279C468.699 59.2778 468.099 59.7403 467.399 60.3152C466.699 60.8651 465.949 61.4526 465.149 62.0775C464.374 62.7024 463.612 63.3148 462.862 63.9148C462.137 64.5147 461.475 65.0521 460.875 65.5271C461.499 65.3771 462.099 65.2771 462.674 65.2271C463.249 65.1521 463.837 65.1146 464.437 65.1146C466.561 65.1146 468.461 65.5271 470.136 66.352C471.836 67.1769 473.173 68.3017 474.148 69.7266C475.148 71.1264 475.648 72.7387 475.648 74.5635C475.648 76.5383 475.148 78.3256 474.148 79.9254C473.148 81.5252 471.636 82.8 469.611 83.7499C467.611 84.6998 465.099 85.1747 462.074 85.1747C460.35 85.1747 458.787 84.9248 457.388 84.4248C456.013 83.9249 454.925 83.2125 454.125 82.2876C453.325 81.3627 452.926 80.2753 452.926 79.0255C452.926 78.0006 453.2 77.0507 453.75 76.1758C454.325 75.2759 455.113 74.551 456.113 74.0011C457.138 73.4511 458.312 73.1762 459.637 73.1762C461.362 73.1762 462.812 73.5261 463.987 74.226C465.187 74.901 466.099 75.8133 466.724 76.9632C467.374 78.1131 467.711 79.3754 467.736 80.7503L463.349 81.3502C463.324 79.9754 462.974 78.8755 462.299 78.0506C461.649 77.2007 460.775 76.7757 459.675 76.7757C458.975 76.7757 458.412 76.9632 457.987 77.3382C457.562 77.6881 457.35 78.1006 457.35 78.5755C457.35 79.2754 457.7 79.8379 458.4 80.2628C459.1 80.6878 460.012 80.9002 461.137 80.9002C463.262 80.9002 465.037 80.6503 466.461 80.1503C467.886 79.6254 468.949 78.888 469.649 77.9381C470.373 76.9632 470.736 75.8134 470.736 74.4885C470.736 73.3636 470.386 72.3763 469.686 71.5264C469.011 70.6765 468.086 70.014 466.911 69.5391C465.737 69.0641 464.412 68.8267 462.937 68.8267C461.487 68.8267 460.162 69.0142 458.962 69.3891C457.762 69.7391 456.625 70.2515 455.55 70.9264C454.5 71.5764 453.463 72.3763 452.438 73.3261C451.438 74.251 450.438 75.2884 449.438 76.4383L446.026 72.9137C446.701 72.3638 447.464 71.7513 448.314 71.0764C449.163 70.3765 450.026 69.6516 450.901 68.9017C451.801 68.1518 452.638 67.4518 453.413 66.8019C454.213 66.127 454.888 65.5646 455.438 65.1146C455.963 64.6897 456.575 64.1897 457.275 63.6148C457.975 63.0399 458.7 62.4524 459.45 61.8525C460.2 61.2276 460.912 60.6402 461.587 60.0902C462.262 59.5153 462.824 59.0279 463.274 58.6279C462.899 58.6279 462.412 58.6404 461.812 58.6654C461.212 58.6904 460.55 58.7154 459.825 58.7404C459.125 58.7654 458.412 58.7904 457.687 58.8154C456.988 58.8404 456.325 58.8779 455.7 58.9279C455.1 58.9529 454.6 58.9779 454.2 59.0029C453.7 59.0279 453.176 59.0653 452.626 59.1153C452.076 59.1653 451.576 59.2278 451.126 59.3028L450.976 54.4284Z" fill="#494949"/>
<path d="M441.789 81.0502C440.914 81.8501 439.902 82.5125 438.752 83.0374C437.602 83.5624 436.265 83.8248 434.74 83.8248C433.34 83.8248 432.203 83.3374 431.328 82.3625C430.478 81.3876 430.053 79.9878 430.053 78.163C430.053 77.1631 430.116 76.0883 430.241 74.9384C430.391 73.7635 430.553 72.5887 430.728 71.4138C430.903 70.239 431.053 69.1266 431.178 68.0767C431.328 67.0018 431.403 66.0395 431.403 65.1896C431.403 64.2647 431.178 63.5773 430.728 63.1273C430.278 62.6524 429.653 62.4149 428.853 62.4149C427.979 62.4149 427.004 62.7274 425.929 63.3523C424.854 63.9522 423.754 64.7271 422.629 65.677C421.504 66.6269 420.429 67.6393 419.405 68.7141C418.405 69.789 417.53 70.8139 416.78 71.7888L416.742 66.0145C417.192 65.5145 417.78 64.9271 418.505 64.2522C419.255 63.5773 420.092 62.8773 421.017 62.1524C421.967 61.4275 422.954 60.7526 423.979 60.1277C425.029 59.4777 426.079 58.9528 427.129 58.5529C428.204 58.1529 429.241 57.9529 430.241 57.9529C431.591 57.9529 432.69 58.2029 433.54 58.7028C434.415 59.1778 435.065 59.8402 435.49 60.6901C435.915 61.515 436.128 62.4524 436.128 63.5023C436.128 64.4771 436.065 65.5395 435.94 66.6894C435.815 67.8143 435.665 68.9641 435.49 70.139C435.315 71.3138 435.165 72.4762 435.04 73.6261C434.94 74.7759 434.89 75.8258 434.89 76.7757C434.89 77.2756 435.015 77.6881 435.265 78.013C435.515 78.313 435.865 78.463 436.315 78.463C437.015 78.463 437.79 78.238 438.64 77.7881C439.49 77.3131 440.34 76.6382 441.189 75.7633L441.789 81.0502ZM415.88 63.1648C415.48 63.2148 414.968 63.2773 414.343 63.3523C413.718 63.4273 413.043 63.5148 412.318 63.6147C411.618 63.7147 410.906 63.8147 410.181 63.9147C409.456 64.0147 408.781 64.1022 408.156 64.1772L407.668 59.3778C408.218 59.4028 408.731 59.4153 409.206 59.4153C409.706 59.3903 410.281 59.3653 410.931 59.3403C411.53 59.2903 412.243 59.2278 413.068 59.1528C413.918 59.0528 414.768 58.9403 415.617 58.8153C416.492 58.6903 417.305 58.5529 418.055 58.4029C418.805 58.2529 419.392 58.1029 419.817 57.9529L421.317 59.8652C421.092 60.1652 420.829 60.5401 420.529 60.9901C420.254 61.44 419.967 61.9025 419.667 62.3774C419.367 62.8273 419.105 63.2273 418.88 63.5773L416.667 70.6264C416.267 71.2013 415.767 71.9263 415.168 72.8012C414.593 73.6761 413.98 74.6009 413.33 75.5758C412.68 76.5507 412.043 77.4881 411.418 78.388C410.793 79.2879 410.231 80.0753 409.731 80.7502L406.769 76.6632C407.243 76.0633 407.781 75.3758 408.381 74.6009C409.006 73.801 409.656 72.9636 410.331 72.0887C411.006 71.1888 411.668 70.3015 412.318 69.4266C412.968 68.5267 413.568 67.6893 414.118 66.9144C414.693 66.1144 415.168 65.427 415.543 64.8521L415.617 63.8772L415.88 63.1648ZM415.43 55.9657C415.43 55.4157 415.43 54.8658 415.43 54.3159C415.43 53.7409 415.38 53.166 415.28 52.5911L420.754 52.7785C420.604 53.3535 420.442 54.1909 420.267 55.2907C420.117 56.3656 419.954 57.603 419.78 59.0028C419.63 60.4026 419.48 61.8775 419.33 63.4273C419.205 64.9521 419.092 66.4769 418.992 68.0017C418.917 69.5265 418.88 70.9514 418.88 72.2762C418.88 73.3011 418.88 74.3385 418.88 75.3883C418.905 76.4382 418.93 77.5131 418.955 78.613C418.98 79.7128 419.03 80.8502 419.105 82.0251C419.13 82.35 419.167 82.8 419.217 83.3749C419.267 83.9748 419.317 84.4873 419.367 84.9122H414.193C414.243 84.4623 414.268 83.9623 414.268 83.4124C414.293 82.8625 414.305 82.4375 414.305 82.1375C414.33 80.9127 414.355 79.7753 414.38 78.7254C414.405 77.6756 414.418 76.5632 414.418 75.3883C414.443 74.2135 414.48 72.8511 414.53 71.3013C414.555 70.7264 414.593 70.0015 414.643 69.1266C414.693 68.2267 414.743 67.2518 414.793 66.2019C414.868 65.1271 414.943 64.0397 415.018 62.9398C415.093 61.84 415.155 60.8151 415.205 59.8652C415.28 58.8903 415.33 58.0654 415.355 57.3905C415.405 56.6906 415.43 56.2156 415.43 55.9657Z" fill="#494949"/>
<path d="M387.196 55.9658H399.982V60.3528H387.196V55.9658ZM369.348 53.2661H388.283V57.4281H369.348V53.2661ZM374.298 60.9902H383.296V65.0022H374.298V60.9902ZM374.298 68.7893H383.296V72.8013H374.298V68.7893ZM398.745 55.9658H399.532L400.319 55.8158L403.244 56.5657C402.769 61.6401 401.894 66.0646 400.619 69.8391C399.37 73.6137 397.732 76.8383 395.708 79.513C393.683 82.1877 391.246 84.3874 388.396 86.1122C388.071 85.5373 387.621 84.8748 387.046 84.1249C386.496 83.4 385.971 82.8376 385.471 82.4376C387.971 81.1128 390.133 79.2505 391.958 76.8508C393.783 74.4261 395.27 71.5389 396.42 68.1893C397.595 64.8147 398.37 61.0652 398.745 56.9407V55.9658ZM391.62 60.4653C392.22 63.6899 393.083 66.727 394.208 69.5767C395.333 72.4263 396.757 74.951 398.482 77.1508C400.207 79.3505 402.269 81.1003 404.669 82.4001C404.344 82.6751 403.969 83.0251 403.544 83.45C403.144 83.9 402.769 84.3499 402.419 84.7999C402.069 85.2748 401.782 85.7122 401.557 86.1122C398.932 84.5124 396.695 82.5001 394.845 80.0754C393.02 77.6507 391.508 74.851 390.308 71.6764C389.108 68.5018 388.108 65.0397 387.309 61.2902L391.62 60.4653ZM371.935 54.9534H376.21V79.4755H371.935V54.9534ZM381.572 54.9534H385.884V86.3372H381.572V54.9534ZM368.448 77.8257C369.698 77.7007 371.11 77.5382 372.685 77.3382C374.285 77.1383 375.972 76.9133 377.747 76.6633C379.547 76.4134 381.322 76.1634 383.072 75.9134L383.296 80.0379C380.872 80.4629 378.422 80.8753 375.947 81.2753C373.473 81.6502 371.26 82.0002 369.311 82.3251L368.448 77.8257Z" fill="#494949"/>
<path d="M359.412 53.1912C359.362 53.5911 359.324 54.0161 359.299 54.466C359.274 54.891 359.249 55.3159 359.224 55.7409C359.199 56.0908 359.187 56.6283 359.187 57.3532C359.212 58.0531 359.224 58.853 359.224 59.7529C359.224 60.6278 359.224 61.5277 359.224 62.4526C359.224 63.3524 359.224 64.1898 359.224 64.9648C359.249 65.7397 359.262 66.3396 359.262 66.7645C359.262 68.9893 359.174 71.014 358.999 72.8388C358.849 74.6386 358.499 76.3009 357.949 77.8257C357.424 79.3505 356.612 80.7629 355.512 82.0627C354.437 83.3626 352.962 84.6124 351.088 85.8123L346.776 82.4002C347.476 82.1002 348.25 81.6753 349.1 81.1253C349.95 80.5504 350.625 79.9755 351.125 79.4005C351.85 78.6506 352.437 77.8632 352.887 77.0383C353.337 76.2134 353.687 75.301 353.937 74.3011C354.212 73.3013 354.387 72.1889 354.462 70.964C354.562 69.7392 354.612 68.3269 354.612 66.727C354.612 66.0521 354.612 65.2022 354.612 64.1774C354.612 63.1525 354.6 62.0901 354.575 60.9902C354.55 59.8904 354.525 58.878 354.5 57.9531C354.475 57.0032 354.437 56.2783 354.387 55.7784C354.362 55.3034 354.3 54.8285 354.2 54.3535C354.125 53.8786 354.05 53.4911 353.975 53.1912H359.412ZM344.638 60.5028C345.238 60.5778 345.851 60.6528 346.476 60.7278C347.101 60.7778 347.726 60.8278 348.35 60.8777C349 60.9027 349.65 60.9152 350.3 60.9152C351.925 60.9152 353.625 60.8777 355.4 60.8027C357.174 60.7278 358.887 60.6153 360.536 60.4653C362.186 60.2903 363.624 60.0903 364.848 59.8654L364.811 64.7398C363.636 64.8648 362.249 64.9898 360.649 65.1147C359.049 65.2147 357.362 65.3022 355.587 65.3772C353.837 65.4272 352.112 65.4522 350.413 65.4522C349.888 65.4522 349.288 65.4397 348.613 65.4147C347.938 65.3897 347.263 65.3647 346.588 65.3397C345.913 65.3147 345.263 65.2897 344.638 65.2647V60.5028ZM340.776 53.8286C340.626 54.2785 340.464 54.8035 340.289 55.4034C340.114 55.9783 339.976 56.4658 339.876 56.8657C339.651 57.8906 339.414 59.128 339.164 60.5778C338.914 62.0026 338.702 63.4899 338.527 65.0397C338.352 66.5896 338.264 68.1144 338.264 69.6142C338.264 71.089 338.389 72.4014 338.639 73.5512C338.889 72.9763 339.177 72.2889 339.501 71.489C339.826 70.6641 340.139 69.9017 340.439 69.2018L342.764 70.7016C342.414 71.7764 342.064 72.8888 341.714 74.0387C341.389 75.1635 341.101 76.2384 340.851 77.2633C340.601 78.2632 340.389 79.1256 340.214 79.8505C340.139 80.1254 340.076 80.4504 340.026 80.8254C340.001 81.1753 339.989 81.4628 339.989 81.6878C339.989 81.8627 339.989 82.1002 339.989 82.4002C340.014 82.7001 340.039 82.9751 340.064 83.2251L335.902 83.6375C335.627 82.8876 335.314 81.8627 334.965 80.5629C334.64 79.2381 334.352 77.7882 334.102 76.2134C333.877 74.6136 333.765 73.0388 333.765 71.489C333.765 69.4392 333.827 67.4645 333.952 65.5647C334.102 63.6649 334.277 61.9401 334.477 60.3903C334.677 58.8155 334.84 57.5281 334.965 56.5283C335.064 56.0033 335.127 55.4534 335.152 54.8785C335.177 54.2785 335.202 53.7411 335.227 53.2662L340.776 53.8286Z" fill="#494949"/>
<path d="M295.069 61.8901H327.953V70.1016H323.566V65.7896H299.306V70.1016H295.069V61.8901ZM300.506 68.6768H320.266V72.8388H300.506V68.6768ZM323.566 50.9414L326.603 54.5785C324.478 54.9784 322.179 55.3409 319.704 55.6658C317.254 55.9658 314.705 56.2283 312.055 56.4532C309.43 56.6782 306.793 56.8657 304.143 57.0157C301.494 57.1657 298.919 57.2656 296.419 57.3156C296.394 56.7657 296.269 56.1158 296.044 55.3659C295.844 54.616 295.644 53.991 295.444 53.4911C297.919 53.4161 300.444 53.3036 303.018 53.1536C305.618 53.0037 308.155 52.8287 310.63 52.6287C313.13 52.4037 315.48 52.1538 317.679 51.8788C319.879 51.5788 321.841 51.2664 323.566 50.9414ZM298.744 58.0281L302.644 56.9407C303.094 57.6156 303.518 58.3655 303.918 59.1904C304.343 60.0153 304.643 60.7402 304.818 61.3652L300.656 62.565C300.531 61.9401 300.281 61.2027 299.906 60.3528C299.531 59.5029 299.144 58.728 298.744 58.0281ZM308.643 57.2407L312.617 56.3408C312.992 57.1157 313.342 57.9531 313.667 58.853C314.017 59.7529 314.242 60.5403 314.342 61.2152L310.105 62.2651C310.03 61.5901 309.843 60.7777 309.543 59.8278C309.268 58.878 308.968 58.0156 308.643 57.2407ZM320.529 56.2658L325.291 57.3906C324.866 58.1905 324.428 58.9779 323.978 59.7529C323.529 60.5278 323.079 61.2652 322.629 61.9651C322.179 62.64 321.766 63.2399 321.391 63.7649L317.679 62.715C318.029 62.0901 318.379 61.4152 318.729 60.6902C319.104 59.9403 319.442 59.1779 319.742 58.403C320.066 57.6281 320.329 56.9157 320.529 56.2658ZM318.617 68.6768H319.554L320.341 68.5268L323.416 70.3641C322.291 72.8138 320.829 74.9385 319.029 76.7383C317.254 78.5131 315.205 80.0129 312.88 81.2378C310.555 82.4626 308.03 83.4625 305.306 84.2374C302.606 85.0123 299.781 85.5998 296.832 85.9997C296.682 85.6248 296.457 85.1748 296.157 84.6499C295.857 84.1499 295.532 83.65 295.182 83.1501C294.832 82.6751 294.507 82.2877 294.207 81.9877C297.082 81.6877 299.819 81.2378 302.419 80.6379C305.018 80.0379 307.38 79.2505 309.505 78.2757C311.63 77.2758 313.467 76.0509 315.017 74.6011C316.567 73.1513 317.767 71.4265 318.617 69.4267V68.6768ZM304.968 71.7514C306.368 73.6262 308.218 75.251 310.518 76.6258C312.842 77.9757 315.529 79.0756 318.579 79.9255C321.654 80.7754 325.016 81.3628 328.665 81.6877C328.34 82.0127 328.003 82.4376 327.653 82.9626C327.303 83.4875 326.966 84 326.641 84.4999C326.341 85.0248 326.091 85.4998 325.891 85.9247C322.141 85.4498 318.717 84.6874 315.617 83.6375C312.517 82.5876 309.743 81.2128 307.293 79.513C304.843 77.7882 302.756 75.726 301.031 73.3262L304.968 71.7514Z" fill="#494949"/>
<path d="M272.31 53.6409C272.21 54.1159 272.098 54.6408 271.973 55.2157C271.848 55.7657 271.735 56.2781 271.635 56.7531C271.535 57.303 271.41 57.9279 271.26 58.6278C271.11 59.3028 270.96 59.9902 270.81 60.6901C270.685 61.365 270.548 62.0274 270.398 62.6774C270.148 63.7522 269.835 65.0021 269.46 66.4269C269.085 67.8517 268.648 69.3891 268.148 71.0389C267.648 72.6637 267.086 74.301 266.461 75.9508C265.836 77.6006 265.173 79.2129 264.474 80.7877C263.774 82.3375 263.024 83.7374 262.224 84.9872L257.349 83.0374C258.224 81.8626 259.037 80.5502 259.787 79.1004C260.561 77.6256 261.261 76.1258 261.886 74.6009C262.511 73.0511 263.061 71.5263 263.536 70.0265C264.036 68.5017 264.461 67.0893 264.811 65.7895C265.186 64.4896 265.473 63.3773 265.673 62.4524C266.023 60.7526 266.298 59.1153 266.498 57.5405C266.698 55.9657 266.773 54.4783 266.723 53.0785L272.31 53.6409ZM285.209 57.428C285.808 58.2529 286.421 59.2653 287.046 60.4651C287.696 61.64 288.333 62.8898 288.958 64.2147C289.583 65.5395 290.145 66.8144 290.645 68.0392C291.145 69.2641 291.533 70.3264 291.808 71.2263L287.046 73.4011C286.821 72.3512 286.483 71.1888 286.033 69.914C285.609 68.6392 285.109 67.3518 284.534 66.052C283.959 64.7271 283.346 63.4773 282.696 62.3024C282.071 61.1275 281.422 60.1402 280.747 59.3403L285.209 57.428ZM257.087 61.3275C257.762 61.3775 258.424 61.4025 259.074 61.4025C259.749 61.3775 260.424 61.3525 261.099 61.3275C261.724 61.3025 262.474 61.265 263.349 61.215C264.224 61.14 265.148 61.0651 266.123 60.9901C267.123 60.9151 268.123 60.8401 269.123 60.7651C270.123 60.6651 271.048 60.5901 271.898 60.5401C272.748 60.4901 273.447 60.4651 273.997 60.4651C275.347 60.4651 276.522 60.6901 277.522 61.14C278.522 61.565 279.309 62.3024 279.884 63.3523C280.484 64.4022 280.784 65.827 280.784 67.6268C280.784 69.1016 280.722 70.7014 280.597 72.4262C280.472 74.151 280.247 75.8008 279.922 77.3756C279.622 78.9504 279.197 80.2878 278.647 81.3876C278.047 82.6875 277.222 83.5874 276.172 84.0873C275.147 84.5873 273.922 84.8372 272.498 84.8372C271.798 84.8372 271.035 84.7747 270.21 84.6497C269.385 84.5498 268.648 84.4373 267.998 84.3123L267.211 79.3629C267.686 79.4879 268.211 79.6128 268.786 79.7378C269.385 79.8628 269.948 79.9628 270.473 80.0378C271.023 80.1128 271.46 80.1503 271.785 80.1503C272.41 80.1503 272.96 80.0378 273.435 79.8128C273.91 79.5629 274.297 79.1379 274.597 78.538C274.947 77.8131 275.235 76.8757 275.46 75.7258C275.685 74.5759 275.847 73.3386 275.947 72.0137C276.072 70.6639 276.135 69.3766 276.135 68.1517C276.135 67.1518 275.985 66.4144 275.685 65.9395C275.41 65.4645 274.997 65.1521 274.447 65.0021C273.922 64.8271 273.272 64.7396 272.498 64.7396C271.923 64.7396 271.148 64.7896 270.173 64.8896C269.198 64.9646 268.148 65.0646 267.023 65.1896C265.923 65.2895 264.898 65.402 263.949 65.527C262.999 65.652 262.261 65.7395 261.736 65.7895C261.186 65.8895 260.486 66.002 259.637 66.127C258.812 66.2269 258.112 66.3269 257.537 66.4269L257.087 61.3275ZM284.534 52.2161C284.859 52.6661 285.196 53.2035 285.546 53.8284C285.921 54.4533 286.283 55.0783 286.633 55.7032C286.983 56.3281 287.283 56.8781 287.533 57.353L284.496 58.6653C284.246 58.1404 283.959 57.5655 283.634 56.9405C283.309 56.3156 282.971 55.6907 282.621 55.0658C282.271 54.4408 281.921 53.9034 281.572 53.4535L284.534 52.2161ZM288.996 50.5288C289.321 51.0038 289.671 51.5537 290.045 52.1786C290.42 52.8035 290.783 53.4285 291.133 54.0534C291.508 54.6783 291.795 55.2033 291.995 55.6282L289.033 56.903C288.633 56.1281 288.158 55.2532 287.608 54.2784C287.058 53.2785 286.521 52.4286 285.996 51.7287L288.996 50.5288Z" fill="#494949"/>
<path d="M236.352 55.4408C235.327 56.8657 234.027 58.3405 232.452 59.8653C230.903 61.3901 229.178 62.8524 227.278 64.2523C225.403 65.6521 223.441 66.902 221.391 68.0018C221.191 67.6269 220.929 67.2144 220.604 66.7645C220.304 66.3145 219.966 65.8771 219.591 65.4521C219.242 65.0272 218.904 64.6522 218.579 64.3273C220.729 63.3024 222.791 62.04 224.766 60.5402C226.741 59.0154 228.503 57.4281 230.053 55.7783C231.628 54.1285 232.877 52.5412 233.802 51.0164H238.489C239.514 52.4412 240.639 53.8035 241.864 55.1034C243.089 56.4032 244.401 57.6031 245.801 58.7029C247.201 59.8028 248.638 60.7902 250.113 61.6651C251.588 62.54 253.075 63.2774 254.575 63.8773C254 64.4523 253.462 65.1022 252.963 65.8271C252.463 66.552 252 67.2519 251.575 67.9268C250.15 67.1769 248.701 66.3145 247.226 65.3397C245.776 64.3648 244.376 63.3274 243.026 62.2275C241.676 61.1027 240.426 59.9653 239.277 58.8154C238.127 57.6656 237.152 56.5407 236.352 55.4408ZM226.978 62.3775H245.838V66.3145H226.978V62.3775ZM222.479 70.0266H250.263V73.9261H222.479V70.0266ZM220.604 81.4252H252.475V85.2873H220.604V81.4252ZM233.915 63.9523H238.677V83.375H233.915V63.9523ZM224.841 75.351L228.44 73.8511C228.915 74.4761 229.378 75.1635 229.828 75.9134C230.303 76.6633 230.728 77.4007 231.103 78.1256C231.478 78.8505 231.753 79.5005 231.928 80.0754L228.065 81.8002C227.915 81.2253 227.666 80.5628 227.316 79.8129C226.966 79.038 226.578 78.2631 226.153 77.4882C225.728 76.7133 225.291 76.0009 224.841 75.351ZM243.889 73.8886L248.201 75.4634C247.451 76.6133 246.676 77.7632 245.876 78.913C245.076 80.0379 244.339 81.0003 243.664 81.8002L240.289 80.3754C240.714 79.7754 241.151 79.113 241.601 78.3881C242.051 77.6382 242.476 76.8758 242.876 76.1009C243.276 75.301 243.614 74.5636 243.889 73.8886Z" fill="#494949"/>
<path d="M196.607 52.5537C196.582 52.7537 196.544 53.0661 196.494 53.4911C196.444 53.891 196.394 54.3035 196.344 54.7285C196.319 55.1284 196.294 55.4909 196.269 55.8158C196.219 56.5407 196.169 57.3406 196.119 58.2155C196.094 59.0654 196.069 59.9528 196.044 60.8777C196.019 61.7776 195.994 62.69 195.969 63.6149C195.969 64.5398 195.969 65.4397 195.969 66.3146C195.969 67.3394 195.982 68.4768 196.007 69.7267C196.032 70.9515 196.057 72.1764 196.082 73.4012C196.132 74.6011 196.157 75.701 196.157 76.7008C196.182 77.7007 196.194 78.4756 196.194 79.0256C196.194 80.5754 196.019 81.7752 195.669 82.6251C195.344 83.475 194.87 84.0625 194.245 84.3874C193.62 84.7374 192.895 84.9123 192.07 84.9123C191.17 84.9123 190.208 84.7249 189.183 84.3499C188.158 84 187.195 83.5 186.296 82.8501C185.421 82.2002 184.696 81.4503 184.121 80.6004C183.571 79.7255 183.296 78.7881 183.296 77.7882C183.296 76.5883 183.746 75.401 184.646 74.2261C185.571 73.0263 186.783 71.9264 188.283 70.9265C189.808 69.9266 191.445 69.1267 193.195 68.5268C194.87 67.9019 196.594 67.4519 198.369 67.177C200.144 66.877 201.744 66.727 203.169 66.727C205.093 66.727 206.831 67.052 208.38 67.7019C209.93 68.3268 211.168 69.2517 212.092 70.4766C213.017 71.7014 213.48 73.1762 213.48 74.901C213.48 76.3509 213.205 77.6882 212.655 78.9131C212.105 80.1379 211.218 81.2003 209.993 82.1002C208.793 82.9751 207.193 83.6625 205.193 84.1624C204.343 84.3374 203.493 84.4624 202.644 84.5374C201.819 84.6374 201.031 84.7124 200.281 84.7624L198.557 79.9254C199.406 79.9254 200.219 79.9129 200.994 79.888C201.794 79.838 202.519 79.763 203.169 79.663C204.193 79.463 205.118 79.163 205.943 78.7631C206.768 78.3631 207.418 77.8382 207.893 77.1883C208.368 76.5384 208.605 75.7634 208.605 74.8636C208.605 74.0137 208.368 73.2887 207.893 72.6888C207.443 72.0889 206.806 71.6264 205.981 71.3015C205.156 70.9765 204.193 70.814 203.094 70.814C201.519 70.814 199.919 70.9765 198.294 71.3015C196.694 71.6264 195.157 72.0764 193.682 72.6513C192.582 73.0763 191.595 73.5762 190.72 74.1511C189.845 74.7011 189.158 75.276 188.658 75.8759C188.158 76.4759 187.908 77.0508 187.908 77.6007C187.908 77.9007 187.995 78.1882 188.17 78.4631C188.37 78.7131 188.62 78.9381 188.92 79.138C189.22 79.338 189.52 79.5005 189.82 79.6255C190.145 79.7255 190.42 79.7755 190.645 79.7755C190.995 79.7755 191.282 79.6755 191.507 79.4755C191.732 79.2505 191.845 78.8256 191.845 78.2006C191.845 77.5257 191.82 76.5633 191.77 75.3135C191.745 74.0386 191.707 72.6263 191.657 71.0765C191.632 69.5267 191.62 67.9894 191.62 66.4646C191.62 65.4147 191.62 64.3523 191.62 63.2774C191.645 62.2026 191.657 61.1777 191.657 60.2028C191.657 59.2279 191.657 58.3655 191.657 57.6156C191.682 56.8657 191.695 56.2783 191.695 55.8533C191.695 55.5784 191.682 55.2284 191.657 54.8034C191.632 54.3785 191.595 53.9535 191.545 53.5286C191.52 53.0786 191.482 52.7537 191.432 52.5537H196.607ZM207.293 56.6032C208.243 57.0532 209.305 57.6031 210.48 58.253C211.68 58.903 212.817 59.5529 213.892 60.2028C214.992 60.8277 215.867 61.3902 216.517 61.8901L214.267 65.7146C213.792 65.3147 213.167 64.8647 212.392 64.3648C211.643 63.8649 210.818 63.3524 209.918 62.8275C209.043 62.3025 208.193 61.8151 207.368 61.3652C206.543 60.8902 205.831 60.5153 205.231 60.2403L207.293 56.6032ZM184.308 58.6655C185.408 58.7905 186.371 58.878 187.195 58.928C188.045 58.9529 188.808 58.9654 189.483 58.9654C190.458 58.9654 191.532 58.9279 192.707 58.853C193.882 58.753 195.082 58.628 196.307 58.478C197.532 58.303 198.719 58.1031 199.869 57.8781C201.044 57.6531 202.106 57.4031 203.056 57.1282L203.169 61.7776C202.119 62.0276 200.981 62.2525 199.756 62.4525C198.532 62.6275 197.294 62.79 196.044 62.94C194.82 63.0899 193.645 63.2024 192.52 63.2774C191.42 63.3524 190.458 63.3899 189.633 63.3899C188.383 63.3899 187.358 63.3774 186.558 63.3524C185.758 63.3274 185.033 63.2774 184.383 63.2024L184.308 58.6655Z" fill="#494949"/>
<path d="M160.535 53.0786C160.385 53.5785 160.235 54.191 160.085 54.9159C159.935 55.6408 159.823 56.2032 159.748 56.6032C159.573 57.4531 159.348 58.4905 159.073 59.7153C158.823 60.9402 158.536 62.24 158.211 63.6148C157.911 64.9897 157.598 66.302 157.273 67.5519C156.948 68.8767 156.548 70.3141 156.073 71.8639C155.598 73.3887 155.086 74.951 154.536 76.5508C154.011 78.1256 153.474 79.6379 152.924 81.0878C152.374 82.5126 151.836 83.7874 151.311 84.9123L146.1 83.15C146.65 82.2001 147.237 81.0503 147.862 79.7004C148.487 78.3256 149.087 76.8508 149.662 75.276C150.262 73.7011 150.812 72.1388 151.311 70.589C151.811 69.0392 152.236 67.6019 152.586 66.277C152.836 65.4021 153.074 64.5022 153.299 63.5774C153.524 62.6525 153.724 61.7526 153.899 60.8777C154.074 60.0028 154.224 59.1904 154.349 58.4405C154.499 57.6656 154.611 56.9906 154.686 56.4157C154.761 55.7158 154.811 55.0159 154.836 54.316C154.861 53.616 154.849 53.0536 154.799 52.6287L160.535 53.0786ZM150.974 58.6654C152.499 58.6654 154.086 58.5905 155.736 58.4405C157.386 58.2905 159.048 58.078 160.723 57.803C162.398 57.5281 164.06 57.2031 165.71 56.8282V61.5151C164.16 61.8651 162.51 62.165 160.76 62.415C159.011 62.665 157.286 62.8649 155.586 63.0149C153.886 63.1399 152.324 63.2024 150.899 63.2024C149.999 63.2024 149.187 63.1899 148.462 63.1649C147.737 63.1149 147.037 63.0774 146.362 63.0524L146.25 58.3655C147.224 58.4655 148.062 58.5405 148.762 58.5905C149.462 58.6404 150.199 58.6654 150.974 58.6654ZM162.748 64.4023C163.798 64.3023 164.96 64.2148 166.235 64.1398C167.51 64.0648 168.747 64.0273 169.947 64.0273C171.022 64.0273 172.109 64.0523 173.209 64.1023C174.334 64.1523 175.446 64.2398 176.546 64.3648L176.434 68.8642C175.509 68.7392 174.484 68.6393 173.359 68.5643C172.259 68.4643 171.134 68.4143 169.984 68.4143C168.709 68.4143 167.472 68.4518 166.272 68.5268C165.097 68.5768 163.922 68.6768 162.748 68.8267V64.4023ZM164.772 73.8511C164.622 74.3761 164.497 74.926 164.397 75.5009C164.297 76.0509 164.247 76.5383 164.247 76.9633C164.247 77.3632 164.335 77.7382 164.51 78.0881C164.685 78.4381 164.96 78.7505 165.335 79.0255C165.71 79.2755 166.222 79.4755 166.872 79.6254C167.547 79.7754 168.384 79.8504 169.384 79.8504C170.659 79.8504 171.934 79.7879 173.209 79.6629C174.509 79.513 175.834 79.313 177.183 79.063L176.996 83.8624C175.946 83.9874 174.784 84.0999 173.509 84.1999C172.234 84.3249 170.847 84.3874 169.347 84.3874C166.197 84.3874 163.785 83.8749 162.11 82.8501C160.46 81.8002 159.635 80.3254 159.635 78.4256C159.635 77.5757 159.71 76.7133 159.86 75.8384C160.01 74.9635 160.16 74.1511 160.31 73.4012L164.772 73.8511Z" fill="#494949"/>
<path d="M110.629 67.1394C111.204 67.0144 111.866 66.8645 112.616 66.6895C113.366 66.4895 114.029 66.302 114.603 66.127C115.228 65.9271 116.066 65.6646 117.116 65.3396C118.166 65.0147 119.315 64.6897 120.565 64.3648C121.84 64.0398 123.115 63.7648 124.39 63.5398C125.69 63.3149 126.914 63.2024 128.064 63.2024C130.039 63.2024 131.764 63.5773 133.239 64.3273C134.739 65.0522 135.901 66.102 136.726 67.4769C137.551 68.8517 137.963 70.489 137.963 72.3888C137.963 74.0886 137.588 75.6384 136.838 77.0382C136.113 78.4381 135.001 79.6629 133.501 80.7128C132.001 81.7627 130.127 82.6126 127.877 83.2625C125.652 83.9374 123.052 84.3624 120.078 84.5373L118.091 79.9254C120.24 79.8754 122.215 79.6879 124.015 79.363C125.84 79.038 127.414 78.5756 128.739 77.9756C130.089 77.3507 131.126 76.5633 131.851 75.6134C132.601 74.6635 132.976 73.5637 132.976 72.3138C132.976 71.3639 132.751 70.539 132.301 69.8391C131.876 69.1142 131.264 68.5518 130.464 68.1518C129.664 67.7518 128.714 67.5519 127.614 67.5519C126.739 67.5519 125.765 67.6644 124.69 67.8893C123.615 68.1143 122.502 68.4018 121.353 68.7517C120.228 69.1017 119.115 69.4766 118.016 69.8766C116.916 70.2765 115.891 70.664 114.941 71.039C113.991 71.4139 113.204 71.7389 112.579 72.0138L110.629 67.1394Z" fill="#494949"/>
<path d="M91.6578 52.666C91.6078 53.041 91.5578 53.4659 91.5078 53.9409C91.4828 54.3908 91.4579 54.8533 91.4329 55.3282C91.4079 55.8281 91.3829 56.5031 91.3579 57.353C91.3329 58.1779 91.3204 59.0903 91.3204 60.0901C91.3204 61.09 91.3204 62.0774 91.3204 63.0523C91.3204 64.0272 91.3204 64.9146 91.3204 65.7145C91.3204 66.7643 91.3454 67.9392 91.3954 69.239C91.4453 70.5139 91.5078 71.8137 91.5828 73.1386C91.6828 74.4384 91.7578 75.6633 91.8078 76.8131C91.8828 77.938 91.9203 78.8754 91.9203 79.6253C91.9203 80.6752 91.6453 81.6376 91.0954 82.5125C90.5455 83.3624 89.7206 84.0373 88.6207 84.5372C87.5458 85.0372 86.1835 85.2871 84.5337 85.2871C81.534 85.2871 79.2593 84.7372 77.7095 83.6373C76.1597 82.5375 75.3848 81.0001 75.3848 79.0254C75.3848 77.7505 75.7472 76.6382 76.4721 75.6883C77.222 74.7134 78.2844 73.951 79.6593 73.401C81.0591 72.8511 82.7214 72.5761 84.6462 72.5761C86.6959 72.5761 88.6082 72.8011 90.383 73.2511C92.1828 73.676 93.8201 74.2384 95.2949 74.9384C96.7697 75.6383 98.0821 76.3757 99.2319 77.1506C100.382 77.9255 101.357 78.6254 102.157 79.2504L99.4569 83.4498C98.557 82.5999 97.5446 81.7625 96.4198 80.9376C95.3199 80.1127 94.1075 79.3628 92.7827 78.6879C91.4828 78.013 90.0955 77.4756 88.6207 77.0756C87.1709 76.6507 85.6335 76.4382 84.0087 76.4382C82.7089 76.4382 81.6965 76.6632 80.9716 77.1131C80.2717 77.5631 79.9217 78.113 79.9217 78.7629C79.9217 79.2379 80.0717 79.6503 80.3717 80.0003C80.6716 80.3502 81.1091 80.6127 81.684 80.7877C82.2589 80.9626 82.9839 81.0501 83.8588 81.0501C84.5337 81.0501 85.1086 80.9751 85.5835 80.8252C86.0835 80.6752 86.4709 80.4002 86.7459 80.0003C87.0209 79.6003 87.1584 79.0379 87.1584 78.313C87.1584 77.763 87.1334 76.9756 87.0834 75.9507C87.0584 74.9259 87.0209 73.801 86.9709 72.5761C86.9209 71.3263 86.8709 70.1014 86.8209 68.9016C86.7709 67.7017 86.7459 66.6394 86.7459 65.7145C86.7459 64.8146 86.7459 63.8772 86.7459 62.9023C86.7709 61.9024 86.7834 60.915 86.7834 59.9401C86.7834 58.9653 86.7834 58.0779 86.7834 57.278C86.8084 56.4531 86.8209 55.7781 86.8209 55.2532C86.8209 54.9032 86.7959 54.4783 86.7459 53.9784C86.7209 53.4534 86.6709 53.016 86.5959 52.666H91.6578ZM76.0972 56.1906C76.7721 56.2906 77.522 56.3906 78.3469 56.4906C79.1718 56.5906 80.0092 56.6905 80.8591 56.7905C81.734 56.8655 82.5589 56.928 83.3338 56.978C84.1087 57.003 84.7837 57.0155 85.3586 57.0155C87.9083 57.0155 90.4455 56.9405 92.9702 56.7905C95.5199 56.6155 98.1571 56.3031 100.882 55.8531L100.844 60.1651C99.5694 60.3401 98.0946 60.5026 96.4198 60.6526C94.745 60.8025 92.9577 60.9275 91.0579 61.0275C89.1831 61.1025 87.2958 61.14 85.3961 61.14C84.6212 61.14 83.6588 61.115 82.5089 61.065C81.3841 60.99 80.2592 60.9025 79.1343 60.8025C78.0095 60.6776 77.0346 60.5651 76.2097 60.4651L76.0972 56.1906ZM75.9097 64.2896C76.5096 64.3896 77.222 64.4896 78.047 64.5896C78.8719 64.6896 79.7093 64.7646 80.5592 64.8146C81.434 64.8646 82.2589 64.9146 83.0339 64.9645C83.8088 64.9895 84.4462 65.002 84.9461 65.002C87.2709 65.002 89.3706 64.9521 91.2454 64.8521C93.1452 64.7521 94.9199 64.6271 96.5697 64.4771C98.2195 64.3271 99.8069 64.1521 101.332 63.9522L101.294 68.3766C99.9943 68.5266 98.732 68.6516 97.5071 68.7516C96.3073 68.8516 95.0699 68.9391 93.7951 69.0141C92.5452 69.0891 91.1954 69.1391 89.7456 69.164C88.2957 69.189 86.6709 69.2015 84.8711 69.2015C84.1462 69.2015 83.2463 69.189 82.1715 69.164C81.0966 69.1141 79.9967 69.0516 78.8718 68.9766C77.772 68.9016 76.7971 68.8141 75.9472 68.7141L75.9097 64.2896Z" fill="#494949"/>
<path d="M63.0117 61.14C62.4618 61.49 61.8744 61.8274 61.2494 62.1524C60.6495 62.4773 59.9996 62.8148 59.2997 63.1648C58.7247 63.4647 58.0123 63.8147 57.1624 64.2146C56.3375 64.6146 55.4376 65.0645 54.4627 65.5645C53.5129 66.0394 52.5505 66.5519 51.5756 67.1018C50.6007 67.6267 49.6883 68.1642 48.8384 68.7141C47.2886 69.739 46.0262 70.8014 45.0514 71.9012C44.1015 73.0011 43.6265 74.2135 43.6265 75.5383C43.6265 76.8631 44.2765 77.888 45.5763 78.6129C46.8761 79.3128 48.8259 79.6628 51.4256 79.6628C52.7254 79.6628 54.1003 79.6128 55.5501 79.5128C57.0249 79.3878 58.4748 79.2254 59.8996 79.0254C61.3244 78.8004 62.5868 78.5504 63.6866 78.2755L63.6116 83.6748C62.5618 83.8498 61.4119 84.0123 60.1621 84.1623C58.9372 84.3122 57.5999 84.4247 56.15 84.4997C54.7252 84.5747 53.2004 84.6122 51.5756 84.6122C49.7008 84.6122 47.9635 84.4622 46.3637 84.1623C44.7889 83.8873 43.4016 83.4249 42.2017 82.7749C41.0268 82.125 40.102 81.2501 39.427 80.1502C38.7771 79.0504 38.4521 77.7005 38.4521 76.1007C38.4521 74.5009 38.8021 73.0511 39.502 71.7512C40.2019 70.4514 41.1518 69.2515 42.3517 68.1517C43.5765 67.0518 44.9139 66.0144 46.3637 65.0395C47.2636 64.4396 48.2135 63.8647 49.2134 63.3147C50.2132 62.7398 51.1881 62.1899 52.138 61.665C53.1129 61.14 54.0128 60.6651 54.8377 60.2401C55.6876 59.7902 56.3875 59.4027 56.9374 59.0778C57.6624 58.6528 58.2998 58.2654 58.8497 57.9154C59.3997 57.5654 59.9246 57.1905 60.4245 56.7905L63.0117 61.14ZM44.1515 53.116C44.7764 54.7658 45.4263 56.3531 46.1012 57.8779C46.8012 59.4027 47.4886 60.8275 48.1635 62.1524C48.8634 63.4772 49.5008 64.6646 50.0758 65.7145L45.8388 68.2267C45.1638 67.0768 44.4639 65.7895 43.739 64.3646C43.0141 62.9398 42.2892 61.44 41.5643 59.8652C40.8394 58.2654 40.1394 56.653 39.4645 55.0282L44.1515 53.116Z" fill="#494949"/>
<path d="M16.6666 52.666C16.6166 53.041 16.5666 53.4659 16.5166 53.9409C16.4916 54.3908 16.4666 54.8533 16.4416 55.3282C16.4166 55.8281 16.3916 56.5031 16.3667 57.353C16.3417 58.1779 16.3292 59.0903 16.3292 60.0901C16.3292 61.09 16.3292 62.0774 16.3292 63.0523C16.3292 64.0272 16.3292 64.9146 16.3292 65.7145C16.3292 66.7643 16.3542 67.9392 16.4041 69.239C16.4541 70.5139 16.5166 71.8137 16.5916 73.1386C16.6916 74.4384 16.7666 75.6633 16.8166 76.8131C16.8916 77.938 16.9291 78.8754 16.9291 79.6253C16.9291 80.6752 16.6541 81.6376 16.1042 82.5125C15.5542 83.3624 14.7293 84.0373 13.6295 84.5372C12.5546 85.0372 11.1923 85.2871 9.54246 85.2871C6.54282 85.2871 4.26809 84.7372 2.71828 83.6373C1.16846 82.5375 0.393555 81.0001 0.393555 79.0254C0.393555 77.7505 0.756011 76.6382 1.48092 75.6883C2.23084 74.7134 3.29321 73.951 4.66805 73.401C6.06788 72.8511 7.73018 72.5761 9.65495 72.5761C11.7047 72.5761 13.617 72.8011 15.3918 73.2511C17.1916 73.676 18.8289 74.2384 20.3037 74.9384C21.7785 75.6383 23.0908 76.3757 24.2407 77.1506C25.3906 77.9255 26.3655 78.6254 27.1654 79.2504L24.4657 83.4498C23.5658 82.5999 22.5534 81.7625 21.4285 80.9376C20.3287 80.1127 19.1163 79.3628 17.7915 78.6879C16.4916 78.013 15.1043 77.4756 13.6295 77.0756C12.1797 76.6507 10.6423 76.4382 9.01753 76.4382C7.71768 76.4382 6.7053 76.6632 5.98039 77.1131C5.28047 77.5631 4.93051 78.113 4.93051 78.7629C4.93051 79.2379 5.0805 79.6503 5.38046 80.0003C5.68042 80.3502 6.11787 80.6127 6.6928 80.7877C7.26774 80.9626 7.99265 81.0501 8.86755 81.0501C9.54246 81.0501 10.1174 80.9751 10.5923 80.8252C11.0923 80.6752 11.4797 80.4002 11.7547 80.0003C12.0297 79.6003 12.1672 79.0379 12.1672 78.313C12.1672 77.763 12.1422 76.9756 12.0922 75.9507C12.0672 74.9259 12.0297 73.801 11.9797 72.5761C11.9297 71.3263 11.8797 70.1014 11.8297 68.9016C11.7797 67.7017 11.7547 66.6394 11.7547 65.7145C11.7547 64.8146 11.7547 63.8772 11.7547 62.9023C11.7797 61.9024 11.7922 60.915 11.7922 59.9401C11.7922 58.9653 11.7922 58.0779 11.7922 57.278C11.8172 56.4531 11.8297 55.7781 11.8297 55.2532C11.8297 54.9032 11.8047 54.4783 11.7547 53.9784C11.7297 53.4534 11.6797 53.016 11.6047 52.666H16.6666ZM1.10597 56.1906C1.78089 56.2906 2.5308 56.3906 3.3557 56.4906C4.1806 56.5906 5.018 56.6905 5.8679 56.7905C6.7428 56.8655 7.5677 56.928 8.34261 56.978C9.11751 57.003 9.79243 57.0155 10.3674 57.0155C12.9171 57.0155 15.4543 56.9405 17.979 56.7905C20.5287 56.6155 23.1658 56.3031 25.8905 55.8531L25.853 60.1651C24.5782 60.3401 23.1033 60.5026 21.4285 60.6526C19.7537 60.8025 17.9665 60.9275 16.0667 61.0275C14.1919 61.1025 12.3046 61.14 10.4049 61.14C9.62995 61.14 8.66757 61.115 7.51771 61.065C6.39284 60.99 5.26797 60.9025 4.14311 60.8025C3.01824 60.6776 2.04336 60.5651 1.21846 60.4651L1.10597 56.1906ZM0.918492 64.2896C1.51842 64.3896 2.23084 64.4896 3.05574 64.5896C3.88064 64.6896 4.71804 64.7646 5.56794 64.8146C6.44283 64.8646 7.26774 64.9146 8.04264 64.9645C8.81755 64.9895 9.45498 65.002 9.95492 65.002C12.2796 65.002 14.3794 64.9521 16.2542 64.8521C18.1539 64.7521 19.9287 64.6271 21.5785 64.4771C23.2283 64.3271 24.8156 64.1521 26.3405 63.9522L26.303 68.3766C25.0031 68.5266 23.7408 68.6516 22.5159 68.7516C21.3161 68.8516 20.0787 68.9391 18.8039 69.0141C17.554 69.0891 16.2042 69.1391 14.7543 69.164C13.3045 69.189 11.6797 69.2015 9.87992 69.2015C9.15501 69.2015 8.25512 69.189 7.18025 69.164C6.10537 69.1141 5.00551 69.0516 3.88064 68.9766C2.78077 68.9016 1.80589 68.8141 0.955987 68.7141L0.918492 64.2896Z" fill="#494949"/>
<path d="M410.265 2.30365C410.24 2.50362 410.203 2.82858 410.153 3.27853C410.103 3.70348 410.065 4.14093 410.04 4.59087C410.04 5.01582 410.028 5.32829 410.003 5.52826C409.978 6.0282 409.953 6.70312 409.928 7.55302C409.928 8.40292 409.928 9.34031 409.928 10.3652C409.928 11.3901 409.928 12.4274 409.928 13.4773C409.953 14.5022 409.965 15.4771 409.965 16.402C409.99 17.3019 410.003 18.0518 410.003 18.6517L405.353 17.0394C405.353 16.5644 405.353 15.9395 405.353 15.1646C405.353 14.3897 405.353 13.5398 405.353 12.6149C405.353 11.665 405.341 10.7276 405.316 9.80275C405.316 8.87786 405.303 8.04046 405.278 7.29055C405.253 6.54064 405.228 5.96571 405.203 5.56576C405.153 4.81585 405.091 4.14093 405.016 3.541C404.941 2.94107 404.891 2.52862 404.866 2.30365H410.265ZM389.08 6.99059C390.205 6.96559 391.455 6.95309 392.83 6.95309C394.229 6.92809 395.692 6.9031 397.217 6.8781C398.741 6.82811 400.241 6.79061 401.716 6.76561C403.216 6.74062 404.603 6.72812 405.878 6.72812C407.178 6.70312 408.303 6.69062 409.253 6.69062C410.203 6.69062 411.24 6.69062 412.365 6.69062C413.49 6.66563 414.602 6.65313 415.702 6.65313C416.802 6.65313 417.802 6.65313 418.702 6.65313C419.601 6.65313 420.314 6.65313 420.839 6.65313L420.801 11.1151C419.626 11.0651 418.064 11.0151 416.114 10.9651C414.19 10.9151 411.852 10.8901 409.103 10.8901C407.403 10.8901 405.678 10.9151 403.928 10.9651C402.178 10.9901 400.441 11.0401 398.716 11.1151C396.992 11.1651 395.329 11.2276 393.73 11.3026C392.13 11.3526 390.617 11.4276 389.193 11.5275L389.08 6.99059ZM409.365 18.0518C409.365 20.1015 409.115 21.8013 408.615 23.1512C408.14 24.501 407.415 25.5259 406.44 26.2258C405.466 26.9007 404.253 27.2382 402.803 27.2382C402.079 27.2382 401.329 27.1007 400.554 26.8257C399.804 26.5258 399.104 26.0883 398.454 25.5134C397.829 24.9134 397.317 24.1885 396.917 23.3386C396.517 22.4887 396.317 21.5014 396.317 20.3765C396.317 18.9517 396.654 17.7143 397.329 16.6644C398.029 15.6146 398.954 14.8022 400.104 14.2272C401.254 13.6273 402.503 13.3273 403.853 13.3273C405.503 13.3273 406.878 13.7023 407.978 14.4522C409.103 15.2021 409.953 16.202 410.527 17.4518C411.102 18.7017 411.39 20.1015 411.39 21.6513C411.39 22.8762 411.19 24.151 410.79 25.4759C410.39 26.8007 409.715 28.1006 408.765 29.3754C407.84 30.6503 406.603 31.8001 405.053 32.825C403.528 33.8499 401.616 34.6873 399.316 35.3372L395.342 31.3252C396.942 31.0002 398.429 30.5753 399.804 30.0503C401.179 29.5254 402.378 28.863 403.403 28.0631C404.453 27.2632 405.266 26.2758 405.841 25.1009C406.441 23.9261 406.74 22.5262 406.74 20.9014C406.74 19.6766 406.453 18.7767 405.878 18.2018C405.303 17.6018 404.578 17.3019 403.703 17.3019C403.228 17.3019 402.766 17.4143 402.316 17.6393C401.891 17.8393 401.541 18.1643 401.266 18.6142C400.991 19.0641 400.854 19.6141 400.854 20.264C400.854 21.1389 401.141 21.8388 401.716 22.3638C402.316 22.8637 402.991 23.1137 403.741 23.1137C404.341 23.1137 404.878 22.9262 405.353 22.5512C405.828 22.1513 406.128 21.5139 406.253 20.639C406.403 19.7641 406.278 18.5892 405.878 17.1144L409.365 18.0518ZM415.102 1.17878C415.577 1.8537 416.052 2.60361 416.527 3.42851C417.002 4.22842 417.402 4.95333 417.727 5.60325L414.577 6.9156C414.202 6.16569 413.802 5.41577 413.377 4.66586C412.952 3.89096 412.502 3.15354 412.027 2.45363L415.102 1.17878ZM420.126 0.128906C420.601 0.803826 421.076 1.54124 421.551 2.34114C422.026 3.11605 422.439 3.84096 422.789 4.51588L419.639 5.82823C419.264 5.07832 418.852 4.3284 418.402 3.5785C417.977 2.80359 417.514 2.07867 417.014 1.40375L420.126 0.128906Z" fill="#035AAB"/>
<path d="M362.628 1.81616C363.528 2.09113 364.653 2.3786 366.003 2.67856C367.353 2.97852 368.765 3.27849 370.24 3.57845C371.715 3.85342 373.102 4.09089 374.402 4.29087C375.727 4.49085 376.802 4.64083 377.627 4.74081L376.502 9.31527C375.752 9.21528 374.839 9.0778 373.764 8.90282C372.715 8.70284 371.59 8.49037 370.39 8.2654C369.215 8.04042 368.053 7.81545 366.903 7.59048C365.753 7.34051 364.703 7.10303 363.753 6.87806C362.803 6.65309 362.028 6.46561 361.428 6.31563L362.628 1.81616ZM362.853 9.35277C362.728 9.85271 362.591 10.5026 362.441 11.3025C362.316 12.0774 362.191 12.8898 362.066 13.7397C361.941 14.5896 361.816 15.402 361.691 16.177C361.591 16.9519 361.503 17.6018 361.428 18.1267C363.128 16.9019 364.903 16.002 366.753 15.427C368.628 14.8521 370.54 14.5646 372.49 14.5646C374.689 14.5646 376.564 14.9646 378.114 15.7645C379.664 16.5644 380.839 17.6143 381.639 18.9141C382.463 20.214 382.876 21.6263 382.876 23.1511C382.876 24.8509 382.513 26.4257 381.789 27.8756C381.064 29.3254 379.876 30.5627 378.226 31.5876C376.577 32.6125 374.414 33.3374 371.74 33.7624C369.065 34.1873 365.778 34.2373 361.878 33.9123L360.454 29.0004C364.203 29.5004 367.353 29.5754 369.902 29.2254C372.452 28.8504 374.377 28.1255 375.677 27.0507C377.002 25.9508 377.664 24.6134 377.664 23.0386C377.664 22.2137 377.427 21.4888 376.952 20.8639C376.477 20.214 375.814 19.714 374.964 19.3641C374.114 18.9891 373.152 18.8016 372.077 18.8016C369.977 18.8016 368.003 19.1891 366.153 19.964C364.328 20.7139 362.828 21.8013 361.653 23.2261C361.328 23.6261 361.053 24.001 360.829 24.351C360.629 24.6759 360.441 25.0259 360.266 25.4009L355.954 24.3135C356.104 23.5886 356.254 22.7387 356.404 21.7638C356.554 20.7639 356.704 19.7015 356.854 18.5767C357.004 17.4268 357.141 16.2769 357.266 15.1271C357.391 13.9772 357.504 12.8398 357.604 11.715C357.704 10.5901 357.779 9.56524 357.829 8.64035L362.853 9.35277Z" fill="#035AAB"/>
<path d="M331.769 28.4754C333.419 28.2254 334.931 27.8629 336.306 27.388C337.681 26.913 338.869 26.3006 339.868 25.5507C340.893 24.8008 341.681 23.8884 342.231 22.8135C342.781 21.7137 343.056 20.4263 343.056 18.9515C343.056 18.2266 342.918 17.5267 342.643 16.8517C342.368 16.1768 341.956 15.5769 341.406 15.052C340.881 14.502 340.243 14.0771 339.493 13.7771C338.744 13.4771 337.894 13.3272 336.944 13.3272C334.569 13.3272 332.357 13.9521 330.307 15.2019C328.257 16.4268 326.32 18.0141 324.495 19.9639V14.6395C326.745 12.5398 329.007 11.0649 331.282 10.215C333.582 9.36514 335.731 8.94019 337.731 8.94019C339.656 8.94019 341.393 9.36514 342.943 10.215C344.518 11.0649 345.768 12.2523 346.693 13.7771C347.617 15.3019 348.08 17.0642 348.08 19.064C348.08 20.9638 347.78 22.6761 347.18 24.2009C346.58 25.7257 345.693 27.063 344.518 28.2129C343.343 29.3628 341.881 30.3376 340.131 31.1375C338.381 31.9125 336.344 32.5374 334.019 33.0123L331.769 28.4754ZM323.258 12.2023C322.858 12.2273 322.346 12.2898 321.721 12.3898C321.096 12.4648 320.421 12.5523 319.696 12.6522C318.996 12.7272 318.283 12.8147 317.559 12.9147C316.834 13.0147 316.159 13.1022 315.534 13.1772L315.046 8.37776C315.596 8.40275 316.109 8.41525 316.584 8.41525C317.084 8.39025 317.659 8.36526 318.308 8.34026C318.908 8.29027 319.621 8.22777 320.446 8.15278C321.296 8.05279 322.146 7.94031 322.995 7.81532C323.87 7.69034 324.683 7.55285 325.433 7.40287C326.183 7.25289 326.77 7.10291 327.195 6.95293L328.695 8.8652C328.47 9.16516 328.207 9.54012 327.907 9.99006C327.632 10.44 327.345 10.9025 327.045 11.3774C326.745 11.8273 326.483 12.2273 326.258 12.5773L324.045 19.6264C323.645 20.2013 323.145 20.9263 322.545 21.8012C321.971 22.6761 321.358 23.6009 320.708 24.5758C320.058 25.5507 319.421 26.4881 318.796 27.388C318.171 28.2879 317.609 29.0753 317.109 29.7502L314.146 25.6632C314.621 25.0633 315.171 24.3759 315.796 23.6009C316.421 22.801 317.059 21.9636 317.709 21.0887C318.383 20.1888 319.046 19.3015 319.696 18.4266C320.346 17.5267 320.946 16.6893 321.496 15.9144C322.071 15.1145 322.545 14.427 322.92 13.8521L322.995 12.8772L323.258 12.2023ZM322.808 4.96566C322.808 4.41573 322.808 3.86579 322.808 3.31586C322.808 2.74093 322.758 2.166 322.658 1.59106L328.132 1.77854C328.007 2.35347 327.857 3.19087 327.682 4.29074C327.507 5.36562 327.332 6.60297 327.157 8.0028C327.007 9.40263 326.857 10.8775 326.707 12.4273C326.583 13.9521 326.47 15.4769 326.37 17.0017C326.295 18.5265 326.258 19.9514 326.258 21.2762C326.258 22.3011 326.258 23.3385 326.258 24.3883C326.283 25.4382 326.308 26.5131 326.333 27.613C326.358 28.7128 326.408 29.8502 326.483 31.0251C326.508 31.35 326.545 31.8 326.595 32.3749C326.645 32.9748 326.695 33.4873 326.745 33.9122H321.571C321.621 33.4873 321.646 32.9873 321.646 32.4124C321.671 31.8625 321.683 31.4375 321.683 31.1375C321.708 29.9127 321.733 28.7753 321.758 27.7255C321.783 26.6756 321.796 25.5632 321.796 24.3883C321.821 23.2135 321.858 21.8512 321.908 20.3013C321.933 19.7264 321.971 19.0015 322.021 18.1266C322.071 17.2267 322.121 16.2518 322.171 15.2019C322.246 14.1271 322.321 13.0397 322.396 11.9398C322.47 10.84 322.533 9.81508 322.583 8.8652C322.658 7.89031 322.708 7.06541 322.733 6.39049C322.783 5.69058 322.808 5.21563 322.808 4.96566Z" fill="#035AAB"/>
<path d="M284.975 17.9391H302.861V21.0887H284.975V17.9391ZM284.45 23.076H303.273V26.3006H284.45V23.076ZM291.537 19.4764H295.549V23.526C295.549 24.4008 295.424 25.3007 295.174 26.2256C294.949 27.1505 294.512 28.0629 293.862 28.9628C293.237 29.8377 292.324 30.6751 291.125 31.475C289.925 32.2749 288.35 32.9873 286.4 33.6123C286.125 33.2123 285.725 32.7249 285.2 32.1499C284.7 31.575 284.213 31.1 283.738 30.7251C285.438 30.2751 286.8 29.7502 287.825 29.1503C288.875 28.5254 289.662 27.8879 290.187 27.238C290.737 26.5631 291.1 25.9007 291.275 25.2507C291.45 24.6008 291.537 23.9884 291.537 23.4135V19.4764ZM295.174 24.5008C295.849 25.9757 296.886 27.238 298.286 28.2879C299.686 29.3128 301.411 30.0252 303.461 30.4251C303.061 30.8001 302.611 31.3125 302.111 31.9624C301.636 32.5874 301.273 33.1498 301.023 33.6497C298.724 32.9998 296.824 31.9624 295.324 30.5376C293.824 29.0878 292.687 27.313 291.912 25.2133L295.174 24.5008ZM286.663 15.5019L290.112 14.527C290.512 15.077 290.887 15.6894 291.237 16.3643C291.587 17.0392 291.825 17.6517 291.949 18.2016L288.275 19.2515C288.15 18.7265 287.937 18.1141 287.638 17.4142C287.363 16.7143 287.038 16.0768 286.663 15.5019ZM297.086 14.4895L301.211 15.6144C300.686 16.3393 300.186 17.0517 299.711 17.7516C299.261 18.4266 298.849 19.0265 298.474 19.5514L295.512 18.539C295.812 17.9391 296.112 17.2642 296.411 16.5143C296.711 15.7394 296.936 15.0645 297.086 14.4895ZM280.326 6.50298H289.737V9.31515H280.326V6.50298ZM297.611 6.50298H307.06V9.31515H297.611V6.50298ZM305.41 1.59106H309.835V30.6126C309.835 31.6375 309.722 32.4624 309.497 33.0873C309.297 33.7122 308.897 34.1997 308.298 34.5496C307.698 34.8996 306.973 35.1246 306.123 35.2246C305.273 35.3245 304.261 35.3745 303.086 35.3745C303.036 34.7746 302.886 34.0622 302.636 33.2373C302.411 32.4374 302.161 31.75 301.886 31.175C302.486 31.2 303.073 31.225 303.648 31.25C304.248 31.25 304.636 31.2375 304.81 31.2125C305.06 31.2125 305.223 31.1625 305.298 31.0626C305.373 30.9626 305.41 30.8001 305.41 30.5751V1.59106ZM280.738 1.59106H292.587V14.302H280.738V11.2274H288.387V4.70319H280.738V1.59106ZM307.735 1.59106V4.70319H299.299V11.3399H307.735V14.4145H295.024V1.59106H307.735ZM278.076 1.59106H282.463V35.3745H278.076V1.59106Z" fill="#035AAB"/>
<path d="M254.417 5.79052C255.567 5.9405 256.854 6.05299 258.279 6.12798C259.729 6.17797 261.191 6.20297 262.666 6.20297C264.166 6.17797 265.603 6.12798 266.978 6.05299C268.353 5.953 269.54 5.85301 270.54 5.75302V10.5899C269.39 10.6899 268.128 10.7774 266.753 10.8524C265.378 10.9024 263.966 10.9274 262.516 10.9274C261.066 10.9274 259.641 10.9024 258.241 10.8524C256.867 10.7774 255.592 10.6899 254.417 10.5899V5.79052ZM257.416 21.8011C257.266 22.426 257.154 22.9885 257.079 23.4884C257.004 23.9634 256.967 24.4508 256.967 24.9507C256.967 25.3507 257.066 25.7256 257.266 26.0756C257.466 26.4006 257.766 26.688 258.166 26.938C258.591 27.163 259.129 27.3379 259.779 27.4629C260.454 27.5629 261.266 27.6129 262.216 27.6129C263.891 27.6129 265.465 27.5379 266.94 27.3879C268.415 27.213 269.977 26.963 271.627 26.638L271.702 31.6999C270.502 31.9249 269.115 32.0999 267.54 32.2249C265.99 32.3499 264.153 32.4123 262.028 32.4123C258.804 32.4123 256.404 31.8749 254.829 30.8C253.254 29.7002 252.467 28.1878 252.467 26.2631C252.467 25.5382 252.517 24.7883 252.617 24.0133C252.742 23.2134 252.905 22.3385 253.104 21.3887L257.416 21.8011ZM248.643 3.27832C248.543 3.52829 248.43 3.87825 248.305 4.32819C248.18 4.77814 248.055 5.21559 247.93 5.64054C247.83 6.06548 247.755 6.39045 247.705 6.61542C247.63 7.14036 247.505 7.82778 247.33 8.67767C247.18 9.50257 247.018 10.44 246.843 11.4898C246.693 12.5147 246.543 13.5646 246.393 14.6395C246.243 15.7143 246.118 16.7517 246.018 17.7516C245.943 18.7515 245.905 19.6264 245.905 20.3763C245.905 20.7262 245.905 21.1262 245.905 21.5761C245.93 22.0261 245.98 22.4385 246.055 22.8135C246.23 22.3885 246.418 21.9636 246.618 21.5386C246.818 21.1137 247.018 20.6887 247.218 20.2638C247.418 19.8138 247.593 19.3889 247.743 18.9889L250.067 20.8262C249.717 21.8511 249.355 22.951 248.98 24.1258C248.63 25.3007 248.305 26.4131 248.005 27.4629C247.73 28.4878 247.518 29.3377 247.368 30.0126C247.318 30.2876 247.268 30.6001 247.218 30.95C247.193 31.3 247.18 31.5749 247.18 31.7749C247.18 31.9749 247.18 32.2124 247.18 32.4873C247.205 32.7873 247.23 33.0623 247.255 33.3122L242.906 33.6122C242.531 32.3124 242.193 30.5876 241.893 28.4378C241.593 26.2631 241.443 23.9009 241.443 21.3512C241.443 19.9513 241.506 18.5265 241.631 17.0767C241.756 15.6268 241.906 14.2395 242.081 12.9147C242.256 11.5648 242.418 10.34 242.568 9.2401C242.743 8.14024 242.893 7.22785 243.018 6.50293C243.068 5.978 243.131 5.39056 243.206 4.74064C243.306 4.06572 243.368 3.4283 243.393 2.82837L248.643 3.27832Z" fill="#035AAB"/>
<path d="M201.21 19.7015H220.183V23.3385H201.21V19.7015ZM201.66 6.46555H220.07V10.0276H201.66V6.46555ZM207.997 17.0393L212.159 17.9017C211.534 19.2015 210.859 20.5389 210.134 21.9137C209.434 23.2885 208.734 24.6259 208.034 25.9257C207.334 27.2006 206.684 28.3379 206.085 29.3378L202.148 28.138C202.747 27.1881 203.385 26.0757 204.06 24.8009C204.76 23.526 205.447 22.2137 206.122 20.8638C206.822 19.489 207.447 18.2141 207.997 17.0393ZM213.284 22.2137L217.446 22.5886C217.096 24.5634 216.571 26.2632 215.871 27.688C215.196 29.0879 214.284 30.2877 213.134 31.2876C212.009 32.2625 210.634 33.0749 209.009 33.7248C207.384 34.3997 205.447 34.9622 203.197 35.4121C203.072 34.7872 202.835 34.1248 202.485 33.4248C202.135 32.7249 201.773 32.15 201.398 31.7C203.872 31.3751 205.91 30.8626 207.509 30.1627C209.134 29.4628 210.409 28.4754 211.334 27.2006C212.259 25.9257 212.909 24.2634 213.284 22.2137ZM215.946 0.578749L219.733 2.11607C219.133 2.94097 218.533 3.76587 217.933 4.59077C217.358 5.39068 216.833 6.07809 216.358 6.65302L213.471 5.37818C213.896 4.72825 214.346 3.95335 214.821 3.05346C215.296 2.12857 215.671 1.30366 215.946 0.578749ZM208.822 0.0913086H212.946V17.5642H208.822V0.0913086ZM202.597 2.11607L205.822 0.766227C206.322 1.46614 206.784 2.25355 207.209 3.12845C207.634 4.00334 207.934 4.76575 208.109 5.41567L204.66 6.91549C204.535 6.26557 204.272 5.49066 203.872 4.59077C203.472 3.69088 203.047 2.86598 202.597 2.11607ZM208.934 8.22784L211.821 9.99013C211.221 10.99 210.434 11.9899 209.459 12.9898C208.509 13.9897 207.484 14.927 206.385 15.8019C205.31 16.6518 204.247 17.3767 203.197 17.9767C202.947 17.5017 202.597 16.9393 202.148 16.2894C201.723 15.6395 201.31 15.1145 200.91 14.7146C201.91 14.2896 202.922 13.7397 203.947 13.0648C204.972 12.3648 205.922 11.6024 206.797 10.7775C207.697 9.92764 208.409 9.07774 208.934 8.22784ZM212.571 9.31521C212.921 9.49019 213.396 9.75266 213.996 10.1026C214.621 10.4526 215.283 10.84 215.983 11.265C216.708 11.6649 217.358 12.0399 217.933 12.3898C218.533 12.7398 218.958 13.0023 219.208 13.1772L216.846 16.2894C216.496 15.9644 216.046 15.5645 215.496 15.0895C214.946 14.6146 214.359 14.1271 213.734 13.6272C213.109 13.1273 212.509 12.6523 211.934 12.2024C211.359 11.7524 210.859 11.39 210.434 11.115L212.571 9.31521ZM222.658 6.91549H236.456V11.0775H222.658V6.91549ZM223.07 0.0913086L227.644 0.766227C227.245 3.34092 226.732 5.84062 226.107 8.26533C225.482 10.665 224.72 12.8898 223.82 14.9395C222.945 16.9643 221.92 18.7516 220.745 20.3014C220.52 20.0014 220.195 19.6515 219.77 19.2515C219.345 18.8516 218.896 18.4641 218.421 18.0892C217.946 17.6892 217.546 17.3643 217.221 17.1143C218.271 15.8144 219.17 14.2771 219.92 12.5023C220.695 10.7025 221.345 8.75278 221.87 6.65302C222.395 4.52828 222.795 2.34104 223.07 0.0913086ZM229.894 9.46519L234.506 9.91514C233.956 14.1896 233.106 17.9517 231.956 21.2013C230.832 24.4509 229.269 27.2506 227.27 29.6003C225.27 31.95 222.695 33.9123 219.545 35.4871C219.395 35.1371 219.17 34.6997 218.871 34.1747C218.571 33.6498 218.246 33.1249 217.896 32.5999C217.546 32.1 217.221 31.7 216.921 31.4001C219.77 30.1502 222.07 28.5254 223.82 26.5257C225.595 24.5259 226.957 22.1137 227.907 19.289C228.857 16.4394 229.519 13.1648 229.894 9.46519ZM225.207 10.2526C225.732 13.4022 226.47 16.3644 227.42 19.139C228.369 21.9137 229.619 24.3509 231.169 26.4507C232.719 28.5504 234.631 30.2002 236.906 31.4001C236.581 31.675 236.218 32.0375 235.818 32.4874C235.419 32.9624 235.031 33.4498 234.656 33.9498C234.306 34.4497 234.019 34.8997 233.794 35.2996C231.269 33.7998 229.182 31.8625 227.532 29.4878C225.907 27.1131 224.595 24.3634 223.595 21.2388C222.595 18.0892 221.783 14.6521 221.158 10.9275L225.207 10.2526ZM205.447 28.1755L207.847 25.1383C209.322 25.6883 210.784 26.3257 212.234 27.0506C213.709 27.7755 215.071 28.5254 216.321 29.3003C217.596 30.0502 218.658 30.7752 219.508 31.4751L216.358 34.6622C215.583 33.9623 214.609 33.2249 213.434 32.45C212.259 31.675 210.984 30.9251 209.609 30.2002C208.234 29.4503 206.847 28.7754 205.447 28.1755Z" fill="#035AAB"/>
<path d="M168.401 2.41602H194.573V34.8496H189.736V6.95297H173.013V34.9246H168.401V2.41602ZM171.551 15.0145H191.724V19.439H171.551V15.0145ZM171.551 27.913H191.761V32.4499H171.551V27.913Z" fill="#035AAB"/>
<path d="M147.704 0.316162H152.091V6.24046H147.704V0.316162ZM139.343 4.25319H161.09V11.6773H156.928V8.07774H143.317V11.6773H139.343V4.25319ZM142.117 11.1149H158.203V14.9769H142.117V11.1149ZM139.868 17.7141H160.902V21.7261H139.868V17.7141ZM144.104 19.6264H148.379C148.304 21.6511 148.129 23.4884 147.854 25.1382C147.604 26.763 147.154 28.2253 146.504 29.5252C145.879 30.8 144.954 31.9124 143.73 32.8623C142.505 33.8372 140.892 34.6621 138.893 35.337C138.768 34.962 138.568 34.5496 138.293 34.0996C138.043 33.6747 137.755 33.2497 137.43 32.8248C137.105 32.3998 136.793 32.0624 136.493 31.8124C138.193 31.3125 139.543 30.7 140.542 29.9751C141.542 29.2502 142.28 28.4003 142.755 27.4254C143.255 26.4255 143.592 25.2882 143.767 24.0133C143.942 22.7135 144.054 21.2512 144.104 19.6264ZM151.041 19.1764H155.241V29.8251C155.241 30.4001 155.266 30.75 155.316 30.875C155.391 31 155.566 31.0625 155.841 31.0625C155.916 31.0625 156.041 31.0625 156.216 31.0625C156.391 31.0625 156.553 31.0625 156.703 31.0625C156.878 31.0625 157.015 31.0625 157.115 31.0625C157.29 31.0625 157.428 30.9625 157.528 30.7625C157.653 30.5626 157.74 30.1501 157.79 29.5252C157.84 28.8753 157.878 27.9129 157.903 26.638C158.178 26.863 158.528 27.088 158.953 27.3129C159.403 27.5379 159.865 27.7379 160.34 27.9129C160.84 28.0879 161.265 28.2253 161.615 28.3253C161.515 30.0751 161.302 31.4375 160.977 32.4123C160.678 33.3872 160.253 34.0621 159.703 34.4371C159.178 34.837 158.465 35.037 157.565 35.037C157.415 35.037 157.228 35.037 157.003 35.037C156.778 35.037 156.541 35.037 156.291 35.037C156.066 35.037 155.841 35.037 155.616 35.037C155.391 35.037 155.203 35.037 155.053 35.037C153.978 35.037 153.141 34.8745 152.541 34.5496C151.966 34.2246 151.566 33.6747 151.341 32.8998C151.141 32.1499 151.041 31.1375 151.041 29.8626V19.1764ZM127.794 1.74099H136.643V5.79051H131.731V35.3745H127.794V1.74099ZM135.293 1.74099H136.005L136.643 1.59101L139.568 3.27831C139.268 4.32818 138.93 5.46555 138.555 6.6904C138.18 7.91526 137.793 9.11511 137.393 10.29C137.018 11.4648 136.655 12.5397 136.305 13.5146C137.455 14.9394 138.205 16.2893 138.555 17.5641C138.905 18.839 139.08 20.0263 139.08 21.1262C139.08 22.326 138.943 23.3259 138.668 24.1258C138.418 24.9257 137.993 25.5382 137.393 25.9631C137.093 26.1631 136.755 26.3256 136.38 26.4505C136.03 26.5755 135.656 26.6755 135.256 26.7505C134.556 26.8255 133.731 26.8505 132.781 26.8255C132.756 26.3006 132.656 25.6631 132.481 24.9132C132.331 24.1633 132.106 23.5259 131.806 23.001C132.156 23.026 132.456 23.0385 132.706 23.0385C132.981 23.0385 133.231 23.0385 133.456 23.0385C133.906 23.0135 134.256 22.901 134.506 22.701C134.731 22.526 134.881 22.2635 134.956 21.9136C135.056 21.5386 135.106 21.0887 135.106 20.5637C135.106 19.6889 134.931 18.689 134.581 17.5641C134.256 16.4392 133.568 15.2519 132.518 14.002C132.768 13.1521 133.018 12.2272 133.268 11.2274C133.543 10.2025 133.806 9.17761 134.056 8.15273C134.331 7.12785 134.568 6.17796 134.768 5.30307C134.993 4.40318 135.168 3.65326 135.293 3.05334V1.74099Z" fill="#035AAB"/>
<path d="M96.2225 2.22852H106.871V6.80297H96.2225V2.22852ZM104.659 2.22852H109.308C109.308 3.42837 109.358 4.79071 109.458 6.31553C109.558 7.81535 109.771 9.42766 110.096 11.1524C110.421 12.8522 110.908 14.602 111.558 16.4018C112.208 18.2016 113.071 19.9889 114.145 21.7637C115.245 23.5135 116.62 25.2008 118.27 26.8256C119.92 28.4504 121.894 29.9502 124.194 31.325C123.869 31.575 123.469 31.9375 122.994 32.4124C122.519 32.8874 122.057 33.3748 121.607 33.8747C121.182 34.3997 120.832 34.8621 120.557 35.2621C118.207 33.8123 116.17 32.1874 114.445 30.3877C112.721 28.5629 111.271 26.6381 110.096 24.6133C108.921 22.5636 107.971 20.5013 107.246 18.4266C106.521 16.3268 105.971 14.2896 105.596 12.3148C105.221 10.3151 104.971 8.45277 104.847 6.72798C104.722 5.00318 104.659 3.50336 104.659 2.22852ZM103.047 10.4775L108.184 11.4149C107.334 15.1145 106.196 18.4766 104.772 21.5012C103.347 24.5259 101.634 27.188 99.6346 29.4878C97.6599 31.7875 95.3726 33.7248 92.7729 35.2996C92.498 34.9746 92.1105 34.5747 91.6106 34.0997C91.1106 33.6498 90.5857 33.1873 90.0358 32.7124C89.5108 32.2624 89.0484 31.9 88.6484 31.625C92.573 29.6502 95.6976 26.8756 98.0223 23.301C100.347 19.7014 102.022 15.4269 103.047 10.4775Z" fill="#035AAB"/>
</svg>
