<svg width="47" height="47" viewBox="0 0 47 47" fill="none" xmlns="http://www.w3.org/2000/svg">
<path d="M42.2068 23.283C42.2068 33.9039 33.6627 42.5138 23.1229 42.5138C12.5832 42.5138 4.03906 33.9039 4.03906 23.283C4.03906 12.6622 12.5832 4.05225 23.1229 4.05225C33.6627 4.05225 42.2068 12.6622 42.2068 23.283Z" fill="white"/>
<path d="M42.209 23.2827C42.2088 12.8279 33.9293 4.32123 23.6172 4.05811L23.125 4.05225C12.5854 4.05225 4.04118 12.662 4.04102 23.2827C4.04102 33.7375 12.32 42.2438 22.6318 42.5073L23.125 42.5142C33.4998 42.5141 41.9407 34.171 42.2021 23.7798L42.209 23.2827ZM46.0547 23.2827C46.0547 35.9998 35.8166 46.3598 23.125 46.3599C10.4333 46.3599 0.195312 35.9999 0.195312 23.2827C0.195474 10.5657 10.4334 0.206543 23.125 0.206543C35.8165 0.206608 46.0545 10.5657 46.0547 23.2827Z" fill="#494949"/>
<path d="M28.0829 28.4955H18.152L15.5679 34.1295H11.7969L23.2752 9.4751L34.348 34.1295H30.5168L28.0829 28.4955ZM26.6556 25.2053L23.2151 17.3176L19.6094 25.2053H26.6556Z" fill="#494949"/>
</svg>
