<svg width="25" height="25" viewBox="0 0 25 25" fill="none" xmlns="http://www.w3.org/2000/svg">
<path d="M2.1483 1.77976C3.64444 0.272099 6.07047 0.271619 7.56674 1.77906L12.3943 6.64378L17.7618 1.23492L17.9049 1.09767C19.4089 -0.271517 21.7315 -0.225576 23.181 1.23492C24.6769 2.74271 24.6764 5.18741 23.1803 6.69507L17.8127 12.1039L23.7395 18.0763L23.8757 18.2205C25.2343 19.7361 25.1889 22.0766 23.7395 23.5372C22.2433 25.0443 19.8171 25.0439 18.3211 23.5365L12.3943 17.5641L7.00749 22.9923C5.51131 24.4995 3.08584 24.4996 1.58974 22.9923C0.0937771 21.4848 0.093375 19.04 1.58905 17.5322L6.97585 12.1039L2.1483 7.23922C0.652569 5.73162 0.652752 3.28746 2.1483 1.77976Z" fill="#035AAB"/>
</svg>
