<svg width="66" height="70" viewBox="0 0 66 70" fill="none" xmlns="http://www.w3.org/2000/svg">
<g clip-path="url(#clip0_913_15763)">
<path d="M8.87402 6.9751C13.7283 2.62297 19.9791 0.427003 26.4814 0.789551C32.9846 1.15092 38.9542 4.02683 43.2979 8.89111C47.6415 13.7555 49.834 20.0198 49.4727 26.5376C49.1721 31.956 47.1366 37.0032 43.6719 41.0513L43.2461 41.5493L43.6826 42.0386L64.0889 64.8911C64.5546 65.4127 64.7885 66.0805 64.75 66.7798C64.7115 67.4786 64.405 68.1169 63.8848 68.5835C63.4011 69.0171 62.7907 69.2495 62.1494 69.2495C62.0959 69.2495 62.0485 69.2482 62.0049 69.2456H62.001C61.305 69.2071 60.6688 68.9007 60.2031 68.3794L39.7959 45.5259L39.3574 45.0347L38.8135 45.4058C34.7906 48.1515 30.0725 49.6138 25.1611 49.6138C24.9312 49.6138 24.701 49.6103 24.4707 49.604L23.7783 49.5747C17.275 49.2127 11.3055 46.3374 6.96191 41.4731C2.61827 36.6088 0.425775 30.3445 0.787109 23.8267C1.14853 17.3096 4.02034 11.3267 8.87402 6.9751ZM25.0996 4.28369C19.9593 4.28369 15.0665 6.14962 11.2158 9.60205C7.06942 13.3198 4.61471 18.4445 4.30566 24.0239C3.99606 29.6031 5.86922 34.968 9.5791 39.1226C13.2893 43.2773 18.4042 45.7376 23.9736 46.0474C29.5439 46.3584 34.8985 44.48 39.0449 40.7622C47.6187 33.0741 48.3523 19.8333 40.6807 11.2417C37.0865 7.21753 32.1746 4.78198 26.8076 4.35205L26.2861 4.31689L25.6924 4.29248C25.4946 4.28696 25.297 4.28369 25.0996 4.28369Z" stroke="#017C0C" stroke-width="1.5"/>
<path d="M26.8193 8.11328L26.9033 8.11816H26.9082C27.5242 8.15081 28.1479 8.21076 28.7568 8.29688C29.9217 8.50708 31.7144 9.00956 33.625 10.2031L33.6533 10.2207C35.8056 11.572 37.6744 13.5155 39.2002 16.0156L39.2021 16.0195C39.2641 16.1195 39.3322 16.2328 39.4092 16.3643C39.5872 16.6688 39.6363 17.0209 39.5479 17.3623C39.4587 17.7042 39.243 17.9872 38.9404 18.165L38.9375 18.168C38.9098 18.1843 38.8855 18.1974 38.8662 18.207C38.6499 18.3156 38.4176 18.358 38.1904 18.3418C37.7694 18.3117 37.3744 18.0808 37.1504 17.6973L37.1494 17.6963C35.4063 14.7208 33.1476 12.6203 30.4189 11.5127H30.418C29.7116 11.2268 28.9867 11.015 28.2627 10.8848H28.2637L28.2285 10.8789L28.2246 10.8779C27.6326 10.7741 27.1904 10.752 26.9609 10.749L26.8174 10.7471L26.7891 10.7451C26.7542 10.7427 26.7211 10.7414 26.6953 10.7402H26.6963C26.0511 10.7071 25.5293 10.2056 25.458 9.57617L25.4502 9.44922V9.44043L25.4521 9.36133C25.4862 8.68116 26.0312 8.14763 26.6924 8.11328H26.8193Z" stroke="#017C0C" stroke-width="1.2844"/>
<path d="M40.4629 20.3496C40.7846 20.3932 41.0719 20.5431 41.2891 20.7773L41.3779 20.8828C41.6029 21.1779 41.6985 21.5403 41.6494 21.9092C41.6058 22.2323 41.4571 22.5208 41.2236 22.7383L41.1182 22.8271C40.8469 23.0345 40.52 23.132 40.1846 23.1084H40.1855L40.0957 23.0986L39.957 23.0732C39.2809 22.9113 38.8191 22.2593 38.9072 21.5527L38.9092 21.54C39.0108 20.7813 39.7115 20.248 40.4629 20.3496Z" stroke="#017C0C" stroke-width="1.2844"/>
</g>
<defs>
<clipPath id="clip0_913_15763">
<rect width="65.5046" height="70" fill="white"/>
</clipPath>
</defs>
</svg>
