<svg width="34" height="32" viewBox="0 0 34 32" fill="none" xmlns="http://www.w3.org/2000/svg">
<path d="M28.9281 9.88373H23.528C22.5597 9.88373 21.9639 9.10164 21.9639 8.20783C21.9639 7.05333 22.6342 6.56918 25.2039 6.234C27.4385 5.93606 28.8909 4.1112 29.5613 2.02564C29.8964 0.982858 30.2689 0.3125 31.5351 0.3125C32.3917 0.3125 33.3972 0.908375 33.3972 1.87667V29.6593C33.3972 31.1117 32.5034 31.7821 31.0882 31.7821C29.7475 31.7821 28.9281 31.0373 28.9281 29.6593V9.88373Z" fill="#C1E1C4"/>
<path d="M10.1621 0.3125C12.8808 0.3125 15.7112 1.46701 17.3498 3.70153C19.8078 7.09057 20.2919 12.0065 20.2919 16.0659C20.2919 20.0881 19.8078 25.0785 17.3498 28.4303C15.7112 30.6276 12.8808 31.7821 10.1621 31.7821C7.40617 31.7821 4.61301 30.6276 2.97435 28.4303C0.479132 25.1158 0.0322266 20.0508 0.0322266 16.0659C0.0322266 11.9693 0.479132 7.12781 2.97435 3.70153C4.57577 1.46701 7.44341 0.3125 10.1621 0.3125ZM10.1621 4.1112C4.53852 4.1112 4.50128 12.1183 4.50128 16.0659C4.50128 20.0136 4.57577 28.0206 10.1621 28.0206C15.7484 28.0206 15.8229 20.0136 15.8229 16.0659C15.8229 12.1183 15.7484 4.1112 10.1621 4.1112Z" fill="#C1E1C4"/>
</svg>
