<svg width="449" height="105" viewBox="0 0 449 105" fill="none" xmlns="http://www.w3.org/2000/svg">
<path d="M411.984 90.5908C409.824 92.0788 408.336 92.6548 407.088 92.6548C405.264 92.6548 403.68 91.0228 403.68 89.1988C403.68 87.3268 404.544 86.6068 408.144 84.7348C409.488 84.0148 410.784 83.1028 411.984 82.1908V73.9828H407.52C405.648 73.9828 404.064 72.3988 404.064 70.5268C404.064 68.6548 405.648 67.0708 407.52 67.0708H411.984V63.5668C411.984 61.5988 413.664 59.9668 415.632 59.9668C417.6 59.9668 419.232 61.6468 419.232 63.6148V68.0788C423.024 65.4868 427.536 63.9508 432.144 63.9508C438.144 63.9508 444.384 67.1188 444.384 73.8868C444.384 76.6228 443.328 79.5988 442.32 82.0948C441.072 85.1668 439.344 89.4868 439.344 91.8388C439.344 92.9428 439.968 93.8068 441.168 93.8068C441.744 93.8068 442.272 93.6148 443.184 93.1348C443.76 92.8468 444.48 92.6548 445.152 92.6548C447.072 92.6548 448.656 94.3348 448.656 96.2068C448.656 99.7588 443.904 101.007 441.072 101.007C435.84 101.007 432.096 97.7908 432.096 92.4148C432.096 90.3028 432.672 88.2388 433.296 86.2228C434.016 84.0148 434.784 81.8068 435.648 79.6468C436.416 77.6788 437.04 75.9988 437.04 74.3668C437.04 73.2148 436.32 72.0148 435.264 71.4868C434.304 70.9588 433.152 70.7668 432 70.7668C428.208 70.7668 424.416 72.2548 421.536 74.7508C420.768 75.4228 420 76.1428 419.232 76.9108V98.5108C419.232 100.479 417.6 102.159 415.584 102.159C413.616 102.159 411.984 100.479 411.984 98.5108V90.5908Z" fill="#5E5E5E"/>
<path d="M389.952 68.5108C390.576 68.6068 391.344 69.0868 392.064 69.7108C393.168 70.7188 394.656 72.3508 395.616 73.5508C397.92 76.4308 398.448 77.1988 398.448 78.4948C398.448 80.4148 396.576 81.8068 394.752 81.8068C393.504 81.8068 393.072 81.4708 391.056 78.5428C385.632 79.2628 372.96 80.2708 370.08 80.2708C367.68 80.2708 366.432 79.2148 366.432 76.7188C366.432 73.6468 368.4 73.4548 370.608 73.4548H371.616C372.48 71.6788 373.008 70.4308 373.536 68.5108H369.312C367.632 68.5108 366.336 68.0788 365.904 66.3028C365.424 67.6948 364.32 68.8468 362.736 68.8468C361.968 68.8468 361.536 68.7028 360.096 67.6468C359.232 67.0228 358.128 66.2068 356.88 65.2948C355.104 63.9988 354.768 63.4228 354.768 62.3668C354.768 60.7828 356.304 58.7668 358.416 58.7668C359.376 58.7668 360.528 59.1988 363.696 61.6468C365.136 62.7508 365.76 63.3268 365.952 63.9988C366.432 62.3668 367.776 61.9348 369.312 61.9348H378.624V61.0708C378.624 58.8628 380.592 58.3828 382.416 58.3828C384.144 58.3828 385.872 59.0548 385.872 61.0708V61.9348H395.136C397.584 61.9348 398.64 62.9428 398.64 65.3908C398.64 67.6948 397.248 68.5108 395.136 68.5108H389.952ZM388.512 68.5108H380.976C380.352 70.1428 379.68 71.7748 378.864 73.3588C382.08 73.2628 383.088 73.2148 386.688 73.0228C386.256 72.4948 385.968 71.9668 385.968 71.2948C385.968 69.8548 387.216 68.7988 388.512 68.5108ZM361.536 81.2308C360.768 81.2308 360.24 80.9908 358.752 79.8868C357.744 79.1668 356.736 78.3988 355.776 77.6788C354.096 76.4308 353.712 75.9028 353.712 74.7988C353.712 73.1668 355.248 71.1508 357.312 71.1508C358.176 71.1508 359.424 71.5828 362.496 73.8868C364.416 75.3268 365.04 76.2868 365.04 77.3908C365.04 79.2628 363.6 81.2308 361.536 81.2308ZM391.92 83.5828V96.2548C391.92 97.0708 392.16 97.1668 392.88 97.1668C394.032 97.1668 394.032 97.0708 394.08 93.7108C394.128 91.4068 394.464 90.6388 396.336 90.6388C398.592 90.6388 398.688 92.2708 398.688 93.4708C398.688 103.455 397.728 103.935 392.832 103.935H391.152C388.464 103.935 387.216 103.503 386.448 102.591C385.872 101.919 385.536 100.479 385.536 98.7508V83.5828C385.536 81.3748 386.592 80.5108 388.752 80.5108C390.912 80.5108 391.92 81.3748 391.92 83.5828ZM383.376 83.9668V100.431C383.376 102.687 382.368 103.407 380.16 103.407C378.144 103.407 377.328 102.351 377.328 100.431V83.9668C377.328 81.7108 378.336 80.9908 380.496 80.9908C382.56 80.9908 383.376 81.9988 383.376 83.9668ZM372.24 80.9908C374.544 80.9908 375.408 81.9988 375.408 84.2068C375.408 89.5828 374.784 95.1988 372.144 99.8068C370.368 102.927 369.072 104.031 367.344 104.031C365.472 104.031 363.552 102.687 363.552 100.671C363.552 99.9508 363.744 99.2788 364.656 98.1748C368.4 93.6148 368.736 89.7748 369.072 84.1108C369.216 81.9028 369.984 80.9908 372.24 80.9908ZM361.488 84.4948C363.216 84.4948 365.04 85.5028 365.04 87.4228C365.04 88.5268 363.792 92.7508 361.536 98.7988C360.192 102.447 359.28 103.695 357.408 103.695C355.536 103.695 353.616 102.351 353.616 100.383C353.616 99.7588 353.856 99.0868 355.2 96.2548C355.632 95.2948 357.072 91.6468 357.84 89.1988C358.992 85.5028 359.568 84.4948 361.488 84.4948Z" fill="#5E5E5E"/>
<path d="M328.608 68.5106C329.52 69.0866 330.288 70.1426 330.288 71.2946C330.288 72.7826 329.76 76.1426 329.328 78.7826C328.848 81.6146 328.272 84.4466 327.648 87.2786C326.88 90.4466 326.16 93.8066 324.576 96.7346C322.896 99.7586 320.112 100.863 316.752 100.863C313.968 100.863 311.52 99.7586 309.504 97.8866C305.616 94.3346 304.08 89.1506 304.08 84.0146C304.08 70.8626 312.96 61.4546 326.208 61.4546C334.32 61.4546 342.624 65.0066 346.176 72.7346C347.424 75.4706 347.904 78.5906 347.904 81.5666C347.904 88.6706 345.216 95.9186 338.832 99.6626C336.72 100.863 334.08 101.823 331.584 101.823C329.472 101.823 327.648 100.191 327.648 98.0786C327.648 96.3506 328.944 94.8626 330.528 94.4306C335.568 93.1346 340.32 90.8786 340.32 81.3746C340.32 73.9826 335.904 69.3746 328.608 68.5106ZM324.864 68.4146C316.224 69.2786 311.328 75.4706 311.328 84.0146C311.328 87.2306 312.432 93.7106 316.656 93.7106C317.232 93.7106 317.808 93.5186 318.24 93.1346C319.296 92.1746 320.208 87.6626 320.544 86.1746C321.504 81.7106 322.416 77.1986 322.944 72.6866C323.136 71.0546 323.376 69.3746 324.864 68.4146Z" fill="#5E5E5E"/>
<path d="M283.344 91.4548C279.12 98.0308 272.88 102.063 264.96 102.063C261.888 102.063 255.552 100.959 255.552 96.9748C255.552 95.1508 257.04 93.3268 258.96 93.3268C259.584 93.3268 260.064 93.4228 261.312 93.7588C262.656 94.1428 264.096 94.5268 265.536 94.5268C270.528 94.5268 274.8 90.9748 277.392 86.9908C280.56 82.0948 281.904 76.3828 282.24 70.6228H261.072C259.104 70.6228 257.424 68.8948 257.424 66.9268C257.424 64.9588 259.104 63.2788 261.072 63.2788H286.128C288.48 63.2788 290.208 65.2468 290.208 67.5508C290.208 70.4788 289.488 74.4628 288.864 77.3908C288.384 79.6468 287.76 81.8548 286.992 84.0628L296.352 95.8228C297.024 96.6388 297.504 97.5028 297.504 98.6068C297.504 100.623 295.872 102.351 293.808 102.351C292.704 102.351 291.6 101.871 290.928 101.007L283.344 91.4548Z" fill="#5E5E5E"/>
<path d="M243.888 65.2949V61.2629C243.888 59.7749 245.136 58.5269 246.624 58.5269C248.112 58.5269 249.36 59.7749 249.36 61.3109V65.2469C249.36 66.7349 248.112 68.0309 246.624 68.0309C244.896 68.0309 243.888 66.8309 243.888 65.2949ZM236.256 65.2949V61.2629C236.256 59.7749 237.504 58.5269 238.992 58.5269C240.48 58.5269 241.728 59.7749 241.728 61.3109V65.2469C241.728 66.7349 240.48 68.0309 238.992 68.0309C237.504 68.0309 236.256 66.8309 236.256 65.2949ZM215.136 70.9589L235.008 67.9349C235.92 69.2309 237.36 70.0469 238.944 70.0469C240.336 70.0469 241.632 69.4709 242.544 68.4629C243.12 69.1349 243.456 69.9989 243.456 70.8629C243.456 72.5909 242.112 74.1749 240.384 74.4149L214.992 78.2549V80.0789C214.992 83.2949 215.184 86.7509 216.768 89.6309C219.024 93.7109 223.92 94.6229 228.192 94.6229C232.032 94.6229 235.776 93.7589 239.232 91.9349C240 91.5509 241.104 91.1189 241.68 91.1189C243.648 91.1189 245.232 92.8469 245.232 94.8149C245.232 95.9189 244.656 96.8789 243.792 97.5989C241.776 99.3269 238.128 100.527 235.536 101.151C233.136 101.727 230.64 102.015 228.192 102.015C221.136 102.015 214.272 100.191 210.48 93.7589C208.128 89.7269 207.504 84.6389 207.504 80.0309C207.504 78.9269 207.504 78.1109 207.552 76.7669L207.84 64.6229C207.888 62.5109 209.376 60.6869 211.584 60.6869C213.6 60.6869 215.328 62.4149 215.28 64.4309L215.136 70.9589Z" fill="#5E5E5E"/>
<path d="M160.416 76.959H191.712C193.824 76.959 195.648 78.735 195.648 80.847C195.648 82.959 193.872 84.735 191.76 84.735H160.464C158.352 84.735 156.528 82.959 156.528 80.847C156.528 79.791 157.008 78.783 157.776 78.015C158.448 77.343 159.504 76.959 160.416 76.959Z" fill="#5E5E5E"/>
<path d="M134.64 76.7189H118.032V82.3349C118.032 84.3509 116.304 86.0789 114.288 86.0789C112.272 86.0789 110.592 84.3509 110.592 82.3349V76.7189H107.76C105.84 76.7189 104.16 75.0869 104.16 73.1189C104.16 71.1509 105.84 69.4709 107.808 69.4709H110.592V63.9989C110.592 61.9829 112.272 60.3029 114.288 60.3029C116.352 60.3029 118.032 61.9829 118.032 63.9989V69.4709H134.736V64.1429C134.736 62.0789 136.32 60.2549 138.432 60.2549C140.64 60.2549 142.176 62.0789 142.176 64.1909V69.4709H144.816C146.784 69.4709 148.416 71.1509 148.416 73.1189C148.416 75.0869 146.784 76.7189 144.816 76.7189H142.08C141.84 83.4869 140.784 92.3669 135.792 97.4069C132.336 100.959 127.44 102.063 122.64 102.063C119.232 102.063 110.016 100.815 110.016 96.2069C110.016 94.2389 111.696 92.5109 113.712 92.5109C114.576 92.5109 115.344 92.8949 116.112 93.2789C118.272 94.2869 120.672 94.6709 122.976 94.6709C127.728 94.6709 130.992 92.9429 132.816 88.4309C134.16 85.1189 134.496 80.3189 134.64 76.7189Z" fill="#5E5E5E"/>
<path d="M82.5613 38.4519C82.316 39.4238 81.6047 40.3506 80.5976 40.61C79.6679 40.8495 78.7236 40.3905 77.3249 38.8095L79.7496 48.2222C80.2885 50.3139 79.5484 51.2893 77.5342 51.8082C75.6361 52.2971 74.6307 51.4409 74.1717 49.659L72.3557 42.6092C71.6521 45.971 70.7371 46.9089 69.8075 47.1484C68.1418 47.5774 66.3271 46.1448 65.918 44.5567C65.6885 43.6658 65.7536 43.2772 66.9867 40.6878C67.8183 38.9453 69.2168 35.074 69.7426 32.6254L66.5275 33.4536C64.552 33.9625 63.4228 33.4273 62.9039 31.413C62.425 29.5537 63.4562 28.5859 65.1605 28.1469L68.4143 27.3087L66.0794 18.2446C65.5406 16.1529 66.2806 15.1774 68.2949 14.6586C70.1542 14.1796 71.2083 15.0646 71.6573 16.8077L73.9922 25.8718L76.7424 25.1634C78.6792 24.6645 79.8084 25.1997 80.3273 27.2139C80.8062 29.0732 79.7751 30.0411 78.1094 30.4701L75.4754 31.1486C77.8096 33.3149 78.8238 34.0449 81.4555 35.7627C81.8065 36.0028 82.1774 36.3203 82.3646 36.7264C82.5424 35.8132 83.0636 35.4311 83.9146 35.0467L92.2785 31.116L87.5089 12.6004C86.8902 10.1988 87.9425 9.4734 90.1117 8.91462C92.0485 8.41571 93.1014 9.13582 93.5903 11.0339L98.0606 28.3873L98.3605 28.2688C100.585 27.2827 101.799 28.7875 102.307 30.763C102.707 32.3124 102.082 33.093 100.679 33.7434L99.5673 34.2364L101.673 42.4096C102.291 44.8112 101.21 45.5853 99.0411 46.1441C97.1044 46.643 96.0802 45.8742 95.5913 43.9761L93.7852 36.965L86.8909 40.1867C86.3786 40.4426 86.0399 40.5711 85.73 40.651C84.0644 41.08 83.0567 39.8939 82.5613 38.4519ZM73.9111 22.6709C73.8213 22.3222 73.819 21.9924 73.8606 21.0316C73.9122 20.1096 73.8917 18.5866 73.8582 17.9756C73.7378 16.0652 74.0143 15.3745 75.3313 15.0352C76.5321 14.7259 78.0375 14.9577 78.3967 16.3521C78.5164 16.817 78.692 18.3001 78.4532 21.5421C78.364 22.6391 78.1873 23.7172 76.9865 24.0265C75.8245 24.3259 74.2504 23.9879 73.9111 22.6709ZM62.1712 18.4665C63.2171 18.1971 63.7429 18.4747 64.567 19.7495C66.1663 22.2702 66.9452 24.0109 67.0649 24.4757C67.4142 25.8315 66.0919 26.7917 64.9686 27.0811C63.6903 27.4103 63.1609 26.638 62.5206 25.2746C62.0874 24.3949 61.3995 23.1677 60.8701 22.3953C60.3407 21.623 60.1635 21.2556 60.0836 20.9457C59.7643 19.7061 61.1253 18.736 62.1712 18.4665ZM79.547 17.1298C79.1479 15.5803 80.0681 14.0215 81.6176 13.6224C82.3923 13.4228 83.0719 13.4956 85.048 14.4322C87.5401 15.6077 88.0959 16.0015 88.3752 17.0861C88.7744 18.6355 87.924 20.4655 86.2971 20.8846C85.5611 21.0742 85.2601 21.0278 83.575 20.0988C82.9905 19.7537 82.3185 19.3899 81.4228 18.9597C80.0013 18.2519 79.7466 17.9045 79.547 17.1298ZM80.8719 27.4041C80.4828 25.8934 81.3431 24.1021 82.9313 23.693C83.706 23.4935 84.5018 23.5363 87.481 24.9994C89.0874 25.7834 89.5845 26.1097 89.8439 27.1169C90.2331 28.6276 89.2289 30.6624 87.6795 31.0615C86.9823 31.2411 86.6037 31.2147 85.0648 30.3719C84.2954 29.9506 83.6721 29.6155 82.8252 29.214C81.3162 28.4875 81.0715 28.1788 80.8719 27.4041Z" fill="#494949"/>
<path d="M32.3296 26.7317L54.1377 21.1139C56.1132 20.605 57.1262 21.1702 57.6451 23.1844C58.0841 24.8888 57.2378 25.9329 55.6109 26.352L54.9524 26.5216L55.9203 30.279L57.5085 29.8698C59.5615 29.341 60.497 29.9261 61.0259 31.9791C61.5048 33.8384 60.6186 34.7276 58.8755 35.1766L57.2874 35.5857L58.2952 39.498L59.0311 39.3084C60.9679 38.8095 61.9434 39.5496 62.4223 41.4089C62.8913 43.2294 61.9376 44.1773 60.272 44.6064L30.7943 52.1998C28.8963 52.6887 27.767 52.1535 27.2681 50.2167C26.7892 48.3574 27.6942 47.3808 29.4373 46.9318L31.4128 46.4229L30.405 42.5106L27.4611 43.269C25.4468 43.7878 24.4626 43.174 23.9437 41.1597C23.4747 39.3392 24.4284 38.3913 26.094 37.9622L29.464 37.0941L28.8354 34.6538C27.7414 36.34 26.9339 37.3741 25.8493 37.6535C24.3386 38.0427 22.6512 36.7838 22.2721 35.3118C21.9128 33.9174 22.819 33.1057 24.0779 31.4183C25.2792 29.8283 25.9183 28.3006 26.74 26.5193C27.1414 25.6724 27.6901 25.0767 28.6198 24.8372C29.8981 24.5079 31.8994 24.9011 32.2786 26.3731C32.3085 26.4893 32.2997 26.6155 32.3296 26.7317ZM35.9333 31.4209L33.5317 32.0396L34.4996 35.7969L36.9012 35.1783L35.9333 31.4209ZM42.867 29.6348L40.4267 30.2635L41.3945 34.0208L43.8349 33.3922L42.867 29.6348ZM49.8006 27.8487L47.3216 28.4873L48.2895 32.2447L50.7685 31.6061L49.8006 27.8487ZM38.2683 40.485L35.8667 41.1037L36.8745 45.016L39.2761 44.3973L38.2683 40.485ZM45.2019 38.6989L42.7616 39.3276L43.7694 43.2398L46.2097 42.6112L45.2019 38.6989ZM52.1355 36.9128L49.6565 37.5514L50.6643 41.4637L53.1433 40.8251L52.1355 36.9128ZM32.5585 51.9932C33.9917 51.624 35.9144 51.8722 36.3435 53.5378C36.6628 54.7774 36.2421 56.9923 35.9504 58.2654C35.3207 61.1124 34.9715 62.4829 33.2672 62.9219C31.679 63.331 29.6078 62.6667 29.1588 60.9236C28.9093 59.9552 29.3595 59.1371 29.8348 57.7754C30.1201 56.9584 30.3178 56.1227 30.4769 55.2969C30.7861 53.7715 30.7767 52.4522 32.5585 51.9932ZM56.0798 48.5364C55.6507 46.8707 57.3105 45.6171 58.7437 45.2479C60.2931 44.8488 60.8014 45.3787 63.0393 47.6523C64.6615 49.2997 65.6593 50.4471 65.8788 51.2993C66.3578 53.1586 64.5055 54.6271 63.0336 55.0062C61.368 55.4353 60.6924 54.5767 59.41 52.9657C58.9792 52.4157 58.4797 51.7596 57.8441 51.0559C56.7489 49.851 56.2195 49.0787 56.0798 48.5364ZM47.1695 50.6664C46.7404 49.0008 48.4512 48.1058 49.807 47.7565C51.7825 47.2476 52.2731 48.03 53.8725 50.5507C54.5005 51.5455 55.6491 53.4388 55.8886 54.3684C56.3476 56.1503 54.5605 57.2302 53.0498 57.6194C50.7257 58.2181 50.1352 57.0484 49.3452 55.104C49.0195 54.3205 48.6163 53.5569 48.1743 52.8033C47.5064 51.6536 47.2593 51.0151 47.1695 50.6664ZM38.7287 53.3365C38.2397 51.4384 39.2034 50.5293 40.9465 50.0803C42.4572 49.6911 43.6715 49.9153 44.2843 51.4923C44.8671 52.9531 45.562 55.1698 45.9512 56.6805C46.3104 58.075 46.4572 59.6068 43.5908 60.3452C41.8089 60.8042 40.5547 60.4251 40.0658 58.527C39.8662 57.7523 39.7441 56.9576 39.5545 56.2217C39.3051 55.2533 38.9781 54.3049 38.7287 53.3365Z" fill="#494949"/>
<path d="M134.6 21.6993C135.594 20.3741 137.475 20.1064 138.8 21.1007L136.715 23.879C136.804 23.7598 136.9 23.6338 137 23.5001C138.8 21.1005 138.803 21.1031 138.807 21.1056C138.808 21.1065 138.811 21.1087 138.814 21.1104C138.818 21.1141 138.824 21.118 138.829 21.1222C138.84 21.1306 138.853 21.1409 138.866 21.1515C138.893 21.1726 138.925 21.198 138.961 21.2276C139.033 21.287 139.123 21.3637 139.227 21.4581C139.433 21.6464 139.698 21.9084 139.985 22.2442C140.556 22.9111 141.246 23.9072 141.72 25.2286C142.731 28.0479 142.54 31.7251 139.646 35.8956C136.853 39.9192 131.525 44.4567 122.186 49.545C112.803 54.6572 99.1478 60.4441 79.4268 66.8536C59.7695 73.2424 45.0527 77.4607 34.0792 79.9893C23.1785 82.5012 15.7182 83.4082 10.6963 82.9923C8.16493 82.7826 6.00936 82.22 4.30768 81.1524C2.51709 80.0291 1.41423 78.4615 0.88287 76.6642C0.382238 74.9707 0.425279 73.203 0.622128 71.6153C0.820246 70.0177 1.21217 68.3453 1.58307 66.7999C1.9698 65.1889 3.5892 64.1964 5.20025 64.5831C6.81119 64.9699 7.80369 66.5893 7.41705 68.2003C7.038 69.7796 6.7269 71.1386 6.57623 72.3536C6.42433 73.5787 6.47213 74.4059 6.63678 74.963C6.77077 75.4162 6.99436 75.7556 7.49615 76.0704C8.08689 76.4409 9.19082 76.847 11.1915 77.0128C15.2341 77.3477 21.9312 76.6314 32.7315 74.1427C43.4594 71.6706 57.9883 67.5116 77.5723 61.1466C97.0929 54.8022 110.372 49.1494 119.315 44.2765C128.303 39.3798 132.695 35.3866 134.717 32.4737C136.636 29.7082 136.355 28.0428 136.072 27.254C135.899 26.7714 135.641 26.3963 135.425 26.1436C135.319 26.0199 135.232 25.9345 135.184 25.8907C135.163 25.8719 135.15 25.862 135.148 25.8604C135.15 25.8613 135.154 25.865 135.162 25.8712C135.166 25.8744 135.172 25.8782 135.178 25.8829C135.181 25.8852 135.184 25.888 135.188 25.8907C135.189 25.8921 135.193 25.8949 135.193 25.8956V25.8946C133.874 24.8991 133.607 23.0225 134.6 21.6993Z" fill="#C1E1C4"/>
</svg>
