<svg width="25" height="25" viewBox="0 0 25 25" fill="none" xmlns="http://www.w3.org/2000/svg">
<path fill-rule="evenodd" clip-rule="evenodd" d="M1.65002 13.5106L2.03003 13.4607L2.38 13.5706L2.73004 13.6407H3.11005L3.41003 13.9507L3.79004 13.9007L4.13 14.0507L4.51001 14.0607L4.85004 14.2007L5.09998 14.5207L5.48999 14.5407L5.80005 14.7307L6.04004 15.0307L6.38 15.1508L6.76001 15.2308L6.96997 15.5508L7.34009 15.6508L7.48999 16.0308L7.84998 16.1708L7.98999 16.5409L8.25 16.7909L8.62 16.9109L8.90002 17.151L9.09998 17.461L9.37 17.691L9.45007 18.0911L9.84998 18.231L10.0801 18.5111L10.3 18.7911L10.4 19.1611L10.7001 19.3912L10.8101 19.7512L10.88 20.1312L11.1 20.4013L11.42 20.6413L11.55 20.9712L11.79 21.2513L11.89 21.6013V22.0114L12.05 22.3314L12.22 22.6414L12.37 22.9615L12.63 23.2415L12.8301 23.5415L12.86 23.9215L13.0901 24.2016L13.1901 23.8416L13.3401 23.5015L13.26 23.0915L13.35 22.7314L13.49 22.3814L13.7001 22.0614L13.9301 21.7513L13.97 21.3613L14.1901 21.0513L14.28 20.6812L14.5801 20.4212L14.8 20.1112L14.85 19.7112L15 19.3912L15.3101 19.1611L15.48 18.8411L15.65 18.531L15.77 18.171L16.1 17.971L16.3401 17.701L16.51 17.371L16.77 17.131L17.12 16.961L17.1901 16.5409L17.5801 16.4209L17.8 16.1309L18.0601 15.8808L18.37 15.7008L18.65 15.4708L18.91 15.2308L19.22 15.0608L19.51 14.8408L19.6901 14.4707H20.11L20.4 14.2507L20.61 13.9106H21.02L21.3101 13.6806L21.63 13.5406L21.9501 13.3606L22.26 13.1806L22.63 13.1506L22.99 13.0906L23.35 13.0606L23.65 12.7905L23.99 12.6605L24.26 12.7006L23.99 12.6806L23.63 12.5906L23.36 12.2505L22.9301 12.3906L22.5801 12.2905L22.25 12.1305L21.9601 11.8805L21.65 11.6705L21.27 11.6405L20.9501 11.4804L20.62 11.3205L20.23 11.2804L20.03 10.8804L19.6 10.9204L19.26 10.7604L19.01 10.4804L18.66 10.3404L18.49 9.94033L18.04 9.9703L17.8201 9.64031L17.52 9.43027L17.28 9.16023L17.04 8.88024L16.67 8.75022L16.47 8.43019L16.27 8.13017L15.86 8.01017L15.73 7.64014L15.37 7.47008L15.17 7.16006L15.1 6.77007L14.8201 6.52005L14.6 6.21997L14.4301 5.88999L14.37 5.50995L14.17 5.19993L13.8301 4.94991L13.73 4.58989L13.7101 4.19984L13.47 3.88982L13.4501 3.50978L13.3 3.16972L13.28 2.7997L13.27 2.41966L13.23 2.05964L12.88 1.74962L13.0701 1.33961L12.78 1.00956L12.91 0.519531L12.9401 0.989543L12.91 1.34956L12.9 1.70964L12.78 2.04963L12.77 2.40965L12.62 2.7497L12.4501 3.06974L12.4601 3.43977L12.38 3.78977L12.11 4.07984L11.98 4.40982L11.9501 4.7699L11.8201 5.10989L11.8101 5.48993L11.55 5.75997L11.39 6.08001L11.3401 6.46005L11.0601 6.71007L11 7.09011L10.6801 7.3101L10.39 7.55011L10.4 7.98014L10.1801 8.2702L9.77002 8.40022L9.75 8.85021L9.34998 8.97021L9.14001 9.26028L8.95007 9.5703L8.63 9.7403L8.5 10.1404L8.09998 10.2203L7.92004 10.5604L7.65002 10.8004L7.40002 11.0604L6.97998 11.0704L6.77002 11.4204L6.37 11.4405L6.16003 11.7905L5.83008 11.9305L5.5 12.0705L5.09998 12.0305L4.81006 12.2405L4.51001 12.4606L4.12006 12.4205L3.83002 12.6705L3.52002 12.8606L3.14001 12.8206L2.82001 13.0406L2.42004 12.8406L2.10004 13.0306L1.76001 13.1206L1.42004 13.2906L1.05005 13.1606L0.720032 13.4106L0.360046 13.3406H0L0.320007 13.4306L0.670044 13.2506L1 13.3506L1.32001 13.4406L1.65002 13.5306V13.5106Z" fill="#D1CB90"/>
<path d="M15.2937 8.02979C15.5037 8.06979 15.7237 8.04979 15.9437 8.02979L15.8636 8.00983L15.7336 7.63983L15.3737 7.46979L15.1737 7.15979L15.1036 6.75983L14.8237 6.50983L14.6637 6.2998C14.5437 6.5898 14.4438 6.83983 14.3438 7.07983C14.9937 7.05983 15.3137 7.36984 15.2837 8.01984L15.2937 8.02979Z" fill="white"/>
<path d="M17.8231 9.64032L17.5231 9.4303L17.2731 9.16028L17.0331 8.88031L16.6631 8.75031V8.73029C15.8431 8.98029 15.7631 8.85027 15.2831 8.03027C14.9731 8.03027 14.6531 8.03027 14.3431 8.03027C14.2331 8.30027 14.1531 8.78028 14.0131 8.79028C12.8531 8.92028 12.1231 9.60031 11.4531 10.5703C11.5531 10.9303 11.6731 11.3403 11.8131 11.8203C12.6831 11.0803 13.4531 10.4203 14.1431 9.83032C14.6131 10.0203 14.9031 10.1103 15.1431 10.2503C15.5131 10.4703 15.853 10.7303 16.223 10.9903C16.873 10.7203 17.3531 10.2003 17.8831 9.73029L17.8231 9.63031V9.64032Z" fill="white"/>
<path d="M18.4663 11.9209C17.8063 12.9609 18.2562 14.0709 18.1262 15.1009C17.7962 15.4509 17.4863 15.7809 17.1562 16.1309V16.7109L17.1863 16.5309L17.5763 16.4109L17.7963 16.1209L18.0563 15.8709L18.3762 15.6909L18.6462 15.4609L18.9163 15.2209L19.2262 15.0409L19.5062 14.8309L19.6462 14.5409C19.4562 14.4509 19.2662 14.3409 19.1062 14.2109C18.6762 13.5209 19.7863 12.3809 18.4663 11.9209Z" fill="white"/>
<path d="M12.3147 22.8301L12.3746 22.9601L12.6246 23.2401L12.8347 23.54L12.8546 23.92L13.0947 24.2001L13.1847 23.8401L13.3447 23.5001L13.2646 23.0901L13.3546 22.73V22.7001C13.1846 22.5501 13.0047 22.42 12.8347 22.29C12.6447 22.49 12.4747 22.6701 12.3047 22.8401L12.3147 22.8301Z" fill="white"/>
<path d="M12.0203 4.29004L11.9702 4.40009L11.9403 4.77008L11.8203 5.10004V5.48004L11.5703 5.73004C11.7103 5.87004 11.8402 6.00008 11.9802 6.14008C12.6402 5.53008 12.6503 4.91004 12.0203 4.29004Z" fill="white"/>
<path d="M7.72241 10.73L7.65247 10.79L7.40247 11.05H6.98242L6.8125 11.36C7.0025 11.52 7.2325 11.65 7.5625 11.67C7.6225 11.34 7.68242 11.03 7.73242 10.73H7.72241Z" fill="white"/>
<path d="M13.8694 15.6002C14.5494 14.9702 14.5494 14.3402 13.8694 13.7002C13.1894 14.3302 13.1894 14.9602 13.8694 15.6002Z" fill="white"/>
<path d="M14.5238 17.8C14.5738 18.02 14.7138 18.22 14.8238 18.43C14.9338 18.33 15.0338 18.22 15.1638 18.09C15.0538 17.89 14.9438 17.69 14.8238 17.48C14.7238 17.58 14.5138 17.71 14.5238 17.79V17.8Z" fill="white"/>
<path d="M13.5943 7.40979C13.4643 7.97979 13.8843 8.06979 14.3443 8.03979V7.08984C14.0843 7.18984 13.6343 7.24979 13.5943 7.40979Z" fill="white"/>
<path d="M10.2434 8.17993L10.1835 8.25995L9.85339 8.36993C9.85339 8.36993 9.80344 8.39991 9.77344 8.40991V8.65991C9.82344 8.73991 9.88347 8.79992 9.93347 8.78992C10.1535 8.73992 10.3535 8.59993 10.5635 8.48993C10.4635 8.38993 10.3634 8.28992 10.2434 8.16992V8.17993Z" fill="white"/>
</svg>
